<svg version="1" xmlns="http://www.w3.org/2000/svg" width="600" height="400" viewBox="0 0 450.000000 300.000000"><path d="M0 150v150h60l2-2c2-3 5-2 4 1 0 2 2 1 5-2 1-1 3-2 4-2s1 0-1 1c-3 1-3 2 1 2 2-1 2-1 1 1-2 1-2 1 8 1 6 0 11-1 10-1-1-1-1-1 0-1 1-1 0-1-1 0h-2l2-2c3-2 6-1 4 2 0 2 2 2 4 0 1-1 1-1-1-2-2 0-3-2 0-2 1 0 1-1 1-1-1-1 1-3 3-4s4-3 4-3c0-1 1-1 2-1s2 0 2-1 1-1 1-1c1 0 2 0 2-1s2 0 3 1c2 2 3 2 5 1 3-1 4-1 4 1-1 2 1 4 2 2 1 0 2-1 3-1s2 0 2-1 1-1 2-1h3l-3 1c-2 2-1 4 2 4 1 0 2 1 3 1 1 1 1 1 1 0s-1-2-2-3c-2-1-2-1-1-1s2 0 1-1c0-1 0-1 1-1 1 1 2 0 2 0 1-1 1 0 1 0-1 3 2 4 5 3 1-1 2-1 3-1 0 1-1 5-2 5s-1-1-1-2c1-1 0-1-2 1-1 0-2 1-3 1 0-1-1-1-1 0l1 1c1 1 1 1 0 3s-1 5 0 4c1 0 1-1 0-1 0-1 1-1 2-2 2-1 2-1 2 0s-1 2-1 2c-1 1-1 1 0 2 2 0 3 0 3-1 0 0 1-1 1 0 1 0 2-1 3-2s2-1 1 2c0 2 2 1 3-1 1 0 2-1 3-1 0 0 2 0 2-1 7-5 7-6 6-6s-2 0-3 1c0 1-1 1-2 0 0-1-1-2 0-2 0-1 0-1-1-1s-1 1-1 1c0 2-2 3-2 1-1-1-1-1 0-1 0 0 1-1 1-2s-1-2-1-1c-2 1-3-1-2-3 1-1 5-2 5 0-1 1-1 1 0 1 0 0 1 0 2-1 0-1 0-1-1-1s-1 0-1-1c0-2 0-2-1-1-1 0-3 1-4 1-2 1-3 1-3 2 1 0 0 1-1 1-2 1-2 1-1 0 0-1 0-1-1-1s-1-1-1-2 0-2-1-1c-1 0-1 1 0 1 0 1-1 1-1 1-1 0-2 0-2-1v-2c0-1 0-2 1-2 1-1 1-1 0-1-2 0-3-2-1-2 1-1 1-1-1-1-1 0-2 0-1-2 0-1 1-1 2 0 2 0 2 0 1-1s0-1 2-2c3-1 3-2 1-2s-2-1-1-2c2-1 2-1 4 1s2 2 3 1 2-2 4-3c3 0 3 0 1-1h-3c-1 1-1 1-2 0s-2-1-3-1c-2 2 0-2 7-9 2-2 3-4 3-5 1-1 2-2 6-2h15c4 1 6 1 7 0 0-1 1-1 2 0 1 0 2 0 3-1 0-2 8-3 8-1 1 1 1 1 2 0s1-1 1 0c1 1 1 1 1 0 0 0 0-1 1-1s1 1 0 1c0 1 0 2 1 2s1 0 0-1c0-1 0-1 2-1 1 1 2 1 2 0 0-2 5 0 7 2 0 1 1 2 6 1 5 0 6 0 6 2 1 2 0 3-1 3s-1 0-1 1h5c4 0 5 1 2 2-1 1-1 1 0 2s2 4 1 5c0 0 0 2 1 3l3 3v-2c0-2-1-3-2-3s-1 0 0-1c0 0 1-1 0-1 0-1 0-1 1-1s1-1-1-2c-1-1-1-1 1 0 2 0 2 0 1-1s-1-2 0-3c0-1 1-1 1 1 1 1 1 2 2 1s4-1 4 0c-1 2 0 3 2 1 1-2 4 0 3 2 0 1-1 2-1 2-1 0-1 0-1-1 1-1 0-1-1 0s2 3 4 3c1 0 2 1 2 2 0 0 0 1-1 1 0-1-1-1-1 0-1 1-1 1 0 1 0 0 1 1 0 3v2l2-2c1-1 1-2 1-3-1 0-1-1 0-1l2 2c0 1 1 1 1 0 0 0 0-1 1-1s1 1 1 1c-1 1 0 2 3 1 3 0 4 0 4 1 0 0-1 1-2 1s-2 1-2 1c0 3 3 5 4 5 1-1 1-2 0-2-1-1 0-2 2-4s3-3 3-1c-1 1 0 2 1 3s1 1 1-1c-1-3 1-6 3-4 0 1 0 2-1 2-1 1-1 1 0 2 1 0 1 1-1 2-1 2-1 2 2 1 3 0 4 0 4 2 0 1 0 1 1 0 1-2 1-2 3 0s3 3 3 2c0-3 5-5 6-3 0 1 2 1 4 1 2 1 4 1 4 2s1 1 2 1c3 0 4 0 3 1s-1 2 2 2c1 1 2 1 3 1 0-1-5-10-6-10 0 0-1-1-1-2 0-3 0-3 3-2s3 3 0 3c-1 0-1 0 0 1 4 5 5 6 5 7s0 1 1 1 1 0 0-1c0-1 1-1 2-2 1 0 2-1 2-1 0-1 0-1 1 0 1 0 2 1 3 0 1 0 2 0 2 1 1 1 1 1 1-1 0-3 0-3-1-2-2 1-2 1-3 0-2-1-2-1-4 0-3 2-5 2-5 1s1-2 2-2 2 0 2-1c1 0 2-1 3-1 0 0 1 0 1-1-1-1 2-3 5-3 1 0 2 1 3 2 2 2 2 2 2 0 0-1 0-1 1 1s1 2 2 1c0-1 1-1 1-1 1 0 0 2-1 3-2 3-2 3-1 3s2 1 1 1c0 1 0 2 1 2s4 2 6 4c4 3 4 4 2 4-1 0-2-1-2-1-1-2-4 1-4 3 0 1 4 1 5 0 0-1 1-1 1 0 2 1 6 1 6 0-1 0-1-2 0-3 0-1 0-1 2 1 0 1 1 1 1 0 0 0 0-1 1-1s1 1 0 2c0 3 2 3 4 0 1-1 1-1 1 0 0 3 0 4 1 4s1-1 1-1c-1-1-1-2 0-2s1 0 1 1c0 0 1 1 2 1 1 1 1 1 0 1-4 0-2 2 2 2 2 0 3 0 3 2-1 2 4 4 5 1 0-2 2-3 2-1 0 1 0 1 1 1 0-1 1 0 2 0 1 1 1 1 1 0 0 0 0-1 1-1s1 1 1 1c0 1 1 2 3 2s2-1-4-5c-3-3-6-5-6-6 1 0 2 0 2 1 2 1 3 0 2-2 0 0 0-1 1-1s1 1 1 2c0 2 3 4 4 3s1-1 0-1-2 0-1-1c0-1 1-1 2 0s2 1 2 0c1-1 6-1 7 0 0 1 0 1-1 1-4-1-6 0-5 1 1 0 2 1 3 0 2 0 2 0 0 1-3 2-3 2-1 3 2 2 2 2 3-1 0-1 1-2 1-2 1 0 1 1 1 1-1 2 0 2 4 2 1 0 2 1 3 2 2 2 3 3 3 1-1-3 4-4 5-2 1 1 2 1 2 0 1-1 1-1 1 0 1 1 1 1 0 1s-1 0 0 1c0 1 1 1 3 1h2l-2-2c-2-3-3-5-1-3 1 1 2 1 3 0s1-1 1 0c-1 5 1 5 14 5h13V0h-66c-55 0-66 0-66 1 1 1 0 2 0 3-1 1-1 1-1-1V0h-23c-17 0-24 0-24 1s0 1 1 0c1 0 1 0 1 1s-1 1-1 1c-1 0-2-1-2-2s-1-1-4-1-4 0-3 1c0 1-1 1-1 1-1 0-2 0-2-1 1-1-47-1-129-1H0v150zm144-72c-1 8-2 12-3 15 0 1-1 6-2 9-1 4-3 15-4 24-2 10-4 22-5 26-1 5-2 9-2 8 0-3 3-23 5-33 1-4 2-9 2-12 2-13 2-16 1-17v-4c1-1 1-1 1 0 0 5 2 0 4-11 2-12 3-14 3-5zm197 9c2 5 11 27 12 31 2 10 1 22-3 26s-14 24-18 35c-3 6-5 17-7 30-1 3-2 4-3 4l-1 1c0 1-1 2-2 1-1 0-1-1 0-1 1-1 1-4 1-7s0-8 1-12c0-4 1-9 1-12l1-6-1 5c-1 3-2 5-2 4 0 0-1 1-1 2-1 2-1 3 0 3s1 5 0 5c0 0-1 1-1 2-1 4-3 2-3-3-1-2-2-8-3-11-1-4-2-8-1-8 0 0 2-2 4-5 3-4 6-5 6-2 0 2 0 2 2 1 1-1 1-1 1 4-1 3-1 4 0 2 1-1 1-5 2-8 1-9-3-10-13-3-14 11-21 18-38 41-9 13-16 17-36 20-19 4-19 4-18 5 0 1 1 2 4 1 4 0 4 0 2 1-5 1-10 1-8 0 1-1 0-1-2-1-6 1-8 2-7 3 0 1-1 1-3 1-3 0-3 0-1-1s2-1-1 0c-8 1-19 1-19 0s0-1-1-1-1 0-1 1c1 0 0 1-1 2h-33c0-1 5-1 11-1 8 0 11 0 10-1s-6-1-11-1c-13 0-32-2-50-6-8-2-15-3-15-2-1 0-3-3-3-4 0-2-1-2-8-2-11 0-26-3-26-5-2-3 1-8 5-11 5-5 12-7 26-11 6-1 12-3 13-4 16-7 22-8 32-8h22c19 0 17 2 54-37 17-18 35-34 41-39 2-1 4-3 4-3 1-1 6-3 7-3 0 1 1 0 2 0 0-1 1-1 1-1 4 6 11 17 11 20l1 4 8-7c28-25 51-36 56-28zM129 252c2 1 5 2 6 2 0 0 1 0 1 1l-1 1-1 1c0 1 1 0 2-1 1 0 2-1 3 0 1 0 2 0 2-1 1-1 1-1 2-1 0 1 0 1-1 2-1 0-1 1-1 2 1 0 1 1 0 1-1 1-1 1-1 0 0 0-1-1-3 0-2 0-2 1-1 2s1 1 0 1-2 0-2 1-1 1-1 1c-1 0-1-1-1-2 1-2 0-3-2 0-1 1-1 1-3-1-2-3-7-4-11-4l-3 1 3-1c3-1 3-2 1-3-4-2-1-2 3 0 2 1 4 2 4 1 1-1 0-1-2-2-2 0-2 0 0-2 2-1 1-1 7 1zm-1 14c0 1-5 3-7 3-3-1-6 1-6 2 1 0-1 1-3 2-2 0-6 2-9 4-5 3-13 5-13 3 0-1 4-3 5-3 0 1 2 0 3-1 3-3 18-9 23-9 1 0 3 0 4-1 2-1 3-1 3 0z" fill="#ccc"/></svg>