<svg version="1" xmlns="http://www.w3.org/2000/svg" width="600" height="400" viewBox="0 0 450.000000 300.000000"><path d="M324 56c-2 0-14 0-27 1-14 1-31 2-37 2l-11 1v6c0 2 0 6-1 6 0 2 1 2 4 2 4 0 4 0 4-4l1-4v8h7c4 0 19-1 34-2 15 0 33-1 40-1 9 0 13-1 14-2s7-1 8 0c0 1 3 1 7 1h7v-3c-1-2-1-5-1-8v-4h-24c-13 0-24 0-25 1zm-168 6h-3v15l3 1c3 1 3 1 2 2-4 1-2 2 3 2 3-1 9-1 14-1s8 0 8-1h-9c-7 0-8 0-4-1 2-1 9-1 15-1h11l-1-4c0-5-4-5-4 0 0 2-1 0-1-4s1-6 1-4c0 4 2 4 2-1 0-3-3-5-4-1-1 1-1 1-1 0s-1-2-1-2h-31zm79 24c0 1 1 4 1 6 1 2 2 5 1 6 0 0 0 1 1 1 0 0 1 1 0 1 0 1 0 2 1 2l1 1c0 4 2 14 3 17 1 6-1 3-3-4-1-4-2-6-2-5 0 2 2 11 3 14v2c0 1 0 1 1 1s1 1 1 2c0 2 0 3 1 4 1 0 1 1 1 3-1 2-1 3 0 3 3 0 5 17 3 22-1 2-1 2 1 2 1 0 2-1 2-2l1-3v3c0 2 1 2 3 2 3 0 3 0 1-6 0-3-1-6-1-7 1-1 0-1-2 0-3 0-4-3-2-5 2-1 2-2 1-4s-1-2-1 0v3l-1-2c-1-2-1-4 0-4s1-2 0-3c-1-2-1-3-1-4 0 0 0-2-1-3s-1-3 0-3c0-1 1 0 1 2 1 4 3 4 2 0 0-1 0-3 1-3s0-1-2-2c-1-1-2-1-2 0 1 1 1 1 0 1s-1-1-2-2c0-1-1-3-2-5s-1-3 0-3 1 0 0-1c0-1-1-4-2-7-1-2-2-7-3-10-3-10-3-10 8-9 12 0 11-1-2-1-8-1-10-1-10 0zm36 2c-2 7 0 12 5 15 5 2 7 3 7 1-1-1 0-1 2 0 3 0 14-4 11-5-1 0-2-1-1-3v-3l1 3c1 2 1 2 1 0 0-1 0-2 1-2v4c0 3-1 4-4 5l-4 2 4 1c4 0 10-1 13-3 2-1-3-8-5-8s-2 0-1-1c1 0 2-1 1-1 0-1-1-1-2 0-1 0-1 0 0-1 1-2 0-2-3-1-2 1-3 2-3 3 0 2 0 2-1 1-2-1-2-1-2 2 0 2 0 2 1 1 1-2 1-2 1 0 1 2-2 3-4 2s-2-1-1 0c0 1 0 1-1 1-1-1-3 0-5 0-5 1-8-1-5-3 1-1 2-2 2-3l3-3c1 0 2-1 2-1 0-2 0-3 1-3s2 0 3-1c0-1-3-1-8-1-8 0-9 0-9 2zm-111 13c0 1 1 2 2 3 2 2 3 3 2 3 0 1 1 3 3 5l3 5 2-3c1-1 3-2 3-2 1 0 3-1 4-2s3-1 4-1 1 0 0-1c0-1-2-1-4-1s-3-1-3-2 2-3 3-1h8c8-1 9-1 2-1h-3l3-1c2 0-1-1-10-1-7 0-14 0-16-1-2 0-3 0-3 1zm209 9c1 0 0 3-1 4-1 3-2 3-7 3-5-1-5-1-3 0 1 1 1 2 0 2s-1 0 0 1 1 2 1 3c-1 1 5 1 7 0 0-1 1-1 2-1 0 1-2 2-4 3-2 2-4 3-4 4s12 7 13 7v-16c0-1-1 0-2 0l-2 2c-1 0-1 0 0-1 1-2 1-3-1-3-1-1 0-1 2 0h4v-4c0-3 0-4-3-5-2-1-2-1-2 1zm-23 0c-3 1-5 2-6 3s-3 2-5 2c-3 0-4-1-1-2 1-1 1-1 0-2-2-1-4 0-4 2 1 1 0 2-3 3-4 2-5 2-5 6 0 3-1 5-2 6 0 0-1 1 0 1 0 1 0 1-1 1s-1-1 0-3c0-1 1-2 1-1 1 0 1-6 0-7-1 0-3 1-7 2-3 0-9 1-13 2-6 0-7 1-6 2 2 1 0 1-3-1-1-1-3-1-8-1-5 1-5 1-4 0s2-2 3-1c0 0 1 0 1-1 0-2-4-1-6 1-1 1-3 2-4 2s-2 1-2 2c-1 1-1 1-1-1v-4c-1-1-1-1-1-2s-8-5-10-5c0 0 0 2 1 6 0 5 0 5-2 4-1 0-1 0 1 1 5 4 6 5 4 5-2-1-2 0-2 4 1 3 1 5 1 5 1 1 11 3 11 2 0 0 1-1 2 0 1 0 1 0 1-1-1-1 0-1 3 1 1 1 2 1 2 0s3-1 4 0c2 2 7 3 7 1s5-4 7-2c1 0 1 1 0 2 0 2 0 2 1 2 1-1 4-1 6-2 6 0 8-1 6-4-1-1-1-1 0-1 3 1 7 0 8-2s1-2 1 0c0 4 1 4 11 1 4-2 10-3 14-4 10-2 10-2 7-4l-2-2h2c3 0 6-2 4-2h-4c-5 0-5-5 0-7 3-2 3-3-1-4-2 0-4-1-4-1-1-1 0-1 2 0 3 0 3 0 2-1 0-2-1-2-6-1zm-181 4c1 2 0 3-2 2 0 0-1 0-1 2 0 1-1 1-3 1-1-1-2-1-1 0 0 1 0 1-2 1-1-1-2-1-2 0 0 0-1 1-1 0-2 0-2 1-2 5 0 2 0 3 1 2 0-4 2-5 5-5 2 0 2 0 1 1-4 1-5 2-5 7 0 2 0 6-1 8-1 3-1 5 0 5 1 1 1 3 1 5 0 4 1 5 3 3 1-1 2-7 1-7-2 0-1-2 1-3 1 0 2-1 2-2 0 0 0-1 1-1 1 1 1-2 1-6 0-7 1-7 3-8 4-2 4-1 5 11l1 10-1-11v-14c-1-2-4-7-5-7s-1 1 0 1zM54 125c0 8 1 9 3 10 1 0 2 1 1 1-3 1 1 3 7 3 7 0 9-2 3-2-3 0 5-1 16-1 24-1 38-2 38-3s-1-1-3 0c-3 0-4 0-4-1s1-2 1-2c1 0 1-1 1-1 0-1 0-2 2-2 3-1 3-2 0-2-2 0-4 0-4-1s0-1 1-1c0 0 1-1 1-2 1-1 1-1 1 0s1 2 1 1c1 0 2-1 1-2 0-1-1-2-2-1 0 0-1 0-1-1 0-2-13-1-13 1 0 1 0 1-1 0-1-2-3-2-20-2-11 0-22 0-24-1h-5v9zm161-2c-1 1-2 3-2 7 0 3-1 5-1 6-2 1-2 6 0 6 1 0 1 2 1 5 0 6 2 6 2-1 1-2 1-6 2-8 0-2 0-3-1-3s-1-5 0-8c1-1 2-2 2-1 1 0 1-1 1-2-1-3-2-3-4-1zm-14 1c-2 1-2 2-2 7s0 6-2 7c-3 0-3 6 0 6 1 0 1-1 1-1-1-1 0-2 1-2 2-1 3 0 1 2-3 2-3 10 0 10 1 0 2-1 2-5 1-3 2-5 3-6 1 0 1-5 0-5-2-1-2-7-1-9 1-1 2-1 3 0 1 0 1-1 1-3-1-3-3-4-7-1zm-37 13c0 7 0 14-1 15 0 1 0 1 2 1s3-1 3-14 0-14-2-14-2 1-2 12zm11 8c0 7 1 8 8 8 6-1 7-1 6-9-1-6-5-6-5 0 0 3-1 3-2 3-2 0-3 0-3-3s-1-4-2-4c-2 0-2 1-2 5zm159 4c-4 1-6 5-4 5 1 1 1 1 0 1s-1 1-1 4c0 5 3 8 8 9 4 0 5 0 3-3-1 0-2-3-2-4 0-3 0-3-1-1-2 1-2 1-2 0s-1-2-1-2c-1 0-1-1 1-1 1-1 1-1-1-1s-3-2 0-2l1-1c0-1 1-1 2 0s2 2 2 1c1 0 0-1-1-2-1-2-1-4 0-4 1-1 1-1 0-1s-3 1-4 2zM52 164c0 4 0 5 1 5 1-1 1-1 2-1v-2c0-1 1-1 2-1 0 1 1 0 1 0 0-1 1-1 1-1 1 1 2 0 3 0 1-1 1-1 2 0 0 1 1 1 2 0 2-1 2-1 2 1-1 2-1 2 1 1 2 0 2 0 1 1-1 2-1 2 0 3 0 0 1 1 0 2 0 1 0 1 2 1 3 0 1 2-2 2-2 0-2 1-2 2s-1 2-2 2-2 0-1 1c0 1-1 1-2 2-1 0-2 1-2 1 0 1-1 1-1 1-1-1-2 0-2 0-1 2-4 2-5 1s-1 2-1 6c0 10 2 14 3 7 2-7 2-8 4-9 4-1 7 0 8 5l1 3v-4c0-3 0-4 2-4 2 1 9-1 10-3 1-1 1-1 2 0 2 1 2 3 0 10-4 8 0 12 12 11 5 0 11-6 11-11 1-3 2-5 3-5 1-1 0-1-2-1-3 0-5-2-3-4 0-1-1-1-1-1-1 0-2-1-2-4 0-4-2-9-5-11-1-1-2-2-2-3 0 0 0-2-1-3-1-3-1-3-19-3-10-1-18-1-19-1-2-1-2 0-2 4zm47 23c2 2 3 3 2 5 0 2 0 2 1 0 0-1 1-1 1 0 0 0 0 2 1 3 0 1 0 1-1 1 0-1-1 0-1 1l1 1c1 0 1 0 1 1-1 1-2 0-4-2s-2-2-4-1c0 1-1 2-1 1-1 0-1 0-1 1l-1 1c-1 0-1 0 0-1s1-2 0-2c-1-1-1-1 0-2s1-1 0-1-2 1-2 1c0 1-1 1-2 0-1-2-1-2 0-4 1-1 1-2 0-2s-1 0 0-2c1 0 2-1 3-1 0 1 1 0 2 0 2-1 2-1 5 2zm208-25c1 2 0 2-5 2-4 0-10 0-14 1h-14c-3 0-6 0-6 1s4 2 5 1c0-1 9-1 10 0 0 0-2 1-3 3-2 2-3 4-3 6 0 1 0 2-1 2-2 0 2 3 4 3 1 0 2-1 4-2 1-1 1-1 0-1-2 1-3-1-3-4 0 0 1-1 1 0 1 0 2 1 1 2 0 0 0 1 2 1 2-1 3-6 0-8-1-2-1-2 1-1 3 0 28 1 31 0h6c5 0 5 0 4 2-1 5 1 7 5 6s8-1 8 1c0 1 0 1-1 1s-1 0-1 1c1 0 0 2-2 2l-2 2 3 1c7 1 12-5 7-9-1-1-2-2-3-2 0 1-3 0-7-2-3-2-5-3-4-3 2 0 2 0 0-3-2-2-3-2-7-2l-4 2c0 1-1 1-2 1 0-1-2-1-3 0h-4c-2-1-2-1-1-2 2-2 2-2 0-3s-2-1-2 1zm54 1c-1 1-2 2-3 1-2-1-3-1-3 0-2 1-3 1-2 0 0-1-1-1-3 0-1 0-2 1-2 0-1 0-2 0-4 2s-1 3 4 0c4-1 5-1 3 1-2 1-2 1 1 1h4c1 0 3 4 3 8 0 3-3 2-6-1l-2-2v3c-1 5 3 10 7 8 3-1 9-11 7-11 0 0-1-1-1-2s-1-2-2-2c-2-1 0-1 4-1 6 0 7 0 7-2 0-3-9-5-12-3zm-129 6c-6 0-11 1-12 1 0 1 2 1 6 1h10c3 1 3 1 1 3-2 1-4 1-3-1 0-1-2-2-2 0-1 0-4 1-8 2-5 0-6 1-7 2-1 2-1 2 0 2 1-1 7-1 13-2 11 0 12 0 12 2 1 1 1-1 1-5v-6s-5 1-11 1zm26 17c-4 3-4 10 1 13 2 1 3 2 3 3 0 2 5 6 8 6 4 0 5-6 1-9-2-2-2-3-1-5 2-3 0-7-3-8s-3-1-4 1c-1 1-2 2-3 2-2 0-2 0-1 1s1 1 0 2c0 0-1 1-2 0-2-1 1-6 4-6 0 0 1 0 1-1 0-2-3-1-4 1zm38 1c-2 1-2 1 0 1s2 0 0 2c-5 2-5 2-6 6-1 5-3 5-3 1 0-2 1-4 2-6 1-1 2-2 1-2-2 0-5 5-5 9 0 6 2 10 9 13l5 2 5-2c3-2 6-3 7-3s2 0 2-1-1-1-2-1c-2 0-3 0-3-2 0-1 0-1 1 0 0 2 2 1 2-1 0-1 0-2 1-2 0 0 1 1 0 2 0 1 0 2 1 2 0 0 1 1 1 2s-6 5-11 6c-1 1 2 1 7 1 7-1 10-1 13-2 4-3 8-6 8-7s-1 0-2 1c-4 3-5 1-2-3 2-4 3-11 0-13-1-2-1-2 1-2 1 0 1 0 0-1-2-1-8-1-8 0-1 0-2 1-2 0-2 0-11 4-12 5-1 2 4 1 6-1 1-1 1-1 0 2 0 2 0 3 1 3 1-1 1-2 1-3s0-2 1-3 1 0 0 2c0 5 0 5-3 5s-4 1-5 5c-1 3-1 3-1-1 1-5 0-5-2-4-1 1-2 1-3 0-2-1 0-4 2-4 1 1 1 0 1-1s0-3 1-3h3c1 0 1 0 0-1s-10-2-12-1zm-183 1c-2 1-3 5-3 10s0 6-2 7c-3 2-2 7 1 7 1 0 1 1 1 5s0 5 2 4c1 0 2-1 2-5 1-3 2-6 2-7 2-1 3-6 1-6-4 0-3-9 0-10s3-6 0-6c-1 0-3 0-4 1zm27 1c4 0 24 1 45 2s42 1 48 2c7 0 10 0 8-1-3-1-37-2-93-3-13-1-15-1-8 0zm-81 3c-1 1-2 4-2 6v7c-2 4-2 7 0 8 0 1 1 3 1 6 0 4 0 4 2 4s2-1 2-6c0-3 1-5 2-5 0-1 1-3 1-5 0-3 0-3 1-1s1 2 1-1c0-2 0-3-1-3s-1 0-1 1-1 1-1 1c-1 0-2-1-2-2s0-1 1 0 1 1 1-1c0-1 0-2-1-2s-1-1-1-1c0-1 1-1 2-1 2 1 2 0 2-3-1-4-4-6-7-2zm13 1s-1 5 0 16c0 15 0 15 2 14 4-1 4-2 4-16-1-16-2-17-6-14zm23 18c0 4-2 8-4 7 0-1-1-3-1-5 0-4 0-4-2-4-3 0-4 2-3 8 1 5 1 6 8 6s8-1 7-8c0-7 0-7-3-7-2 0-2 0-2 3zm36 12c0 1 3 1 7 1 8 0 16 2 18 4 2 1 8 1 7-1 0-1 2-1 9 0 17 0 35 1 44 1 5 0 8 0 8 1s-2 1-6 1-6 0-7 1c0 0 0 1 1 1s0 1-1 1c-1 1-9 1-16 1-17 0-14 1 11 2 10 0 24 2 31 3 15 2 16 1 12-2-3-3-4-3-5-2-2 2-2 1-2-2-1-2-1-4-1-5-1 0-9-1-18-1-10-1-33-2-52-3-40-2-40-2-40-1z" fill="#ccc"/></svg>