<svg version="1" xmlns="http://www.w3.org/2000/svg" width="600" height="400" viewBox="0 0 450.000000 300.000000"><path d="M43 48c1 27 1 79 1 116 0 41 0 68 1 68 2 0 2-8 2-62 0-31-1-82-1-113 0-52 0-57-2-57-1 0-1 4-1 48zm170-34c1 8 1 37 1 64v50l-4 3c-10 6-31 21-31 22s0 1 3 0c12-7 23-10 29-7l3 1v9c0 4 0 8-1 8 0 0-3-2-5-5s-5-5-5-4c-1 0 0 1 0 1 1 1 2 3 2 4 1 1 2 3 2 3 2 1 2 1 1 3-1 0-2 1-3 1-1-1-3 1-4 3-1 1-2 2-4 3-4 2-6 4-4 4 1 0 2 0 3-1 0-1 1-1 2-1s-1 1-3 3c-3 2-5 4-6 4s-2 2-2 4c-1 4-4 8-5 9-4 1-7 4-4 4h5c4 0 4 0 2 2-2 1-2 1-4 0 0-1-1-1-2-1 0 1 0 2 1 2 1 1 1 1 0 1-1-1-2 0-2 0 0 1-1 1-1-1-2-1-2-1-3 0s-1 1 0 3c2 0 2 1 1 1 0 0-1 1-1 2 0 3-2 8-3 8s-1 1-1 1c0 1-1 2-1 2-1 0 0 1 2 2s3 2 3 3c-1 0-2 0-3-1s-2-1-2-1-1 2-2 3c-2 2-2 2-1 3s1 1 0 1l-1 1c0 1-2 5-4 9-4 7-4 8-8 9-7 2-3 2 5 1 10-2 19-3 17-2-3 2-15 5-17 4-2 0-4 0-5 1s-1 1 0 1c2 0-8 3-11 3-2 0-3 0-3 1 1 0 0 1 0 1-1 1 0 1 3 1 7 0 21-3 34-8 20-7 30-10 39-12 5 0 9-1 10-2 0 0 1-2 1-5 1-2 2-7 3-10 2-10 2-9-2-14-2-3-5-5-6-5 0 0-1 0-1-1s13-2 14-1c0 0 0 4-1 10-1 5-1 12 0 13 0 3 0 5-1 5-1 2 1 8 2 10 1 1 1 2 0 1-1 0-1 1 0 3 1 1 1 3 1 4 1 2 4 7 5 7v-2c-2-3 0-2 6 3 3 3 5 5 6 5 0-1 2 0 4 2 5 3 11 6 15 7 3 0 2-1-3-3-12-5-27-17-31-25-1-2 0-3 2-1s2 0 1-3c-2-4-2-8-2-20 0-9 0-14 1-13 0 0 1-1 1-3 1-1 0-2 0-2-1 0-1 0-1-1s1-1 2 0c0 0 1 1 1 2s0 2 1 3c1 0 1 1 1 3-1 1 0 2 1 3 2 1 2 1 2-5-1-3 0-6 0-5 1 0 1-1 1-1 0-1-1-2-1-2-1 0-2 0-2-1s-3-1-3 0c-1 1-1 1-2 0-2-2-3-5-1-3 1 0 1-1 0-3-1-1-1-1 0-1s2 1 2 2c0 0 0 1 1 1 0 0 2 0 3 1 2 1 2 1 2-5 0-3-1-6-1-7-1-1-1-1 0-2s1-1 0-2c0 0-2-2-3-5s-3-5-3-5c0 1-1 0-2-1-1-2-1 0 0 3 1 1 2 2 1 3 0 0 0 1 1 1s1 2 1 4c0 4 0 4-2 3-1-2-1-2 0-4s1-2-1-2c-1 0-1-1-1-1 1-1 0-4-2-7-1-3-2-6-2-7 1 0 1-1 0-1 0 1-1-1-1-3-1-2-2-7-4-12-3-10-3-10 0-12 2-1 2-2 2-3-1-1-2-1-3 0-1 2-1 2-2 0s-1-5-1-7c0-3 0-4-1-3-1 2-1 10 0 16 3 12 2 19-3 15-3-2-4-18-1-21 1-1 1-1 0-1-2 0-3-13-3-46 0-37-1-80-2-80s-1 5-1 14zm1 124c0 6 0 6-2 5h-9c-4 0-7-1-6-1 1-1 16-11 17-11v7zm124-83c0 1-1 3-1 4-3 7-4 9-6 8s-2-1-4 1c-2 1-3 2-4 2s-1 1-1 1c1 1 0 2-1 2-2 1-2 1-1 2 0 0 1 1 1 3 0 6 6 9 8 4 1-1 2-3 2-3 1 0 1-1 1-2 0-2 2-8 3-8 4 0 3 11 0 14-2 1-2 1-1 3s6 2 8 0c2-3 3-2 3 1 0 2 0 2-2 1-1-1-1-1-1 0 1 2-2 3-5 3-3-1-8 0-8 1-2 4 0 6 3 5 2 0 2 0 1 1-4 3-3 7 0 9 2 1 3 2 3 3s0 1-1 0c-2-1-1 5 2 8 1 1 2 3 1 3-2 0-4-2-5-5-1-2-3-4-5-5s-3-2-3-3-1-3-2-5c-2-4-2-5 1-3 1 1 1 1 1 0s1-2 2-1c1 0 1 0 0-2l-2-3-2 3c-2 1-4 2-6 2-3 0-7 1-12 4s-8 4-10 4c-2-1-2 0-1 2 0 2 0 2 2 0 1-1 3-1 5 0s1 4-2 5c-2 1-2 1 1 1 2 0 5 0 6 1s3 1 4 0c3-2 15-2 18 0 3 1 3 3 0 2-1 0-2-1-2-1h-3c-2 0-3 1-3 0-1 0-1 0-1 1s0 1-1 0c-1 0-3 1-6 1-2 1-6 2-8 2-4 0-4 1 0 6 3 5 4 6 9 5h6c1 0 4-1 5-2 2-2 2-2 0-4-1-1-1-2 0-2 0 0 2 1 3 2 2 2 5 2 13 0 2 0 3 0 4 2 3 5 3 5-5 6-10 0-16 1-16 3 0 1-5 5-8 6-5 1-5 2 0 2 6-1 11 3 9 6-1 2-1 3 2 7 2 3 4 6 4 7 0 2 0 3 5 3 13 1 16 1 16-1 0-1 13-1 13 0 1 1 0 2-2 2l-2 1 2 1c2 0 4 1 4 1 1 1 1 0 1-3-1-6 3-11 13-15 6-4 6-4 11 0 7 6 7 6 7 1 0-7-2-10-7-8-1 1-7 1-13 1s-11 0-11 1c0 0 1 1 3 2s2 1 0 1c-1-1-2 0-2 1 0 0-1 1-2 1-2 0-2 0-1-3 0-2 0-3-1-2 0 0-3 1-7 0-5 0-6 0-7-3-1-5 1-11 3-9 1 1 2 1 2 0 1-1 0-1-1-1s-1 0 0-2c1-1 1-1-1-1-1 1-2 1-2 0 0 0-2-3-4-5-5-5-5-6-2-6 4 0 8-2 8-5 1-1 2-3 2-5 2-1 2-1 2 1 0 1 1 4 3 6l3 3 2-2c2-1 3-2 4-2s1 0 0-2c-2-1-3-3-1-3 0 0 2-1 4-4 2-2 5-5 9-7 6-4 6-4 0-4h-8c-4 0-5-1-3-3 1 0 0-2-1-2s-3 8-5 15c0 3-1 3-4 2-2-1-3-1-2-2 0-1-1-2-3-3s-2-1-4 2c0 2-1 3-2 3-1 1-1-5 1-8 1-2 1-5 0-7-1-1-1-1 1-1 5 2 8 1 11-2 2-2 4-4 3-4 0-1 1-1 1-1 2 0 2-1 2-2-1-2 0-3 0-3 1-1 1-2 0-4s-1-3-1-4c1 0 1 1 1 2 1 2 3 3 3 1 0-1-1-5-3-8-3-8-5-9-12-2l-5 6v-4c0-4-4-14-7-14-2-1-5-1-6 0zm-88 16c-1 3-3 6-4 8-7 8-14 22-14 27 0 3 0 3 4 3 2-1 6-2 9-4 7-4 17-6 20-4 1 1 1 0 1-11-1-16-3-21-11-22-3-1-3-1-5 3zm134 13c-4 1-8 7-4 6 2-1 9 5 8 7s0 2 1 2c2 0 4-5 4-9 0 0 0-2-1-4-1-4-2-5-8-2zm-114 8c0 9 0 9 4 11 2 1 3 1 5-1l2-3-2-3c-2-1-4-5-6-8l-4-5 1 9zm-7 20c-2 1-2 1-1 1 2 0 3 2 1 4h-4c-4 1-6 4-2 4 3 0 3 0-4 9-8 9-7 9-8-2-1-9-2-10-5-10-2 0-7 2-4 2 0 0 1 1 2 3 0 2 1 3 1 2 1 0 1 12 0 15-1 1-1 2 0 2 1 1 1 3 1 5 0 4 1 4 4-1 8-14 25-34 25-29 0 1 1 1 2 1 3 0 3 0-5-6-1-1-1-1-3 0zm121 5c-2 0-7 1-9 1-4 0-5 0-4 1 0 1 1 2 3 1 2 0 2 0 2 2s0 3-1 3c-2 0-1 2 1 4 2 1 2 1 2-5 0-5 0-5 1-2 0 3 1 4 1 3 0-4 2-1 3 5 1 5 2 6 6 6 3 0 4-2 6-9s2-7 0-9c-3-3-5-3-11-1zM30 214c-1 0-1 2-1 4 0 1 0 2-1 1 0-1-2 0-5 1-2 2-6 3-7 4-4 2-2 3 7 4h9l-1-8c0-8 0-9-1-6zm25 27c0 1 0 2 1 4s1 2-1 2c-2-1-3-1-2 0 0 1 2 2 3 2 2 1 6 2 10 2 9 2 18 3 17 3-1-1-4-2-9-3-9-2-14-4-12-4 3 0 2-3 0-4-5-1-7-2-7-2zm159 7c-19 5-32 10-35 13s-3 3-7 2c-3 0-4 0-5 2-2 3-8 5-9 3-1-1-5 0-5 2 0 1 2 1 5 0 13-1 38 1 45 4 2 1 3-1 2-3-2-2 3-1 6 1s8 4 14 4c1 1 4 1 5 2 1 0 2 0 2-1l-2-2c-4-1-11-4-11-5s1-1 3-1 2 0 1-1c-3-2-2-3 1-3 4 0 7-4 5-7-1-2-3-5-3-7-2-4-4-5-12-3zM63 265c-2 0-6 1-8 2-3 1-6 3-7 3-1 1-2 2-2 3 0 2 1 3 3 2s4-1 9 0c9 2 71 1 74-1 1 0 0-1-2-2s-3-1-4 0c-2 2-10 1-11-1 0-1-5-2-5 0s-8 1-10-1c-1-2-1-2-3-1-2 2-8 1-10-1s-2-2-4-1c-3 1-12 0-13-2 0-1 0-1-7 0zm170 14c1 1 5 1 8 2 3 0 6 1 6 1 1 1 1 1-2 1-2-1-4-1-5 0s-3 2-4 2-2 0-2 1 7 4 9 4c4-1 9 0 9 1-1 1 1 1 5 1 3 0 7 0 8 1 2 0 2 0 0-2-2-4-3-4-5-4-3 1-11-3-11-6l-2-2h-8c-6-1-7-1-6 0z" fill="#ccc"/></svg>