<svg version="1" xmlns="http://www.w3.org/2000/svg" width="600" height="400" viewBox="0 0 450.000000 300.000000"><path d="M49 3c0 1-1 5-3 7-2 4-2 5-1 7s0 2-5 3c-3 1-6 2-7 3h-2l2 1c1 1 1 1-1 1-3-1-3 0-6 5-3 7-3 7-2 6 1 0 2 0 2 1s-1 1-2 1c-2 0-3 1-7 11C7 72 6 78 11 80l3 1-2 3c-2 3-3 5-3 20v17l-5 10-4 10v159h25c20 0 24 0 24-1s0-2-1-2v-17c0-9-1-16-1-16-1 0-1-2-1-4 1-2 0-4 0-4-1-1-1-1 0-2 1 0 1-7 0-7 0-1-1-3 0-5 0-2 0-5-1-5-1-1-1-2 0-2 0-1 1-3 0-6 0-3 1-5 1-5 1 0 1-1 0-2 0-1 0-3-1-4 0-2 0-2 1-1 1 0 1 0 0-2-1-4 0-15 1-15s0-2-1-4c0-1-1-3-1-4 1 0 0-1-1-2s-1-1 1-2c1 0 2-1 1-1 0-1 0-2 1-2 1-1 0-2-1-3 0-1-1-2 0-2 1-1 1-7 0-9-1 0-1-1 0-1s1-1 1-3c-1-1-1-4-2-5 0-2 0-4-1-5 0-2 0-5-1-8 0-7-1-11-2-16-3-11-3-13-2-19 0-4 1-8 2-10s2-5 3-7c2-4 1-5-1-8-2-1-3-2-3-1s-1-1-2-3c-2-5-1-6 1-3s11 8 12 8c0-1 0-2-1-4-2-4-2-6 0-6 0 0 1 0 1-1s1-1 3-1c3 1 3 1-1-3-3-3-4-6-2-5 0 1 3-3 5-8 4-8 6-10 3-2-2 4-2 4-1 4 1-1 2 5 2 10 0 3 0 3-1 2-2-3-2 1-1 12 1 10 0 12-1 16-2 6-3 7-3 3-1-4-3-5-3-2 0 13-4 19-8 15l-2-2v3c0 2 1 7 3 10 6 17 6 20 11 54 3 31 5 37 6 26 0-2 0-5 1-5 1-1 0-2 0-3-1-2-2-4-2-6s0-2 3 3c1 3 2 6 2 7s1 4 1 8c2 8 4 22 4 36 0 6 0 9-1 6 0-4-1-5-2-5-2-1-4-5-4-11 0-2 0-4-1-4s-1-1 0 15c1 7 2 19 3 27 1 17 2 21 4 21 0 0 1-1 1-2 0 0 0-1 1-1s1 1 1 1c0 2 3 2 25 2 23 0 24 0 24-2 0-1-1-10-2-20-2-19-3-34-2-34s-3-4-8-8c-11-8-21-19-23-23-1-3-1-5 5-22 4-11 7-20 7-20l-8-6c-13-9-28-24-31-32-4-10-4-12 2-20 8-10 12-15 20-28 4-7 13-20 20-30 6-10 12-18 12-19s1-3 3-6c2-2 5-5 6-8l4-4c3 0 7 4 8 7 1 5 1 5 4 0l3-4h8c9 0 11 1 11 3-1 0-1 1 0 1 3 0 1-6-7-14l-3-3 2-4c2-1 3-3 3-3 0-1-14-1-31-1H94l1 3c3 5 2 6 0 2-3-5-6-7-5-3 1 1 0 2 0 4-2 1-2 1-5-2s-6-2-3 1c1 2 1 5 0 4-1 0-2 1-1 3 0 2 1 3 1 3 0-1 1 1 1 4 0 5 0 5-1 4-2-1-2-1-3 2-1 2-2 3-3 2-1 0-1 0 0 2 0 1 0 1-2-1-3-3-4-2-1 2 1 2 1 3 0 5l-1 2-1-3-1-3-2 4c0 1-3 4-5 5-7 5-18 32-14 34 1 0 1 2 0 2-4 0-3-8 1-18 6-12 7-14 5-14-1 1-1 0 0-2 0-1 2-2 4-2 8-2 11-9 6-13-1-1-2-3-2-3 0-1 0-1-1 0-1 0-1 0-1-1 1-1 1-1 0-1-1 1-1 0-1 0 1 0 0-1-1-3-2-2-2-2-1-2 2 1 2 0 0-2-1-1-1-2 0-2l2 2c2 2 5 3 5 2 0 0-1-2-2-2-1-1-1-2 0-3 1 0-1-4-4-7 0-1-1-2-1-3 0-2-1-2-4-2-4 0-4 0-5 3zm143-2c0 1 1 2 2 3 3 3 3 6 2 11s0 8 1 5c1-1 2-3 3-6 2-5 2-5 5-3l3 3v-3c1-2 1-5 1-7V0h-8c-5 0-8 0-9 1zm24 0c0 1-1 2-2 2-4 2-4 9-1 10s2 8-1 8c0 0-1 0-1 1s1 1 2 0c1 0 1 0 0 1 0 1-1 3-1 4v3l1-3c0-2 1-2 2-2 2 0 2-1 2-5 0-2 0-8 1-12 0-6 0-8-1-8 0 0-1 0-1 1zm36 0c-1 1-2 19-3 39-1 3-1 11-2 18 0 8-1 18-2 22-1 17-2 29-6 65-2 11-4 28-5 38 0 10-1 20-2 23v6c2 1 0 3-2 3-1 0-2 1-2 2s0 2-1 2c0 1-1-7 0-17v-19l-1 21c-1 11-2 28-3 37-1 10-1 18-1 18s1 2 1 3c1 2 1 2 2 1s1-1 2 0c1 2 1 2 1-3 0 0 0-1-1-1-3 0-4-10-2-11 1-1 1-4 1-8 0-8 2-16 4-16 1-1 0 8-2 10-1 2-1 3 0 13 1 6 2 12 2 13s1 2 2 2c0-1 1 0 1 1s-2 2-7 2c-2 1-2 1 0 2 1 0 2 1 2 1 1 1 12 5 13 5s1-1 0-1c-1-1-2-2-2-3s-2-1-7-1c-2 0-3 0-3-1-1-1 0-1 1-1 4 0 9-5 10-11 0-5 5-19 6-20 0 0 1-2 2-3l2-3 3 2c1 2 2 3 3 2 1 0 1 0 1 1-12 24-16 36-12 36 1 0 1-1 1-2-1-1-1-1 0-1 1 1 2 2 1 6 0 2 0 2 3 3 2 0 3 0 3-2 0-1 0-1 2 0 2 2 1 3-1 2-1 0-1 0 0 1 2 3 3 2 8-12 3-11 4-14 3-15-2-1-4 1-3 2 0 1 0 1-1 1s-1 4 0 4c1 1 1 1 0 1l-1 1c0 3-2 2-3-1-1-1-1-3 0-3 1-1 1-2 1-3s0-2 1-2c0 1 1 1 1 0 1-1 0-1 0-1-1 0-2-1-3-1 0-1-1-2-2-2-2-1-2-1-1-2 0 0 4 1 7 3l6 3 2-6c2-7 2-7 11-4 8 2 10 3 8 1-1-1-2-2-2-3-1-2-1-2-2-1s-4-1-4-3c0-1 0-2-1-2h-3c-1-2-4 0-4 2s-2 3-4 1c-1-2-1-3 0-2 3 0 0-5-3-7-3-3-2-4 3-2s6 1 2-2c-3-1-4-2-3-3s17 3 18 5c1 1 6 1 5 0 0-1-1-2-2-1-1 0-1 0-1-3 1-3 0-4-2-1s-4 3-3-1v-4l-1 3c-2 3-5 4-5 2 0-1-1-2-2-3s-1-1-2 1c-2 1-4 0-2-2 0-1 0-1-1-1s-1-1-1-1c1-3 0-2-3 1-2 2-2 2-2 1s1-2 1-2c1 0 1 0 0-1-1 0-1-1-1-2s3-1 16 3c9 3 22 7 30 9 9 3 15 5 16 5 1 1-1 6-2 6s-1-1 0-2c0-1 0-2-1-2s-1 0 0-1c0-1 0-1-1-1s-1 1-1 1c0 1 0 1-1 0 0 0-1-1-2 0s-2 5-1 5 3 1 3 1c1 0 2 1 7 1 2 1 4 2 5 2 2 1 4 0 2-1-1 0-1-2-1-4-1-2-1-3-3-3-1 0-1 0 0 1s1 1 0 3c-2 1-2 1-2-1-1-4 1-5 14-1 17 4 45 8 41 5-1 0-4-1-8-1h-8c-1-1-3-1-5-1-3-1-5-1-5-2s-1-1-2-1-2-1-2-1c0-1 0-1-1 0s-2 1-2 0c0 0-1-1-1 0-2 0-2 0-1-3 1-2 1-3 0-3s-2 1-2 2v1h-1c0-1-1-1-2 0-2 1-2 1-2 0 1-1 1-2 0-2s-1 1-1 1c0 1 0 1-1 0-1-2-1-8 0-9 2-1 1-2-1-1-1 0-2 1-2 1 0 1-1 0-2-1l-2-3 1 3c0 2 0 2-2 2-2-1-3 0-3 0 1 1 1 1 2 1 0 0 1 0 1 1s0 1 1 0c1 0 1 1 1 2s1 2 2 2 1 0 2 1c0 2-1 2-5 1-2-1-3-2-3-2 0-1 0-1-1 0s-5 0-14-3c-4-1-6-2-5-2 0-1 2-1 3 0s2 1 2 0l1 1h3c1-1 1-1 0-1-2 0-3-2-2-3 0-1 1 0 2 1s2 2 2 1c0 0-1-2-3-3-2-2-3-3-2-4 0 0-1 0-2 1s-2 2-2 3c0 0 0 1-1 1s-1-1-1-2 0-3-1-3c0 0-1 0-1 1s0 1-1 1v-3c0-3 0-3 2-2 1 2 1 2 3 0 1-1 1-1 0-1-1 1-2 1-2 0s-1-1-2-1-2 0-1-1c0-1-1-1-1-1-1 0-2 1-1 2 0 0 0 1-1 1s-1-1-1-2c1-2 0-2-1-1-2 0-3-1 0-3 1-1 1-1-2-2-3 0-3-1-2-2s2-1 2 0l1 1c1 0 1-1 1-2-1-2 0-3 1-3 1-1 1 0 0 2 0 1 0 2 1 2s1 0 0 1c-1 0-1 1-1 2 1 0 2-1 3-2 2-2 2-2 2 0-1 1-1 2 1 2 3 1 4-1 1-1-1-1-1-1 0-1 2 0 2-3 0-5-2-1 0-1 3 0 1 1 4 2 5 1 2 0 3 1 3 1s1 1 3 1c3 0 6 0 7 1 0 1 1 1 3 1 3 0 23 5 35 9 11 4 17 5 17 3l-4-2c-2 0-6-1-10-2-10-3-51-14-53-14s-32-8-34-10c-2-1-2-1 1-1 3 1 4 1 4-1 0-1 1-3 2-3 0-1 1-2 0-2s-1 0-1-1c0-2 8-1 11 1 5 2 5 1 1-3-4-3-5-7-3-7 1 0 1-8 0-9-2-1 1-4 3-4 1 0 1 0 0 1-1 0-1 2 0 2s2-1 2-2-1-2-1-2c-1 0-1 0-1-1s1-1 1 0c2 0 5-9 4-12 0-2-1-3-2-3s-1 0 0-1c1-2 2-2 2 0 1 1 1 1 1 0 1-1 0-2 0-3-2 0-2-7 0-8 2-2 2-4-1-4 0 1-1 0-2 0 0-1 1-1 3-1h4l-3-2c-1-1-2-2-2-3s-1-1-1-1c-1 0-2-1-2-2 0-2-1-3-1-3-1-1-1-1 0-1s2 0 2-1v-2c2-4 2-6 0-6 0 0-1 0 0 1 0 1-1 1-3 0 0-1-1-1-1 0-1 2 0 2 1 3 2 1 2 1 0 1-2-1-3 0-3 1 1 0 1 1 0 1s-1 1-1 2 0 3-1 4c0 1-1 5-2 7s-1 4-2 3c0 0 1-6 3-11 1-6 5-18 7-27 7-28 6-26 11-27l21-7c9-3 16-6 15-6s-6 1-11 3c-14 4-16 5-18 4s-2-1-2 0 0 2-1 2-1-1-1-1c0-1 0-1-1 0-2 2-5 1-4-1 0-1 0-2-1-2s-1 1-1 2-1 2-2 3c-2 0-2 1-1 1 1 1 1 2-1 3-1 0-2 2-2 4 0 5-3 16-5 16-1 0-1 0 0 1 0 0 1 2 0 6 0 1 0 1-1 1 0-1-1 1-1 2 1 2 0 4 0 4-1 0-1-1-1-2 0 0 0-1-1-1s-1 0 0 1c0 1-1 1-3-1-2-1-2-1-1-1 2 0 2-1 2-2-1-1-1-1 0 0 1 0 1 0 0-2-1-1-1-2 0-2s1-1 1-3 0-2-1-1c0 1-1 1-1 0-1-1 2-2 4-2 1 0 1 0 0-1v-4c0-3-1-4-3-2-1 1-1 1-1-1 0-1 0-2 1-2 1 1 1 1 1 0s0-1-1-1-1-1 0-2c0-1 0-1-1 0-1 0-2 1-2 1 0 1 0 1-1 1s-1-1-1-3 0-2 3-2c3 1 3-1 0-2-1-1-2-1-2-2 1 0 0-1-1-2s-2-2-1-3l-2-2c-2-1-2-1 1-1 2-1 2-3 0-2-4 0-6-2-6-4 1-1 1-2-1-2-2-1-2-1 0-1 3 0 3 0 3 2s1 3 2 3 2 0 2-1-1-1-1-1c-1 1-2 1-2 0l1-1c2-1 0-3-2-3-1 0-2 0-2-1 0 0 2-1 4-1s4 1 4 2c0 0 1 1 2 1s1 0 0-1-1-1 0-2 1-1 0-1l-2-2c1-5-2-8-5-6-1 1-1 1 1 2 1 1 1 1 0 2-2 0-5-2-3-3 1 0 1-1 0-2-1-2 1-5 3-4 1 0 3 0 4-1s1-1 0-1-2 0-2-1 1-1 2-1 1 0 0-1-1-1-2 0c0 0-1 1-1 0-1 0-1-1 0-1 0-1 0-2-1-2-2-2 0-3 3-2 2 0 2 0 1-1 0-1-1-2-1-1-1 0-2 0-3-1-1-2 1-5 4-5 1 0 2 0 2-1s-2-1-3-1c-2 0-4 1-4 1 2 2-1 3-3 2s-2-1-1-2-4-1-12-1c-10 0-14 0-14 1zm115 0c-2 1-2 1 0 1 2 1 2 1 2 5-1 3 0 5 0 4 1 0 1 0 1 1h1v-1s1-1 2-1l1 1c-1 4 0 4 2 2 1-1 1-1 1 1-1 3-1 3 1 3 2-1 2-1 2 1 0 1 1 2 2 3 2 0 3 2 1 2-1 0-1 1 0 1 0 1 1 2 2 2s1 0 0-1-1-1 1 0c4 0 4 1 4 2-1 1-2 1-3 0s-1-1-1 0c0 0-1 1-2 0-1 0-1 0 0 1 0 1 1 2 1 2 1 0 1 0 1 1-1 0 0 1 1 1 1 1 2 1 1 2 0 1 0 2 1 2s2 1 2 2 0 2 1 2c0-1 1-2 0-3 0 0 0-1 1-1 2 0 3 3 1 4 0 0-1 1-1 2 0 0 1 1 1 0 1 0 2 1 3 2s1 1-1 1c-1-1-2-1-2 0s1 1 1 1c1 0 2 1 2 3s1 5 2 7 2 4 1 4-1 1 0 1c0 1 0 2-1 2-1 1-1 1-1 2 1 0 1 0 2-1s3 2 2 5c0 1 0 1 2 0 2-2 2-2 2-1s-1 2-1 2c-1 0-1 0 0 1 3 3 1 3-3 0-6-5-6-3 1 3 5 5 6 6 6 9 0 4 2 6 4 4 1 0 1 0 1 1s-1 1-1 1c-1 0 0 1 1 1 2 1 3 2 3 2v2s1 0 2-1c2-1 3-4 1-6-1 0-1-2 0-2 2 0 2 0 1-2-1-1-2-2-1-4 0-2 0-3-2-3-1 0-1 0 0-1s-3-11-5-12c-1 0-1-1 0-1 2-1 1-5-1-5-1 0-1-1-1-2 1 0 0-1 0-1-1 0-1-1-1-3 1-2 0-3-1-3l-1-1c0-1 0-2-1-2s-1-2-1-4c0-3-1-4-2-4s-1-1-1-1c1-1 0-2 0-3-1 0-1-1-1-3 1-2 1-2 0-2-1 1-3 0-3-1-1 0-2-1-3-1-2 0-5-3-4-4 2-1 0-4-2-3-1 0-1 0 0-1 2-2 1-3-1-2h-1c1-1-1-3-3-4-1-2-3-3-2-3 0 0 1-2 1-4 1-4 1-4-2-3-2 0-2 0-1-1 2-1-10-1-14 0zm-133 9c-1 3-1 10-2 15 0 5-1 10-2 11-1 2-1 2-1 1 0-2-2-3-3-1 0 1 0 1-1 0s-1-1-2-1c0 1 0 1 1 2 1 0 1 2 0 2s-2-1-2-2c-1-3-3-3-3 0 0 1-1 2-2 2s-1 0-2 1c0 2 9 2 13 1 5-2 5-3 6-11 0-6 2-12 4-12 1 0-2-13-3-14-1 0-1 3-1 6zm103 41c-1 0 0 1 0 2 1 2 1 3 0 2-1 0 0 1 2 3 5 4 5 5 1 5-2 0-3-1-3-3-1-2-2-3-3-3s-2 0-1 1c0 1 0 2-1 2-1 1-1 1 1 1s2 0 2 2c0 3 8 6 12 5 3 0 3-2 0-2-1 0-2-1-2-2-1-2-1-2 0-2 1 1 3-1 3-2-1 0-2-1-4-1-1 0-2-1-2-1 0-1-1-2-2-3s0-2 2-1c1 0 1-1 1-1-1-1-1-1-2-1s-2 0-2-1-2-1-2 0zm-26 8c-2 1-4 11-3 12 0 0 0 1-1 1-1 1-3 9-2 9 1 1 1 1 0 1s-1 1 0 1c0 1 0 2-1 2-1 1-2 6-1 6s1-1 1-2 1-2 2-3 1-1 1 1c0 1 0 1 1 0s0-2-1-3-1-2 0-2c0 0 1-1 0-2 0-1 0-2 2-2 1 0 2-1 2-2l-1-1c-1 0-1-1 0-1 1-1 1-1 2 0 0 1 6 4 6 3 1-1 1-2 0-2s-2 0-2-1 1-1 3-1c1 0 2-1 2-2s1-2 1-2c1-1 0-1-1-1-2 0-2 0-1-3 0-2 0-3-1-3-2 0-4 3-3 3 2 1 1 5 0 5s-2-1-2-2c-1 0 0-1 0-1 1 0 1 0 0-1 0-1 0-1-1 0 0 1-1 0-1-2s1-3 2-3c2-1 2-1 1-2-2-2-2-2-4 0zm-114 71c-1 14-1 16 1 16 0 0 1 1 1 2s0 2 1 3 1 1 1-2v-6l1-3-2 2c-2 2-2 2-2 1 1-2 1-7 2-12 0-5 1-9 1-10 1-1 0-1-1-1-3 0-3 0-3 10zm109 28c0 1-1 1-2 1s-2 0-2 1v2c-1 1 0 2 0 3 1 2 1 2-1 2-1-1-2 0-2 0-1 1 10 10 10 9 1 0 2 0 3 1 4 1 12 4 13 4 0-1 1 0 2 0 2 1 4 1 5 1 2 0 3 0 3 1 1 1 4 1 4 0s-1-2-2-2c0 0-2 0-3-1-1 0-4-1-5-2-2-1-4-1-4-1-1 0-2-1-3-2s-1-1-2 0-2-1-1-3c0-1 0-1-1-1s-1 0-1 1-1 1-2 1-1 0 1-1c1-2 1-2 0-3 0 0-1-1 0-2 0-1 0-2-1-2s-2-1-3-2c0-1-2-2-3-2s-1 0 0-1c2-1 2-1 0-2-2 0-3-1-3 0zm93 55l-2 2c0-1-1 0-1 1-4 11-5 17-5 20s-1 6-2 9c-1 2-2 5-2 5 0 1 0 2-1 3-2 1-4 9-4 18-1 1-1 3-2 3 0 0-1 1-1 3s0 3-1 4c-1 0-1 1 0 1 1 1 1 3 0 5s-1 4 0 5c0 1-1 2-1 2-2 1-2 3 0 3 0 0 1-1 1-2s1 0 2 2c1 3 2 3 4 3s4-1 4-1c1-1 1-1 2 0 0 0 2 1 4 1h4l-2-2c-1-1-3-2-3-2-1 0 0-1 2-3s3-3 3-5v-5c1-2 1-2-1-2-2 1-2 1 0-2 1-2 2-3 2-3 0 1 2 0 3-2s2-2 2-1c0 2 2 3 2 1 0 0 0-2 1-3 0-3 0-3-2-2-1 2-1 1 1-4 0-2 1-6 1-7 0-3 0-3-1-2s-2 3-1 4c0 0 0 1-1 1s-1 1-1 3-4 9-5 9-1-2-1-4c0-1 0-3-1-6-1-4-1-6 1-10 1-2 2-6 2-9-1-4 0-4 2-5s3-2 2-2c0-1 1-2 1-2 1-1 2-2 2-3 0-2 0-2-2-1-1 1-2 2-2 1s3-3 4-3c0 1 3-2 3-3 0-3-1-5-3-5-1 0-2-2-1-3 1 0 0-1-1-2-2-1-3-3-2-3 0-2-2-1-3 0zm-97 20c-2 1-1 1 11 5 6 1 11 3 12 4 2 2 4 3 8 3 3 0 6 0 6 1 0 0 2 1 3 1h6c10 2 21 3 21 2 1-1 0-1-1-1-4 0-28-5-37-8-6-2-14-4-18-5s-8-2-9-2c0-1-1-1-2 0zm-4 8c0 1-1 1-4 1-8-2-1 2 17 8 22 7 23 7 24 5v-1c-1 1-7-1-7-2s1-1 4-1c3 1 3 1 1-1-1-1-2-2-2-1-1 1-4 1-3 0 0-1-1-1-2-1h-7c-4 1-6 0-4-1 1-1 1-1 0-1s-2-1-2-1c0-2-5-2-6 0-1 1-1 1-1 0s-6-3-7-2c-1 0-1-1 0-1v-2c-1 0-1 1-1 1zm38 23c-3 8-8 25-7 25 1 1 5 0 5-1-1 0 0-2 1-3 1-2 2-3 1-3s-1-1-1-2c1-1 1-4 2-6v-3l-2 3-1 2 1-2v-4c1 0 4 1 8 3l8 2c3 0-2-2-8-4-7-2-9-4-3-3 3 0 3 0 3-2 0-1-1-2-2-1-1 0-2-1-3-2 0-2-1-2-2 1zm-59 27v9h38c0-1-3-2-7-2-3-1-11-3-17-5-14-5-14-4-14-2z" fill="#ccc"/></svg>