<svg version="1" xmlns="http://www.w3.org/2000/svg" width="600" height="400" viewBox="0 0 450.000000 300.000000"><path d="M184 1c-2 1-1 2 3 1 5 0 5 0 0 4-2 1-4 2-4 3 1 0 7-3 10-5 1-1 1-1 0 2-1 1-2 2-3 2s-1 1-1 1c1 2-7 10-10 10-1 0-3 1-5 2s-4 2-5 2c-2-1-10 1-10 2 0 0-1 1-2 0-1 0-3 1-4 2-3 2-3 3-2 3 3 0 4 0 5 1 0 1-1 1-2 1s-2 1-3 1c-1 3-7 5-10 5-5 1-12 8-7 8 4 0 1 3-3 3s-4-1-5-4c-1-1-2-3-2-3-2 0-1-4 0-4 1-1 1-1 0-2s-3-2-3-2c-1-1-2-2-3-1 0 1-1 1-3 0s-2-1-4 0c-1 1-2 1-3 0 0-1 0-1 1-1 0 0 1-1 0-2 0-1-5-2-5 0s-3 4-5 3c-1-1-1-1 1-1 1 0 2 0 2-1s0-1-1 0c-1 0-1-1-2-2-1-3-3-5-3-3 0 1-2 1-4 1-3 0-4 1-4 2-1 1-2 1-3 1-1-1-3 0-4 0 0 1-1 1-1 1 0-1-1 0-2 1s-3 2-4 2c-1-1-2 0-2 1-1 0-3 1-5 2l-4 2c0 1-1 1-1 1-1 0-2 0-2-1s-6-1-6 0-2 0-5-1c-6-3-9-3-11-2-1 1-3 2-7 2-3 0-5 1-6 1-1 2-11 5-13 5-1-1-2-1-2 0s-2 1-5 2H0v6c0 6 1 7 5 7 3 1 5 2 6 2 0 1 1 2 2 2s0 1-1 1c-1 1-4 1-6 1-6 0-6 0-6 4l1 3 6 1c11 0 14 1 20 6 3 2 6 5 6 5 0 2-4 2-6 0-1-1-2-2-4-2-4 0-6-1-6-3 0-1 1-1 2 0 2 0 2 0 1-2-3-3-7-3-9-1-2 0-3 2-2 2 1 2-1 4-4 3-5-1-5-1-5 2s0 4 1 4c2 0 5 6 5 7-1 1-4-1-4-3v-2c-1 0-2 2-2 4 0 4 0 4 3 4h2l-2 2c-3 2-3 2-3 19v17l2 1c2 0 4 1 5 0 0 0 2 1 3 2 2 2 1 3-1 2-1-1-3-1-4-1-2 0-3 0-3-1 1 0 0-1-1-1-1-1-1 0-1 7v7h4c3 0 3 0 2-1-2-2-2-2 0-3 3-3 4-2 3 0-1 1-1 2 0 4 1 1 1 1 0 1-2-1-2-1-2 0 1 2 0 2-3 2l-3-1-1 6c0 3 0 5 1 5s1 0 0 1c-1 2-1 2 3 3 2 0 5 1 7 2s5 2 6 2c2 0 3 0 4 1 0 1-1 1-2 1-3 0-1 3 5 6 3 1 8 4 10 5 2 2 5 4 7 4 3 1 2 3-1 2-2 0-2 0-1 1s4 1 6 1c2 1 4 1 4 2 0 2 0 2-2 2-2-1-3 1-1 2 0 1 1 2 0 2 0 1 2 3 4 6 3 2 5 4 5 3s1 0 1 1c1 1 2 3 3 3 4 3 6 5 5 6-2 1 0 3 3 3 1 0 5 3 8 6s6 6 7 6c0 0 1 0 1 1 0 0 1 1 3 2s5 3 8 4c7 6 17 13 26 17l8 4h3c2 0 2 1 2 2 0 2 6 6 9 6l2 2c2 3 3 4 5 3 1-1 3 1 2 2-1 0 18 9 19 9s3 1 5 3 6 3 8 4 5 2 7 4l3 2h49c40 0 50 0 52-1 1-1 3-2 5-2 1-1 7-4 12-7s12-7 14-8c10-6 11-7 14-10 2-2 4-3 4-3 1 0 1 0 1-1-1 0 0-1 2-1 1-1 2-1 2-2s1-1 1-1c1 0 3-1 6-3 4-2 5-5 3-5-1 0-1 0 0-1 1 0 2-1 2 0 1 1 7-2 7-3s1-2 2-4c2-2 2-3 1-3-1-1-1-1 0-1s1-1 1-1c0-3 0-4 7-6 14-4 21-7 21-9 0-1 0-2 1-2s1 1 1 2c-1 2 0 1 3-2 2-3 2-4-1-1-2 1-2 1-2 0s1-2 2-3c2-1 3-2 3-3 0-2-1-3-1-2-1 0-1 0-1-1 0 0 0-1 1-2 1 0 1 0 1 1s1 0 2-1v-2c1-1 0-1-2 0 0 1-1 1-1 0 0 0 1-1 1-2 2-1 4-1 3 0 0 1 0 1 1 1 1-1 2-1 3-1v-1c-1-1 0-1 1 0 1 0 1 0-1-2-3-3-2-3 10-8 5-1 10-4 12-5 1 0 2-1 3-1 0 1 2 0 4-2 3-3 3-3 2-5-1-1-2-2-2-3-1-3-9-4-12-2-6 3-8-2-3-6 7-7 11-7 18-3 5 4 5 4 5-7v-10l-4-3c-5-3-6-5-4-5l4 2c4 4 4 4 4 0 0-2-1-3-1-3-1 0-2-1-3-2 0-3-3-5-3-4-1 1-2-5-2-7 1-1 1-2 0-2-2-1 3-6 5-5 1 1 2 1 2 0 0-2-5-3-7 0-4 3-4 0 0-4 4-5 4-4 0-6-2-1-4-2-4-3 0 0 0-1-1-1-2 0-1 2 1 5 1 1 2 2 1 2s-7-5-5-5 1-5-2-6c-3-3-2-4 2-2 2 2 3 2 4 1s2 0 7 3c6 4 6 4 6 2s-1-3-1-3c-2 0-6-5-6-8s-2-7-5-9c-1-1-1-1 0-3 3-2 4-1 7 1l2 3 2-3c2-3 1-4-2-4-2 1-2 1-2 0 1-2 0-2-4 0-3 1-6 2-7 2-2 0-3 1-3 2-1 1-4 0-4-2 0-1-4-6-5-6-2 0-9-8-9-11-2-6 2-9 9-9 4 0 5-1 1-4-2-2-3-2-5-1-1 1-2 1-3 0 0-1-2-1-4 0s-3 1-3-1-2-1-2 2c-1 2-1 3-2 3s-1-1 0-2c0-3 0-3-6-4-4 0-5 0-3-1s2-1 1-1c-1-1-3-1-3-1-1 0-4-2-7-5-7-6-12-10-12-10-2 2 5 12 13 20 5 5 11 12 14 15 7 8 10 11 19 19 4 4 7 8 6 8 0 1 1 2 1 3 3 2 2 3-1 2-1-1-3-2-4-4 0-1-2-2-3-2s-2-1-2-1c0-1-3-4-7-7-3-3-7-6-9-8-1-1-2-2-2-1 0 0-1-2-3-4-2-4-4-7-6-7s-1-2 1-2c1 0 0-1-2-2-2 0-3-1-3-2 1 0 0-2-2-4-9-10-10-11-10-12 0-2-2-1-4 4-1 2-3 4-3 3s-1-1-2 0c-2 0-3-1-1-3 1 0 1-1 0-1-1-1-1-2 1-3 1-1 1-1 3 1 1 1 1 1 1-1-1-1 0-2 1-3 2-1 3-2 3-3s-4-8-5-8c0 0-2-1-3-2-2-2-6-4-9-6-3-1-7-3-8-4l-2-1 2-1c2-1 3 0 4 1 2 2 2 2 2 0 0-3-2-8-3-8h-2c-1-1-3-1-3 0-1 1-2 1-2 0-1-2-4 1-4 3 0 1 0 1-1-1s-1-2-2 0c-1 1-2 1-2 1 0-1-1-1-1 0-2 1-3 6-1 6 1 1 1 4 0 4-2 0-5-9-3-11 1 0 1 0 1 1s0 1 1 1c1-2-2-6-6-8-3-2-4-3-4-4 0-5 1-5-70-5-37 0-68 0-68 1zm124 50c1 2 1 3 2 2s1-1 1 0l1 1c2 0 8 6 8 7-1 0 0 1 1 1 1 1 2 0 3 0 0-1 2 0 2 2-1 0 0 1 0 2 1 0 1 4 0 4-1 1 0 1 1 1 1-1 2 0 2 0 0 1 0 1-1 1s-1 1 0 2c0 1 0 1-2 0-3-3-6-5-6-7-1-1-2-2-2-1-1 0-2-1-3-3s-3-5-5-6c-2-2-3-4-3-5l-1-1c-2 0-2-1-1-2 1-2 2-1 3 2zM40 69c1 0 2 1 4 2 1 0 4 1 5 1 1 1 3 1 4 1s1 1-1 2c-2 4-4 4-4 2s-1-2-7-2c-7 0-10-1-7-3 1 0 1-1 0-1 0-1-4-1-6 0s-5 0-5-2c0-3 14-3 17 0zm-6 22c-1 4 2 5 9 4 5 0 5 0 3 1-1 1-4 2-6 3s-3 1-7-2c-2-1-4-3-4-4s-7-1-11 1c-3 1-4 3-2 4s-1 3-3 3c0-1-1 0-2 0 0 1 1 1 2 1s2 1 2 1c0 2 0 2-4 0-2-1-2-1-2 0 0 2-1 2-4 2s-4 0-2-1c3 0 7-3 5-3-1 0-1 0 0-1s1-2-1-2c-1-1 0-2 4-3 2-1 5-2 7-3 1 0 4-1 6-1s4-1 6-1c3-3 4-2 4 1zm99 0c1-1 1 0 1 2 0 1-1 3-2 3h-2c-1 0-1 1-1 2s1 1 2 1c3-1 5 0 3 3-1 1-1 1 0 1 1-1 2-1 3-2 1 0 2-1 2-1s1-1 2-1c1-1 2 0 2 1s-1 2-3 3c-2 0-2 1-2 2 1 2 0 2-3 1-1-2-2-2-2 0-1 1-2 1-4-1-1-1-3-2-3-2-1 0-1-1-1-1 0-2-4-1-5 1-1 1-1 2 0 2 1 1 1 1 0 1s-4 1-6 2c-2 2-3 2-4 1s-1-1 0-1 3-1 5-3l2-2h-2c-1 0-3 1-3 1-1 2-2 0-1-2s1-4 0-4-1 0-1 1c0 2-2 4-5 4-2 1-2 0-2-1 1-1 4-4 10-6 1-1 3-2 3-3 1-1 2-1 2-1 1 0 1 1 0 1-1 1-1 2 0 2 0 0 1-1 1-2 1 0 2-1 3-1s2-1 4-1c1-1 2-2 3-1s3 1 4 1zm207 2s0 2-1 2c-1 1-1 2 1 2 0 1 1 1 1 2-1 1 0 3 2 5l4 4c0 1 1 3 2 5 3 3 3 6 0 5 0-1-1 0-1 0-1 1-1 1-2 1 0-1 0-1 1-2 2-1-1-9-3-10-1 0-2-1-2-2 0-2-1-3-3-1-1 2-3 2-2 0 0-1 0-1-1-1-2 0-2 2-1 4 1 0 1 1 1 1-3 1-4 1-6-1-1-2-2-3-1-3s1-1 1-1c-1 0 0-1 1-1 1-1 2 0 2 0 0 1 1 1 1 0 1-1 2-2 1-2 0-1 0-1 1-1s1 0 0-1c-1 0-1-2-1-3 1-2 1-3 0-3-1-1 0-1 1-1 2 0 3 1 4 2zm-238 13c-1 1 1 2 2 0 0-1 1-1 3-1 3 0 3 0 2 2-1 1-2 2-2 3 1 1 0 1-1 1-2-1-3 0-6 2-3 3-3 3-1 5 1 1 1 1 2 0s2 0 1 2c0 1 1 1 2 1 1-1 2-1 2 0s-1 1-3 2c-3 0-5 2-2 2 1 0 1 0-1 1-1 1-3 2-4 3s-1 1-1 0 1-2 2-3l1-1c0-1-7-1-8 1 0 2-2 1-2-1 1-1 0-2-1-2-2-1-9-6-8-6s0-1-1-3-1-2 1-2c1 0 2 1 2 2 1 2 4 6 6 7 3 0 5-1 2-2-3-2-5-8-2-7 1 0 2 0 2-1 0-2 2-3 2-1 1 1 1 1 1 0 0-2 4-4 5-4 0 1 1 0 2-1 1-2 3-2 3 1zm238 4c-1 3 0 4 1 4 1 1 1 2 1 3-1 1 0 2 2 3s3 3 3 4c0 0 0 1 1 1 2 0 2 3 0 5-1 2-1 2 1 2 1-1 2-1 2 1 0 4 0 5 1 5s1 0 1-1 0-1 1-1c0 0 1 1 1 3s-1 3-1 2c-1 0-1 0-1 1 1 3 4 2 4 0 0-1 0-3 1-4 1-2 1 14 0 18-1 2 0 3 1 4 1 2 1 2 0 2-3 1-4-3-3-5s1-3-1-4c-1-2-1-2 1-2 2 1 2 1 2-1-1-1-1-3-1-4s0-1-1 0c-1 0-1 1-1 2 1 0 1 1 0 1 0 0-1-1-1-2-1-2-2-1-4 2-1 3-1 5 1 3 1-1 3-1 2 1-1 1-2 1-2 0-2 0-1 1 1 3 1 1 1 3 0 4 0 1 0 1-1 0 0-1-1-2-2-1-2 0-2 0-2-1 1-2 0-2-3 0-1 1-2 2-1 3s1 2-1 2c-1 0-1 1 1 3l2 2h-2c-1 1-2 2-1 2 0 0 1 1 0 2 0 1 0 1-1-1-1-1-1-1 0 1 0 3-2 10-3 10s-1 0-1 1 1 1 1 1c1 0 2 1 1 2 0 1 0 2 2 1 3-1 3 3-1 5-3 1-4 3-2 3 1 0 2 0 2 1 1 1 1 1 1 0 0-2 0-2 1-1s0 4-2 4c-1 1-2 2-1 4 0 2-1 5-1 7-1 2-2 6-2 8 0 3-1 5-1 6-1 1-2 2-2 3s0 1 2 0c2-2 2-2 3-1 2 1 3 0 1-2-1-1-1-3 1-3 1 0 1 1 1 1-1 2 0 2 1 2s2 1 2 2c1 1 0 1-2 1-1 0-1 2 0 2 2 2 1 5-1 6h-2l2 3c3 2 2 3-2 0-3-1-3-1-3 1 0 3-4-4-5-8 0-6-1-6-2-2 0 1-1 3-1 4-1 1-1 2 0 3s2 4 2 8c0 5 1 7 2 7 2 0 2 3 0 6-2 1-3 2-3 1 0 0 0-1 1-2 1 0 1-1-1-3-1-1-1-2-1-4s0-4-1-5-1-1 0-2c1-2 1-4-1-6-1 0-1-2-1-5 0-2-1-4-2-5-1-2-1-2 1-2 2 1 2 1 2 0-1-1-1-1 0-1l2 2c1 2 1 2 1 1s0-2-1-3c-1 0-1 0 0-1s1-1 0-3v-3c-1-3-3-5-7-8-3-2-5-4-5-5s-1-1-3-1-4-1-4-1c0-1-1-2-2-3s-1-1 0-2c2-2 3-2 5 2 3 4 4 4 4-1 1-3 4-7 5-6 1 0 1 0 1-1s1-1 2-1c2 1 3-1 1-2-1-1-2-2-2-3s0-1 2 0c1 2 2 2 4 2 3 0 4-1 2-3-1 0-1-1 0-3 1-1 2-2 1-3-1 0-1-1 0-1 0-1 1-1 1 0 1 1 1 1 2 1 0-1 0-1-1-2-1 0 0-1 1-2 2-1 3-2 3-2 0-2-2-1-4 1-3 3-3 3-2-1 0-1 0-2-1-2 0 1-1 0-1-1-1 0 0-1 1-1 0 0 1 0 1 1s0 1 1 1 1-1 1-2c-1-1-1-2 0-2s2-1 2-2 0-1 1-2c1 0 1 1 1 3s0 4 1 4 1-7-1-10c-1-1-1-2 0-2s1 0 1-1c-1-1 0-1 1-1s1 0-1-2c-1 0-3-1-4-1-1 1-1 0 0-2 3-3 3-5 0-8-1-1-3-3-4-5 0-1-2-2-3-2s-3 0-3-1 1-1 3-1c3 1 4 1 1-2-1-1-1-1 0-2s1-4 0-4-2-1-3-2-3-2-3-1c-3 1-3-2 0-4 2-1 2-2 1-3-2-2-1-4 1-3 0 0 1 0 1-1s1-1 2-1l1 1c0 1 1 1 4 1 2-1 4-1 4 0s0 1 1 1c0 0 1-1 0-3 0-1 0-2 1-2 0 0 1 2 1 3zm-263 1c0 1-1 1-2 1s-1 0 0 1 0 2-2 3-4 2-4 3 0 1 1 1c0-1 1-1 1 0s-1 1-3 2c-4 0-4 2 1 1 2 0 3 0 4 1 0 1 1 2 2 2 2 0 5-3 4-4 0 0-1 0-1 1-1 1-1 1-1 0 0 0-1-1-2-1-3 0-4-2-1-3 1 0 2-1 2-2s1 0 3 2c1 2 3 3 4 3s3 3 3 4-1 0-3 0c-2-1-3 0-3 0 0 1 1 1 2 1s2 1 2 1c0 1 1 2 1 2 1 0 1 0 0 1s-1 2 0 2c0 0 1 1 0 2 0 1 0 1 1 1 1-1 3-1 3-1 1 0 1 0 0-1-3-2-1-2 2 0 4 1 6 1 4 0-1-2 3-6 6-6 0 0 2-1 3-2 3-4 5-4 7-2 1 1 2 1 3 0 1 0 3-1 5 0 1 0 2 1 1 1s-2 0-2 1 1 1 2 0c3-1 8-1 8 0-1 0-2 1-2 1-1 0-3 1-6 2s-3 1-1 2l1 1c-1 0-1 1 0 1 1 1 2 2 2 1 1 0 2 0 2 1 1 1 1 1-5 1-3 1-5 1-5 1-2 0-4 0-4-1 1 0 1-1 0-1 0-1-1 0-2 1s-2 2-3 2c-2 0-3-1 0-3 1-2 1-2-1-2-1 0-2 0-2 1 0 2 0 3-3 3-4 0-7 3-4 4 2 1 2 1 1 1s-1 0 0 1c1 0 2 1 2 0 1 0 2 1 3 2 2 2 1 4-2 4-2-1-4 1-3 3 1 1 1 1 0 1l-1-1c0-1 0-1-1 0-1 0-2 1-3 0 0 0-1 0-1 1s0 1 1 1 1 1 1 2 0 2-1 2-6-4-5-5c0-1 0-1-1-1s-1 0-1 1 0 1-1 1-1-1-1-2c1-1 0-2-1-2-2-1-2-1-1-2s2-3 2-4c0-2 0-2 1-2s1 0 0-1c0-1 0-1 1-1s1 0 2-1c0 0 0-1-1-1s-1 0 0-1c0-1 0-1-1-1s-1 0-1 1-1 1-4 0c-2-2-1-4 2-2 1 1 2 1 2 0s0-1-1-1-1-1-1-2c1-1-1-2-3-1-1 0-2-1-3-2s-2-1-2 0c0 0-1 1-2 1s-1 0 0 1 2 2 3 1c1 0 1 0 1 1-1 1-1 1 1 0 1 0 2 0 2 1-1 0-3 1-7 2l-5 1 2 2c1 1 3 2 4 2l1 1c0 1-1 2-1 2-1 0-2 0-4 1-1 0-3-1-4-2s-2-2-3-2c0 1 0 2 1 2 1 1 1 1 0 1s-2-1-2-2c-1-2-3-1-4 2 0 2-1 4-3 5-1 1-2 2-1 4 0 2 0 3-1 3-1-1-1-2 0-2 0-1 0-1-1-1s-1 1-1 2 1 2 1 2c1 0 1 1 1 2-1 2 0 3 0 3 1 0 1 1 1 1 0 1 0 1-1 0s-2 0-4 2c-1 2-2 2-2 1s1-3 2-4 2-3 2-3c0-2-3 0-4 2s-1 2-1 0 1-3 1-3c1 0 1 0 0-1s-1-3-1-4c1-1 1-2 0-3-2-1-1-2 2-2 2 0 3-1 2-2 0-1 0-1 1 0s1 1 2 0c0-1 1-2 1-1 1 0 1 0 1-1s0-1 1-1c1 1 1-1 0-3s-1-2 1-4c2-1 3-3 3-5 1-2 4-2 8-1 1 1 2 0 3 0 1-1-3-2-8-2-1 0-3-1-4-2-1-2-1-2 1-2 3 0 3 0 2-2s-2-3-2-3c-2 0-1-2 3-3 1-1 3-2 3-3s0-1 1 0 2 1 5-1c5-2 7-2 7-1zm60 26c1 2 12 2 14 1 1-1 1-1 2 0 0 1 1 1 2 1 1-1 1-1 1 1 0 1-1 1-7 1-4 0-7 1-7 1 0 1-4 1-6 0-1-1-2-1-2 0s-1 1-2 0-1-1-3 0c0 1-1 1-2 1 0-1-2 0-5 1-4 3-8 3-6 1 0-1 1-1 2 0 1 0 1 0 1-2s1-2 4-2c6 0 9-1 9-3 0-1 1-1 4-2 1 0 1 1 1 1zm56 17c0 1-1 1-3 1-1 0-3 0-3 1-1 1-1 1 0 1s1 0 0 1-1 1 0 2c2 2 1 2-2 1-2-1-2-1-3 0-1 2-2 2-3 1 0-1-1-1-1 0-1 1-1 1 0 2s1 1 0 3c-2 1-2 1-3 0s-3-2-5-2c-5-1-5-3-1-3 2 0 3 0 3-1s-2-1-7-1c-4 0-6 0-5-1s14-2 16-1c1 1 3 0 4-2 2-2 3-2 4-1 0 1 1 1 1 0 1 0 0-1 0-1-1-1 0-1 3 0h5zm-89 14c0 1 0 1 2 0 3-2 10-3 8-1-1 2 2 3 4 2 1-1 1-1 1 0s0 1 1 0c2-3 7 1 6 4 0 0-1 1-4 1-1 0-2 0-1 1 0 1 0 1 1 1 1-1 13 2 14 3 0 1 0 1-2 0-1 0-1 0-1 1 1 1-4 0-5-1-2-1-3-1-2 0 1 2-1 1-3-1-1-1-3-2-3-1-1 1-10 2-10 1l2-2c1-1 1-2 0-2s-1 0 0-1c1-2-1-3-2-2s-1 1-2 0c0-1-2-1-3-1-2 0-2 0-2-1 0 0-1-1-2-1s-2 0-1 1c0 2-2 4-4 4-1-1 0-5 2-5 0 0 1-1 0-2 0-1 0-1 1 0 2 2 5 1 3 0 0-1-1-2 0-2 1-2 3 2 2 4zm-50 0c0 3-1 5-1 4-1 0-1 1-1 3 1 1 1 5 1 7l1 5-3-5c-1-2-2-5-2-6-1-1-1-2-2-2v1c0 1 0 3 1 4 0 3 0 3-1 3-2-1-2 0-3 1 0 2 0 2-2-1-1-3-1-7 0-7 1-1 3-3 4-6l3-4v3c0 5 2 5 3 0 0-5 1-5 2 0zm188 60c2 1 4 2 5 3l2 2c1 0 2 1 2 2 1 2 1 3 2 3 0 0 1 1 0 2 0 2-3 3-3 1 0-1 0-1-1 0-1 0-2 0-4-1-3 0-3 0-2-1 2-1 2-1 1-2s-1-1 0-1 2 0 1-1c0-1-1-1-1 0-2 1-3 1-3 0s1-2 2-2c2-1 0-3-2-2-1 0-2 0-2-2 0-1 0-1-1 0-2 1-5 1-5 0 0-2 5-5 6-4 0 1 2 2 3 3zM0 276v24h7c4 0 8 0 9-1s2-1 2 0c0 0 1 1 2 1s2-1 2-1c0-1 3-1 3 0s8 1 21 1l21-1-8-5c-4-3-18-13-31-23-14-9-25-17-26-18-2-1-2 0-2 23z" fill="#ccc"/></svg>