<svg version="1" xmlns="http://www.w3.org/2000/svg" width="600" height="400" viewBox="0 0 450.000000 300.000000"><path d="M0 150v150h49c36 0 48 0 48-1s0-1 1 0 10 1 10 0 1-1 2-1 1 0 0 1c0 0 3 1 8 1 6 0 10 0 10-1 1-1 2-1 2-1 1 0 1 0 1 1-1 1 1 1 5 1h7l2-5c1-2 2-5 2-6l1-1c1 0 1-1 1-1 0-1 0-2 1-3 3-3 10-17 10-20-1-1 0-2 1-2s2-1 2-2c1-4 4-7 5-5s4 0 6-4 6-10 7-10 0 7-1 9c-1 0-1 2-1 4 1 1 0 2 0 3-2 1 0 2 2 1s5 0 5 2c1 1 1 2-4 2-4 1-5 1-5 8-1 4 0 5 3 2 1-1 1-1 2-1 0 0 1 0 2-1 2-1 2-1 0-1-4 0-8-2-5-2 1 0 2-1 3-2 0-2 1-2 2-1s2 1 3-1c1-1 2-2 4-1 3 1 2 5-1 6-1 1-2 1-2 2 1 1-2 3-3 2-2 0-2 0-1 3 1 2 1 3-1 4-1 2-2 4-3 5 0 2-1 3-1 4-4 2-3 4 1 6 4 1 5 3 3 3-1 0-2 1-3 2s-1 1 3 1 5-1 5-3c0-1 0-2 1-2 1-1 5 3 5 4s1 1 3 1h3l-5-5c-3-3-6-5-6-5s-1 0-3 1c-1 1-3 1-3 0-2 0 2-6 4-6 1 0 2 0 3-1 0-2 2-1 2 0-1 2 0 2 2 2 1 0 2 1 2 2s1 2 4 2c4 0 5-1 1-6-2-2-3-5-3-7 0-1-1-2-2-2s-1 0 0-1c1-2 4-1 5 1 0 1 1 2 1 2 2 0 0-8-2-11 0-1-1-3-1-4 0-2-2-3-4-2-1 1-1 1-1 0s1-2 2-2c1-1 1-2 1-4-1-1 0-2 0-2 1 0 0-1-1-1-3-1-3-4 0-3 4 0 6-4 3-8-2-3-3-3-4-1 0 1-1 2-1 3 0 2-3-5-3-7s5-6 6-5c1 0 2 0 2-1s1-2 2-3c0-1 1-2 1-4 0-1 0-2 1-2s1 0 1 1c-1 2 4 8 8 9 5 1 7 0 4-2-1-1-1-1 0-3 1-1 2-1 2 0 0 0 1 2 3 3s3 1 2 2c-1 0-1 1-1 2 1 0 1 1 0 1-1 1-1 1-1 0s-5 0-6 2c0 1-1 2 0 2 0 0 1 1 1 3 0 3 0 3 3 3 1-1 1-2 1-3-1-1 0-2 0-4 2-1 2-1 3 1s2 3 3 3 1 0 0-2c-1-1-1-2 0-4 2-2 2-3 0-6s-1-7 2-8c2 0 2 0 1 2s-1 4 0 4 1-1 1-2c0-3 2-4 4-3s2 1 3 0c1-2 1-3 0-3-1 1-1 1-1 0s1-1 1-1c1 1 2 0 3-2l2-2 1 3c0 1 1 3 1 3 1 1 1 3 1 5 0 1-6 1-6 0-1-1-2-1-2-1-1 0 0 5 1 6v4c0 4 2 7 3 6 1 0 1-1 0-2-1 0-1-2 0-3 0-3 1-3 3-1s2 2 1 4c0 2-1 4-1 5 0 2 0 2 3 0 2-1 3-3 4-5 0-1 2-3 3-4 2-2 3-3 3-4 0-2-1-1-3 1-1 1-2 2-2 1s0-1-2 0c-1 1-2 1-3 0-2-2-3-5-1-5 0 0 1-1 1-2l1-1c2 0 3-2 2-3 0-1-1 0-2 0-1 1-1 1-1-2 1-2 1-4 1-6 0-3 2-3 2 1 1 3 3 2 2-3 0-4 2-4 4 0 1 5 3 6 4 4 1-1 3-1 4 0 4 0 4-2 1-5-4-2-2-7 2-7 2 0 4-1 6-3l2-2 3 2c2 1 4 2 4 3 1 3 5 3 5-1 0-2 0-3 3-3 2-1 4-2 5-3 1 0 3-1 4-1 1-1 5-2 9-3 3-1 6-2 7-1 1 2 4 1 4-1 1-3 4-3 14-1 3 0 8 1 10 1 5 1 5 1 4 4 0 2 0 2 1 1 2-3 2-5 1-5-2 0-2-1-1-3 1-1 3 0 7 0 6 1 6 2 4 3-1 2-1 2 2 1 3 0 4-1 2-2s-1-3 4-4c2-1 5-2 5-3 2-2 5-1 6 1 0 2 5 2 8 0 0-1 1-1 1 0 1 0 1 0 1-1s-2-2-7-1c-4 0-4 0-2-1 1-1 3-2 4-3s1-1 4 2c2 1 4 2 5 2l4 2c2 3 3 3 7 3 2 0 3 2 0 2-1 0-1 0 1 2 4 5 2 10-3 7-1-1-2-1-2 0-1 1-2 1-4-1-4-2-4-2-4 0s-2 3-3 2c-1-3-5-4-5-2 1 2 1 2-1 2-1 0-2-1-2-3s-2-3-5-3-3 2 0 3c2 0 3 2 3 2 1 1 2 3 4 3 2 1 2 1 1 2-1 0-2 1-2 2 1 0 1 2 2 2 0 1-1 2-2 2-2 0-2 0-2 1 2 7 2 10 0 11-1 0-2 1-2 2 0 0-1 1-2 1s-2 1-2 1c0 1-2 2-5 2s-6 1-8 1c-3 2-4 5-1 5 1 0 1 1 1 7-1 8-3 12-7 15-3 2-3 3-3 8 0 6-1 7-8 15-1 1-4 3-5 3-2 0-4 2-6 5-2 2-3 3-5 3s-5 1-7 2l-4 1h4c3-1 5 0 5 0 1 1-1 5-2 5s-2 0-3 1c0 1-1 1-4-1-2-1-3-1-4 0-1 0-2 1-3 1s-2 1-2 2c0 2 1 2 18 2 12 0 18 0 17-1-2-1-2-1 1 0 1 0 16 1 33 1 27 0 31 0 31-1 0-2-3-2-6-1s-3 1-5-1l-2-2 2-2c1-1 2-2 1-3 0-1 0-1 2-1 2 1 2 1 0-1s-4-3-5-3c-2 0-2 0-1-1 1 0 1-2 1-2-1-2 3-5 4-3 1 1 8 4 9 3 0-1 0-2-1-3-2-2-13-4-14-2s-8 0-9-2-2-2-5-2c-4 0-5 0-6-3-2-1-3-3-4-3s-1-1 0-3c3-2 14 0 15 2 1 1 2 2 3 2s1-1 0-3c-1-1-1-1 0-1 2 0 3 3 3 6 0 2-1 3-3 3-1 0-2 0-2 1s3 2 7 2c1 0 1 0 0-1-2-2-2-2 0-3s2-2 1-4c0-2 0-2 2-2 2 1 4 1 5-1 1-1 2-1 2 0 0 2 5 1 6-1 1 0 3-1 4-1 3 0 3 0 4-3 0-2 1-3 3-3 2-1 2-2 2-3 0-2 0-3 1-4 2-2 2-3 1-3-1-1-1-1-2 0s-1 1-1 0l-1-1c-2 0-3-2-3-5 0-1 0-2-1-2 0 1-3 1-6 1-2 1-6 1-7 2-3 0-3 0-2-1 0-2 3-3 7-2 1 0 2-1 3-2 0-1 1-1 1 0s1 1 2 0c3-2 4-1 5 2 0 2 1 3 1 3 4 0 5 1 8 4 4 4 5 5 8 2 1-1 1-1-1-3-2-1-2-2-1-4 2-1 2-1 2 0s1 2 1 2c1 0 2 1 2 2 1 0 0 1 0 1-1 0-1 0-1 1 1 0 2 1 2 0 1 0 2 1 3 3 1 4 2 5 6 5 2 1 3 2 3 3 1 2 1 1 1-1 0-3 0-4-2-4s-4-3-4-8c0-1 0-1-1-1 0 1-1 0-1-1 0-3-2-5-4-5-1 0-2-1-2-1 0-1-2-1-4-1-3 1-5 0-6-1-1 0-2-1-3 0-2 0-2 0-1-1 0-1-1-3-2-5-2-1-3-3-3-5s0-2 1-1 2 2 3 2c3-2-10-13-14-11 0 0-1 0-1-1 0-2 1-2 3-1 2 0 3 1 3 0s-5-3-7-3c-1 0-1 0 0-1 2-1 2-2 1-3 0-1-1-2-1-3 0-2 0-2 2 0l3 2 2-2c3-5 7-6 14-7 6 0 7 0 7 2 0 1 0 1-2 0-3-1-4 0-3 3l2 2c1 0 1 1 1 2s0 1 2 0c1-1 1-1 1 0s3 1 5 0c1-1 1-1 1-2-1 0-5-7-5-9 0-1 3 1 3 3 1 3 3 4 4 1 0-1 0-3-1-3-1-1-1-2-1-4 0-3-3-7-4-5l-1 1c-1 0-1 0-1-1 1 0 0-1 0-1-1-1-1-1 1-3l2-2-2-3c-1-2-3-3-4-3-2 0-2 0 0-2 1-1 2-1 2-1 0 1 1 1 1 0 2 0 0-2-2-2s-3-1-4-1c-1-1-1-1-2 0 0 0-1 1-2 0-1 0-1 0 0-1s0-1-2-1-3 0-3-1-1-2-2-1c-2 0-7-3-7-5 0-1 0-1-1 0s0 2 0 3c3 4 1 5-4 2-2-1-4-2-4-1s0 1-1 0c-2-1-1-3 1-2 1 0 1 0 0-2-1-1-2-2-2-1-1 2-3 0-2-2 0 0 1-1 3 0 2 0 2 0 0-1s-2-5 0-4c0 0 1-1 1-2s0-1 1-1c0 1 1 0 2-2 2-1 3-2 4-1 2 1 3 1 2 0 0-1 0-1 1-1l1 1c0 1 2 1 4 1 3 0 3 0 3 2-1 3 1 5 4 3s5-1 4 2c0 2 4 5 5 3 0-3 2-2 2 0v1l2 2c2 2 5 3 4 1-1-1 0-1 1-1 0 0 1 0 1 1-1 1 0 1 2 1 1 0 3 0 4 1 2 1 2 1 2-2 0-2 0-2-1-1-1 2-1 2-1 0 0-1 0-2 1-2 1-1 1-13 1-33V91l-3 4c-3 3-4 4-6 4h-5c-1 1-1 1-1 0s0-2-1-1c-1 0-1 0-1-1 0 0-1-1-3-1-6 0-10-1-12-3-1-1-2-1-2 0s1 2 2 3c2 1 2 2 0 3-2 2-2 2-4 0s-2-2 0-2c1 0 1-1 0-2-2-2-5-2-5 1l-1 1c-1 0-2 0-2 1s0 1 1 1c1-1 1 0 1 0 0 1 0 2-1 2s-1 0-1-1-1-1-1-1c-2 0-3 2-1 2l2 2c2 1 2 1 1 2s-2 2-2 3-1 3-2 3-1-1-1-3c1-3 1-4 0-3-2 0-2 0-2-2 0-1 0-3-1-3s-1 0-1 1c1 1 0 2 0 3-1 1-2 2-2 4 0 1 1 2 1 1 1-1 2-1 3-1s1 0 0 1c-2 2-1 3 1 2 1 0 1 0 0 2-3 3-4 4-5 3-2 0-1 3 1 4 3 3 2 10-1 10-1 0-1-1 0-3 1-1 0-5-1-5s-2 2-2 3-1 2-1 2c-1 0-1-1-1-2 1-1 1-3 2-4v-3l-2 3c-1 1-3 2-4 1-2 0-1-2 1-2 2-1 2-1 1-3s-4-1-4 2c0 1-2 2-3 1s-1-4 0-4c2 0 1-2-2-2-4-1-6 0-6 3 0 1 1 2 2 2 4 0 4 2 1 5-2 3-5 4-5 2 0-3-3-3-5 0-1 3 0 4 2 1 2-2 2-1 1 2-1 1-1 2 0 5v3s-1-1-1-2c-1-1-2-2-3-1 0 0-2-1-3-2-3-3-4-5-2-5 1 0 1-1 0-2s-1-1-2 1c0 2-1 2-3 2s-3 0-3 1 0 2 2 1c3 0 8 4 7 7s-1 3-4 0l-3-3-2 2c-1 2-2 3-3 2s-1-1-2 1c-2 5-4 6-6 5-1-1-1-1 1-1l2-2c0-2-3-2-6-1-4 3-6 0-4-4 2-3 6-4 9-1 3 1 6 1 6-1 0 0-1-1-1 0-1 0-3-1-4-1-3-2-8-3-8-2-1 1-2 1-4 1s-3 1-3 1c0 2 0 2-3 0-3-1-3-1-4 0-2 2-1 3 1 2 2 0 3 1 5 2 1 1 3 2 3 2 1 0 1 1 1 3-1 2-1 3 1 2 2 0 4 1 5 2 3 2 3 3 2 5l-1 3-2-3c-1-2-3-3-3-3-2 0-2 2-1 3 2 1 0 3-2 2 0 0-1-2-1-4 0-3 0-3-2-2-4 0-6-1-3-2 2-1 2-1 1-2-2-1-3-1-4 0-2 1-4 0-4-3 1-1 0-2-2-2-1 0-2 0-1 1 1 2 1 5-1 8-1 2 0 3 2 1 1-2 4-1 7 2s2 4-4 4h-5c-1 1-2 0-2-2-1-1-2-3-3-3-1-1-1-2 1-3 1-2 1-2-1-2-6 2-7 2-6-1 0-2-1-3-3-3-3 0-4 2-1 3 2 0 1 2-1 6-3 3-7 2-5-1 1-1 1-1-3-1s-5 0-5-3c0-4-1-5-5-4-1 0-3-1-4-2s-2-2-2-1 0 3-1 4c0 1 0 1 1 1 1-1 2 0 3 0 0 1 1 1 2 1 3 0 5 3 4 6s-1 3 2 2c4 0 9 3 9 6s-3 5-5 5c-3-1-4-3-2-3s2-1 1-3c-2-1-2-1-5 0-3 2-4 2-2-1 1-3 1-3-1-2-1 1-2 1-5-1l-2-1 2-1 3-1h-3c-1-1-3-1-3 0-1 1-1 0-3-1-2-3-4-4-2-1s-1 7-4 8c-3 0-4-1-1-3 1-1 1-1 0-2-2-1-5-1-5 0-2 2-3 1-2-1 0-3 3-5 5-5s3-2 1-2c-1 0-2-1-2-3 0-1-1-2-2-2s-4-1-6-1c-2-1-3-1-6 1-1 1-3 2-5 2h-2l2 2c1 1 3 2 3 1s1-1 2-1 2-1 2-2c0-2 0-2 3-1 6 1 6 1 4 6-2 4-4 4-8 1l-3-2-2 4c-3 6-10 5-12-2-1-1-2-2-3-2s-3 0-4-1c-2-1-2-1-5 2s-6 4-8 1c-2-2-2-2-1-3 1-2 1-2-1-2-3 0-4-1-2-3 1 0 1-2 0-2-7 1-12-1-7-3 2 0 2-1 1-1-1-1-2-1-3 0-2 3-4 2-2-1 2-4 10-5 10-1 0 1 1 2 4 3 4 1 5 2 3 3-1 1-1 1-1 2s4 0 5-2c0 0 1-1 2-1l1-1c0-1-1-1-2-1-1 1-3 0-4 0 0-1-1-2-2-2s-1-2 0-4c2-3 7-4 7-1 0 1 1 2 4 3s3 1 6-2c1-1 3-3 4-3s1-1 1-1c0-1-2 0-4 1-5 3-6 2-7 0s-1-3-3-2c-3 0-8-2-8-4 0-1 1-1 2-2 1 0 2-1 2-1 0-2-5-1-8 2-3 1-4 2-3 2 3 0 3 2 2 4-2 1-3 1-3-2 0-2-1-2-3-2-5 1-6 2-3 4s-1 6-7 6c-2 0-3-3 0-4 1 0 1-1 1-1-1-1-4 0-8 3-2 1-4 2-5 2-3 0-5 3-2 3 2 0 3 2 1 4-2 1-1 2 2 1 3 0 6 3 3 4l-1 1c0 3 8 1 11-2 2-2 3-3 5-2 4 1 5 2 3 3-2 3-1 5 2 4s5-1 5 1c0 3-7 3-13 0-2-1-2-1 0-2l2-2c0-2-3-1-5 2-4 3-10 4-10 1 0 0-1-1-2 0-2 0-3-2 0-2 1-1 1-3-1-3-2 1-9-1-9-2l2-2c3-4 0-4-4-1s-5 4-7 4c-2-1-3-1-2 0 0 0 1 1 1 2 0 0 0 1 1 1 2 0 0 3-2 4h-3c0 1 1 1 4 1 5-1 7 0 5 4-1 3-3 5-5 4 0-1 1-2 2-3 3-2 2-3-4-3-4 1-5 1-4-1 1-1 1-2 2-3 2-1 1-2-1-1-1 0-1 0-1-3 1-2 0-4 0-4-1 0-1 1-1 2s-1 2-3 2c-2 1-3 2-4 4s-1 2-1 0 0-2-1-1c-3 2-8 3-8 2s-1-1-1 0c-1 1-2 2-3 2-2 0-2-10 0-12 1-1 1-2 0-2 0 0 0-1 1-2 0-1 1-2 2-2 0 1 0 2-1 2-1 1-1 2 1 3 1 0 1 2 1 6 0 3 0 4 1 3s1-3 1-5c-1-4 2-7 5-5 2 2 2 2 2 1 1-1 1-2 0-2-2 0 2-7 4-8h6c3 0 8-4 8-6l2-2c1-1 1-1 1 0-2 2 0 1 3-1s4-2 4 0l-3 3c-2 2-3 3-2 3 0 1 1 0 2-1 3-3 8-3 10-1 1 1 1 1 1-1 0-1 1-3 3-4 1-1 2-2 2-3 0 0 2-2 4-3 3-1 4-1 5 1s2 1 3-3c0-1 0-2-1-2s-2 1-2 2 0 1-1 0c0 0-1-1-2-1-2-1-2-1 1-2 1-1 2-1 1-2-2 0-1-1 2-6 4-7 4-9 1-9-1 0-3 1-4 2-3 3-4 2-1-1 0-2 1-3 0-3l-2 2c0 1-2 2-2 1-1 0 0-1 2-3s5-3 4-1c-2 2 1 1 5-2s6-4 5-2c-1 3 0 2 2 0 3-2 17-7 23-7 5 0 12 4 13 9 1 2 1 2 3 1 1-1 2-2 3-2 0 0 2-1 3-3 2-1 4-3 6-4 1-1 3-2 3-2 2-3 21-12 31-16 19-9 38-12 58-12 15 0 15 0 14 1 0 1-1 1-3 1-2-1-3 0-3 0-1 1-1 1-3 0s-17-1-21 0c-2 1-3 3-1 3 0 0 1 1 1 2 1 2 1 2 4 1 4-1 5-3 3-3-1 0-1 0-1-1s3-1 5 1c2 1 2 1 1 2s0 1 3 1 5-1 4-2c0-1-1-1-2 0-1 0-2 0-2-1 0-3 3-3 5-1 1 1 2 1 5 0 4-1 4-1 6 1 1 1 2 2 4 1 3-2 5-1 4 2-1 2-3 3-2 0 0-1-2-1-4 0-1 2-1 2 1 2 1 0 2 0 2 1 0 0 0 1 1 2 0 1-1 3-3 4l-2 3h2c2 0 2 0 2 1 0 2 3 3 5 1 1-1 1-1-1-3s-3-5-1-5c1 0 1 1 1 2s1 1 2 1c2-1 3-1 2 0 0 1 0 2 2 2 1 0 1 0 0 1-1 2-1 3 1 3 0 0 1-1 2-3 1-3 1-3 0-3-1 1-1 0-1-1 0-2-1-2-3-2-3 0-4-1-2-3 1-1 1-1 0-1s-2 0-2-1c0-2 4-1 4 1 1 0 2 1 2 1 3 0 4 0 3 1 0 1 1 2 2 3s1 1 0 2-1 1 0 1c3 1 0 6-4 7-2 0-4 0-5 1-2 4-1 4 2 2 2-1 4-2 6-1 2 0 7-5 5-6 0-1 0-2 1-2 1-2 1-2 0-2-2 0-2-1-1-3 1-1 1-1-1-2-1 0-2-1-2-2-1-2-1-2-3-1-3 0-4-1-3-4 0-1-1-1-2-1l-1 1c0 1-1 1-3 0-1-1-3-2-5-2-2 1-5 0-5-1s2-1 6-1c4 1 8 1 10 1 1 0 3 1 4 2 3 2 6 2 21-4 22-9 32-13 37-14 2-1 4-2 5-2 0-1 1-1 2-1s2-2 2-13V0H0v150zM210 38c2 0 5 1 5 2s-1 1-4 1c-3-1-4-1-5 1 0 1-1 1-1 0-1-1-3-1-5 0-4 0-5 0-6-2-1-1-2-2-2-1 0 3 4 5 8 5 5 0 5 0 1 2-6 3-9 6-7 7 3 2 5 1 5-1s0-2 1-2c1 1 2 0 3-1 1 0 2-1 3 0 1 0 1 0 1-1-1 0 0-1 2-1s3 0 3-1c0-2 2-4 3-4s0 2-1 5-2 6-2 7c0 2 0 2-1 1-2-1-3-1-3 0 1 1 1 3 0 4-1 2-1 2-2 0-1-3-3-4-3-2 0 1 1 1 1 1 2 0 0 7-2 9s-3 2-4-1c-2-3-3-3-2 1 0 4-2 5-3 1 0-3-5-8-6-6l2 2c3 2 3 2-2 4-3 2-3 2-4-1-1-1-2-2-3-2h-2l2 2c1 1 2 2 2 3-1 0-1 1 0 1s1 1 1 3c-1 3-3 5-5 5-1 0-3 1-4 2-2 0-4 1-5 1h-2c-3 1-7 2-8 1s-2 0-3 0c-1 1-9 1-8-1 0-1 6-3 8-2 1 1 2 1 3 0 1 0 1-1-1-1-2-1-2-1-2-3 1-1 1-2 0-2 0 0-1 0-1-1-2 0-2 0-1 2 0 3-5 6-8 4-1 0-2-1-2 0 0 0 0 1 1 2 1 0 1 1 1 2-1 0 0 1 1 1 2 1 0 3-2 3-3 0-5-2-2-2 1 0 1 0-1-1-4-2-4-1-2 2s2 3 1 4-2 0-2-1-2-1-3 0c0 1-1 2-2 1-2 0-2-1-1-1 1-1 1-2-1-2-1-1-2 0-2 0 0 1-1 1-3 1-1-1-1-1 1-2 3-1 4-3 2-3-1 0-1 0-1 1s-1 1-2 1c-2 0-2-1-2-2s1-2 2-2h2c1-1 2-1 3 1 2 2 2 2 0-3 0-1 0-1 1-1 1 1 1 0 1-1s0-1 2 0c1 1 1 1 1 0-1-2 1-4 3-3h2c0-2-3-4-3-3-1 0-1 0-1-1 0 0 1-1 2-1s3-1 6-2c2-2 5-3 6-2 0 0 2 0 2-1s3-1 5-1c4 0 4 0 2-2-1-1-1-1 0-2 2-2 2-2-3-2-3 0-5 0-6-1-1 0-1 0-1 1s2 2 5 2 2 2-2 2c-2 1-4 1-5 0 0-1-2-1-4-1l-2 1 3 1c3 1 3 1 1 2-1 1-3 1-4 1-1-1-2 0-2 0-1 1-4 2-5 0 0 0 1-1 3-1l3-1h-3c-2-1-3 0-4 1s-3 2-3 2c-1 0-2 0-2 1-1 1 0 1 2 1s2 0 1 2c-1 1-3 2-4 2 0 0-1 0-1 1s-7 4-8 4c-1-1 1-3 3-3 0 0 1 0 1-1 0 0-1-1-2 0-1 0-2 0-2-1s0-1-1 0-2 1-2 0 1-2 4-2c2-1 3-1 3 0 0 2 0 2 2 1 3-1-1-3-4-3h-3l2-1c2-1 3-2 2-2-2-1 3-3 7-4 6 0 6 0 4-1-1 0-3-1-4 0-2 0-1-1 2-2 2-1 3-2 2-2-2 0-2-1 1-4 5-4 8-5 11-3 1 1 2 1 3 1 0-1-1-1-2-2-3 0-1-2 3-2 2 0 3 0 4-1 0-1 1 0 2 1 0 1 1 1 2 1 0-1 0-1-1-2-2-1 2-4 8-5 2 0 6-1 8-2 3-1 5-1 6 0 3 1 3 1 2-1-1-1 0-1 12 0 7 0 14 1 17 1zm-47 51c0 1 0 2-1 2 0 0-1 1 0 1 0 1 0 2-1 2-2 2-3 0-1-1 1-1 1-1 0-1-2 0-2 1-2 3 0 3-2 4-3 1 0-1-1-2-1-2-1 0-1 1 1 4 1 2 1 2-2 5-2 2-4 4-4 5-1 1-1 1-2 0 0-1-1 0-1 2-1 2-2 3-2 3-1 0-2 1-3 3 0 2-1 3-2 3 0-1-1 0-2 2-2 3-2 3-4 2-1-1-1-1-1 1 0 3-3 6-4 4-2-1-2 0-2 2 0 3 0 4 1 4 3 2 2 11-2 13-2 0-2 1-2 2 0 0 0 1-1 1-2 0-1-2 1-5s2-4 1-6 0-3 0-4c1-1 1-1-1-1-3 1-4-1-5-7 0-7-1-8-3-7-1 1-1 1 0 3 1 1 2 4 2 8 0 7 0 7-2 7s-2 0-1 1c0 1 0 1-1 1s-1-1-2-2c0-1 0-3-1-5 0-2 0-3 1-3 0 1 1 0 3 0 1-1 1-1-2-1-4 0-5-5-1-5h3l-3-1c-2-1-3-4 0-6 1 0 1-1 0-1-2 0-1-5 1-6 1-1 2-1 2 0 1 0 2 1 4 0 2 0 3 0 4 2 0 1 1 2 1 4 1 1 1 2 1 3-1 0 0 1 1 3 1 1 1 1 0-2 0-3 0-4 2-4 1-1 1-1-1-1-3 0-4-3-1-5 1 0 2-1 3-1 1 1 1 1 1-1-1-2 2-3 4-1 2 1 3 1 4 1 1-1 1-1 0-1s-2-1-3-1c-1-2-7-1-7 1 0 1-4 3-5 1-1-1-1-1-1 0-1 1-6 1-6 0s-6-1-7 1c-1 1-1 1 0 1 2 0 1 5-1 6-1 0-1 1 0 1 3 0 0 7-4 7-3 0-2-4 1-6 2-1 2-1 0-1-1 0-2 0-2-1s-1-1-2 0c-1 0-2 1-1 1 0 1-1 1-2 1-3 0-3-3-1-4 3-2 5-2 5-1 0 0 2 0 4-1l3-2h-3c-2 0-3-1-3-1 0-1 0-1-1 0-2 3-7 4-6 1 0-1 0-1-1 0s-3 2-4 2c-2 0-3 1-4 1 0 2-2 1-2 0 0-2 3-4 6-5 0 0 3 0 5-1l5-1-5-1c-2 0-5 0-6 2-3 1-4 0-1-2 2-2 8-4 9-3 0 0 1 0 1-1 1-1 2-1 4-1s2 0 1-1c0-1-2-1-3 0-5 2-6-1-1-3s15-2 18 0c1 0 2 1 2 0 1 0 1 0 1 1 0 2-2 2-7 1-4-1-6-1-7 0-2 1-2 1 1 1 2 0 4 0 4 1h3c1 0 2 0 2 1h4c4 0 5 0 6 2s1 2 1 1 1-2 1-2c1 0 1-1 0-1-3-1-2-3 0-3 1 1 2 0 2 0 0-1 4-1 6 0 1 1 2 1 3 1 0-1-7-4-8-3-1 0-2 0-2-1-1-1 0-1 2-1s3 0 3-1c-2-2 2-1 4 1 2 1 2 1 2 0-1-2 2-2 5 1 1 0 2 1 3 1l-3-3-3-3 3 1c2 0 4 0 4-1 0-2 2-1 2 1l1 2v-2c1-2 9-4 11-2zm256 43c0 1 0 1 1 2 0 0 1 0 1-1s0-1 1-1c1 1 1 1 1 0s0-1 1-1c0 1 1 1 2 0 0-1 1-1 1 0 1 1 3 1 4 0 4-2 12 2 12 5 0 1 0 2 1 2s0 1 0 1c-2 3-4 2-4 0 1-3-4-6-8-6-2 1-3 1-3 1s-2 0-3 1c-2 0-5 1-6 1-5 2-7-1-4-4 3-2 3-2 3 0zm-282 23c-2 2-4 3-5 3-2-1-7 2-7 4 0 0 0 1-1 1s-1 0 0-1c1-2-1-1-6 2-6 3-7 4-7 2 1-2 0-3-1-2s-1 2 0 3c0 1-1 1-1 1-1 0-2 1-2 1 0 1-1 1-2 1-2-1-3 0-4 2-2 2-4 3-4 1s12-13 15-15 13-4 15-4 2 0 1 1l-1 1c0 1 1 1 2 0s2-1 1-2c0 0 7-2 10-3 1 0-1 2-3 4zm270 93c2 3 3 3 4 1 1-1 2-1 3 0 1 2-1 7-3 6-1 0-3 0-5-1h-4c0-1-1 0-2 0-1 1-2 1-2 0s-1-1-1-1c-2 0-3 2-1 2 1 1 1 2 1 2 0 1-1 0-3-2-3-2-4-3-5-2 0 1-1 1-2 1-1-2 3-4 5-3 1 1 3 0 3-2 0-1 0-1 2-2 2 0 3 1 0 3-1 1-1 1 2 1 2 0 3 0 3-1 1 0 2-1 3-1 0 0 1 0 1-1-1-1-2-1-3-1s-2 0-1-1c1-2 3-1 5 2zM189 42c-2 0-3 1-2 1 0 1 0 1-2 1-2-2-14-2-14-1 1 1 1 2 2 2h2c1 0 1 1 0 2-2 1-2 1-3 0-1 0-2-1-3-1-2 0-2 0 0 1 3 1 1 3-2 2-2 0-2 0-2 2s0 2 3 2c2 0 3 0 4 1 1 0 0 1-1 1-6 0-7 1-7 2-1 2 0 2 2 1 2 0 4-1 4-1 0-1 1-1 2-1s2-1 2-2c0-2 0-2 3 1 2 3 3 5 1 3s-3-1-2 0c2 3 6 2 9-1 1-1 3-2 5-3 1 0 2-1 1-2-1-2 0-3 2-3 1 0 2-1 3-2 1-2 1-2-1-2-1 0-2 1-2 1 0 1-1 2-1 2-3 0-2-2 0-3 1-1 1-1 0-1-2 0-2 0-1-1 2-1 1-2-2-1zm256-10c-1 1-2 2-3 2 0-1-1-1-1 0-1 1-8 4-10 4-1 0-2 0-2 1s-1 1-2 1c0 0-2 1-3 1-2 1-4 2-5 2-2 1-4 2-5 2l-2 2c-1 0-3 1-6 2-5 2-6 2-5 4 0 1 0 1-1 1-2-1-2 0 0 2 0 1 1 2 1 3s0 2 1 2 3 0 3 1c1 1 1 1 0 1-3-1-6 0-4 2 3 2 3 5 1 5-3-1-2 0 1 2 2 2 3 5 0 5-1 0-2-2-2-3s-1-2-1-2c-2 0-2 4 0 5 1 1 2 3 2 5 1 2 1 3 2 2 0-1 2-1 2-1 2 1 1 5-1 5-1 0-3 1-4 3-5 4-7 2-3-5 0 0 1 0 2 1 2 1 3 1 3 0s-1-2-1-2c-1-1-2-2-1-2 0-1 0-2-1-2l-1 1c-1 3-3 0-3-4 0-5-2-6-3-2 0 2-1 3-1 2 0-2-4 2-4 4s0 2-4 2c-3-1-5-1-6 1-2 1-2 1-4-2-1-2-3-3-4-3s-1 0 1 2 2 2 1 4c-1 3-1 3 2 4s4 0 5-1c1-2 2-3 5-3 4 1 5 2 3 6-1 3-1 3-5 1-4-1-5 0-5 3 0 2 0 2 1 1 2-4 9-2 8 2-1 3 4 5 7 4s3-3 0-3c-2 1-3 0-1-2 2-1 9-1 9 0s0 1 1 1c2 0 1-4-1-4-1 0-1-1 1-2 2-2 3-2 4-1 2 1 3-1 3-4 0-1 0-1 1-1 2 0 2-1 2-3-1-2 0-3 1-3s2 1 2 2c0 3 2 4 3 2 0-1 1-2 2-2s2-1 4-3 2-2 4-1c3 1 4 0 5-4 1-2 3-3 5-1 3 2 7 1 7-2 1-2 1-2 3-2 2 1 2 1 2-19 0-23 0-24-5-19zM339 61c-2 2-1 3 1 1 1-1 1-1 3 0 1 1 3 2 4 2 2 1 3 3 0 3 0 0-1 0 0-1 1-2-3 0-5 3-2 2-2 2 1 1 2 0 3 0 5 2 0 1 2 2 3 2s1 0 0-1c0 0-1-1-1-2s0-1 2 1c1 1 2 2 3 2h2s0 2-1 4c-1 4 1 4 3 0 1-2 1-2 1-1 0 2 1 3 3 1 1-1 1-2 0-3s-1-1 0-1c0 0 1 0 2 1 0 1 1 1 1 0 1 0 1-1 1-1-1 0 0-1 1-1 2-1 1-2-1-5s-3-3-6-3c-3 1-4 3-2 4 1 0 1 1 1 2-1 1-1 1-2 0s-1-1-2 0c-2 1-2 1-3 0s-1-1 1-1 2 0 0-1c-1-1-1-2 0-2 2 0 1-2-1-4-2-3-6-4-8-2 0 1-1 1-1 0-1-3-3-2-5 0zm-51 10c-1 1-1 2 0 1 1 0 1 0 1 1 0 2-6 5-8 4-1-1-2 0-3 2s-1 2 1 2c1 0 1 0 1 1 1 2 2 2 3 1 1-2 3-3 3-1s-3 3-6 4c-1 0-2-1-2-1 0-1-1-1-1-1-4 1-5 0-4-2 0-1 0-1-1-1 0 1-1 3-1 4-1 3-1 3 0 2s2-1 3-1c0 1 0 1-1 2-1 0-2 1-2 1 0 1 3 0 5-2 1-1 1-1 3 1s2 2 3 1 1-1 2 0c1 2 3 2 6 2 5 1 7-1 5-3-1 0-2-1-2-2l-1-1c-4 0-5 0-5-1s2-2 4-2c1 0 3 1 2 1 0 1 1 1 1 1 1 0 2 0 3-1 0-1 4-1 4 0s-1 1-2 1-2 0-2 2c0 3 0 3 4 0 2-2 2-3 1-4s-2-2-2-1c-1 0-2-2-1-5 1-2-2-5-4-3s-2 6 0 5c1 0 1 0 0 1s-1 1 0 1 2 0 2 1-1 1-1 1c-1 0-2 0-2-1s-1-1-3-2c-2 0-2 0-1-1s1-1 0-2c-1 0 0-1 1-2 2-2 2-2 1-3-2-1-3-1-4 0zm64 31c-2 2-1 3 1 2s5 0 6 1c1 2 0 4-2 4s-3 0-4 1c-2 2-2 2 0 3 4 1 4 1 7-2 2-2 3-2 7-2l5 1-2-2c-2-1-3-2-4-2-1 1-2 0-3-2-2-3-2-3-6-3-2 0-4 1-5 1zm92 74c-1 1-2 2-1 2 0 0 1 0 2-1 0-1 1-1 1-1 1 0 0 1-2 3s-3 3-2 4 1 3 1 3c-1 2 3 6 5 6s2-1 2-7c0-3 0-6-1-6 0 0-1-1-1-2s1-2 1-1c1 0 1 0 1-1 0-2-3-2-6 1zm-228 72c0 1-1 1-3 1-1-1-2 0-2 1 0 2 4 5 6 4 0 0 1 1 1 3 1 2 2 3 3 2 1 0 1 0 0 2 0 2 0 3 1 3 2 0 3 4 2 5-2 0-1 2 1 2 0 0 1-1 1-2 0 0 1-1 3-1 3 0 3-1 0-5l-2-3 2-5c4-6 4-7 1-7-2 0-2 1-2 4s-1 4-5 5c-1 0-2 0-2-1s-1-2-2-2 0-1 2-3l3-3-3-1c-3-1-4-1-5 1z" fill="#ccc"/></svg>