<svg version="1" xmlns="http://www.w3.org/2000/svg" width="600" height="400" viewBox="0 0 450.000000 300.000000"><path d="M0 150v150h19c20-1 23-1 45-1 12 0 13 0 13-2 0-1 1-2 2-2 6-1 12-7 12-11-1-2-1-4-2-4-1-1 0-2 3-4 1 0 1-2 1-3 0-2 5-7 9-7 1-1 4-2 6-4s4-3 4-3c1 0 1 0 1-1s1-1 2-1c2 0 3 3 1 4 0 1-1 3-1 6-1 5-2 7-5 10-1 2-3 7-5 11-1 5-2 10-3 11 0 1 4 1 17 1 16 0 17 0 21-2 4-3 6-5 4-7-1 0-1-1 0-3 0-2 0-3-3-1-4 2-3 0 1-4s6-10 3-13c-1-1-2-5 0-7 1-3 1-3 0-5-1-1-2-2-2-3l-1-1c-1-1-1-1 0-2 2-3-2-10-6-10-4 2-2-3 3-6 3-2 2-3-2-2-2 0-4 1-6 0-2 0-3 0-4 2-2 4-3 4-3-2 0-9 3-15 14-26l9-9-3-1c-3-2-4-2-1-6 1-2 1-3 2-2 0 1 1 0 3-2 1-2 3-4 3-4 1 0 1 1 0 3 0 0-1 2-1 3-1 3-1 3 0 2s2-1 2-1c0 1 1 1 2 0 2-1 2-1 2 2-2 5-3 13-2 13 1 1 1 8 0 10s-1 2 1 3c1 2 1 2 0 4-1 4-1 6 0 6s2 1 1 4c-1 5 1 12 3 12 1 1 2 2 2 4 1 1 2 5 2 7 1 2 2 6 2 8 0 3 1 4 3 5 1 1 2 1 1 2 0 1 0 2 2 2 1 0 2 0 2 2 0 1 1 2 1 2 1 0 1 1 1 3-1 3-1 3 2 3 1 0 3-1 4-2 0-1 1-1 1 0l1 1c4 0 6 0 7 2s1 3 2 2c1 0 2 1 2 2 1 2 3 3 3 1 0-1 0-1 1-1s1 1 1 2 0 1 1 0c0 0 1-1 2 0 1 0 2 0 2-1s1-1 1-1c1 1 2 0 3 0 2-1 3 0 6 4 4 6 6 6 6 1 0-1 1-2 1-2 1-1 2-1 2 0 0 3 2 1 3-3 0-2 1-4 1-4 1 0 1-2 1-4 0-3 1-4 2-3 3 1 3 1 3-1 1-1 1-2 2-2 1 2 3-1 3-4v-3l2 3c2 2 2 2 3 0 1-1 2-2 1-2 0-1 0-1 1-1 2 1 2 1 0-3-1-1-1-2-1-3 1 0-1-3-4-6-4-5-5-7-3-9 1 0 1-2 1-5-1-3-1-5 1-8 2-2 2-3 1-3s-2-1-2-1c0-1-2-1-3-1-7 0-2-4 5-4 3-1 6-1 7-3 2-1 3-2 4-2 2 0 2 0 1-2-1 0-2-1-3-1s-1 0-1-1-1-1-3 0c-3 0-4-1-1-3s9-1 17 3c4 1 7 3 8 3 3 0 4 2 3 3-1 2-1 2 2 2 1 1 2 1 1 2 0 1 0 1 1 1s4 1 6 2c5 3 13 5 13 4 0 0 3-1 6 0 4 0 7-1 7-1 1-1 2-1 3 0 2 1 2 1 2-1 0 0 0-1 1-1 3 2 11-9 9-11 0-1-1-1-2 0l-2 2c-1 0-1-1 0-2s0-3-2-5c-2-1 0-3 2-3 3 1 2 0-1-3-2-2-5-2-4 1 0 1 0 1-1 1s-2 0-2 1c-2 1-8 2-7 0 0 0 1-1 2-1l1-1c0-1 0-1 1 0s1 1 1-1c1-1 1-2 0-3 0-1 0-2 1-2 1-1 1-1 0-1s-2 0-2-1 0-1 1-1 1-1 0-3c0-2 0-5 1-6s1-2-1-3c-1-2-2-4-3-9l-1-4 2 3c1 2 2 3 2 3 0 1 1 2 2 4l2 2v-2c1-2 1-2 2-1 0 1 1 2 1 1 1 0 2 2 1 3 0 1 0 1-1 0s-1-1-2-1c0 1 1 2 2 4 1 1 2 4 2 5s1-1 2-3c2-3 2-6 2-7-1 0 0-1 0-2 1-1 1-3 1-4 0-2 1-3 2-4s1-1 1 0c0 0 1 1 2 1 2 0 2 0 1 1-2 0-2 1-2 1 1 0 1 1 0 1-1 1-1 3-1 4 1 2 0 3-1 4s-1 1 0 1 1 0 0 1c-1 2-1 2 1 2 1 0 1 0 0 1-2 3-3 15-2 16 2 1 2 3 1 5-1 0 0 1 1 2 2 1 2 2 1 2-1 1-1 1 0 2l2 2c-1 0-1 1 0 1 1 1 1 2 1 3s1 2 3 3 3 1 3 2c0 0-2 0-3-1-2 0-3-1-3 0 0 0 1 1 2 1 1 1 1 1 1 2-1 0-2 0-3-1s-2-2-2-1l2 2c2 2 1 4-1 3-1 0-1 0-1 1 1 0 1 1 0 1 0 1-2 3-3 6 0 3-2 7-3 8s-1 4-2 5c0 2 0 4-1 5 0 2 0 2 2 1 1-2 2-2 2-1 1 1 1 1 2 0 2-1 2 0 3 4 1 7 1 7 3 3 2-2 2-2 2-1 0 3 3 9 4 8 1 0 1 4 0 5-6 6-14 18-14 20h127V0H0v150zM239 8c1 1 5 4 9 7 9 8 13 14 8 13-2-1-2 0-2 2s0 3-1 2c-1 0-1 1 1 6 1 5 1 5 3 4 0-1 1-2 2-2 0 0 1 0 1-1s4-1 6 0c1 1 1 1 1 0s1-2 2-2c1-1 1 0 1 1 0 2 0 3 2 3 1 0 2 1 3 2s2 1 3 0c2-1 2-1 3 0 0 1 2 1 3 0 4 0 4 1 1 3-2 1-2 2-1 2s2-1 3-1c1-1 1-1 1 0s1 1 3 1c1-1 2-1 2 0s1 1 3 1c3 0 3 0 2 2-3 3-2 3 2 3 2-1 3-1 2 0-3 0-1 2 1 2s3 1 4 2c2 2 2 2 0 3s-2 1 2 1c5 1 13 4 9 4-2-1-3 0-2 0 0 1 0 1-1 1s1 2 3 4 4 4 5 4 4 3 3 4c0 1 1 2 2 3 2 1 2 1 0 1h-3l2 1c2 1 3 2 2 2 0 0 0 1 1 1 2 2 0 3-3 2-2-1-3 0-3 0 0 1 0 1-1 1s-1-1-1-1c1-1 0-2-1-2s-2 1-2 1c1 0 0 1-1 1s-4-2-6-5c-3-4-5-5-6-4-2 0-2 0-2-1 1-1 1-1 0-1s-1 0 0-2c1-1 1-1 0-1-2 0-3-2-1-3 2 0 2 0 0-2 0-1-2-1-3-1-1 1-1 1 0 2 1 0 1 1 1 2-1 1-2 1-2 0-1 0-2-1-3 0-2 1-1-1 2-3l2-2-3-3c-1-1-3-2-3-2-1 0-2-1-2-3-1-2-3-3-3-1-1 1-1 0-1-1 0-2 0-2-2-2-1 1-2 1-2 0s-6-5-7-4c-1 0-1-1-1-1 0-3-3-3-4 0-1 1-1 2-2 2s-1-1 0-3 1-2 0-2c-1 1-2 0-3 0 0-1-1-1-1 0-1 1-2 1-3 0 0-1-1-1-1 0-1 0-2 1-3 0-1 0-1 0-1 2 0 1 0 2-1 2s-1-1-1-3 0-2-2-2-2 1-2 3v5c0 1 1 2 2 2 0 1 1 2 1 2 0 2 2 2 3 0 2-1 2-1 2 3 1 2 1 4 2 4 1 1 3-8 2-10 0-1 0-3 1-4 1-2 1-1 1 3s0 9 1 13c0 5 0 6-1 6 0-1-1-2-1-4 0-1-1-2-1-2-2 0 0 6 2 8 2 1 1 2-1 4-1 1-2 2-1 2 0 2 2 1 2-1 0-3 2 0 3 4 2 4 3 6 3 3 0-1 0-1 1 1 2 1 2 1 2 0s0-1 1 0c1 2 2 2 5 2 2-1 3-1 3 0s1 1 2 0 1-1 1 1c0 1 0 2 1 2s1 0 1-1 1-1 1 0c1 0 1-1 1-2-1-4 1-4 2 0 0 2 1 3 2 2 1 0 2 0 2 1 1 1 1 1 0 1s-1 0 0 1c0 1 1 1 3 1 2-1 2-1 1 0-2 3 0 2 5 0 2-1 4-3 4-4s5-1 11 2c3 2 4 3 3 3-2 0-3 2 0 2 1 0 1 1-1 3-1 2-1 2 0 3 0 0 1 1 0 1 0 1 1 1 2 2 1 0 2 1 1 1-1 3-1 4 1 5 2 0 2 4 0 4 0 0-1 0-1 1s-1 1-2 1c-2 0-2 0-1 2 1 0 2 2 2 2 0 1 1 2 3 4 2 1 2 2 1 4 0 1-1 1-1 0-1 0-2-1-2-1-1 0-1 1 0 2 2 1 13 3 27 3 5 0 8 0 8 1h-23l4 2c2 1 4 2 4 3 0 0-2 0-5-2-2-1-6-2-9-3h-3l4 2 4 2-4-1c-3 0-3 0-2 1 2 2 2 2 1 2-2 0 2 3 4 3 1 0 2 1 2 1 0 2-1 2-3 0-2 0-3-1-3-1-2 0 0 5 2 7 2 1 1 1-2 0s-3 0 0 3c1 1 1 2 1 3-1 1-1 1-1-1l-2-2c-2 0-2 5-1 6 0 1 1 2 1 3s0 1-1-1c-2-1-2-1-3 0s-2 2-3 2c0 0-1 0-1 1 0 2-4 0-5-2 0-2-2-3-3-3-1 1-3 0-3 0-5-2-5-1-1 8 3 10 3 10 2 9-1 0-2-1-2-3 0-1-1-2-2-3 0 0-1-1-1-2 1-1-1-9-2-9 0 0-1-1 0-2 0-1 1-2 1-1 1 1 1 1 2 0 1-2 1-2 3-1 3 2 4 1 1-1-2-2-2-3-1-3s0-2-2-3c-3-3-3-4-3-4 1-1 2-2 2-4 1-1 1-3 2-4 0-2 0-2-1-1-1 0-2 0-2-1s-1-1-2 0c-2 1-5 0-4-1 0-1 1-1 3 0 2 0 2 0 2-1-1 0-1-1 0-1 2 0 4-7 2-10-1-4-3-5-11-5-8-1-16 1-21 5-2 1-3 2-4 1-1 0-1 0-1 1l-2 4c-3 3-3 3-1 6 1 1 1 3 1 5s6 10 7 8c1 0 1 0 2 1 1 0 1 1 0 1l-2 2c0 1 1 0 2-1s2-1 3-1c0 1-1 2-3 4-3 3-4 6-1 8 0 1 0 1-1 2 0 0-1 1-1 2 0 0 0 1 1 0 1 0 1 0 1 1 0 0 0 2 1 2 0 1 0 2-1 2s-1-1 0-1v-1c-1 1-2 2-2 3-2 3-4 4-3 1 0-1 0-1-1-1s-2 1-2 3c0 3-3 4-8 5-3 0-5 0-5 1s1 2 2 2 2 1 2 2c0 2 3 5 5 4 1 0 2 2 4 4 1 3 3 5 3 5 2 0 4 3 3 5-2 2 0 5 2 5s2 0 1-3 0-5 3-2c4 3 8 9 7 12 0 4-3 4-5-1-2-4-3-5-4-3-1 1-6-1-9-2 0-1-2-3-3-6s-2-5-3-5c-2 0-4-2-4-3s1-1 2 0c2 3 3 2 3-1 0-2 0-2-1-1s-2 1-3 0c0-1-1-1-3-1-1 1-2 0-3 0 0-1 0-3-1-5-1-1-1-4-1-5s0-2-1-1c-1 0-2 0-2-1 0 0-1-1-2-1-2 1-3 0-3 0 0-1-1-1-1 0-2 1-3 0-2-2 0-2-1-1-5 2-1 1-2 2-2 1 0 0 0-1 1-1 1-1 1-3 0-3-2 0-3 2-3 5-1 2-1 3 0 3 1-1 0 4-1 7-1 1-1 1-1-1 0-1 0-1-1 0s-1 1 0-1c1-4 1-8 0-8-1 1-1 1 0-1 0-2 0-2-1-2-1 1-1 1-1 0s3-5 4-4c0 0 2-2 5-4 4-3 5-6 3-6-1 0-1-1 1-2 1-1 1-1-1-1l-2 1 2-2c2-2 3-3 2-4 0-1-1-2 0-3 0-1 0-2-1-2s-1-1-1-5c0-1-1-2-2-2s-1-2-1-5c0-1 0-1-1 0-1 0-2 1-2 1-1 0-1-1 0-1 1-1 2-3 3-4l2-3h-5c-6 1-4-1 2-2h5l-3-1c-3-1-3-2-2-2 1-1 2 0 3 0 1 1 2 2 3 1 2-1 1-2-1-2s-3-1-3-2c0 0 1-1 2-1s1 0 0-1-1-1 0-1 1 0 0-1c-2-2-2-2 1-5 2-2 2-3 2-4-1-1-1-1 0-1s2-1 1-3c0-1 0-2 1-2 1 1 1 0 1-2-1-3-1-4 0-4 2 0 3-2 2-7 0-2-1-4 0-4 0-1-1-1-1-1-1 0-2 0-1 1 0 2-1 1-3-1-1 0-1-1-1-2 1 0 0-2-1-4-2-2-3-4-2-5 0 0-1-1-1-2-1-1-2-1-2 0 0 0-1 1-2 1s-2-1-2-2-9-7-11-7c-1 0 0 2 2 4 1 2 1 2-1 2-1 0-1 0 0 1 0 0 1 1 0 1 0 1 0 1 1 1 0-1 1 0 1 1s-1 1-4-1c-4-3-5-4-3-4 1 0 1 0 0-1l-1-1c1 0 1-1 0-2-1-2-1-2 2-2 2 1 2 1 1 0-1-2-10-2-12-1-2 0-3 1-4 1-2 1-2 1-1 2 1 2-3 2-12 0-3 0-3 0-1-1 1-2 1-2-1-3-3-1-1-1 3-1 1 0 1-1 1-2-1-1 0-2 0-2 1 0 1-1 1-2-1 0 0-1 0-1 1 0 1-1 0-2s-1-1 0-1c2 0 2 0 1-2-1-1-1-1 1-1 6 3 7 3 8 2 0 0 1-1 3-1 1 0 2 0 2-1-1-1 0-1 0-1 1 0 2 0 2-1s4-2 10-3h5c1 0 1 0 1-1-1-1 0-1 2-1s3-1 4-3c1-3 2-3 4 0 2 1 3 2 3 1 1-1 2-1 2 0 1 1 5 1 6 0 0-1 1-1 2 0 2 1 0-3-4-8-3-2-3-3-1-3s2 0 0-4-3-6 0-6c1 0 1 0-1-2-1-1-2-3-2-4-1-1-3-3-4-5s-2-4-2-6V2l2 2c0 2 2 3 2 4zm160 6c2 2 3 4 3 4 0 2 0 4 2 4 2 1 2 8 0 8-1 0-2 1-3 3s-3 3-4 4c-3 0-10-2-11-4 0 0-1-1-1 0-1 0-1 0-1-1 1 0 1-1 0-1l-1-1c0-1 0-4-1-7 0-6 1-11 5-13 4-1 9 0 12 4zm-299 9c6 2 11 3 21 5 11 2 19 4 25 7 2 1 4 1 5 2 1 0 3 0 5 1 5 1 7-1 2-3-1 0-3-2-3-2 0-2 1-2 4-1 3 3 4 2 1 0l-2-2h2c5 2 10 4 13 7 5 4 5 2 0-3-2-2-4-4-3-4s1 0 0-1l-1-1c0-3 11 5 17 11 4 5 4 8 0 4-1-1-2-2-4-1-2 0-2 0 0 2 2 3 1 2-4 0-4-2-7-2-10 1-1 2-1 2 0 2s2 0 2-1 1-1 1 0c1 0 1 0 0 1-1 0-1 1 1 2 1 0 1 1 1 2-1 0-10-4-10-5s-1-1-2-1c-2 0-9-5-9-6 1-1-9-1-10 0 0 1-2 0-4-1-5-2-11-4-17-5-2 0-6-1-8-1-5-2-17-2-22 0-2 1-2 5 1 12 0 2 1 4 1 4-1 0 0 1 1 2s1 1 0 1-1 0 0 1c2 2 2 2 1 2-1 1-2 0-2-1 0 0-1-1-1 0-1 0-3 0-4-1s-1-1 1-1c3 1 3-3 0-6-1-2-2-4-2-8s0-6-1-7c-1 0-1 0 0-1s1-1-1-3c-3-3-2-3 4-2 6 2 7 2 7-1 0-1 1-1 4 0zm275 3c-1 1-2 1-3 1-3 0-20 8-23 11-2 2-16 6-17 5-2-1-1-2 1-2 1 1 2 1 2 0s1-1 2-1c1 1 2 0 3-1 0-1 3-2 5-3s6-2 9-3c16-8 22-10 21-7zm1 36c0 1-1 1-4 1-2 0-4 0-3 1 0 1 1 1 3 1s3 1 4 2c0 1 1 1 5 1h8c4 0 0 3-5 3-8 1-36-3-34-5 1-1 6-1 6 0-1 0 2 1 6 1h8l-7-1c-7-1-8-2-2-4 8-2 14-2 15 0zm-18 14c0 1 2 1 4 1 4 0 5 0 5 1 0 2 0 2-2 2-2-1-2-1 0 2 1 2 2 3 4 3 3 0 5 1 2 2-1 1 0 2 2 4l4 3-3 2c-2 1-2 5 0 5 1 0 1 1 1 1 0 1-1 2-2 2s0 1 2 2 3 2 3 3c0 0-5-1-7-2-2-2-2 0-1 2 2 2 2 2-3 1-3 0-5-1-6-2l-2-2h2c1 1 3 1 5 1 2 1 2 1 0 0-1-1-2-2-2-3s-1-2-2-2c-2 0-4-4-2-5h2c1 0-1-2-3-5-2-2-3-4-2-4 2 0-5-3-8-3s-2-1 3-3c5-1 5-3 2-4-2-1-3-2-2-2 0-1 5-1 6 0zm10 39c0 1 1 1 2 1s4 1 6 2c5 2 10 3 10 2 0 0-1 0-3-1-1-1-2-1-2-2 1-1 2 0 4 1 3 1 5 1 5 0-1-1-1-1 0-1s1 1 1 1c-1 2 0 2 2 2h3c1 1 2 1 3 1s0 1-3 1c-2 1-5 1-6 0-2 0-3 0-4 1s-1 1 7 5c8 3 11 4 8 5 0 1-2 1-3 0-3-2-4-1-2 1 2 3 2 6 0 8-1 1-1 1 0 2 2 1 2 3 0 4s-1 4 1 5c1 1 1 1-2 1-3-1-3-1-2 0 1 2-1 3-4 2-2-1-2-1-2 0s-1 2-2 2c-1 1 0 1 3 3 4 2 4 2 2 2h-3l4 3c6 4 4 5-3 2-2 0-2 0-1 1 1 2 1 2-1 3-1 1-1 1 0 2s2 0 4-1 2-1 2 1c0 3-3 4-6 2-3-1-5-1-5 0s5 3 7 3 4 2 2 3c0 1-1 1-3 0s-5 0-3 2c1 2 1 2 0 3-2 2-4 2-5 0 0-2-1-3-2-3 0-1-1-2 0-2 0-1 0-3-1-4-1-2-1-2 0-2s0-1-1-1c-4-2-4-6-1-5 2 0 3 0 3-1 0 0 0-1-1-1-2 0-3-7-1-8 1-1 1-1 0-2-1-2-1-2 0-2s1 0 0-2c-1-1-1-1 0-1 3 0 2-1-1-4-3-4-4-5-1-5 2 1 3 0 1-2-1 0-1-1 0-3 0-1 0-2-1-3-1 0-2-1-2-1 0-1 1-1 2 0 1 0 1 0 0-2-3-3-2-5 0-5s1-1-2-2c-4-2-4-2-2-3 3-1 2-3-4-6s-6-3-1-3c2 0 4 1 4 1z" fill="#ccc"/></svg>