<svg version="1" xmlns="http://www.w3.org/2000/svg" width="600" height="400" viewBox="0 0 450.000000 300.000000"><path d="M106 6c-2 4-3 7-3 10v5l-7 3c-4 1-8 2-9 2-2 0-2 0-2 2 1 3-1 4-4 3-1 0-3 0-3 1-1 1-3 2-4 2-10 2-11 3-11 4 0 3 13 2 17-1 2-1 5-2 6-2 2 0 2 0 2-2-1-3 1-5 9-7 6-1 11-7 10-14 0-2 1-6 2-7 0-2 1-4 1-4-1-1-2 1-4 5zm268 3c1 6 2 11 3 14 2 5 2 15 0 19-1 2-1 4-1 4 1 0 0 2-1 3-2 3-2 4-1 4 0 0 2-2 3-4 2-4 2-4 2-2s0 4-1 5c-1 2 0 5 2 2 0-1 2-1 4-1 3 0 4 0 2 1-1 1-2 6-1 7l2-2c2-2 3 0 2 3-1 2-1 4 0 4 1 2-1 1-9-4-6-4-8-6-7-6 2-1-1-3-2-2-1 0-2-1-3-2 0-1-1-1-1 0s-1 1-2 2c-2 1-2 1 2 4 2 2 5 3 5 2 1 0 2 0 3 1s1 1 0 2-1 2 1 4c3 2 3 3 1 3-1 0-2 1-2 1 1 1 1 1 2 1s2 1 3 1c0 1 1 2 1 2 2 0 7 1 10 3 5 2 4 4-4 6-9 3-8 2-7 5 1 2 1 2 3 1 4-2 15-5 16-4 0 0 1 1 2 0 1 0 2 0 2 2 0 1 0 1 1 0 2-2 10 2 9 4 0 1 0 2 1 2s1 0 1-1c0 0 1-1 3-1 3 1 4 4 10 27 5 18 5 19 5 23-1 7-2 8-23 11-9 2-12 3-12 4-1 2-1 2 15-1 21-4 25-7 24-17 0-5-9-43-13-52-2-6-1-6 2-3 2 2 3 3 3 2 4-4-4-8-31-15-8-2-10-3-8-4 1-1 2-2 2-3 0-2 4-5 5-3 0 1 1 1 2 0 2-1 6-1 6 0 0 2 8 8 10 6 1 0 1 0 1 1s2 1 5 1c10-1 12-2 12-5 0-1 1-1 2-1 1 1 1 0 0-2-1-1-1-1 2-1 2 1 2 1 1 0-2-1-2-2-2-2 1 0 0-1 0-2-2-2-2-2 0-2s15-6 14-7c0 0-3 1-7 3-8 4-27 4-36 0-7-3-6-4 2-1 12 4 26 2 37-5l4-2V31c0-13 0-12-11-14-8-2-9-2-7 1 1 1 1 3 0 3 0 1 0 3 1 6 1 4 1 5 0 7-1 3-1 3-9-3-5-2-8-4-9-3-1 0 0 1 5 3 3 2 7 4 7 5 1 3-17 4-23 1-2-1-5-2-6-2-7-2-13-9-15-17-1-4-1-4 6 3 4 4 7 7 8 7s-2-3-6-7c-7-7-11-14-11-18 0-2-1-3-1-3-3 0 1 19 5 25 1 2 2 3 2 4-3 2-8-10-9-21-2-11-3-10-3 1zm-266 8c-3 6-11 17-17 22-15 12-44 14-63 2-3-2-5-3-6-3-1 1 9 7 15 9 16 6 40 4 51-4 3-2 5-3 3-1-2 3 0 2 3 0 1-1 1-2 0-2s1-2 3-5c7-7 15-19 14-21 0-1-1 1-3 3zm-84 1c-2 1-3 2-2 2s0 2-2 3c-4 3-4 3-2 5 2 1 2 1 5 0 2-1 4-2 5-2s7 3 9 5c3 3 5 1 3-3-1-2-2-3-3-2-1 2-1 0 0-2 2-2 5-2 5 0 0 1 0 1-1 0-2 0-1 1 2 6 2 3 3 5 3 6-1 1-1 0-2-2l-2-4v12c-1 0-1 1 0 1s1 0 1-1c0 0 1-1 2 0 3 0 4-1 2-8-1-3-2-6-3-6 0 0-1 0-1-1s1-1 1 0c1 0 1 0 1-2-1-1-2-3-2-5-1-3-4-4-11-2-2 1-3 1-3-1 0-1-1-1-5 1zM0 41c0 4 0 4 3 4 3-1 5 0 5 4 0 3 1 4 4 4 2 0 5 1 7 2 1 1 4 2 6 3s4 2 6 4c1 1 3 2 3 2 1 0 2 0 2 1 1 1 3 1 6 1 2-1 4-1 3 0-2 0-6 1-11 3-10 3-16 2-27-3-3-1-2 1 1 3 4 2 14 4 18 3h12c8-1 8-1 7 0-2 2-2 2-1 2s3-1 3-2c1-1 4-1 8-1 6-1 8 0 6 2-1 0-1 1-1 2 1 0 2 0 2-1 1-1 1-1 1 1 0 3 3 1 4-2v-3h7c5 0 8 0 8-1s-1-1-3-1-2 0-1-1c1 0 2-1 4-1 1 1 3 0 4-1 0-1 2-2 2-1 2 0 4-3 4-4-1-2 0-3 1-1 0 0 1 0 0-1 0 0 0-1 1-1 1 1 18-15 18-16s-2 1-5 4C79 71 35 71 7 43l-7-6v4zm295 3c0 1-1 2-2 1-2 0-2 0-2 2 0 3 4 9 6 9 1 0 3 1 5 2 4 2 4 2 8 0 2-1 4-2 3-2 0-1 0-2 1-3s1-1-1 0c-3 1-11 0-13-1-1-1-2-3-3-6-1-2-2-3-2-2zm-31 4c-1 3-7 7-10 7-2 0-4-1-6-4-5-4-9-4-6 1 0 1 1 3 1 4s0 1 2-1c2-1 2-1 2 1 0 1-1 2-1 3-1 1-1 1 1 1 1-1 5-1 9-2h7l1-4c0-2 0-3 1-2l1 1c1 0 1-1 0-1-1-1-1-2 0-4 1-1 1-2 0-2 0-1-1 0-2 2zm-103-1c0 2-1 2-3 2s-4 0-4-1 0-1-1-1c-2 2-1 6 1 9 2 2 3 3 2 4s-1 1 2 0c3 0 4 0 4 1 0 2-1 3-4 3s-3 0-3-1c0-2 0-2-1-1-3 2-2 6 0 8 2 1 2 3 2 10 0 5 0 8-1 7v-3c-1-2-2-3-3-4-3-1-4 0-2 1 3 2 2 4-2 4-2 0-3 0-3-2 0-1 0-1-2 0 0 2-1 2-1 1 0 0-1 0-1 1-1 1-2 2-4 2-3 0-4-1-2-3 1-1 1-1 0-1s-2 2-2 3c-1 3-1 4 1 6 2 1 4 3 4 4 0 3 1 4 2 2 2-1 4-1 4 0s-6 3-7 1c0-1-5-1-7 0 0 1-1 3-1 5 0 3 0 3-3 3-2 0-2 0 1 1s3 1 2 2c-1 2-3 2-5 1-6-2-5 4 0 7 3 1 3 1 6 0 3-2 3-2 3 1 1 1 1 2 2 3 0 1 0 2-2 1-2 0-3 0-3 1s-1 2-2 2-2 0-3 1-6 0-5-1c0-1-1-1-2-1s-2 0-2 1 0 1-1 1-1-1-1-2 0-1-2 0c-1 1-3 1-3 0-1-1-5 0-5 1s2 3 5 6c2 2 4 4 4 5s0 1 1 0 3-1 8-2c10 0 17-2 17-4 1-1 2-2 4-3 3-1 3-1 3 2-1 2-1 2 3 2 2-1 6-2 8-4 14-9 14-9 14-7 1 2 1 3 0 3-5 0-9 7-6 12 5 5-10 17-21 17-6 0-13-3-11-5 0-1 0-1-2-1-3 2-10 2-10 1 1 0 2-1 3-1 2 0 2 0 1-1-2-1-2-1-3 0 0 1-1 1-2 0s-3-2-5-2c-4-1-4-1-3 1 0 3 0 3-3-2-2-2-3-5-3-5 0-2-2-3-2-2-1 1-1 1-1 0 0 0 0-1-1-1s-1 1 0 3 1 4 1 4-1 0-2-1c-1 0-1 0 0 1s2 2 2 1 2 0 3 1c4 3 4 4 1 4-1 0-2-1-2-2s0-2-1-2-1 0 0 1c0 1-1 1-1 1-1 0-2 0-2-1s-1-1-2-1c-1 1-3 1-4 0s-2-1-2 0-1 1-2 1-1 0 1-2c1-1 1-1 0-1-1 1-3 1-3 1-1 0-1 1-1 1 1 1 0 2 0 2-1 1-1 1 0 2 2 2 2 2 0 2s-2 0 0 3c1 2 2 4 4 4 3 0 14 3 14 4-1 0-3 0-7-1-7-2-14-2-12 1 1 1 1 1 0 1-1-1-2-1-2 0s0 1 1 1c2 0 1 2-1 2-1 1-1 1 1 1 4 0 2 1-4 3-7 2-25 6-26 6-2 1-4 4-6 7s-2 14 0 15c0 1 4 10 7 21 7 23 9 26 13 29 5 3 10 2 23-2 15-5 15-5 15-7s-3-2-8 0c-8 4-21 8-24 7-2 0-4-2-6-4-4-6-15-42-13-43 1 0 0-1 0-1-3-2-3-12-1-14 1-2 1-2 2-1s1 1 1-1c1-2 3-2 7-2l1-1c0-1 1-1 1-1 1 1 2 0 2 0 1-2 8-3 13-3 4 0 5-1 5-2s1-2 2-2 1 0 0 2c-1 0-1 1-1 1s2 0 3 1c4 0 6 2 5 3 0 1 2 1 6-1 0 0 1 0 1 1s1 2 2 1c2 0 2 0 2 1-1 0-2 1-4 1-1 0-2 0-2 1 0 0-2 1-4 1-8 2-10 2-10 3 1 1 12 1 12 0 0 0 1-1 3-2 5-3 4-1-3 5-3 4-5 6-4 7 0 1 1 1 1-1 1-2 1-2 2-1 0 1 1 0 2-2l2-4-1 4v3l2-3c4-4 9-9 6-5 0 1 1 1 2 1 2 0 3 0 3 1-2 2 1 1 3-1 1-2 3-3 4-3l4-2c1-1 2-1 2 0-1 2-1 1 8-3 5-2 9-4 10-4 2 1 3 0 4-1 2-1 2-1 5 0 2 2 3 2 3 1 1-1 4-3 7-5 6-3 6-3 8-1 4 5 7 7 9 4 0-1 1-1 2 0h4c2 0 3 3 3 5 0 1 1 1 2 1s2 0 1 1c-1 2-10 1-13-1-1-1-3-2-4-2s-3-1-3-1c-2-2-2-2-2 0-1 0-2 1-2 1-2 0-7 2-7 2 0 1 2 0 5 0 3-1 4-1 6 0s4 2 5 2c3 0 6 1 9 4l2 2-2 2c-2 1-2 2-1 2s2-1 3-2 2-1 3-1c1 1-4 5-6 5-1 0-2 4-2 7 2 5-2 7-10 7-6-1-6-1-11 3-6 4-14 7-15 7 0-1-1 2-1 6 0 14-8 27-18 27-2 0-2 0 0 1 4 4 8 3 15-2s8-7 1-2c-6 4-6 2 0-4 5-6 16-13 18-12 1 1 2 0 3-1s2-1 2 0c1 1 2 0 5-3 3-4 3-4 5-2 1 2 1 2 0 4-1 0-1 1-1 2 1 0 2-1 3-2 2-2 2-2 2-1s0 2-1 3c-2 1-1 2 1 2 1 0 2 1 2 1 1 1 1 0 0-1 0-4 2-3 3 1s0 8-4 13c-3 4-3 3-1-2 1-3 2-6 1-7 0-1 0-1-1 1-6 13-11 20-19 25-7 5-12 6-13 4 0-3 3-6 7-8 2 0 4-2 4-3 1-1 0-1-2 0-1 2-7 3-7 1l4-2c4-2 14-12 13-13-1 0-1 0-2 1 0 0-1 1-2 0s-1-1 0-1c1-1 1-2 1-3s-1 0-2 2c-8 10-19 18-25 17-3 0-4 1-1 2 1 1 1 2 1 3-1 2 0 2 2 3 1 1 2 2 2 3-1 1 0 1 2 1 2-1 3 0 5 2 2 1 5 3 7 3 1 1 3 2 4 3l1 1c3 0 5 0 6 2s2 3 3 3c0 0 1 1 1 2 1 1 1 1 2 0s1-1 1 0c1 1 3 1 4 1 6 0 16 7 16 11 0 0 0 1 1 1 2 0 1-4-1-5-2-2-7-11-7-14s-2-6-5-6c-5-1-15-6-15-7 0 0 1-1 3-1 2-1 3-2 3-4 1-3 4-1 4 2 0 2 1 3 3 4s2 1 1-1c0-1 0-4-1-7 0-5 2-7 5-4 0 1 1 1 1 0 0 0-1-1-1-2-1-1 0-2 2-7l3-6 7 8c3 4 6 7 5 7 0 0-1 0-1 1s1 1 3 0c0-1 2 0 5 1 5 2 5 3 3 3-2 1-1 3 1 3s3 6 2 7c-1 0-1 0-1 1s3 1 5 0c3-3 4-3 4-1 0 0 0 1-1 1 0-1-2 0-3 1-1 2-1 2 1 2 4-1 10 1 9 3 0 1 0 1 1 0 0-1 1-1 2-1s0 1-1 3c-2 2-2 3-1 4 1 3 1 3-2 3-2 0-3 0-2 1 1 3-6 0-11-4-7-6-8-8-5-9 2 0 3-1 3-1 0-1-1-1-1 0-1 0-3-1-4-2-3-3-4-3-4 0 0 2 0 2-1 1-2-2-2-3 0-3 1 0 1 0 0-2-1-1-1-1-3 1-1 1-1 1-3-1-4-4-4-4-5 2-1 2-2 6-3 7-1 2-1 2 0 2s2 1 3 2c2 3 3 4 4 3 0-1 1-1 2 0s1 1 0 1-2 0-2 1 1 1 3-1c2-1 2-1 4 1 1 1 1 1 1 0s0-1 1 0 2 2 2 1c2-1 7-1 7 1l-1 1c-2 0-2 2-1 4 2 2 3 1 2 0s-1-2 0-2c5-1 6-1 5 1l-1 1c-1 0-1 1-1 1 0 1 0 1 2 0 2-2 1 0-1 3l-2 2h22c19 0 22 0 21-1s-1-2 0-3 1-1 0-1c-2 1-7-3-5-5 1 0 2 0 2 1 1 1 5 3 7 3s3 2 0 4c-1 2-1 2 9 2 5 0 10-1 11-1 0-1 2-1 3 0s3 1 4 1c2 0 2 0 1-1-1 0-3-1-4-3-2-1-4-2-5-2 0 0-1 0-1-1-2-2 5-1 7 1 6 6 9 7 13 5 1-1 2-1 2 0s3 1 7 1c7 0 8 0 10-3 2-1 3-2 3-1 1 1 12-9 12-11 0-1 0-1-10 5-5 4-8 5-11 5-6 1-15 3-16 3-1 1-4-1-9-6-2-2-3-3-1-3 1 0 1 0 0-2-1 0-1-1 0-1l2 2c1 1 2 2 2 1 1 0 1-1 0-2-3-3-2-4 1-3 2 1 3 0 0-2-2-1-16-3-19-3-6 1-8 0-8-2s1-4 2-4c2-3 1-5-5-5-7 0-7 0-6-4 1-2 1-2 1 0s0 2 1 1c0-1 1-2 1-2 1-1 1-1 0-2s-1-1 0-1l1-1c0-1 1-2 1-2 1-1 1-1 0-2-1 0 2-3 8-9 5-5 9-9 9-10s1-2 1-3c1-1 1-1 0-1 0 0-1-1-1-2-1-4-3-3-6 1s-3 5 1 5c1-1 2-1 2 0 0 2-3 5-5 5 0 0-1 1-1 2-1 1-4 4-7 8-18 16-51 14-67-4-2-3-3-6-3-7 0 0-1-1-2-1s-1-1-1-1c1-1 0-3-1-4-2-2-2-11-1-13 1 0 0-1-1-2s-1-2 0-3c1 0 1-1 0-1 0-1-1-2 0-2v-4l2-4c1-1 1-1 0-1 0 0-1 0-1-1s1-1 3-1 3-2 1-2c-2-1 2-7 3-7s3-1 4-2c0-1 2-2 3-2 0 0 1 0 1-1s1-1 3-1 3 1 3 2c-1 1-1 2-1 2 0 1 0 1-1 1s-1 0-1-1c1 0 1-1 0-2-2-1-2 1-1 2s1 2 1 2c-1 0 0 1 1 2 3 3 4 2 2-1-1-1-1-2 0-2s1-1 1-2 0-1 2 0c1 2 1 2 0 3-2 1-1 2 2 1 2 0 3-1 1-3-1-1-2-2-2-3 0 0 0-1-1-1-3 1-4-2-1-3s7 0 5 1c-2 2-1 3 1 2 0-1 1-2 1-3 0-2 2-3 2-1 1 1 1 1 2-1 1-1 2-1 2 0s1 1 2 1c1-1 2 0 3 1s1 1 2-1c0-1 1-2 1-2 1 0 1 1 1 1-1 1 0 2 0 2 1 0 1-1 1-2-1-2 0-2 3-1 2 0 4 1 5 2 2 0 3 1 4 0 3-1 10 2 10 3s1 1 1 1c3 0 8 3 8 5 0 1 0 1 1 0 2-2 2-2 3 2l2 4 1 1c0 1 1 3 2 5 0 2 1 4 1 5v8c0 7 0 7 2 4l1-3-1 4c0 2 0 4 1 4 1 1 2-1 3-8l2 2c2 1 4 2 5 1 5 0 7 1 8 4s2 4 6 4h4l-2-3c-2-1-5-3-8-5l-4-3 2-4c1-2 2-5 3-7 0-1 1-3 2-3s2 0 2-2v-5c0-3-1-5-3-7-3-3-3-3 2-2 3 0 4 0 5-2 3-2 3-1 1 3s0 9 4 11c1 0 3 1 4 2 4 3 7 5 10 6 2 0 4 0 4 1 1 1 2 2 3 2 1 1 1 1 0 1 0 0-1 1-1 2s0 1-1-1-1-2-2-1-1 1 0 2c1 2 1 3 0 7-1 3-2 6-2 7 0 2-4 7-4 5s-7 0-10 2c-2 2-2 3-2 8v5l7 3c4 2 8 3 8 2l-1-1s0-1 2-2c3-3 4-3 8 6 3 6 7 9 9 8 0-1 3-1 5-2 5 0 11-2 11-3s-1-2-1-3c-2-1-3-1-9 2-2 1-4 1-4 1-1 0-1 1-2 1-2 3-7-2-12-13-2-6-2-6 0-5 0 0 1 0 1-1s1-2 1-2c1-1 2-2 1-3 0-1 0-1 1-1 1 1 2 0 2-2 1-2 2-3 5-4 4-2 5-3 6-6s2-4 5-4c2-1 3-2 3-3 0 0 0-1 1-1s1 0 1-1c0-2 0-3 1-3 0 1 2-2 4-6s3-6 2-6c-2 1-1 0 2-6 3-5 4-8 1-5 0 2-1 2-1 2 0-1-1 0-2 1-2 3-2 3-4 1-1-2-1-5 0-5l2-4c1-2 2-3 0-3 0 1-1 0-1 0-1-1-1-1-2 0-1 2-2 2-3 2-3-1-1-3 1-3s2 0 1-1-2-3-2-4c0-2 0-3-1-3 0 0 0-1 1-3 0-1 1-4 0-7 0-5-2-7-2-2 0 1-1 3-1 4-2 3 0-7 2-12 3-6 2-9-2-10-2 0-3-1-3-2 1 0 0-1 0-2-2 0-1-2 1-2 1 0 1 0-1-2-1-3-1-3 1-4 1 0 1-1 0-1 0 0-1-1-1-2-1-1-1-1 0-1s2 0 3-1 3-2 4-2c1 1 3 1 3 1 2 0 1 2-1 2-1 1-1 1 1 1 1 0 2 0 1 1 0 1 0 1 2 1 1-1 2-1 2 1s2 1 3-2c0-3 1-6 1-3 0 0 1 1 2 1 2 0 1-1-3-6-2-2-4-4-4-3s0 1-1 0c-1 0-4-1-7-1h-5l-3 5c-8 17-31 21-46 7-3-3-3-3-1-6 1-3 1-3 2-1 3 3 9 9 10 9 1-1 2 0 2 0 1 1 1 1 2 0s1-1 1 0c1 1 1 1 3 0 2-2 2-2 3-1 0 2 1 1 2-2 2-2 3-3 5-4 2 0 4 1 2 2 0 0-1 1 0 1 0 1-1 1-4 1-2 0-1 2 1 2 2 1 4 1 8-3 3-3 4-4 3-6-1 0-1-1 0-1h2c2-1 3-3 1-3-1 0-2-1-2-2s2-1 3 0c0 1 1 0 2-2l1-3v3c0 2-1 5-3 8-1 2-2 4-2 5 1 1 5-6 6-11 1-2 2-4 3-4 2 0 1-9-2-16-3-6-4-7-1-7 1-1 3-2 5-4l4-3h-7c-4 1-8 1-10 1h-3l2 2c3 2 3 2-6-1-13-5-31 3-35 16-2 6-1 10 1 8 1 0 1 0 0 2 0 1 0 1 1 0s1-1 1 0c0 2 1 2 2 2 0-1 1-1 1 0s-1 1-1 1c-1 0-1 1-1 2 1 2 0 3-1 3s-2-1-2-1c0-1-1-1-2 0-1 0-2 1-2 1 0 1-1 1-2 1-1-1-2 0-2 0 0 1 1 1 3 1 3 0 2 2-1 4-3 1-3 1-5 0 0-1-2-2-2-1-1 0-1 0-1-1 1 0 1-1 0-1-2 0-6 10-6 12 1 2 0 2-1 2 0-1-1 0-1 1 0 0 1 1 2 1 2 0 4 2 4 4l-1 1c-1 0-2-1-1-2 0-1 0-1-2-1-1 1-3 1-3 0-1-1-5 5-4 7 0 1 0 1-1 1 0 0-1 1-1 2-1 1-1 2-1 3-1 1-1 2 0 2s4 4 5 8c4 8 4 8 2 9s-2 1-2 0c1-1 1-2 0-2 0-1-4 3-4 4s0 1-1 0c-1 0-1 0-1-1 1 0 0-1-1-2-2-1-2-2-1-2 2 0 1-2-1-2 0 0-1 0 0 1 0 1-1 1-1 1-2 0-2-1 0-4 1-3 2-4 3-3s1 1 1 0c0 0 0-1-1-1s-1-1 0-3 1-3 0-3-1 1-1 1c0 1-1 1-1 0l-2-2c-2 0-1 4 0 5s1 1 0 5c-2 4-5 7-4 4 1-1 1-2 0-1-2 1-1-2 1-4s2-2 1-2-2-1-2-1c0-1 0-1-1 0 0 1-1 1-1 0-1-1-1-1 0-1s1-1 1-2 0-1-2 0c-2 2-2 2-2 1s-1 0-3 2c-1 3-2 4-2 3 0 0-1-1-2-1s-1 0 0 1c2 1-4 0-6-1-1-1-1-1 1-1 1 0 2 0 2-1s-8-2-8-1c-1 1-5-1-6-3-2-2-1-2 1-1 1 1 3 2 4 2 2 0 2 0 0-2-1-1-1-1 0-1 1 1 2 0 3 0 1-1 1-1 0-1-2 0-2 0 1-2 1-2 3-3 4-2 3 0 3-2 0-3-1-1-2-1-1-2 0 0 1-1 1-2 0 0 0-1-1 0-1 0-1-1-2-2-1-4-2-4-1 2 0 6-3 10-7 10-2 0-2 0-1-2 2-2 3-4 1-2-2 1-3 0-2-2 0-2-1-4-4-11l1 1c2 1 2 1 2-1 0-1 0-1 4-1 3 0 3 0 2-2-2-1-2-1 0-3 1-1 3-2 4-2s3-3 3-7c1-2 1-2 4-2s3 0 1-2c-1-1-1-1 2 0 3 0 2-1-2-2-2-1-2-1-1 0 0 1-1 1-5 1-4-1-5 0-4 1s1 1-1 1-2 0-1-4c2-5 2-5 6-4 4 2 4 2 4 0 1-1 1-2 2-2 0 1 2 1 3 1 1 1 6 2 10 3 7 2 8 2 9 1s1-1 2 0c1 2 3-1 6-6 2-4 2-4 1-5-3 0-2-2 1-2 1-1 2-1 2-2s-1-1-1-1c-1 1-1 0-1 0 1 0 0-1-1-2-1-2-1-2-3 0-5 3-14 1-16-4-1-2-2-3-2-2s0 1-4 6c-3 3-3 3-4 2 0-1-1-1-2-1 0 1 0 1 1 2s0 1-2 2l-2 1 3 2c4 2 3 5-3 2-2 0-5-1-6-1-2 1-3 1-2-2 0-1 1-2 2-3 1 0 1-1-2-3-2-2-2-4-2-6v-4c-2 0-2-5 0-7 1-1 1-1 0-1s-1 0 0-2c1-1 2-2 2-1 1 0 1 0 1 1h2c2 0 2 0 2 2-1 2-1 2 3 1 1-1 4-1 5-1 3 0 10-2 11-5s4-2 4 2c0 1-1 2-1 1-2-1-2 2 0 4s2 2 4 1 3-1 2 0c0 1 0 1 1 1 1-1 2 0 2 0 0 1 1 1 2 0 4 0 7 3 7 7 0 2 0 4 1 4s6-9 6-10-4 0-4 1c0 2-4-3-4-5 0 0 2-3 4-5 2-3 4-6 4-7s0-1-1 0-4 3-6 4c-10 4-19 1-13-6 2-2 2-3-1-2-1 0-2-1-3-2s-2-1-3-1c0 1 0 2 1 2 2 1 1 4-1 5-4 0-15 3-15 3 1 4 0 5-3 5-2 0-2 0 0-1 1-1 1-1 0-1-3-1-2-3 0-3 2-1 2-1-1-1s-4-1-2-3c1 0 1-1 1-2s0-1-1 0-1 1-2-1c-4-4-10-5-14-2-2 1-3 2-3 1 0-2 2-6 4-8 3-2 1-3-3-1-2 2-3 2-3 0-2-4-7-1-6 3 1 2 0 3 0 5-1 1-2 2-2 3 0 3-5 7-7 6-1 0-1 0 0 1 2 3 1 3-5 3-3 0-3 0-1-2s1-3-3-1c-4 3-7 2-9-1-2-2-5-3-6-1-1 0 0 1 1 1 4 1 2 4-1 4-4 0-6-3-3-4 2-1 1-2-3-2-3-1-4-1-4 1-1 1-2 2-3 2-3-1-3-2-2-3s1-2 0-2l-2 2c-1 1-1 1-2-1-2-3-1-5 1-3 3 2 3-1 0-3 0-2-1-3-1-4 0-2-1-3-2-4-1-2-1-2-1-1zm83 114c0 1 1 2 2 2 2 1 2 1 2 0-1-1-1-2 0-2 2 0 2 3 0 5-1 2-1 2 6 5 7 4 7 3 7 1 0 0 0-1 1-1s1-1 1-2c-1-1-1-1 1-1 1 1 2 0 2 0 1-1 1-1 2 0s1 1-1 1c-1 0-1 0 0 1s2 2 2 4c1 2 1 2-3 1-3 0-3 0-2 1 2 3 0 2-3 0-9-5-16-7-28-7-6 0-11 1-12 1s-4 2-6 2c-3 1-5 3-5 3 0 1-1 1-2 1 0 0-4 3-7 6s-7 6-7 6c-1-1 9-11 13-14 5-3 23-8 26-7 1 0 1-1 1-2-1-1-1-2 0-2s2-1 2-2 1-1 4-1c2 0 4 0 4 1zm-63 49c2 3-8 10-12 8-1 0-1 0-1 1 1 1 0 1-2 2-2 0-3 1-3 1 0 1-1 0-3 0-2-1-2-1-3 0s-1 1-2 0c0-1-1-2-2-2-1 1-1 0 0-2 0-1 1-1 2-1 0 1 3-1 6-3 5-2 8-3 11-3 2 0 4 0 5-1 2-1 3-1 4 0zm85 67c1 0 1 1 1 1-1 0-1 1 0 1 1 2 3 2 8 2 3 0 6 0 6 1 0 2-4 10-5 10-2 0-24-11-24-12 0 0 1-2 2-3 2-3 10-3 12 0zm56-211c-3 2-9 8-8 9 1 0 0 2-2 3-3 2-3 2-3 1 1-3-1-11-2-9s-1 3 0 4c2 2 0 8-2 9-5 4 0 2 5-1 4-2 7-4 7-4 1 0 1-1 1-1 0-1 2-3 3-4 2-1 4-3 3-3 0-1 1-2 2-3 2-2 1-2-4-1zM0 79c0 3 1 4 3 4s3 1 5 5l2 4 3-3c2-3 3-3 9-3 3 1 6 1 6 2s1 1 2 0c2-2 2-2 3 1 1 1 2 4 4 6s3 4 3 5l2 2c1 1 2 3 1 3 0 1 0 2 1 2 1 1 1 2 1 4 0 1 0 2 1 1 1 0 1 1 0 3 0 4 0 4 2 4 3 0 3-2 1-7-1-3-3-7-3-8-1-1-1-3 0-4 2-2 4-1 5 2 0 4 1 4 4 2l2-2-4-5c-4-6-11-12-17-15-10-5-13-6-25-7H0v4zm11 23c1 2 2 7 3 10v5l-2-3c-2-3-4-4-4-2l4 6c2 3 4 5 4 6s-4 4-4 3c-3-5-5-7-6-10-1-4-1-4 0-4 1 1 1 0 0-2 0 0-1-1-2 0-1 0-1 1-1 2 1 0 1 1 0 1-1 1 4 10 7 13 1 2 4 1 7-1 1-2 1-2 0-4-1-1-2-5-2-9 0-8-1-14-2-14 0 0-2 0-2-1-2 0-2 1 0 4zm47 2c0 2 3 14 4 15 0 1 1 4 1 7 1 5 1 5-1 5s-2 0-2-1c1-1 0-4 0-6-1-3-2-5-1-5 0-1 0-2-1-3-1-2-2-4-2-5 0-2-1-3-2-3-1-1-1-1-1 1 1 1 1 3 2 4 0 2 1 4 1 7 1 2 2 4 2 5 0 3-4 1-4-3-1-2-1-3-2-2s-2 2-1 2c0 2 1 8 0 8-1-1-1-1-1 0 0 0 1 1 2 1 1 1 1 1 0 2-2 1-3 3 0 3 0-1 1 0 1 0 0 1 1 2 1 2 1 1 0 1-1 1-2-1-3-1-3 0-1 1 0 1 1 1 2 0 3 1 2 2 0 1-1 0-2-1-3-1-4-1-4 0s0 1 1 0c1 0 1 1 1 2s1 1 2 1c2-1 3 4 1 8-1 2-2 4-1 4s6-9 8-15c4-8 5-3 1 7-2 7-4 11-8 16s-3 6 1 1c13-14 16-38 7-57l-2-4zm-42 52c1 2 1 2-3 1-2-1-3 0-3 1-1 1-1 1 0 1 1-1 4 0 7 1s7 2 7 2c1 0 2 0 3 1 0 1-2 1-7 0-5 0-7 0-7 1s1 1 2 1c2 0 3 1 2 3 0 1-2 2-8 4-8 2-9 2-9 4 0 3 0 3 10 2 6-1 6-2 5-3-2 0-2-1-1-1s2-1 3-2 3-2 6-2l4-1-3 2c-3 3-2 3 1 1 2-1 4-2 5-2 5 0 20-10 20-13 0-1 0-1-1 0-3 2-11 6-13 6-1 0-3-1-3-3-1-2-2-3-4-3-3 0-3 1 1 4 3 2 2 4-1 2s-13-8-14-8c0 0 0 1 1 1zm26 22c-9 5-11 6-28 6-10 0-14 0-14 1s5 2 15 2c3 0 6 0 5 1-1 0-2 1-2 2s1 2 1 1c1 0 1 0 1 1-1 1-1 2 0 2s1 0 1 1-1 1-3 1-3 0-3-2c0-1 0-2 1-1 0 0 1 1 1 0 1 0 0-1-1-2 0-1-1-1-1-1s-1 1-2 3c-1 1-1 2 1 2 1 1 1 1 0 2-1 0-2 1-3 0 0 0-1 0-1 1s2 1 6 1c3 0 7 1 8 1 1 1 2 1 4 0 4-2 4-3 1-3-2 0-2 0-1-1s2-1 3-1c0 1 1 0 2-1 2-1 3-2 5-1 1 0 2 0 2-1s0-1-1-1c-2 2-3-3-1-4 2-2 2-2 1-2-2 0-2 0 0-1 1-1 2-2 2-1 1 0 1 0 2-1 0-1 0-2-1-2 0 0 0-1 3-2l3-3c0-1 0-1-6 3zm103 14c-2 2-10 7-11 7s0-1 2-2c1-2 2-3 1-3s-2 0-3 1l-4 2c-3 1-4 2-4 3 1 1 1 1-1 1-1-1-2 0-2 0-1 1-11 0-14-2-1-1-2-1-2 0s1 1 1 2c1 0 2 1 2 2 2 4 6 9 9 9 1 0 2 1 3 1 0 2 1 0 4-4 3-5 6-7 15-10 1 0 3-1 4-2 2 0 4-1 6-1h2l-2-3c-3-3-3-4-6-1zm94 7v2c0 1-1 1-2 1-1-1-2 0-3 1-1 0-2 1-3 1s-1 0-2 1c0 0 0 1 1 1s1 1 1 2 0 1-1-1c-1-1-2-1-2 0 0 0-1 1-2 1 0 0-1 0 0-1 0-1-1-1-1-1-2 0-2 1-1 3 1 0 1 1 0 1l-2-2c-1-1-2-2-1-2s1 0 1-1c-1 0-2-1-3 0-1 0-2 0-2-1s-1-1-3-1c-1 1-2 1-1 0 0-1 0-2-1-2-2-1-3-1-3 1 0 1 1 2 1 2 1 0 2 1 3 2s1 1 2 0 1-1 2 0c1 2 1 4-2 4-2 0-1 1 2 3l3 2-4-1c-3 0-3 0-2 2 1 1 2 2 3 1 0 0 1 0 1 1s0 1-1 1-1 0-1 1 0 1 1 0c1 0 1 0 1 1l-4 2c-3 0-3 0-2 1l2 2c-1 0-1 1 0 1 1 1 1 1 1 0s1-1 1-1c1 0 1 0 0 1s-1 2 1 2c1 1 2 0 2 0 1-1 1-1 2-1 0 1 0 2-1 2-1 1-1 1 1 1 1-1 2 0 3 1 1 3 5 3 5 0 0-1 0-1 1-1s2 0 1-1c0-2 3-4 6-3 1 0 1 0 0-1s-1-1 0-1c1-1 0-1-2-1s-3 0-3 1-3 2-5 1c-2 0-3-2 0-2 1 0 1 0 1-2s1-3 1-3c1 0 1-1 0-1 0-1 0-1 1-1 1 1 2 1 3 1v1c-1 1 0 1 1 0 1 0 1 0 0 1-1 0-1 1 0 1 0 1 2 0 3-2 2-2 2-3 0-3-2-1-2-1-2 0v1c-1 0-1-1-1-1 0-1-1-2-2-2s-1 0-1 1c1 0 1 1 0 1s-2-2-1-2c0 0 0-1-1 0 0 0-1 0-1-1s3-4 5-4c1 0 1 0 0 1-2 1-2 1-1 1s2 0 2 1c0 3 9 3 10 1 0-2 0-2-2-2-1 1-2 1-2 0 0 0-1-1-1 0-1 0-2-1-3-1-1-2 0-6 1-6s2-1 2-1c1-1 2-1 3 1s2 2 2 1-1-2-2-3c0-1-1-2-1-3 1-2-1-2-2 0zm-102 19c-11 8-12 9-10 9 1 0 2 0 2 1-1 1 0 1 1 2 2 0 3 1 3 2 0 0 3-4 7-9 3-6 6-10 6-11 0 0-4 3-9 6zm-42 41c-3 1-3 2-2 1 4-1 13-1 13-1 0 2-3 4-4 4s-1 0 0 1 1 1 2 0c2-2 3-3 3 0-1 1 0 3 3 7 5 5 6 6 6 3 0-1 0-1 1 0 2 1 3 13 1 14-1 0-1 0 0 1s0 2-2 6c-2 2-3 5-3 5 2 1 9-8 9-10s0-3 1-3c0-1 1-2 1-4 1-2 2-4 3-5 2-1 2-1 1-1s-2-2-3-4c-1-4-9-13-14-15-4-2-12-1-16 1zm-13 13c-2 1-5 3-6 4-2 2-3 3-3 2-1-1-1-1-1 0l-3 6c-2 4-2 6 1 6l1 1c0 2 1 2 3 2 5 0 11 2 12 5 1 2 3 2 13 2h12l1-5c2-9-4-19-13-23-5-3-14-2-17 0z" fill="#ccc"/></svg>