<svg version="1" xmlns="http://www.w3.org/2000/svg" width="600" height="400" viewBox="0 0 450.000000 300.000000"><path d="M0 52c1 36 1 53 2 57 1 6 1 7 0 8-2 1-2 8-2 64 0 68 0 64 5 66 1 1 0 1-2 1H0v52h50l10-11 11-11v-9c0-11 1-13 7-13 3 0 5-1 5-2s-5-1-35-1c-31 1-35 1-36-1-1-1-1-1 0-2 2-1 1-3-1-3l-2 1 2-2c1-1 2-2 1-2 0-1 0-1 1-1s4-1 7-2c2-2 5-3 7-3 1 0 3-1 5-1 1-1 4-1 6-1 3 0 6-2 4-3 0-1-1-1-2 0 0 1-1 1-2 0-1 0-3 0-5 1h-6c-3-1 5-4 16-5 6 0 10-1 10-1 1-1 5-60 5-66 0-8 1-9 4-4 4 6 4 15 4 45l-1 28h7v-16c0-21 1-24 2-26 1-1 2-4 2-7 0-4 1-7 4-12 4-7 4-9 5-17 2-16 8-26 15-25 5 1 5 1 4 6-2 9-3 11-2 12 0 0 1 0 1-1 1-1 4-1 4 0 0 0-1 2-2 3-2 2-4 6-2 6 1 0 1-1 1-1 0-1 1-1 1 1 1 1 2 3 2 5 0 5 4 7 9 5 3-1 8-1 9 0s1 10 1 21c0 18 0 20-2 20-1 1 0 1 2 0h13v-11l4 1c3 0 11 1 20 1 18 1 28 2 47 6 11 1 18 2 27 2h12l-14-1c-14-1-19-2-33-4-5-1-15-2-22-3-38-3-44-4-41-6 0-1 2-1 3 0 3 1 50 3 51 3 0-1-13-2-28-3l-13-1h10c12 0 26 1 48 5 21 4 32 4 48 1 13-2 35-9 38-12 2-1 2-1 2 0s1 2 1 2c2 1 4 9 4 12 0 1-3 3-6 5l-6 3h32c1 1 1 5 1 15 0 18-1 23-3 23-1 0-2 0-2-1s-2-1-4-1-4 0-4-1c-1-1-6-1-12-1h-10l10-1c9 0 12-1 9-2-1-1-1-1 0-1s1-4 0-5c-1 0-2 0-2 1s-1 1-4 0-56-2-69-1c-4 1-9 0-12 0h-6c-1 2-29 2-27 0 0-1 2-1 3-1 4 0 4-1-1-1-3-1-4-1-3 0 0 2-5 3-7 2-2 0-35 0-44 1h-9c-1-1 0-1 1-1 2 0 3 0 3-1 0 0-4-1-8-1-8 1-10 1-6 3 2 0 0 1-7 1-10 0-19 1-21 2 0 1-1 3 0 5 0 3 0 5-1 6-2 2-3 10-1 10 1 1 1 6 2 20v25h221v-2-11c0-10 1-11 3-11 2 1 4 0 5 0 2-1 2-1 0-1-1 0-2 0-1-1 0-1-1-1-2 0-2 0-3 0-4-1-3-1 3-2 27-2h25v2c0 2 2 5 4 8s3 4 1 4c-1-1-2-1-2 0-1 1 0 1 1 1s2 0 2 1 1 1 2 1c2 0 3 1 4 2 2 2 3 3 1 2-1 0-1 0-1 1 1 1 0 1-2 1-2-1-3-1-3 0s-1 2-2 2c-2 0-2 0-1 1s1 1-2 1c-2 0-3 0-3 1s15 1 44 1h44v-83h-28c-27 0-28 1-30 2-1 2-1 2-1-1v-3h59V0H123l1 5c2 12-1 15-12 12l-8-1-1-6c-1-3-1-5-1-6 1 0 5-1 10-1 6-1 10-2 10-2 0-1-12-1-27-1-23 0-27 0-26 1 0 1 0 2-1 2-2 2-1 3 1 3 5 0 6 1 3 5-2 3-2 4-1 4s2 1 2 2c1 1 0 2-5 5l-6 3V0h-4c-2 0-3 0-3 1 1 0 1 6 1 12l1 12-6 2c-3 1-6 2-7 3-2 0-2 0-2-15l1-15H0v52zm235-24c2 1 2 3 2 8 0 7-1 9-10 8-8-1-8-2-7-7 0-4 1-5 4-6 2-1 3-1 2-3-1-1 0-1 3-1s5-1 5-1 1 1 1 2zm-60 4c1 1 1 3 1 6-1 2-1 4-1 4 0 1-2 1-4 1l-4-1-1-4c0-2 1-5 1-6 2-1 6-1 8 0zM47 39c1 1 1 11 1 22 0 20 1 34 4 40 1 4 0 10-2 10-1 0-2-2-3-17-2-26-3-57-1-57 0 0 1 1 1 2zm102 44c1 1 4 6 7 10 3 5 5 7 6 7s2 0 2-1c-1 0 0-1 2-1 1 0 2 1 1 1-1 1 0 1 2 1 1 0 3-1 3-2 1 0 1 0 1 1 0 2-1 2-4 2-7 0-8 1-16 2-4 1-7 1-8 1 0-1 0-1 1-1V92c0-11 0-13 3-9zm275 0c4 4 0 4-47 6-7 0-9-1-9-5 0-2 0-2 7-2 13-1 47 0 49 1zm-142 8c1 1 2 2 3 1 2-1 5 1 4 3 0 0 2 1 4 1 3 0 4 0 5 2 0 1 1 2 2 2 0 0 1 1 2 3s2 3 3 4c0 1 1 2 1 4 0 1 1 2 2 3 1 0 2 1 2 1 0 1 0 1 1 1 0-1 1 1 2 3 0 1 1 3 0 3s-34-31-34-32c0-2 2-1 3 1zm-99 13c2 0 3 1 3 2-1 1 0 2 0 2s2 1 3 2c3 3 3 3 1 5 0 2-1 3 0 3 0 0 2 1 3 2 1 2 3 3 4 3s1 1 1 3c-1 4 1 6 3 3 2-1 3-1 3 0s1 2 1 2c1 0 1 0 0 1-1 0-1 0 0 1s1 1 0 1-2-1-3-2-1-1-1 1c1 1 0 2 0 1-1 0-1 1 0 2 0 1 0 1-1 1-2-1-1 1 1 2 1 1 1 1 0 0 0-1 0-2 2-1 2 0 3 0 3-1-1-3 3-2 4 1 1 2 1 2-1 2-3-1-4 0-2 1 1 2 1 4 0 3-1 0-1 0-1 1 1 0 2 1 3 0 1 0 2 0 2 1s-1 1-1 1c-1-1-2 0-3 0 0 1 1 1 2 1s1 0 0 1-1 2 0 2c1 1 2 0 2 0 0-1 1-1 1 0 1 1 2 2 2 1 1 0 1 0 1 1 1 1 1 1 0 1s-1 0 0 1 1 1 2 0 1-1 1 1c0 1 1 1 1 1 1-1 2 0 2 0 0 1 0 1 1 0 0-2 3-1 4 1s2 3 3 2c1 0 1 0 0 1 0 2 1 3 3 2 1 0 1 6 0 8h-7c-3-1-7-1-10-1-2 0-4-1-5-1 0-1 2-1 6-1h2l-2-1c-2-1-2-1 0-1 4-1 4-3 0-3 0 0-1-1-3-2-1-2-2-3-2-3-2 0-6-5-5-6 0 0 1-1 0-2l-1-1c0 1-1 0-1-1-1 0-1-1-2-1s-1 0 0 1c0 1 0 1-1 1s-8-6-8-7c1 0 0-1-1-2-1 0-2-2-2-4v-3l2 3c1 2 2 2 2 1s1-2 1-1c2 0 4-3 3-4-1 0-1 0-1 1 0 0-1 1-1 0-1 0-2 0-2 1s0 1-1 0c-1 0-1-1 0-1 0 0 0-1-1-1 0-1-1-1-1 0-1 1-8-4-8-6 1 0 0-2-1-4-3-4-2-4 1-4 4 1 4 1 1-2-1-1-2-2-2-1 0 2-4 1-5-2v-2l1 2 2 2 1-2c0-1 1-2 1-2 1-1 0-1-1-1-2 0-4-1-5-3-1-1-3-2-3-2-1 0-2 0-2-1s7-1 12 0zm80 21c3 3 0 3-24 3-21 0-23 0-24-1 0-3 6-4 14-3h15c10-2 17-1 19 1zm64 5c2 1 4 2 5 2s2 0 2 1c0 2-53 4-55 1-2-2 0-2 19-2 13-1 19-1 21-2s3-1 8 0zm103 36c-2 5-8 7-14 5-2-1-2-1-1 0 3 2 12 2 12 1s0-1 1-1 1 0 1 1c0 0 1 3 3 5 1 2 2 5 2 7v3l-1-3c-1-5-3-8-3-5 0 1-1 1-2-1-4-3-8-4-12-2-3 2-6 7-5 10 0 1 0 1-1 0-2-1-2-1-2 2 1 2 1 3 0 3-3-2-2-13 3-17 0-1 1-3 1-5s1-3 3-2c1 0 3 1 4 2s1 1 1 0c0-2 0-2 2-2 1 1 2 0 2 0 1-1 1-1 2 0 1 2 4-2 4-6v-4l1 3c0 2 0 4-1 6zm-157 1c1 2 9 2 10 1 2-3 5-3 5 0-1 1 0 2 0 3 2 1 0 1-8 1-6 0-8 0-9-1 0-1-3-1-3 0s-2 1-4 1c-3 0-5 0-5-1-1-1 0-1 3-1 4 0 5-1 2-2-1-1-2-1-2-2s10 0 11 1zm33 4c1 0 3 1 3 3 1 1 2 2 3 2 0 0 1 0 1 1s-3 1-7 1h-9c0 1-1 0-3-1-2-2-3-5-1-6 0-1 8-1 13 0zm-60 7c-1 1 0 2 0 3 2 1 6 1 6 0s-1-1-2-1c-1 1-2 0-2-1-1-1 0-2 2-2s3 1 3 2c0 2 2 2 3 1s1-1 2 0 1 1 2 0c0-1 0-1 1 0s3 1 9 2h8l1-1c0-1 3-1 6-1 6 0 8 1 4 2-8 2-43 7-44 6h-7c-4 0-7-1-7-1 0-1-1-1-1-1-1 1-2 0-2 0 0-2 4-3 9-3 2 0 2 0 1-1s-2-1-3-1c0 1-1 0-1-1-1-2 4-3 4 0 1 0 1 1 2 1s1-1 1-2c-1-1-1-1 1-1 1 1 2 0 2 0 0-1 0-1 1-1s1 1 1 1zm139 9c0 5 0 9 1 10 0 2 0 2-13 2h-12v-9c0-6 0-11 1-11 0 0 5-1 11-1h12v9zm-105 21c-4 1-9 2-9 1-1 0-2 1-4 2-2 0-4 1-6 1-1-1-2-1-2 0-1 0-5 1-10 1-12 1-16 2-15 3s22 0 45-2l16-1-2-3c-2-1-3-3-3-4s0-1-10 2z" fill="#ccc"/></svg>