<svg version="1" xmlns="http://www.w3.org/2000/svg" width="600" height="400" viewBox="0 0 450.000000 300.000000"><path d="M0 150v150h450v-11c0-10 0-10-2-10s-4-1-5-2c-1-2-1-2 0-2s2 0 2-1-1-1-3 0c-1 0-2 1-2 1 0 2-6 2-8 0-1 0-2 0-2 1 0 0-2 1-3 0-3 0-3 0-1-1 1-1 1-1-1 0-2 0-3 0-3-1s-1-1-2-1-3-1-3-2c-1-2-2-2-2-1-1 1-1 1-3 0-1 0-3-1-3 0-1 0-1-1-2-2 0-1-2-3-3-4s-2-2-2-4c0-1 0-2-1-2s-1-14 0-16c1-1 4-1 4 0 1 1 1 1 3 0 1 0 3-1 5-1s5-1 8-2c2-1 5-1 9-1 6 1 9 0 8-1 0-1 3-1 6-2h6V103l-4-4c-3-3-5-6-5-7 0-3-2-17-3-19 0-3-13-2-13 1 0 1 1 1 2 1 2 0 2 1 2 2s-3 3-8 6c-5 2-9 4-9 4 0 1-2 1-5 1h-8c-5 1-6 1-3-1 2-1 2-1 0-1s-3 0-4 1c0 1-1 0-3-2-4-4-3-7 4-10 5-2 5-2 3-3s-11 0-20 0c-32 2-32 2-30-2 1-2 1-3 0-4s-1-2 1-2c1 1 2 2 1 4 0 2 0 2 3 1 5-1 50 0 52 1 1 1 10 0 12-2 2-1 2-1 2 0s2 2 11 2c7 0 10-1 10-1 0-2-7-7-10-8-1 0 0-2 3-4l4-4 1 2c0 1 1 3 1 4 1 4 2 3 6-7l-1 1c-2 2-3 1-3-3 1-1 1-3 0-3-2 0-3 0-3-3-1-2-2-3-3-3-1-1-1-7 1-12 0-1-1 0-2 1l-2 2-1-3c0-3-2-5-2-2s-2-2-2-5-3-10-5-9c-3 1-7-3-7-6 0-1 0-2-1-2-1 1-2 0-3 0-2-2-1 1 1 7 1 4 2 8 2 11v8c0 2-1 4-2 5-2 2-2 2-1 3 2 3 0 4-3 3-2-1-2-1-2 0 1 1 0 2-1 2 0 0-1 0-1 1s-2 1-6 1c-5-1-6-1-5 1 2 5 1 7-2 3-2-2-4-1-3 2v3h-4c-4-1-5-1-5 1-1 1-2 2-4 2-3 0-13-4-14-5 0-1-1-1-2-1s-1-4 1-9c0-1 0-1-3 1-4 4-4 8-1 13l3 4-3 1c-2 0-3 1-4 1 0 0-1-7-1-16 0-10 0-17 1-17 9-1 9-1 10 2 1 2 2 4 1 5 0 3 7-4 10-9 1-2 5-9 9-16l8-12h-65c-1 1 3 6 6 7 7 2 11 8 6 8-1 0 2 1 7 1 18 2 16 4-6 4-47 2-138 4-138 2 1 0 2-1 3-1s-3-1-9-1c-18-1-53-1-71 0s-28 1-26-1c1-1 43-3 98-3 17-1 29-1 30-2 1 0 1-1 0-1 0 0-1-1-1-2s-1-3-1-5c-1-1-2-3-2-4 0-2-6-2-109-2H0v150zM80 49c2 0 3 1 3 2s1 0 1-1c1-2 1-2 1-1 0 2 0 2 1 1s1-1 1 1c0 1 1 2 2 2 3 1 4 7 3 11-1 2-2 5-3 7s-2 3-3 3-3 0-5 1c-3 0-3 0-4-2 0-1-1-2-1-2-1 0-3-7-2-9 0-1-1-2-2-4-2-2-3-4-3-5v-3c0-1 4-3 7-2 1 0 3 0 4 1zm357 40c1 5-2 10-8 12-4 2-4 3-4 5 0 3-3 3-5 0-5-6 2-17 12-20 4-1 5-1 5 3zm-221 35c1 4 6 11 10 15 3 4 3 4 2 5-2 1-2 2 1 5s3 3 1 4c-3 0-3 1 2 4 3 3 3 3 1 4-1 1-1 2 3 4l4 3-3 2-4 2 4 3c2 1 5 3 6 4s2 1 2 2-13 5-19 6c-5 0-5 0-5 3s0 3-3 3-3 0-3-3 0-3-3-3-20-4-20-5c0 0 2-3 5-5 6-5 6-6 2-6-3-1-6-3-3-3 0 0 2-1 3-3 3-2 3-2 2-3-2-1-2-2 1-4 3-3 3-3 1-5-1-1-1-1 1-4s2-3 1-4c-3 0-2-1 2-7 2-3 5-8 6-11 2-7 2-7 3-3zm165 0c0 1 1 4 3 7l3 5h6c6 0 10 0 12-1s20-3 23-2h5c4 0 4 1 1 5l-3 3h-4c-2 1-3 2-2 2 2 3 2 6-1 7l-2 2c0 1-1 1-1 0-1 0-1 0-1 1 1 1 1 1-1 1h-3c-1 1-2 1-4 0-1-1-4-1-6-2h-3l2 4c1 2 2 4 2 5-1 0-1-1-2-2-2-5-5-5-5-1s-2 6-2 2c0-3 0-3-1-1-1 4-3 4-3-2v-5l-1 5c-1 4-1 4-2 1 0-5-1-6-2-4-1 1-1 1-1-1 0-1 0-2 1-2 0 1 1 1 2 0 2-1-4-7-7-7-2 0-6-1-11-3-6-2-9-3-10-2-3 1-3 0-3-4 0-2 8-8 13-12 3-2 7-1 8 1zm-200 14c3 2 3 3 2 4s0 2 1 4c2 2 2 2 1 3s-1 1 1 4c2 2 3 3 2 3-1 1 0 2 2 4l3 3h-2c-4 1-4 2 2 6 4 3 4 3 2 5-1 0-6 1-10 2-6 1-7 2-7 3 1 4-3 4-4 1-1-2-2-3-4-4-7-1-10-2-12-3-1-2-1-2 3-5l4-4-3-1-3-1 2-3c2-2 3-3 2-3-1-1-1-1 1-4 2-1 2-2 1-3-1 0-1-2 0-4 2-1 2-2 1-3s-1-2 1-5c2-2 3-6 4-8s1-4 2-5c0-1 1 1 3 4 1 4 4 8 5 10zm79-10c1 1 3 5 5 8 3 4 4 5 3 6s-1 1 1 3c2 3 2 3 1 4-2 0-2 1 1 3 2 2 2 3 1 4s0 1 2 3l3 2-3 2c-3 1-3 2 4 6 3 3 1 4-8 7-6 1-7 2-7 4 0 3-5 3-5 0 0-2-1-2-4-3-6 0-15-2-15-3l4-4c4-3 5-5 3-5-4 0-4-2-1-4 2-2 2-3 1-4-1 0 0-1 2-3s2-3 0-4c-1-1-1-1 1-3 2-3 2-3 1-4-2-1-2-1 1-6 2-3 4-7 5-9 2-5 3-5 4 0zM259 1c-1 1 1 4 5 7 4 5 5 6 7 5s7-6 9-10l6-2c5-1 3-1-11-1-13 0-16 0-16 1z" fill="#ccc"/></svg>