<svg version="1" xmlns="http://www.w3.org/2000/svg" width="600" height="400" viewBox="0 0 450.000000 300.000000"><path d="M0 54v53h3c2 0 3-1 3-6 0-6 2-8 3-4 0 2 1 3 1 2 0 0 2 1 3 2 2 1 2 2 1 5-2 4-2 6-1 6 0-1 1 0 2 1 1 2 4 3 6 1 1-2 2 0 2 4-1 2-1 3 0 3l1 1c1 3-1 2-6-1-3-4-5-4-8-4-1 0-2 0-2-1-1-1-1-1-1 0 1 1 0 2-1 2s-3 1-4 2l-2 2v178h13c10 0 13 0 14-2 2-1 3-1 5 1 2 1 4 1 4 0-1-2 0-2 3 0 2 1 11 1 49 1h47l1-5 1-5-1 5v5h5c3 0 5 0 6-1 0-1 1-1 2-1 0 0 1 0 1 1-1 1 2 1 6 1 5 0 8 0 8-1 1-1 1-1 1 0 0 2 48 2 48 0 0-1 0-4 1-6v-7c0-3 5-5 7-3 0 1 4 1 7 1 6 1 11 2 11 4 0 3 3 2 3 0 1-3 3-2 4 1s3 4 4 1c1-1 2-2 4-2s3 1 1 3c-3 2 1 2 6-1 0 0 0-1 1-2 0-4 4-5 5-2 1 4 1 4-1 5s-3 1-2 3c0 4 2 4 3 0 1-3 1-3 3-1 1 1 2 2 2 3 0 2 2 4 3 4s1-3 0-3-1-1-1-2c1-1 2-1 2 0 1 1 2 2 3 1s1-1 0-1-1 0 0-1c0 0 1-2 1-4 1-6 3-7 5-1 1 4 5 10 6 9 1 0 2-3 4-6 3-6 4-5 2 2-1 2-1 4-1 5 2 1 12-5 12-8 0 0 0-1 1-1s1 2 1 4 0 4 1 5c4 2 6-1 3-4-3-2-2-3 1-2 1 0 2 1 2 2 0 0 1 1 3 2 3 1 3 1 4-1 0-3 2-2 4 1l1 3h14c12 0 15 0 16-2 1-1 1-1 2 0 0 2 4 2 45 2h44V0H315v5c0 4 0 6-1 6s-3 0-4 1c-2 0-4-1-5-1-2-2-4 0-4 3v3l-2-2c0-1-1-4-2-6l-1-4-2 3c-1 4-4 4-7 0l-3-4v3c1 2 1 6 2 9v6l-4 1c-4 0-4 1-5 4-1 4 0 5 1 7 3 5 5 6 9 3 5-2 6-2 6 3 0 2 1 3 2 4s3 2 4 4c1 3 1 3-1 5-2 1-6 0-8-2s-10-2-8 0c0 1 0 1 1 1 1-1 4 2 4 4l2 2c3 1 10 7 10 9l2 2c5 3 3 15-3 15-3 0-3 3 2 5 3 2 4 3 1 7-2 4-3 5-5 2-2-2-3-2-3 1 0 1 1 2 2 2s1 2-1 4c-3 3-7-7-5-12 1-2 1-2-1-2-1 1-4 1-5 1-3 0-4 1-1 6 2 5-1 6-4 1-1-2-3-4-4-4s-1 0 0 1c2 2 1 5-1 5-2 1-1 1-3-3-1-3-1-3 1-4 1-1 1-2 1-6-1-2-1-5-1-7 0-5-1-6-5-4-2 1-3 1-6-1s-4-2-5-1c0 1-1 1-2 1-2-1-1 3 1 6 2 1 3 4 4 6 0 3 0 3-3 3 0 0-1 0-1 1 0 0-1 0-2-1-2-1-2-1-1-1 2 0 2-1 1-4-1-1-2-4-2-6 0-5-1-6-3-6-1 0-2 0-2-1-1-1 0-1 2-1s2 0 1-2c-1-1-2-3-2-5l-1-3 1 3c2 2 2 2 1-2 0-2-1-8-3-14-1-6-3-13-4-16-2-9-6-23-7-23s-1-1 0-2c0 0 0-1-1-1s-1-1-1-1c0-1-1-3-2-4l-2-2H61l-3 6c-2 7-4 9-3 3 1-2 1-4 1-5s1-2 1-2c1 0 1 0 1-1 0-2-3-1-6 2l-3 3-2-3c-1-3-4-4-4-2 0 1 0 1-1 0s-7-1-22-1H0v54zm49-28c1 1 3 2 3 1 1 0 2 3 1 5 0 2-2 10-3 14 0 2 0 4-1 5-2 3-1 4 1 4 1 0 2 0 2 1s-1 1-3 1-3 1-4 2c-1 3-1 8 1 8 1 0 2 1 3 1 0 1 0 1-2 1-2-1-3-1-4 1 0 2-2-2-1-5 0-1 0-2-3-2-4 0-7-2-5-4 1-1 1-3 1-4-1-2 5-2 6 0 1 1 1 1 2 0s2-2 3-2l2-4c0-2 1-5 1-8 1-4 1-6-1-6-3 0-5-5-5-8 1-2 4-3 6-1zm166 49c1 6 2 12 3 13 0 2 1 4 1 5 0 2 1 4 2 5 0 1 1 2 0 3 0 1 0 2 1 2 1 1 0 2-1 4-2 1-3 3-3 4 0 2-1 4-1 5-1 2-2 4-1 5v5c-1 2-1 5-2 6 0 2-1 4-2 5-1 3-1 4 0 4 0 0 1-1 1-2 1-3 6-4 10-2 7 3 9 7 6 12l-2 4-2-2-3-3-2 3c-1 2-2 4-3 4 0 0-1 0-2-1-2-2-1 1 2 8 3 6 5 6 8 1 2-3 4-4 2 0-1 2-1 2 1 2 3 1 3 3 0 4-2 0-5 5-4 8 1 0 1 2 0 3-1 3 0 5 3 6 3 0 3 3-1 3-3 1-4 0-6-3l-1-3-2 2-2 2v-3c0-1 0-4-1-5 0-2 0-2-2 0-7 6-25 2-25-5 0-4-2-3-8 1-6 6-9 7-12 5-1-2-1-3 7-10 10-10 17-13 23-13 3 0 5-1 8-3 2-2 4-3 4-3 1 0 4-3 4-4s-1-1-2-1c0 0-1 0-1-1 1 0 0-2-1-4-1-4-1-4 0-10 2-5 2-6 1-10-1-3-1-6 0-10s1-7 0-12c-2-9 1-37 3-34l2 10zM82 93c1 0 3-1 4-3s3-3 3-3c2 0 3 6 2 10v8c2 7 0 14-4 16-2 0-3 1-3 0 0 0-1 1-1 2l-2 3-1-2c0-2-1-5-1-6 0-2 0-3 1-2 1 4 3 3 3 0 0-2 1-4 1-5 2-2 5-3 5-2s0 1 1 0 0-5-2-5c-1 0-1-1 0-2 0-2-2-1-7 1-6 3-7 0-3-8 1-2 2-5 2-7s0-1 1 1c0 3 1 4 1 4zm173 8v4l1 3 3-2c4-3 5-3 8-2 2 2 2 2 0 2-4 1-6 16-3 19 2 1 1 4-1 4s-3-2-3-5c0-2-1-3-3-5-4-2-4-2-3-7 0-3-1-6-1-7-1-2-1-3 0-4 2-1 2-1 2 0zm25 17c1 5 2 7 6 8 3 1 5 1 6 2 1 0 1 5 0 7-1 1-2 1-4-4-1-2-1-3-6-3-3 0-6 1-6 1 0 1-4 0-5-1-2-1-2-8-1-8 1-1 2-1 3 0 2 1 2 1 4-1 1-2 3-3 3-1zm-204 9c2 1 3 2 4 5 7 20 10 25 17 25s11 3 22 13c10 9 10 10 7 12s-5 1-12-6c-6-5-9-6-6-3 4 5-6 12-18 12-4 0-9-5-9-8 0 0-2-3-5-7-3-3-5-6-5-7 0 0-3-7-7-14l-6-13 3-3c5-5 11-8 15-6zm170 5c-1 3 1 4 5 2 3-1 3-1 3 3 1 4 2 5 4 4 3-1 5-5 3-5-1 0-2-1-2-2-1 0-2-1-2-1-1 0-2-1-2-2s1-1 3-1 5 1 5 1c1 1 3 2 3 2 1 0 2 1 2 1 0 1 1 2 2 3s1 1-1 3c-1 1-3 2-5 2-3 0-4 2-2 6 1 1 2 2 4 2 3 0 3 0 3 2-1 1-1 3-1 4 0 3-4 3-5 0-2-2-3-3-7-4-1-1-9-9-9-11-1-1-1-1-2 0s-1 1 0 3 1 2 0 2-2 1-3 2c-1 2-5 1-5-2 0-1-1-3-3-4-1-2-2-3-1-3 0 0 2 1 3 3 3 3 3 3 3-2 0-2 5-11 7-11v3zm41 21c0 1 1 2 2 2 2 0 1 2-1 3-1 0-2 1-2 3 0 4-3 7-5 4-1-1-1-1-4 0-5 2-10 3-10 1 0-3 11-8 16-9 1 0 1-1 1-1 0-3 0-5 2-5 0 0 1 1 1 2zM147 274c2 1 6 1 7 2 4 0 9 3 9 4h-3c-2 0-2 0-1 2 4 6 5 7 5 10l1 4-2-2c-2-3-3-3-5-3-2 1-3 0-1-2 1-2 1-2-1-4-1-2-2-3-2-4 1-1 0-2-4-3-10-2-12-1-7 5 2 2 2 2 1 2s-2 1-3 2c0 1-1 2-2 1-1 0-2-1-1-5 1-3 1-7 2-9 0-2 0-3 1-2 0 1 3 2 6 2zM280 65c-1 1-1 3-1 5 1 1 0 2-1 2s-2 2-2 5c0 2 5 6 7 6 1 0 2-1 2-2s1-3 2-4c1-2 1-2-2-8s-4-7-5-4z" fill="#ccc"/></svg>