<svg version="1" xmlns="http://www.w3.org/2000/svg" width="600" height="400" viewBox="0 0 450.000000 300.000000"><path d="M54 9c0 12-1 13-12 14-4 1-12 2-18 2-7 1-14 2-18 3-6 0-6 0-6 3 0 4-2 4 27 0 17-1 24-2 25-1 3 2 3 45-1 50-1 2-2 3-2 3-1-1-3 0-4 0-2 1-7 1-11 2-10 0-14 0-25 1-9 1-9 1-9 4 0 2 0 2 3 1 2 0 9 0 17-1 7-1 16-2 20-2 8-1 14 1 14 4-1 7 1 8 4 1 3-5 4-6 17-5 5 1 16 1 24 2 23 2 26 2 28 4s2 4 2 25v22l3 1c2 0 6 1 8 1 16 4 15 4 16-13 2-24 7-75 9-84 5-21 11-40 14-40 0 0 2-1 3-3l2-3h-54l-1 12c0 15 0 16-9 16-4 0-12-1-17-1-5-1-16-2-24-3-19-2-18-1-18-14V0h-7v9zm29 22c26 1 42 3 44 5 2 1 2 1 2 23 0 29 0 29-12 29-3 0-10-1-16-1-6-1-16-2-21-2-23-2-22-1-21-25 1-31 1-31 10-31 3 1 9 1 14 2zM189 2c-2 3-2 4-1 3 1 0 3-1 5-1h3l-4 3c-7 7-10 18-10 39 0 8 0 13-1 13s-1 0-1 1 0 1 1 0c1 0 1 1 1 2s0 1-2-1c-2-1-2-1-2 3 0 3 0 3 1 0 0-2 1-2 1-1 1 3 1 7 0 5-1-1-1 4-1 14s0 16 1 15c1 0 1-3 1-6 0-4 0-5 1-4 1 3 1 13-1 14 0 0-1 2-1 4s0 3 1 1c0-5 1-6 2-3 2 3 2 15 1 21s-1 7 1 3c1-1 1-2 2-2 0 1 0 3-1 5s-2 5-2 6-1 3-2 4c-2 1-2 1-2 0 1-1 0-2 0-2-1 0-1 1-2 3 0 3-3 6-3 4 0 0 0-1-1-1s-1 0-1 1-3 5-10 15c-15 22-23 37-27 49 0 3-2 7-2 8-1 2-3 11-4 19-3 18-5 22-6 14-1-2-1-4-2-4s-1-1-1-2c1-1-1-5-2-6l-1-1c1 0 0-1 0-2l-2-2c1 0 0-1 0-2-1 0-2-2-2-3s0-1-2 0c-1 2-1 2 1 5 4 4 6 8 9 21 4 18 7 33 5 33l-2-8c-1-5-2-9-2-10-1-1-21-2-21-1 0 2 6 6 13 11 4 2 8 6 9 8 2 2 3 3 3 2s1 1 3 5l1 6h73v-3l1-4v7h12c13 0 13 0 7-7-3-2-5-5-4-5 0-1-1-2-2-2-1-1-3-2-3-4-1-1-1-2-2-2 0 0-1-1-1-3v-11c-1-7-1-8 1-8 2-1 2-1 1-2-2-1 1-3 3-2 2 0 3 1 4 1 0 0 1 2 1 4 1 3 2 5 3 7 1 1 2 3 3 4s2 3 3 3c1 2 6 14 6 15s0 1 1 1c1-1 1 0 1 1s0 2 1 2c1 1 1 2 1 3 0 2 3 6 4 5 0-1 0-2-1-3-2-5-3-11-2-12 1 0 1-3 2-5 0-5 3-8 3-4 0 2 0 2 1 0s1-4 0-4c0-1 1-4 2-8s2-9 3-12c0-3 0-4 1-3s1 1 2 0 2 1 2 4c0 1 0 2 1 2s1 1 0 2c0 1 0 1 1 0s1-1 1 0c1 1 1 1 1 0 0 0 0-1 1-1s0 4-1 5c-1 0-1 3-2 6 0 4 0 5 2 5 2 1 3 2 1 4-1 0-1 1-1 2 1 1 0 2 0 3-1 2-1 2 1 3 1 0 2 1 2 1 0 1 0 1-1 1-1-1-1-1-1 0l1 1c1 1 1 1 0 1-2 0-2 6 0 7h2c1 0 1 0 1 1s1 2 1 3c2 1 2 1 3-2 1-4 1-5 1-1v4h22c12 0 22 0 22-1 0 0-1-3-3-7-6-14-7-25-3-32 0-1 1-3 1-3 0-1 1-4 3-8 11-27 6-46-20-71-6-6-6-7-4-7 1 1 7 2 13 3 9 1 12 2 29 10 10 5 21 46 19 72-1 5-1 11 0 14 1 5 4 28 4 29s21 1 48 1h47V0H330c-70 0-121 0-123 1h-4c0-1-3-1-6-1-6 0-7 0-8 2zm29 4c11 0 14 3 18 15 3 8 3 8-2 11-6 3-5 4 1 3 4 0 4 0 4 3 0 2-1 3-3 4-3 2-4 5-2 4 1-1 2 0 3 0 4 3 5 33 1 31 0 0-1 0-1 1 0 0-1 1-3 2l-3 1 2 1c3 1 3 2 3 4-1 3 1 3 2-1 1-2 1-2 1 1 0 7-2 18-3 21-2 2-14 5-20 5-5 0-15-7-17-12 0-1-1-3-2-6s-1-5 0-7c1-4-2-13-5-17-1-1-2-2-2-3v-3c0-2-1-4-2-4-2-3-1-4 6-4 3-1 9-2 12-3 3-2 5-3 6-3s1 0 1-1-6-3-10-3c-1 0-3 0-4-1 0-1-2 0-5 2l-5 3v-2c0-5 6-8 16-8 4 0 8 0 8-1 2-2-1-3-8-4-6 0-7 0-11 2l-5 3v-7c0-12 5-22 15-26 2-1 5-2 6-2 1 1 2 0 2 0 0-1 0-1 1 0 0 0 2 1 5 1zm17 110c0 2-1 6-2 10-2 8-1 9 2 1l2-6v9c0 6 0 8 1 9s1 2 1 5c-2 11-2 14-1 10 1-2 1-1 1 4v6c1 0 1 1 1 1 0 3 0 6 1 4s5 4 5 7 2 7 2 4c0-1 1 0 2 2 0 1 2 3 2 4 4 2 2 17-4 45-3 15-10 42-11 43 0 1-1-2-7-24-6-25-9-32-18-53-8-19-11-29-11-33 0-2-1-8-2-13-3-10-3-22-1-23 1 0 1-3 1-7 0-5 1-6 2-6s4 0 7-1c3 0 10 0 16-1 11-1 11-1 11 3zm-68-58c-2 6-2 15 0 15 1 0 1 1 0 3s-2 11-1 11c1 1 0 22-1 26-1 6-2 11-1 19v6l2-4c7-14 8-46 2-76l-1-4v4z" fill="#ccc"/></svg>