<svg version="1" xmlns="http://www.w3.org/2000/svg" width="600" height="400" viewBox="0 0 450.000000 300.000000"><path d="M178 7c4 38 4 83 0 96-4 11-4 11 0 8 3-2 14-7 16-7s1 2-3 3c-26 9-36 47-19 70 4 6 8 15 11 27 2 7 2 10 2 44v44l-1 8h19c19 0 19 0 19-2 2-6 3-24 4-50 2-50 4-61 13-71s12-16 11-31c0-13 0-15-6-25-3-4-9-8-9-7-2 5-2 11-1 14 3 6 2 6-1 1-2-2-3-4-2-4s1-1 1-1c0-1 0-1-1 0-1 0-3 0-7-3-3-1-6-3-6-3v-6c1-4 1-7 0-7 0-1 1-1 1-1 1 0 2 1 1 3 0 2 0 4 1 4 0 1 1 3 0 4 0 2 0 3 2 4 2 0 3 1 3 1 0 1 2-1 4-4s2-5 0-7c-1 0-1-1-1-1 2 0 8 4 11 6 2 2 7 2 5 0 0-1 0-1 1-1 1 1 1 0 1-1s0-1 1 0c0 1 1 1 3 0 1-1 2-2 3-2 2 0 2-1 2-2-1 0 0-1 0-1 2 0 5-8 5-11-2-5-1-7 2-11l3-3-2-2c-2-2-7-3-7-2s0 1-1 0c-1 0-1 0-1 1s0 1-1 0-1-1-2 0-1 1-1-1c-1-1-1-1-2 0s-1 1-3 0-5-1-5 0 0 1-1 1c-1-1-2 0-2 2-1 2-3 5-5 6-2 2-3 4-2 5 0 2 0 2-1 1-2-3-4-15-4-29-1-14-5-55-6-61V0h-43l1 7zm51 164c-1 2-2 3-2 4 0 0-1 1-1 0-1 0-2 0-2 1s-1 3-2 3c0 1-1 2 0 2s1 0 1 1c-1 1-1 1 0 1s1-1 2-3c1-5 2-4 2 1-1 5-1 5 2 4 1-1 2-1 2 0 0 2-13 7-20 8-4 0-6 0-5-1l2-6c0-6 1-7 4-7s13-5 16-8c1-2 3-3 3-2l-2 2zM0 116v79h10c22-2 22-2 35-6 11-3 25-4 33-2h25c4-1 11-1 14-1 9 0 17-3 39-12 2-1 5-2 5-1 1 0 1 0 1-1s1-1 2-1c1 1 1 1 0-1-2-6-5-16-6-21 0-5 0-5-1-3 0 3-1 3-2 3-2 0-3 1-4 1-1 1-3 0-6-1-2-1-5-3-7-4s-5-3-5-5c-1-3 0-14 1-15 1 0 1-1 0-3v-2c1 1 3 0 4-1 2-1 4-2 5-2 2 0 3 0 2-2 0-1 0-3 1-3 2-1-1-8-4-8h-3c-2-1-5-1-8-1-6-1-7-1-11-5-4-5-4-5-3-14 0-3 8-8 15-10 3-1 6-2 7-3s2-1 3-1c0 0 17-9 18-11 3-3 7-5 9-4 1 0 2 0 2-1s1-1 2 0c1 0 2 0 3-1 0-2 1-2 2-1s1 0 1-5c0-6 0-6-2-5-3 3-11 5-26 5-8 0-16 1-19 1-9 2-23 2-23 1-1-1-2-1-3-1s-6-2-10-4c-10-6-14-6-20-4-16 6-26 6-46 0-5-1-9-2-16-2-6 0-11 0-12-1l-2-1v80zm285-74c-2 0-4 1-4 0-1 0-1 0-1 1h-5c-8-1-23 0-30 2-4 1-8 3-9 3-2 0-3 0-4 1h-2c-2 0-1 4 1 5 1 1 1 1 1 0s1 0 2 1c2 3 3 3 2 0 0-2 0-2 2 0 2 1 4 2 10 2 5 0 8 0 8 1 1 1 2 1 3 1 0 0 1 1 1 2s0 2 1 2h2c5 3 10 4 12 3h3c3 2 6 1 6-1-1-1 0-2 0-2 1 0 2-1 4-2 3-3 7-2 10 3 1 1 3 3 4 3 0 0 1 1 2 1 1 3 12 0 12-3 0-1-1-3-3-5-1-2-4-6-6-8-5-9-12-12-22-10zm154 27c-4 3-5 4-5 8-1 3-2 5-3 6-2 1-9 2-10 1-2-1-12-3-18-3-2-1-5-1-6-2-2-1-5-1-7 1s-2 2-2 0c0-1 0-2-1-1 0 1-6 7-7 7 0 0-2 1-2 2l-2 2c0-1-1-1-2 0-1 0-4 1-7 1-3 1-7 2-8 3l-4 2c-3 0-7 6-6 9v5c0 2 1 3 3 4 3 4 6 11 6 16 0 8 0 9-1 9-1 1 3 16 4 17s2 0 3 0c2-1 2-1 3 0l1 1c0-1 4-1 8-2 7-1 7-1 11 1 1 1 3 3 3 4 0 0 0 1 1 1s1 1 1 1c0 1 1 2 2 2s2 1 3 2l2 2c0-1 1 0 3 2 1 1 2 3 2 4 0 2 4 3 6 2h7c2 1 7 1 9 2 2 0 6 1 7 1 1 1 5 1 7 1 3 1 6 1 6 2 0 0 2 0 2-1 3-1 3-37 0-42-2-3-2-10 0-14 2-3 2-8 2-31V66h-3c-2 0-5 1-8 3z" fill="#ccc"/></svg>