<svg version="1" xmlns="http://www.w3.org/2000/svg" width="600" height="400" viewBox="0 0 450.000000 300.000000"><path d="M9 25C8 45 8 51 6 53c0 2-1 3 0 3 0 0 0 1-1 1 0 1-1 2-1 4 0 3-1 3-3 1-1-2-1-2-1 2s1 5 3 3c0-2 2 0 4 4 2 6-1 26-5 27-1 1-3 20-1 20 0 0 1 0 1-1 0-2 2-1 2 1 1 1 1 2 0 2s-1 1 0 2c1 2 1 7 1 15 0 11 0 12-3 15-2 3-2 4 0 4 0 1 2 1 2 0 1 0 2 2 3 4 1 3 1 7 0 31v28l-4 2c-4 2-4 8 0 11 2 2 2 3 2 15s0 13-4 12c-1 0-1 4 1 13 0 2 0 4-1 4-1 1-1 14 0 16s1 4 1 5c0 3 0 3 4 3s5-1 12-7c9-9 25-24 29-26 1-2 3-3 3-3s4-4 9-8 10-8 11-9c3-3 4-5 2-5-2 1-2-2 0-3 1-2 4-3 4-1 0 1-1 1-1 2-1 0-2 1-2 1h3c4-2 12-8 11-9 0-1 8-9 15-14 2-2 6-5 8-7 5-4 9-6 11-5 0 1 1 2 0 2 0 1 1 1 3 0 5 0 5 0 1 2-2 2-2 2 0 2 1 0 1 0-1 1-3 2-5 7-3 7 2 1 1 3-2 6s-4 6-1 4c1-1 1-1 1 0 0 0 1 1 2 1 0 0 1 0 0 1 0 1 0 2 1 2 1 1 1 1 0 1-1-1-2 1-4 4-4 10-10 25-11 28 0 2-1 6-3 9s-4 9-5 13c-2 4-3 8-3 9-1 2 0 2 19 2h21v-7c0-5-1-8-1-7-1 0-1 0 0-5 1-2 2-3 2-2 0 3 3 1 3-2 0-1 0-1-1 0s-2 1-2 0c0 0 0-1 1-2 1 0 1-1 1-1-1-1 0-3 1-4 0-1 1-2 0-2 0 0 0-1 1-2 1 0 1-1 1-2-1 0 0-1 0-2 1-1 2-2 2-3s1-3 2-3 1 0 0 1c-1 2 0 3 2 1 1-1 4-5 4-6s-1 0-2 1c-2 1-3 2-4 1s-1-1 0-1 2-1 2-2c0 0 0-1 1-1s3-4 3-6c0-1 0-1-1 0-2 2-3 1-1-2 1-1 2-4 3-6s2-5 4-6l2-3h-2c-3 0-7-3-7-4s1-1 2 0 3 2 4 2c2 0 2 0 0-2-4-2-6-3-6-5 0-1 1 0 2 1 4 3 10 3 12-1s3-8 4-14c0-3 1-6 1-7 1 0 1 1 0 3 0 4 1 3 4-2 2-5 3-6 1-4-3 2-2 0 1-4 2-2 2-2 2 0-1 2-1 2 0 0 1-1 2-2 2-4-1-2-1-2 0-1s1 1 1-1l2-2c2 1 4-7 4-14 0-4 0-4 2-3 1 1 2 2 2 1l-1-1c-1 0-1-10 0-10 0 0 0 1 1 2 1 2 1 1 1-5 0-4 0-6-1-5 0 1-1 2 0 2 0 1-1 2-2 4s-2 4-2 5c0 4-12 26-16 30-6 6-9 6-3 1 2-3 5-7 6-9s3-4 3-5c1 0 3-5 5-10 3-5 5-12 7-15 1-4 2-7 2-8 0-3 2 5 3 11l1 6v-8c0-10 1-11 5-3 1 3 1 6 0 5 0-1-1 2-2 6v7c1 1 1 2 0 5-1 2-2 4-2 5 0 5-5 21-7 25-1 2-2 6-2 7 0 2-1 4-1 3-1 0-3 4-2 5 0 1 0 2-1 2-1 1-1 1-1 0 0-4-3 3-4 10-1 2-1 4-2 5-1 2-1 5-2 6v6c-1 3-1 3 0 2 0-1 2-2 4-2 3 0 3 0 4-7 0-3 1-6 1-8 1-1 2-4 2-6 1-2 2-3 2-4 2-1 1-2-1-2-1 1-1-2 1-5 1 0 1-2 0-3 0-1 0-1 1 0s1 1 2-1c1-1 1-2 0-2l-1 1c-1 1-1 1-1 0s1-2 2-4c1-1 2-3 2-4s7-18 8-19-1 8-2 9-1 2 0 2v3l-1 2v-5l-2 3c0 2-1 4-1 6 1 1 0 4-2 6-3 6-3 6 1 5h2l-2 2c-3 4-7 14-7 18 0 3 0 3 1 2 1-2 1-1-1 9 0 4 1 4 3 0 1-1 1-2 2-1 0 0 0 2-1 3-2 3-1 4 2 3 4 0 3 1-1 3-3 1-4 2-5 6-3 8-8 16-10 15 0-1-2 0-3 2-2 1-4 2-4 1-1 0-1 0-1 1 1 1 1 1 0 0-1 0-4 1-6 3-2 1-4 2-5 2-1-1 7-8 11-9 5-1 11-6 14-13 3-6 4-14 1-11 0 2-1 3-1 5s-14 16-15 15c-1 0-3 1-5 3-3 1-4 2-5 1 0-1-1-1-2 0-1 2-1 2 0 2s1 0 0 1l-2 2c-1 0-1-1 0-1 3-4-1-2-7 3-7 6-8 9-8 17 0 3 1 4 3 4s2 0 2-3c-1-3-1-3 0-2 0 1 1 2 1 3s1 2 6 2c3 0 5 0 5-1s0-1-1-1-1-1-1-2c0-2 0-2 1-1 1 4 9 6 9 3 0-1 0-2 1-2s1 1 1 2c0 2 1 2 6 2 6 0 11-3 11-6 0 0 0-1 1-1s1 1 0 3 1 4 5 4c3 0 3 0 3-4v-4l1 3 2 3 1-3 1-4 1 5c0 4 0 4 2 2 1-1 1-1 1 0 0 2 1 2 13 2 13 0 13 0 14-2 0-2 2-4 3-5s2-2 1-2 0-6 2-8c1-2 2-4 1-4 0-1 4-4 5-4s0 1-1 2c-3 3-3 4 1 3 5-2 5 0-1 2-2 1-5 3-5 4s0 1 1 0 2-1 3-1c0 1 1 0 2 0 0-1 2-1 2-1 1 1 2 0 3-1 0-3 2 0 2 3 0 2 0 2 1 2 0 0 1 1 0 2 0 1 0 1 1 0s1-1 2 0c1 3 1 2 3-1 1-2 3-4 3-4 2 0 2 2 0 3-1 2-1 3 0 5v2l1-3c0-2 1-3 1-2 0 3 3 8 3 6 0-1 0-3-1-5s-1-3 1-4c2-2 2-2 2-1 0 3 6 9 7 7 1-1 1-1 3 0 1 1 0 2-2 1-1 0-1 1 0 2 0 1-1 2-1 2-1 0-1 0-1 1s3 1 7 1c6 0 7 0 7-2 0-1 0-2 1-3s1-6 0-13c-1-3-1-7 0-8 0-2 0-3-1-3 0 0-1-1 0-2 0 0-1-3-1-6-1-2-2-4-2-5 1-1 0-1 0-1-2 0-4-2-2-3 1-1 1-1-1-2-1 0-3-1-4-2s-3-2-4-2-8-6-8-7 1-1 2 0c1 2 2 2-1-4 0-1 0-1 1 0 2 2 2 1 0-4-2-2-3-4-5-4-2-1-9-7-9-8s1 0 3 1c3 3 10 4 10 2s-2-7-4-7c0 0-1 0-1-1s-1-1-1-1h-2c0-1 1-1 3-2 4 0 4 0 2-1-1-1-1-1 0-1 0 0 1-1 1-3 1-2 1-1 1 2 0 2 1 4 2 4 0 1 1 2 1 3 0 4 1 4 3 1 2-5 4-3 3 2-1 3 1 4 4 1 5-4 5-4 2 1-2 4-2 5-1 7s5 3 6 0c0-1 1-1 1 0 1 0 2 1 2 1 1 0 1 0 0-1-1-2-1-4 0-3 1 0 1-1 1-3 0-1 0-2-1-1-1 0-1 0-1-1s3-2 3-1c1 0 1 1 1 3 0 4 10 25 11 22 1-2 7 11 8 15 0 1 1 4 2 6 5 6 3 6-2 0-5-7-7-9-8-9 0 1 0 2 1 3 2 2 9 17 8 17 0 0 1 2 3 3 2 2 3 4 2 4 0 0-1-1-2-1 0-1-2 1-3 3 0 1-1 3-1 6-4 8-5 8 22 8 26 0 24 1 20-10s-5-14-4-18c0-2 0-4-2-6-2-3-4-13-4-18v-3l2 3c1 1 2 2 2 1 0 0-1-2-2-3s-2-2-2-3 0-1-1-1-3-4-3-6c0 0 1 0 2 1s3 1 4 1c2 0 2 0-1-2-1-1-4-3-5-5s-3-3-4-3-8-5-8-6c1 0 2 1 4 2 4 2 6 3 4 0-2-1-2-1-1-1 2 0 4-5 3-6-1 0 0-1 1-2s1-2 0-3c-1 0-1-1 0-2 0-1-1-2-2-3-1 0-1-1-1-1 1 0 1-1 0-2s-1-2 1-3c2-2 2-2 0-2-1-1-4-1-5-1s-2 0-2-1c1-1 3-1 5-1 3 0 4 0 4-3 0-2-1-2-4-2s-5-2-2-2c2 0 6-1 7-1 1-2-2-3-5-3-2 0-3 0-2-1 0-1 1-1 2-1 2 0 5-4 3-5-1 0-2-2-1-7 0-6 0-7 3-9 1-1 3-2 4-2 0 0 1 0 1-1s-3 0-7 2c-2 1-2 1-2-1 1-4 0-5-2-4-1 0-1 0 0-1 2-2 1-3-1-4-2 0-2-1-2-5 1-3 0-5 0-6-1 0 2-3 4-3 3 0 4 2 3 4-1 1-1 2 0 2s1 1 1 1c-1 1 0 3 1 4l2 2 2-2c3-3 6-9 6-10-1-1-2 0-3 3-2 5-5 7-4 3 3-8 3-15 3-33 1-13 1-21 2-21 2-2 3 3 4 26 1 19 1 22 3 26 4 8 4 16-1 22-2 1-3 3-2 3 2 0 1 2-1 4-1 1-3 2-3 1-1 0 0-1 1-2 2-2 2-3 1-3s-7 6-7 7 0 1 1 1c4-1 5 2 3 4-1 1-2 2-1 3 0 1-1 1-2 1-2 0-2 0 1 1 1 0 2 1 2 2 0 0 1 1 2 1l1 1c-1 1-2 1-5 1s-5 1-5 1c0 1 1 1 2 1 2 0 4 1 5 2l3 3-3 2-2 1 2 2c3 1 4 3 1 3-1 1 1 1 4 1 5 0 5 0 4 2-1 1-2 1-4 0s-3-1-3 0-1 1-1 1c-1 0-2 0-2 1s0 1 1 1 0 1 0 2c-1 0-2 1-2 2s3 6 4 7 1 2 0 2c0 0-1 0-1-1-1-1-2-1-2-1-1 0-1 0-1 1 1 0 0 1-1 1s0 1 4 3c2 2 5 4 6 5 3 3 2 0 0-3-4-5-1-3 8 4l8 8h12c7 1 17 1 23 1 5 1 10 1 10 1s-1 1-2 3c-1 3-2 3-5 3s-8 0-12 1c-6 1-8 1-11 0-5-2-5-2-5 0 0 1 1 2 3 3 3 2 13 12 33 30 20 19 18 18 31 18h10v-74l-7 1c-9 0-10-2-9-12 0-9 2-10 10-10h6v-30l-3-1-2-1h2c4 0 1-1-4-2-8 0-12-6-7-11 2-3 3-3 7-3 7 1 7 1 7-8v-7l-2 4c-2 2-3 4-3 4-1-1-2 0-3 2s-1 2-1 0v-3c-3-8-4-40-4-107V0h-22v29c0 28 0 33-2 51v14c0 4 0 8-1 10-3 7-6 38-4 44 0 2-1 2-3 1-1-1-1-2-1-6 1-6 1-6-4-6l-3-1-1-22c0-13 1-23 2-26 1-4 1-5-1-13 0-2 0-9 1-17 2-12 4-28 6-45 1-5 1-10 2-11 0-2 0-2-2-2s-2 1-2 3c0 3-2 5-5 5-1 0-2 1-2 2 0 3-1 3-4 3-1 0-2 1-2 2 0 6-6 8-10 3-3-4-2-10 2-10 2 0 2-1 2-3s1-3 3-3c1 0 2 0 2 1s0 1 1 0c1 0 1-1 1-2s-3-1-14-1h-15v6c-1 4-1 11-1 16 0 12-1 14-6 14-1 0-1 1-1 2v1c-1-1-4-33-4-37 0-2-31-3-31-1 0 1-1 10-1 20l-2 18-4 5c-3 2-5 4-6 4 0-1 0-10-1-21 0-11 0-22-1-24V0h-20c-22 0-20 0-20 5 0 1-2 2-5 2-2 0-4 0-4 1h-38c-8 0-12 0-10-1 1-1 1-1-1-1-3 0-4-2-2-2 1 0 1 0 1-1-1 0-3 1-5 2-9 4-21 2-18-3 0-2-2-2-19-2h-20v4c-1 3-1 13-2 23-1 20-1 22-3 18 0-1-1-2-1-2-4-4-7-17-7-37V0h-17c-10 0-18 0-18 1 0 0-1 1-3 1-1 0-2-1-3-1 0-1-6-1-13-1-11 0-13 0-13 2 0 1 1 1 2 1 6-2 7 9 1 12-4 2-9-2-7-6 1-2 1-2-2-2-4 1-6-1-4-4 1-1 1-1-2-1-2 0-3 0-3-1-1-1-2-1-3-1h-2l1 13c1 14 0 36-2 37 0 0-1 2-1 3s-1 2-2 1c-2-1-5-25-5-44V0H9v25zm48-9c1 1 2 3 1 4 0 3 1 4 3 3 2-2 4 0 3 3 0 2 0 2 3 2 4 0 5 6 2 11-3 3-10 0-9-4 1-2 0-2-3-2s-3 0-3-3c0-2 0-2-3-2-4 0-6-8-1-12 3-3 4-3 7 0zm173 3c4 1 9 1 12 1 8 0 10 1 18 9 8 9 8 10 8 19-1 5-1 6-3 5-2-2-1 0 2 5 1 3 2 4 2 3 0-2 0-2 1-1 1 0 2 1 3 0 0 0 1 1 1 2s0 1 1 0c0-2 2-3 3 0 0 0 1 1 2 1 0-1 1 0 1 1 0 3 5 19 6 17 0-1-1-3-1-6-2-4-2-8 0-9 1 0 1 1 1 3s0 3 1 3c1-1 6 2 6 4 1 1 1 2 0 3 0 2 0 2 2 1 1 0 1 0 0 1s-1 3 1 8c0 3 1 6 1 6s-2 1-3 3l-2 1v-2c1-2-2-6-4-5-1 1-1 0-1 0 0-1-1-3-2-4s-2-2-2-3-2-1-5-1c-1 0-2-2-3-10 0-3-1-4-1-3s-1 2-1 2c-1 0-1 2-1 4s0 3-1 2c-1 0-1-1-1-2 1 0 0-1-1-1 0 0-1 0-1-1s0-1-1-1c-1 1-1 2-1 4 0 4-2 3-2-1 0-3 0-4 1-4s1-1 0-2c-3-2-4-2-4 2 0 2 0 2-1 0-1-1-1-1-1 1-1 2-1 2-2-1s-1-3-1-1 0 2-1 0 0-5 1-4c1 0 1 0 1-1s-3-1-4 0c0 1-1 1-1 0-3-3-4-2-4 1l1 3-3-2c-3-4-3-4-6-2-1 2-2 2-2 1-1-1-2-1-2 0-1 1 0 2 0 2 1 0 1 0 1 1-1 0 0 1 1 2 3 3 1 5-3 3 0-1-1-1-1 0s-2 1-4 0c0-1-1-1-1 0s0 1-1 0c-1 0-1 0-1 1s1 1 1 1c1 0 1 1 0 1-1 1-3 1-3 0h-6c-3 0-4 0-2-1 1 0 3-1 3-2s0-1-1 0c-1 0-4-1-6-2-4-2-5-3-3-1s1 3-1 3c-2-1-4 0-4 2 1 2-5 1-7-1-2-1-2-1 1-1 2 0 3 0 3-1s-1-1-2-1c-2 0-3-1-4-2 0-1-2-1-7-2h-5l4 1c5 1 7 3 3 3-1 0-1 0 1 1s2 1 1 2c-1 0-6-2-12-5-1 0-2-3-2-5v-5h4c3 1 2 0-2-1-1-1-2-3-3-10 0-13 0-15 8-23 9-9 9-9 24-9 9 0 11 0 11-1 1-2 2-2 2-1s2 2 6 2zm165 1c3 2 4 3 4 7s-1 6-4 6c-2 1-3 2-3 2 0 3 0 4-3 4-2 0-3 1-3 2-1 4-5 6-8 4-4-3-4-11 0-12 2 0 3 0 3-2 0-3 1-4 4-4 2 1 2 1 2-2 0-2 1-3 2-4 3-2 2-2 6-1zm-93 21c1 7 1 13 2 14 0 2 0 9 1 15 0 12-1 13-4 4-1-4-2-37-1-42 1-1 1-2 1-2 0-2 1 2 1 11zm-158-1v8c-1 0-1 1-1 2 0 3-2 24-2 25-1 0-2-19-1-22 0-1 0-5 1-10 0-4 1-8 1-8 1 0 1-1 1-2s0-1 1-1v8zm250 7c3 2 3 7-1 10-1 1-3 2-3 4-1 1-2 2-4 3-2 0-3 1-3 2-2 5-9 3-10-2-1-4 0-6 3-6 1 0 2-1 2-3 1-2 1-3 3-3s3-1 4-2c1-5 5-6 9-3zM44 75c2 3 2 6 2 9v16c0 7 0 10-2 11-1 2-3 2-3 1 0-6-1-11-3-13s-4-3-5-2c-1 2-1 1 0-5 1-4 1-6 0-7-1 0-1-2 0-5 1-2 2-4 2-3 1 0 1 0 1-1s1-4 2-6l2-5 1 3c1 2 2 5 3 7zm61 5c2 3 1 23-1 27s-2 22 1 29c2 5 2 7 2 24 0 8 0 11-1 12s-2 2-2 3c0 0-1 1-2 1s-2 0-2 1 1 1 2 1c2 0 2 0 1 3-2 3-3 2-9-2l-4-5v-7c1-4 2-12 2-17 0-6 2-12 3-15 2-6 3-14 4-35 0-16 1-22 3-22 1 0 2 1 3 2zm65 1c4 2 4 3 2 6-1 1-2 2-4 1-2 0-2 0-1 2 0 3 0 3-5 0-3-2-4-2-3-3 0-1 1-2 1-3 0-4 6-6 10-3zm130 7c1 2 1 3 2 2 1 0 1 1 1 1 0 1 0 2 1 2 0 0 1 1 1 3 1 1 1 2 2 1 1 0 1 0 1 1s1 3 3 4c3 2 3 3 3 7 0 3 0 4 1 3 1-2 2 0 1 3 0 5-8 9-10 6-1-1 0-1 1-1 2 0 3-1 4-3 2-2 2-2-1-2s-5-2-3-2c1 0 1-1 0-2 0-1-1-2-2-1-1 0-1 0-1-1 0 0 0-1-1-2s-2-2-2-1 0 1-1 0c-1 0-1-1-1-2s0-2 1-2 1-1 1-3c0-3-3-15-4-15s-1-1 0-2c2-1 2-1 3 6zm-140 3c5 3 7 5 5 7-1 1-1 1 1 3l3 2h-4c-2-1-3-1-5 1-1 1-2 2-4 0-1-1-2-1-3 0-1 0 0 1 2 2 2 2 3 2 4 1s1-1 3 1c3 2 3 2 0 2-2 1-3 1-2 0 1 0 0-1-3-1-3-1-5-2-6-2 0-1-1-1-1 0-1 0 0 1 1 3 2 2 2 2 0 3-1 1-1 1 2 1 2 0 3 0 3 1s-1 1-1 1c-1 0-2 0-2 1s-1 1-2 1c-2 0-5 3-4 4 1 2-2 1-5-1l-4-2c-1 0-1 0 0 1 0 0 1 1 1 2 0 0 0 1-1 0-1 0-1 0 1 4 1 3 1 3 0 4s-1 1 1 2c1 1 1 1-1 2-2 0-3 1-2 1 0 1-1 1-2 2s-1 1 0 2c2 1 1 3-3 4l-2 1 2 2 3 2h-3c-1-1-3 0-4 1 0 0-2 1-3 1-2 0-2 0 0 2 3 2 2 3-2 2-3-1-3-3-1-9 1-2 1-4 0-5-1-2-1-3 1-4 1 0 2-1 2-1 0-1 1 0 3 1 4 4 5 3 2 0-3-4-3-8-2-9s2-1 2-2c0-2 1-5 3-5 0 0 1-1 1-2s0-1 1-1c0 1 1 0 2-2 2-2 2-4 1-4-1-2-1-3 0-3 1 1 1 0 1-2 0-1 7-1 8 0 1 2 2 1 1-1-2-2-1-4 2-4 1 0 1 0 0-2-2-4-2-4 0-4 1 1 1 1 1-1-1-1 0-2 0-2 3 0 6 0 6-1-1-1 1-1 3 0zm77 21c2 2 4 5 4 5 0 1 1 2 2 4l2 2-4 3c-7 3-11 10-9 13 1 1 1 1 1-1s2-4 3-4 1 0 0 1 0 2 1 4c2 2 4 3 15 6 2 0 1 6-2 14 0 1 0 3-1 5 0 4-2 7-6 8-1 1-2 2-2 3 0 3-7 7-13 7-10-1-13-6-3-7 7 0 9-1 9-2-1-1 6-8 9-9 2 0 3-1 2-1h-4c-7 2-13 3-20 2-8-1-10-1-6 1 1 0 3 2 5 4l2 3h-2c-4 1-10-3-11-8-1-1-1-2 0-2s1-1-1-3l-2-2v6c0 4 0 6-1 4-1-1-1-1-2 3l-2 5 1-8c0-5 0-10-1-12 0-2-1-3 0-3 0 0 0-3-1-6 0-4-1-9-1-11v-5l2 5c2 8 3 9 4 8 0 0 2-1 3-2 6-1 8-1 9-3 2-2 5-4 5-2-1 1 0 2 1 3s1 0 1-3c0-4-5-11-8-11 0 0-1-1-2-1-2-2-2-2 1-7 3-6 7-11 10-12s8 2 12 6zM51 134c4 2 5 12 2 18-1 3-1 4 1 4s5 25 4 29c-1 2-2 3-3 4-1 0-2 1-2 1 0 1-1 1-3 1-1 0-2 0-3 1 0 1 1 1 4 1 11 0 7 9-4 11-2 0-4 1-4 1 0 1-2 2-4 3-5 2-5 2-7 0s-2-3-2-35c0-19 1-34 1-35 1-1 3-2 5-3 2 0 4-1 4-1 0-2 8-2 11 0zm15 1c1 1 2 2 2 3 0 0 1 1 3 2s3 3 1 8c-2 6-8 5-10-1-1-2-2-5-3-5-1-2-1-4 1-7 1-2 4-3 6 0zm345 18c2 2 3 8 0 11-1 2-2 2-7 1-7 0-7 0-1 2 3 1 5 2 5 4 0 1 0 2 1 2 2 0 3 7 2 9s-1 2-2 1c0-1 0-1-1 0s-2 1-3-1c-2-2-3-3-5-2-1 0-4-1-6-2-3-1-5-2-6-2-2 0-3-4-3-7 1-1 1-2 2-2s1-4 0-5c-2-1-1-6 1-8 2-3 3-3 12-3 7 0 10 0 11 2zm-308 32c1 2 1 2 0 4s-1 3 1 6c5 9-1 18-7 11-3-3-3-3-3-9 1-6 3-13 5-13 1 0 2 1 4 1zm308 21c2 3 1 15-1 17-2 3-2 3-16 3-16-1-16-1-15-11 2-9 2-9 16-10 13-1 15 0 16 1zM43 217c0 1-1 3-2 5-3 4-3 7-1 7 0 0 3-1 5-3l5-3 2 2c2 1 2 3 2 9 0 7 0 7-3 8s-7 1-9-2c-1 0-2-1-2 0-2 2-4 1-4-1 0-1-1-2-1-3-2-1-3-5-1-5 1 0 1-2 0-4-2-7-1-10 3-11 2 0 3-1 3-1 0-2 3 0 3 2zm47 30l-14 14c-8 7-32 32-35 36l-2 3h4c4 0 5 0 6-2 1-1 2-2 3-2 1-1 2-2 2-3s1-2 3-3c1-1 2-2 2-3-1 0 0-2 2-3 2 0 3-2 3-2 0-1 1-3 3-4s3-2 3-2c0-1 1-2 3-3 2 0 3-1 3-2-1 0 0-1 1-2 0-1 1-2 1-3s1-2 2-3c2 0 11-10 11-11 0 0 1-1 2-1 3-1 8-9 7-11 0-1-5 3-10 7zm253-1s4 5 8 9c5 5 9 10 11 12l7 7c11 11 15 15 15 16s1 2 6 8c2 1 3 2 7 2h5l-13-13c-8-7-19-18-26-25-14-15-20-19-20-16zm-59 14c0 2 3 8 4 9s2 3 3 5c0 3 0 3 1 1l1-3v3c3 11 3 11 4 8 0-2 2-3 2-1 0 1 1 1 1-1 1-1 1 1 1 7l-1 9 2-4c3-6 4-13 2-15-2-1-2-1-2 1 0 1 0 1-1 0 0-1-1-2 0-2 0-1-1-3-3-5-3-3-4-4-4-2 0 1 0 1-1 0s-2-2-2-1c-1 0-1-1-2-2 0-2-5-8-5-7z" fill="#ccc"/></svg>