<svg version="1" xmlns="http://www.w3.org/2000/svg" width="600" height="400" viewBox="0 0 450.000000 300.000000"><path d="M124 43c0 1 6 6 6 5 0 0 1 1 1 3 0 1 1 3 1 4l1 1v4c2 9 9 21 11 18 1-1 1-1 1 0-1 1 0 3 4 6 8 6 13 11 13 13 0 3 8 13 13 17 8 8 11 8 19 5 6-3 16-3 20 0l3 3-4 3c-2 2-3 4-3 5 0 0-1 2-2 3-2 1-3 3-3 4 0 2-3 4-5 5h-2c-1 0-1 1 0 1 1 2 1 2 0 2-2 0-4 3-3 5 1 0-3 5-8 9l-9 9c1 1 1 1 0 1-2-1-12 6-12 8 0 1 0 1 1 0 2-1 6-2 7-1 0 0-2 1-5 2s-5 2-4 2c0 1 0 1-1 1-1-1-4 0-3 1 0 1-1 1-1 0-1 0-3 1-4 2l-3 3c0-1-6 3-13 8s-15 10-18 12c-9 6-10 8-7 14s5 7 16 5c14-2 15-2 4 1-12 3-12 3-3 3 2 0 5 0 6 1s1 1-1 1c-2-1-3 0 0 1 1 1 6 1 12 2 10 0 11 0 10-2 0-1 0-1 2 0 1 1 2 1 2 0l-1-1c-1-1-1-1 0-1 2 0 4 2 3 3 0 1 2 1 5 1 5 0 8-1 6-2-1-1-1-4 0-4s1 0 1 1c-1 0 0 2 1 3 0 1 1 1 1 0s1-1 1 0c1 0 1 0 1-1-1-1-1-2 0-2l1 1c1 1 1 1 1 0s0-1 1 0c2 1 4 1 10-1 10-2 14-4 28-14 15-10 16-10 16-7 0 0-2 1-3 2-3 0-5 2-2 2 2 0 33-12 32-13 0-1 1-1 12-4 9-1 25-6 29-8 4-3 2-2-8 1-5 2-10 3-11 3 0-1-1-1-1 0-1 1-12 3-14 2-2 0-2 0-1-2 1-1 1-1 2 0s1 1 2 0l2-2c1 0 1 0 0 1 0 2 1 1 3-1 1-1 2-1 2 0s1 0 2-1 1-1 2 0c0 1 1 1 2-1 1-1 2-2 3-2 0 1 1 0 2 0 0-1 1-1 1 0 1 1 1 1 2 0 1-2 1-2 2-1s2 1 2-1c1 0 2-1 2-1 4 1 17-7 15-9h2c2 1 3 1 2 0 0-1 0-2 1-2s1-1 1-1c0-1 0-1 1-1 0 0 1 0 1-1s-1-1-2-1c-2 0 4-3 8-4 1-1 2-1 2 1 1 2 1 2 2-1 3-4 0-5-9-1-2 0-4 1-5 1 0-1 2-2 5-3 7-3 8-3 10-6s2-3 1-6c-4-5-7-8-12-9-4-1-4-1-3-3 1-3-2-7-13-15s-18-15-18-20c0-2-1-3-2-2 0 1-1 2 0 3 0 2 0 2-1 1-2-2-4-1-15 3-7 3-11 4-16 5-10 0-13-1-18-11-4-8-7-13-9-11-1 0-6 12-11 26l-1 2-3-2c-5-4-15-3-26 1-2 1-3 1-6 0-3-2-15-14-15-15 0-3-5-10-6-9s-1 1-1 0c1-2-4-8-6-8-1 1-1 0-1 0 1 0-1-2-4-5-9-7-13-14-13-17 0-5-5-17-8-17 0 0-1-1-3-2-1-1-2-2-2-1zm167 108c1 1 1 1 0 2-2 0-4 2-6 4-7 7-9 8-10 6-1-1-1-1 0-1s1 0 1-1-1-1-2-1c0 0-1 0-1 1 1 1 0 1-1 0-1 0-1 0 1 2 2 3 2 3 1 3-1-1-2-1-1 0 0 1-1 1-2 0-1 0-1 0-1 1 1 1 1 1-1 0-1 0-1 0 0 1 1 2 4 3 2 1 0-1 0-1 1-1 1 1 2 0 2 0 0-1 0-1 1-1 1 1 1 1 1 0s5-1 6 1c1 1 1 1 0 1-2-1-2-1-1 0 0 1 0 1-1 1-2-1-2-1-1 0 0 1 0 1-1 1-1-1-2-1-2 0s-1 1-2 0c-1 0-1 0-1 1 1 2-1 1-2-1-1 0-2-1-2-1-1 0-1 1 0 2 3 3 3 5 0 6s-3 1-2-1c0 0 0-1-1-1s-1 0-1 1-1 1-2 0c-2-1-2-1-2 0 1 1 0 1-3-1-1-1-2-1-2 0 0 0 1 1 2 1 0 0 1 0 1 1s-1 1-2 0-2-1-2 0-6 7-7 7 0-2 1-4c2-2 3-4 2-4-1-1-1-1 0-1s1-1-1-3l-3-2-3 4c-10 11-14 14-14 13 0 0 1-2 2-3 4-4 9-11 8-11-4 0-13 5-18 9-4 5-5 5-5 3-1-1 0-2 0-2l1-1c0-1-3 0-7 2-6 2-10 3-6 1l3-3c1-2 2-2 2-1s5-1 13-6c24-12 36-18 49-22 7-2 13-5 14-5 1-1 2 0 3 0 0 1 1 2 2 2zm5 4c1 0 0 1 0 2-1 1-1 2 0 2 1 1 1 1 1 0 0 0 2-1 4-1s4 1 4 1-2 2-4 2c-2 1-4 3-4 3 0 1 1 1 2 0 4-2 3 0 0 2-2 1-4 2-6 1-1 0-2 0-2 1 0 4-3 4-6 1-3-4-4-4-2-5 1 0 2-1 3-2s3-3 5-4 3-3 2-3c0-1 2-1 3 0zm-92 2c-1 0 0 2 1 3 2 2 3 5 1 3-1 0-1 1-2 1 0 2-2 3-2 1 0-3 0-5-1-5s-1 0-1 1c1 0 0 1 0 1-1 0-1 2-2 3 0 3-4 6-5 5-1 0-1 0-1 1 1 2 1 2 0 1-1 0-1 0-1 1 1 0 0 1 0 1-1 1-2 2-1 2 0 1-1 2-1 3-2 2-2 2-2-2 0-5-2-8-5-8s-3-2-1-2l2-2c0-1 1-1 2-1 0 1 1 0 1 0 0-2 3-4 4-3 1 0 2-1 3-2 1-2 5-2 5-1s0 1 1 0 6-3 5-1zm23 5c-5 3-6 4-3 3 2 0 1 1-4 6-8 8-9 8-2 1 2-4 4-6 4-6-1 0-10 7-15 12-6 5-6 4-1-2 8-9 15-15 18-16 6-1 7 0 3 2zm48 24c-7 3-7 4-6 7 1 2 1 2-1 2-1-1-7 1-13 2-9 3-12 3-15 3-1-1-5-1-9 0-8 0-7-1 3-2 11-3 20-5 33-10 12-5 16-6 8-2zm-78 8c-4 3-7 6-7 7 1 1 5 1 4 0 0-1 1-1 2-1 1 1 2 1 2 0s0-2 1-2c1 1 1 1 1 0 0 0 1-1 3-2l3-2v4c0 3-1 3-5 5s-6 2-6 1c-1-1-1-1-2 0-1 2-2 2-3 1s-1-1-1 0c1 1-1 1-1 0-1-1-1-1 0-1s1 0 0-1c0-1-1-1-2 0s-1 1 0 2 1 1 0 1-4 1-6 3c-4 2-6 3-11 3-4 1-7 1-8 1 0 1-2 0-3 0-2-1-2-1-1-2s2-2 2-1c1 0 2-1 4-3 12-11 11-10 25-15 5-2 10-4 11-4 4-2 4 0-2 6z" fill="#ccc"/></svg>