<svg version="1" xmlns="http://www.w3.org/2000/svg" width="600" height="400" viewBox="0 0 450.000000 300.000000"><path d="M0 13v14h4c2 1 4 2 5 2 1 1 1 1 1 0s1-1 1 0c1 0 4 0 6 1 6 0 6 1 4-17L20 0H0v13zM229 2v5c0 2 0 3-1 3s-1 1-1 2c0 2 1 3 1 3 2 0 4 3 4 7 0 3-1 3-7 4-2 1-2 1 1 1 5 0 8 2 4 2-2 0-5 3-5 5 0 3 6 1 7-2s1-3 1-2c2 5 2 5 13 6 7 0 12 1 13 2s1 1 2 0c1-2 27-1 28 1 1 1 1 1 2 0s38 0 40 1c0 1 1 2 1 3s0 1 1-1c2-4 27-2 28 2 1 2 1 4 1 5l1 2 20 1h22c1 0 2-2 2-7 0-3 0-10 1-15 1-10 0-28-1-29s-1-1-1 0-1 2-1 2c-1 0-2-1-2-2 0 0-1-1-2-1-2 0-2 1-2 5v6h-7c-8 0-8 0-9-5-1-3-1-3 2-2 2 0 3 0 3-1 0 0-1-1-2-1s-2 0-2-1c-1-1-6-1-12-1h-12l-1 3c0 1-1 2-1 1 0 0-1-1-3-1-1 0-3-1-3-1-1-1-7-2-30-1h-32c-24-1-31-1-31 0s0 1-1 0c-2-2-29-1-29 1zM18 35c-1 2-3 4-4 5-2 1-10 1-12 0s-2-1-2 41c1 52 1 47 0 89 0 30 0 35 1 35s2 2 2 7c1 3 2 7 2 8 1 1 1 2 0 2-1 1-1 10 0 10 0 0 1-1 2-3 0-3 3-5 6-4 1 0 1 0 0-1-2-1-3-2-4-2l-2-2c-1-2-3-18-2-18 3 0 29 10 36 13 4 2 9 4 10 5 2 1 3 2 3 4 0 3-3 5-10 6-5 0-17 7-19 10-4 6-3 8 3 8h8c2 1 3 1 5-3 1-3 2-5 4-5 1 0 2-1 3-2 0-3 4-4 6-3 1 0 3-1 4-1 5-4 9 1 6 7-1 2-2 3-1 3s1 0 1-1c0-2 6-5 8-4 3 2 2 4-1 8-3 3-3 4-3 8s0 6-2 6c-11 7-19 21-19 34v5h45c49 0 46 0 42-6-1-3-1-3 0-6 3-3 10-7 17-9 9-3 12-5 13-11 1-3 1-4 3-3 1 1 2 3 3 5 0 2 1 3 4 4 5 1 10 1 11 0s2-1 5 0c5 2 6 1 6-3 1-4 3-6 4-4 1 0-1 4-7 16-3 4-3 7-3 11v6h40c30 0 41 0 41-1s0-1 1 0 4 1 8 1l5-1 2-4c1-4 1-4 1-2 1 2 0 4 0 5-1 2 0 2 5 2 9 0 11-2 12-11 1-3 2-3 11-7 10-4 13-7 19-18 3-5 6-11 6-13s0-3-5-3c-4 0-6 0-8 2l-8 4-12 6c-12 8-17 8-24 3-1-2-3-3-3-3-1 1-1 0-1-3 0-2 0-4 1-3 1 0 1-1 1-1 0-1 0-2-1-2 0 0-1-1-1-3l-1-2-2 2c0 1-1 2-1 1l-1 1c-1 2-4 0-4-3s-1-4-2-5c-3 0-2-1 1-2 3 0 3 0 3 4l1 4 1-3c1-1 2-2 3-2 0 0 1 0 1-1h6c5 0 6 0 6-1 0-3-3-4-8-4-4 0-5 0-5-3 0-2 0-3 2-4 2-2 7-8 7-9s-1-1-3-1c-5 1-15 2-18 1-2-1-2-2-2-8 0-9 6-17 13-17h4l2 7c2 8 4 11 9 13 8 3 14 0 13-9 0-4 0-4 4-8 5-4 5-7 1-10-6-6-12-7-19-2-6 3-18 2-19-2-2-4-1-8 2-15 1-3 3-8 3-9 3-9 18-14 40-13 13 1 14 2 12 11-1 4-3 8-4 9-2 5-1 9 3 15 2 3 4 7 4 10 1 5 8 14 11 14 1 0 3-2 5-4 4-7 13-10 12-4-1 1-1 5-2 9 0 7 0 7 7 5 2-1 2-1 2-4-2-8-3-8 2-8 5-1 5-1 5 9 0 6 0 9-2 12-2 5-2 5-1 15 2 11 2 11 5 11 2 0 2 1 2 9 0 20 3 20 3 0 1-9 1-17 2-18 1-7 2-2 2 18v22l2 2c2 2 3 4 3 4 0 2-9 10-14 13-2 2-2 2 18 2 17 0 20 0 19-1-2-2 0-5 2-5s2 0 1 2c-2 1-2 1 0 1s4 0 6 1c3 0 3 0 2-1s-2-3-1-3l2 2c1 1 2 2 2 1 1-1-1-3-3-5-3-3-3-3-1-3 2 1 3 0 5-2l3-3v4c1 3 1 5-1 7-1 2-2 4-2 5h22V55h-12c-1-1-21-1-44-1-24-1-53-1-66-2-22 0-92-1-245-3H24v-7c-1-10-4-13-6-7zm217 31c6 3 7 4 5 10-1 5 0 6 1 7 5 2 3 12-3 13-3 0-4 1-5 6 0 5-1 7-3 7-2 1-2 2-2 4 1 2 1 7 2 12v8l-4 1c-9 3-12 3-13 2-2-3-1-3 5-8 2-1 2-2 1-10s-1-8-4-8c-4-1-4-2-6 7-2 13-2 13-12 13-6 0-8 0-8-1 0-2 2-4 6-5 5 0 5-1 8-12 1-6 1-6-1-8-2-1-2-2-2-9 2-18 6-31 11-32 6-2 19 0 24 3zM94 76c2 3 0 7-3 7h-3l-1 13c0 8-1 14-1 15 0 2-1 2-4 2h-4V98l1-15h-4c-3 0-3 0-3-4v-3h11c6 0 10 0 10-1-1-1-1-1 0-1 0 0 1 1 1 2zm-29 2c1 1 2 4 2 5 0 3 0 3-4 3-2 0-3 0-4-2 0-3-4-3-4 0 0 1 2 4 5 6 8 8 9 14 4 20-6 6-16 3-18-5-1-4-1-4 4-4 2 0 3 1 4 2 1 3 3 4 4 1 1-1-1-3-3-6-7-7-8-9-8-13 0-9 12-14 18-7zm50-2s1 9 3 19c2 9 3 18 3 18 0 1-2 1-4 1-4 0-4 0-5-5-1-3-2-3-4-3-4 0-4 0-5 3 0 4 0 4-4 4-3 0-4 0-4-1 0-2 8-34 9-35 0-1 11-1 11-1zm24 9l3 8v-6-8c0-1 2-2 4-2h4v15c0 21 0 22-5 22-3 0-4-1-7-10l-4-10v19l-4 1h-4v-12c0-6 1-15 1-18v-7h9l3 8zm35-7c4 3 5 6 4 19 0 16-2 17-14 17h-8V77h8c4 0 8 1 10 1zm107 3c2 2 3 4 3 6 0 4 0 5-3 5-4 0-4 0-4-3s-2-5-5-3c-2 2-2 20 1 22 1 2 4 0 4-3 0-2 1-2 4-2 4 1 4 1 2 8-1 5-13 7-18 2-2-3-2-4-2-16 0-7 0-13 1-14 3-5 12-7 17-2zm23-2c7 1 8 4 8 19v13l-3 2c-5 4-12 4-16 0-3-3-3-3-3-15s0-13 3-16c1-2 3-3 4-3 2-1 3-1 3-1s2 0 4 1zm33 4c0 3-1 3-5 3-5 0-5 1-5 5 0 3 0 3 4 3s4 0 4 3c0 4 0 4-4 4h-4v15h-9V79h19v4zm24 1v3h-10v3c0 4 0 4 4 4 3 0 4 1 4 4v4h-8v7c0 7-1 8-3 8-1 0-3 0-4-1s-3-32-2-35c1-1 3-1 10-1h9v4zm24-1v4h-10v3c0 4 0 4 4 4h4v8h-8v8h11v7h-19V80h18v3zm20-2c5 0 5 0 5 3s-1 4-5 4h-5v3c0 3 0 4 4 4s4 0 4 4c0 3 0 3-4 3h-4v8h10v7h-19V80h5c3 0 7 0 9 1zm-2 162c0 13 0 19 1 19s1 1 0 2c-2 2-5 10-5 13 0 1-1 3-1 4-1 2-1 2-3-1-1-1-3-2-3-2-1 0-2-5-2-22-1-28-1-27 5-30 3-1 6-2 7-2 0 1 1 8 1 19zm-203-3c0 9 0 14 1 13 1 0 1-6 1-14v-14h4c4 0 5 0 3 3-1 1 0 2 0 3 1 0 1 4 1 7l-1 6h3c3 0 3-1 3-2 0-2 1-2 3-2s3 0 3-1c-1-1-2-1-3-1-2 0-4-3-3-4 0 0 3 0 5 1 5 0 5 0 5 4 0 2 0 3-2 3-1 0-2 0-2 1-1 1 0 1 0 1 5 0 11 9 11 17v4h-5c-6 0-9 1-9 4 0 1-9 10-11 10-3 0 1-10 4-12 2-1 0-3-2-3s-2 0-1 1 1 2-1 4c-2 1-2 1-4-1s-3-3-4-3c-1-1-2-2-1-3 0-1 0-2-1-2-2 0-2-1-2-14l1-14-4-3c-4-3-4-4 3-4h5v15zm-82 13v15l-2-1c-9-4-9-4-9-7s-1-4-2-2l-1 1c-1-1 1-5 3-5v-18l5 1h6v16zm39-10c0 10 0 12-6 12l-4-1-1-5c0-10 0-11 6-11h5v5zm263 13c1 0 2 1 2 1 2-1 9 5 9 7 0 1 0 1-1 0s-2-1-2 0c-1 1-1 1-2 0s-2-1-2 0-1 1-3 1c-2-1-4-1-4-1-1 0-1-1 0-1 0-1 0-1-2-1-4 2-5 2-5 1 1-2 0-2-2-1-4 0-4-1 1-4 1-1 3-2 3-3s8-1 8 1zM208 71c-2 5 0 8 5 7 4 0 4 2 0 3-2 0-3 0-5-2l-2-3-1 7c-1 4-1 10-2 13-1 8 1 10 14 12 11 2 13 1 15-7 0-4 1-7 2-9 0-1 1-4 2-6 0-2 2-7 2-9l2-5h-7c-7 0-20-2-21-3-2-2-3-1-4 2zm-43 22c0 5 0 11-1 12 0 2 0 2 2 2 3 0 4-2 4-12 0-9-1-11-4-11-1 0-1 2-1 9zm134-6c-2 1-1 20 0 21 4 3 5 1 5-11 0-10-1-11-3-11-1 0-2 0-2 1zM34 259c-1 0-1 3 0 6 1 2-3 3-9 3-3-1-4 0-6 2-1 1-3 2-4 2-5 0-4 9 2 13 4 3 5 3 6-2 1-3 1-3 3-2 1 2 1 4-2 7-1 2 0 12 1 12 0 0 2-2 3-5s4-9 6-14c4-7 4-8 3-15 0-5-1-8-1-8s-1 0-2 1z" fill="#ccc"/></svg>