<svg version="1" xmlns="http://www.w3.org/2000/svg" width="600" height="400" viewBox="0 0 450.000000 300.000000"><path d="M0 17v18l4-2c1-2 3-3 3-4s0-1 1 0 1 1 3 0 2-2 0-3c-1-2-1-2 0-2 1-1 2 0 2 1 1 0 1 1 2 1s1 0 1-1c-1 0 0-1 0-2 1-2 1-2 2-1s2 2 2 1 1-1 3-1 2 0 1-1h-4c-1 0-1 0-1-2 1-1 1-3 0-3-1-1-1-1 0-2 2 0 1-2-1-2-2-1-2-1-1-2s1-1 0-2 3-4 5-4c1 0 1 0 1-1s1-1 1 0c1 0 2 0 2-1 1-1 1-1 1 0-1 1 0 2 6 2 4-1 7-1 8-1 1-1 1-1 2 0 0 1 1 2 2 2s1 0 0-1c-2-1-1-2 1-1 2 0 2 0 2-1-1-1-5-2-24-2H0v17zM425 1c-1 1 0 1 1 1s2 1 2 1c1 2 4 2 4 1 1-1 1 0 1 2-1 2-1 3 2 2 1 0 2 0 2 2 0 1 1 1 2 1 1-1 2 0 2 1s0 1 1-1c1-1 1-2 2-1 1 0 2 0 2-1s0-1 1 0c2 1 2 3 0 2-1 0-1 2 0 4 2 1 3 1 3-1 0 0 0-1-1-1-1 1-1 1-1 0s0-1 1-1 1-3 1-6V0h-12c-8 0-13 0-13 1zM211 55s-4 1-9 1h-8l-1 4c0 2-1 3-1 2s-2-1-7-1c-6 0-7 1-7 3 0 1-1 2-3 2-1 0-2 1-2 2s1 1 1 1c1-1 2 0 3 0 1 1 1 1 0 1-2 0-1 4 1 5h7c9 0 12 3 7 8-1 1-2 3-2 4 0 2 0 3-1 3h-3c-1 1-2 1-2 0-1-1 0-2 1-2 2-1 2-1 0-1-3 0-3 0-3 3s0 3 4 3c2 0 4 0 5 1 0 1 1 1 2 1s2 1 1 1c0 1 1 2 2 2 4 1 11 1 11 0-1 0-3-1-5 0-2 0-3 0-3-1s2-1 5-1c3 1 5 0 4 0 0-1 0-1 1-1 1 1 1 0 1-1s1-2 1-3c1 0 1-2 1-7-1-3 0-6 0-7h12c7 0 12-1 13-1 1-1 1-1 2 0 2 1 14 1 14 0s0-1 1 0c2 2 22 1 26-1 8-4 8-18 0-20-5-1-24-1-25 0s-1 1-2 0c0-1-14-2-14 0 0 1-1 1-1 1-1 0-2 0-2-1s-6-1-8 0h-1c-3-1-8 0-9 0 0 1-1 1-1 0-2-1-5-1-6 0zM91 70c1 2 2 3 2 4s0 1-1 0-2-2-4-2-4-1-5-2c-1 0-2-1-2-1-2 0-7 9-8 13 0 3-1 3-3 3-3-1-5 1-5 5 1 3 0 4-1 4s-2 0-2 1c-1 1 2 1 8 1 10 0 12 0 12 3 0 2-2 4-4 3 0-1-1-1-2 0-3 1-16 1-18-1-2-1-2-1-2 1 0 4 0 10 1 10 1 1 1 2 0 3s-1 3-1 4c1 3 1 3-4 2-2 0-6 0-7 1-1 0-2 1-1 1 2 0 2 14 0 14 0 0-1 1-1 2 0 2-1 2-5 2-7 0-7 0-6-4 1-3-2-6-4-4-1 0-1 5 0 7 1 1 0 1-3 0-4 0-4 0-5 2 0 1-1 2-3 3-3 0-3 0-3 8s0 8 3 9c8 1 11 2 10 4 0 0 0 1 1 1 2 2 1 7-1 9-4 2-5 6-5 11 0 3 0 4-2 3-5-1-10 4-7 7 1 1 2 4 2 7 1 6 1 7 4 6 4 0 4-2 2-4s-2-2 0-5l2-4v5c1 3 1 7 2 8l1 3h58l1 2c0 2 1 4 0 5 0 2 0 3 1 4 1 0 3 1 3 3 1 3 4 4 6 2 2-1 2-1 3 1 1 3 2 4 4 2 1-2 1 19-1 22-1 1-1 3 0 5 2 3 2 6 0 19 0 9-1 17-1 19v3h285l-1-2c-4-7-9-14-15-20-3-3-6-7-5-7 0-1 2-3 5-5l5-3 27 1c28 0 28 0 31-2 2-1 3-3 3-4 0-2 0-3 4-3 6 0 11-2 11-5 0-1 0-2-1-2 0 0-1-1-1-2-1-2-2-3-3-3-3-2-6-5-4-7v-3c-1-1-1-3-1-5s-1-7-2-10-2-7-2-10c0-2-1-4-1-4-1 0 0-1 1-3 2-1 4-4 5-5 2-3 6-4 8-2 1 1 1 0 1-4 0-6-2-9-5-8 0 0-2-1-3-2-1 0-2-1-1-1 0 0 1-1 1-2s0-2-1-1c-1 0-1 0-1-1 1-1 1-4 2-8 0-5 1-6 4-9 4-4 4-5 4-9v-5l-2 2c-2 2-3 2-5 2-1-1-3 0-5 1-1 2-3 3-3 3-1 0-4 10-3 11s1 2 1 4c0 3 4 9 6 9 1 0 1 1 0 3-1 1-1 1 0 1s1 0 0 1c-4 3-6 4-11 3-4 0-7 0-8 1-3 2-3 1-3-40v-37h-3c-2 1-3 1-3 0s1-1 3-1c1 0 2 0 2-1 0-2-4-1-11 1-6 3-8 3-8 1 0-1-1-2-1-3-2-2-2-2-4-1s-3 2-3 2 0-1-1-2c0-3-1-4-2-2-1 0-1 1 0 3s0 4-2 4c-1 0-1 1-1 2 1 2-5 2-5 0-1-1-1-1-3 0-1 1-1 1-1-1 1-2 1-3 0-3s-2-1-2-2c0-2 0-2-1-1 0 3-5 3-5 0 0-1-1-2-2-2-3 0-3 0-3 7 0 6-3 15-5 13-1 0-1 1-2 1-1 3-2 2-1-1 0-3 0-4-3-4-2 0-2 0-2 4l1 3h-9c-7 0-9 0-10-2-2-1-4-1-13-1-17 0-20 0-18 1 1 1 1 1-1 1-1 0-2 0-2-1s-3-1-3 0c-1 1-1 1-1 0s-1-1-4-1c-2 0-4-1-5-1-1-1-3-2-6-2l-4-1h4c7 0 6-2 0-2-5 0-5 0-5-3 0-2-1-3-3-3s-3 0-3 1c0 4-1 12-2 12-1 2-11 4-12 3-1-2-10 7-10 9 0 1 0 2-1 2s-1 3 0 6c1 2 1 3 1 4-1 0-1 3-1 6v6l-2-2c-3-3-4-5-2-4 1 1 1 0 1 0 0-1-1-2-2-2-1-1-1-1-1 0 1 3-1 2-6-4-3-4-4-7-4-7 2 0 1-2 0-2s-2 0-2-1 2-1 4-1 3 0 3-2c0-1-5-2-8 0-5 2-9-7-5-10 1 0 1-2 1-4 0-4 0-4 2-4s3-1 3-1c0-1-1-2-2-1-1 0-2-1-3-1-1-1-2-2-3-1-1 0-2 0-2-1s-1-1-2 0c-2 0-2 0-2-1 1-1 1-1 0-1s-1 1-1 1c0 3-1 2-3 0v-4c2-1-1-5-4-5-1 0-2 1-2 2-1 2-2 2-25 2-25 0-30-1-31-3 0-1 2-1 10 0 11 0 12 0 11-4 0-1 0-1 1 0 1 0 1-1 1-4-2-6-2-6-12-9-5-2-19-6-30-10l-20-6-2 2c-3 3-5 3-8-1-1-1-3-2-4-2s-1 0 1 2zm19 22c7 2 13 5 12 5 0 0-7 1-15 1H92c0 1 3 1 8 1 10 0 30 2 32 3 2 2 1 3-2 3-2 1-2 1 1 1 6 0 6 3 1 3-4 0-5 0-5-3-1-2-4-3-20-2-1 0-1 1 0 2 0 1 0 2-1 2s-2-1-3-2-3-2-4-2c-2 0-8-3-8-4s-1-2-3-3l-2-2 3-3c1-2 4-3 5-3 1-1 3-1 3-1s6 2 13 4zm49 15c4 1 7 2 8 3 1 0 3 1 4 1s18 11 18 12c-1 0-3-1-6-3-23-15-38-15-57-1-5 3-7 4-5 1 5-5 23-14 29-13h9zm213 13c0 2 1 2 6 2 7 0 8 1 8 7v27h-12v-13c0-10 0-13-1-13 0 1-1-1-1-3-1-3-1-5-2-6 0-1 0-2 1-2s1 1 1 1zm-238 10h3v9c-1 5-1 7 0 6 0-1 1-3 1-3 2-1 9-1 9 0h-3c-3 0-6 2-6 5-1 2-1 2 4 2 4 0 6 0 6 1s-1 1-3 1c-5 0-6 0-7 3s-1 22 0 22c2 0 1 3-1 4-1 0-2 1-2 2s-1 2-2 3c-1 0-2 1-2 1-1 2-2 1-1-2 0-1 1-2 2-2s2-1 2-1c0-1-1-1-2-1-2 1-4-1-4-5 0-3 0-3-3-3-2 0-3 0-3-2s0-2 2-2c3 1 3 0 0-2-1-1-2-2-2-4 0-1-1-2-7-2h-5l-1-5v-5h4c2 0 4 0 4-1s0-1 1 0c1 0 3 1 5 1h3l-2-3c-1-3-1-3 1-4 1-1 1-2 1-2-1 0-1-1 1-1 1-1 1-2 1-2-1 0-2-5-1-11 0-1 0-1 2 1 1 1 2 2 5 2zm166 2h6c2 0 3 1 3 1 0 1 1 0 1-1 1-2 3-3 3-1 0 1 12 2 17 1 1-1 2 0 3 0 0 2 7 2 9 1 0-1 1-1 1 0s14 0 15-1 1 0 2 2l1 2v-2c0-2 0-3 2-3 3 1 4 3 3 7 0 4-1 5-3 2-2-1-2-1-2 1 0 3-2 4-4 2-1-1-1-1-1 0 0 0-1 1-2 1s-2 0-2-1 0-1-1-1-1 1-1 2 0 1-2 0-3-2-3-1-1 1-3 1c-2-1-3-1-4 1 0 2-3 0-4-4 0-2 0-2-1-1 0 2-1 2-1 1s0-1-2 0h-3c-1 0-5-1-8-1-4 1-7 0-8 0-1-1-1-1-1 0 0 2 0 2-2 1-1-1-5-1-8-1-5 0-6 0-6-2v-4c-1-1-1-3 0-3 0-1 1-1 6 1zm-87 7c1 0 1 0 1 1-1 3 9 11 11 10s2-1 4 1c2 3 2 4 0 3-1 0 0 1 1 2 11 9 14 11 14 12s-2 0-4-2c-3-2-5-4-5-4s-2-2-5-4c-2-1-8-6-12-10-5-4-9-7-9-6 0 2-2 1-2-1 1-1 0-2 0-3-1 0-1-1-1-1 0-1 1 0 3 1 1 1 3 1 4 1zM76 154c2 2 5 5 8 6 2 1 7 4 11 7 5 3 9 5 14 6 6 1 7 2 7 4 0 1-1 2-1 2-3 0-12-4-14-6-2-1-8-5-15-9-7-3-12-7-12-7 0-1-1-1-2 0-1 0-6-2-6-3 0-5 5-5 10 0zm161 24c0 1 1 2 2 2 2 0 3 1 3 2 0 2 0 2-1 1 0-1-2-1-2 0 0 2 1 2 3 2 1 0 1 1 2 2 3 5 6 7 8 6 1-1 2-2 2-1 1 0 4 1 7 1s3 0 2 1c0 1-1 3-1 4 0 3 0 3 1 1 0-2 3-5 4-4 2 1 1 5-1 6-2 2-2 4 1 4 0 0 1 0 1 1s1 1 2 1c2 0 3 0 4 1 0 1-1 1-2 1-2 0-2 0-1 1 2 3 0 2-3 0-4-4-6-8-7-12l-1-4v4c0 3 0 5 1 6 2 3-1 5-5 5h-4l3 1 4 2-3 1c-5 2-17 1-17-1-1-2-5-1-6 1 0 1-1 1-1 0 0 0-1-1-2-1-5-1-3-3 2-3 3 0 6 0 6-1s-3-1-6-1-6 0-6-1-1-1-2-1c-3 0-4 1-2 6 1 2 1 2 0 3-2 0-1 2 1 2 1 0 1 0 0 1-1 2-4 0-4-2 1-1 0-2-1-2-2 0-1-3 1-3 1 0 1 0 0-1-1 0-2-2-2-11 0-6 0-12-1-12-2-2-1-6 1-6 1 0 2 1 2 1-1 2 4 4 10 4h6v-3-4c0-1 0-1 1-1s1 1 1 1zm-101 17c-1 1-1 1 0 3 0 1 1 3 1 3 0 1 1 2 2 2s2 1 2 2c-1 3 3 4 7 1 2-1 3-2 3-1 1 1 0 8-1 7-1 0-2 0-3 1-2 1-24 5-29 5-2 0-4-1-5-2-2 0-4-1-6-1s-3 0-4-1c0-1 1-1 6-1 4 0 6 0 6 1s0 1 1 1v-1c0-1 1-3 2-5 0-3 1-6 1-7-1-1-1-2 0-2s1 0 2-1h3c1 0 2-1 3-2 0-1 1-2 3-2s4-1 5-2 2-1 2 0 0 2-1 2zm219-1c0 1 0 1-1 1s-1 0 0 1c0 1 1 1 2 1 2 0 3 1 3 1 1 1 2 2 2 1 1 0 2 1 2 2 1 1 1 1-1 1-3-2-5 1-1 2 4 2 4 3 0 3-2 0-4 0-4 1-2 2-18 0-18-3-1-1-2-3-4-3-3-2-5-4-5-6s1-2 12-2c6 0 12-1 12-1 1 0 1 0 1 1zm-27 5c2 2 2 3-1 4-2 1-6 1-10 1-7 0-7-1-7-3 0-4 1-4 9-4 7 0 8 0 9 2zm89 11c3 2 4 2 4 6s-2 6-7 5c-2-1-3-3 0-3 1 0 1-2 0-2-1-1-1-1 0-1s2-1 2-1c0-1-3-1-8-1-4 0-7 0-6-1 1 0 2-1 2-2s7-1 13 0zm-134 9s1 1 3 1c2 1 4 2 5 3 2 3 3 3 9 3 9 0 11-1 11-3s0-2 4 0c3 2 6 3 7 3 5 0 5 1 3 6-3 7-3 12 1 18 0 0 6 1 13 2 11 1 15 2 12 3-1 0-1 1 1 2 1 2 1 2-2 2-3-1-5 0-10 1-7 4-7 4-9 0 0-1-1-2-2-2-3 0-8 3-9 5 0 2-2 3-4 4-10 6-15 10-11 10 2 0 1 2-1 3s-3 2-4 3c0 2-2 4-3 5-2 2-3 3-3 4 0 2-7 6-9 6s-2-1-1-3c0-3-2-9-4-10 0-1-1-2-1-4s-1-3-1-3c-1 0-3-1-5-2-4-1-4-2-4-6 0-5 0-5 12-5l7-1v-5c0-6 0-6 2-6 5 2 17 2 17 1 1 0 2-1 4-1s2 0 2-4c0-3 0-4 2-4 1 0 1 0 0 1l-1 1c0 1 1 1 1 0 1 0 1 0 1 1-1 2 1 1 2-1 1-1 1-1 0-1s-1 0 0-1c2-1-1-3-3-2-1 0-2-1-2-2-1-2-12-3-13 0-2 1-2 1-3-1-3-3-7-5-11-3s-4 4 1 4c4 0 7 2 7 4 0 3-5 4-9 1-2 0-5-1-6-1-4 0-6-1-6-4-1-1-1 0-1 2 0 4 0 4-5 4-10 1-11 1-12-2-1-1-2-2-2-1 0 0-2 1-4 1h-5c0 1-2 0-3-2-1-1-2-2-2-1 1 1 0 2 0 2-1 0-1 0 0 1s1 4-1 5-9-1-9-3c-1 0-2-1-2-1-2 0-3-3-3-7 0-2 0-2-8-2-22 0-20 0-19-3 1-2 4-3 4-1 0 1 0 1 1 1s1 0 1-1c-1-1 0-1 2-1s3 1 3 1c0 1 0 1 1 0 0 0 2-1 3-1 2 0 3 0 2 1 0 1 1 1 4 1 2-1 4 0 4 0 0 1 10 1 11 0 0-1-1-1-1-1-5 0 0-4 5-4l4-1h-5c-3 0-4 0-4-2 1 0 1-2 1-4s0-2 2-1c2 0 3 0 3-1 1-1 5-1 11-1h10v3c1 2 2 3 2 4 3 1 0 2-7 2l-7 1h8c7 0 8 0 8 2s0 2 5 2c2-1 6-1 8-1 1 0 3 0 3-1s-1-1-1-1c-1 0-2 0-2-1s-1-1-2 0c-4 1-7-1-9-4-3-5-3-6 4-6 6 0 7 0 6 6 0 3 3 4 6 3 2-1 3-4 1-3-1 1-2 1-2 0s0-1 1-1 1-1 0-2c0-1 0-1 1-1 0 1 1 1 1 0s0-1-1-1-1 0-1-1 0-1 1-1 1 0 1 1zm73 2l2 3h-6c-9 1-8 4 2 5 7 1 7 1-5 0-13 0-14-1-12-2s0-4-3-4c-2 0-2 0-2-2 1 0 1-2 1-2 0-1 5-1 11-1h11l1 3zm-115 50c0 1 0 3-1 4-1 2-2 3-1 4 2 1 0 3-3 3-2 0-2 1-2 3s-1 4-2 5c-3 3-3 3-2 0 0-1 0-2-1-2 0 0-1-1-1-2s-1-1-2-1c-1 1-2 1-2 0s-1-2-1-3c-1 0-2-2-2-4 0-3 1-4 4-2 1 1 2 2 3 2h3c2 0 3 0 3-2 1-3 4-8 5-8s1 1 2 3zM220 91c-1 1-2 2-2 3 0 2-2 1-3-1-1-1-2-1-3-1-2 2-1 4 1 4 1 0 1 0-1 1s-5 5-3 4c1-1 4-1 7-2 4 0 5 0 4-3 0-3 2-5 5-5h3l-3 1-2 1 2 2c1 0 3 1 3 0 1 0 1 0 1 2-1 1-2 3-2 5s-1 3-4 3c-4 0-5 0-5 3 0 2 0 3 1 3s1-1 1-2 0-1 1-1c1 2 8 2 8 0 0-1 1-1 2-1 0 1 2 1 2 1 1 0 1 2 1 4 0 5 0 5 3 5 2 0 2 0 2-4 0-3 0-6 1-6 0-2-1-2-5-2h-5v-6c1-9-5-13-10-8zM0 274v26h17c16 0 17 0 16-2-5-3-6-4-5-6 0-2 0-2-2-2s-4-1-5-2c-3-3-2-6 4-6 4 0 4 1 4 4s0 3 3 3c2 0 3 0 3-1 1-1 11-4 16-4s5-1 2-4c-3-4-4-4-7-1-2 2-2 2-4 0-3-4-6-7-15-14-6-4-10-7-10-8-1-1-7-5-8-5s-2 0-2-1-1-1-1-1c-1 1-2 1-2 0 0 0-1-1-2-1-2-1-2 0-2 25z" fill="#ccc"/></svg>