<svg version="1" xmlns="http://www.w3.org/2000/svg" width="600" height="400" viewBox="0 0 450.000000 300.000000"><path d="M0 150v150h52c59 0 55 1 55-7 0-2 1-3 2-4 1 0 2-1 1-1 0-1 2-4 5-4 2-1 3-1 3 1 0 1 0 2 1 3 1 0 1 1 1 3 0 1 1 2 2 4 0 1 1 3 1 3 0 2 7 2 72 2h73l1-3c2-1 2-3 1-4 0-1 0-1-1 1 0 1-1 2-2 3-2 1-2 1-3-3-1-7-1-8 3-7 2 0 3-1 5-2l2-2v3c-1 3-1 3 0 1 2-3 3-4 3-1 0 1 0 1 1 0 0 0 1-1 2-1s2 0 2-1c1 0 3-1 5-1 4 0 4 2 0 4l-2 1h2c4 1 4 1 4-1-1-1 0-1 1-1 2 0 3 1 3 2s-1 2-1 2c-1 0-1 0-1 1 0 2 3 1 4-2s0-7-2-6c-2 2-2-1 0-4 1-3 2-3 3-2 0 2 3 0 3-2s2-1 3 2c2 5 9 11 11 10 1-1 0-2-1-2-3 0-7-4-9-7-1-3-1-3 2-3 2-1 3 0 6 4 3 3 8 9 12 13l7 8h8c7 0 7 0 8-3 1-1 2-3 2-3s1-2 1-3c1-1 2-4 3-6 2-2 3-5 3-5 0-2 3 1 4 4 0 2 0 3 1 2 0-1 1-2 0-3 0-1 0-1 1 0s1 1 2 0 0-2-1-4l-2-2v3c0 2 0 2-2-2s-2-8-1-11 4-3 4-1c1 1 1 2 2 1 2-1 3 2 2 4-1 1-1 1 0 1 2-1 2-1 2 0-1 0 1 3 4 4 2 1 3 2 4 3 0 2 1 3 1 3 1 0 1 0 0-4-1-2-2-4-1-4 0-1-1-2-1-3-2-3-2-3 0-5s3-4 3-6c0-3 0-3 2-2 1 0 5 1 9 3 4 1 10 4 12 6 3 2 6 4 8 5 1 1 2 1 1 2-1 0 0 1 1 3 2 2 2 3 1 3s-2 1-2 1v5c-1 3-1 3 1-1l3-5 1 4c1 2 2 5 2 8 2 9 0 8 17 8h15V0H61v13c1 8 1 22 2 32 0 27 1 46 2 47 0 1-2 1-5 2s-9 3-14 5c-4 1-10 3-12 3s-5 1-7 2c-5 1-6 1-5 0 0-1 0-1-1-1-1 1-1 0-1-5 0-9 0-10-1-10-2 0-3-31-1-33 1-1 1-1 1 2-1 1 0 3 0 4 1 2 1-2 1-9 0-3 0-4 1-4s2-1 3-3c0-2 1-3 2-3s2-2 2-6c0-1 0-2 1-2 1 1 1 0 1 0 0-1 1-2 2-2s2 0 1 1c-1 0-1 2 0 2 2 0 4-5 2-7-1-1-1-1 2-3 1 0 2-1 1-1-3 0-3-3-1-5 1-1 2-1 3-1h3c2 0 2 0 2-4-1-3-1-4 0-4s2 1 2 1c0 1 0 1 2 0 1-1 2-4 0-4-1 1-1 0-1-1s1-2 2-2c0-1 1-2 1-2 0-2-3-2-25-2H0v150zm357-74c-1 1-1 1 0 1 2-1 4 11 2 13s-21-3-19-5c0-1 0-1-1-1s-2 2-2 3c0 2-1 2-3 2-1 0-2 0-1 1 1 3-5 6-7 4-2-1-2-1-2 0 1 3-1 2-3-1-1-4 0-12 1-14 1 0 4 0 8 1 7 2 13 3 13 2 0-2 8-5 10-4 1 0 1 0 1-1-1-1 0-1 1-2 3-1 4 0 2 1zm-234 64c1 0 1-1 1-3-1-3-1-4 0-3 1 0 1 1 1 2 0 2 1 3 1 4 1 2 1 2 1 0 0-3 0-3 2-4 1 0 2 1 2 4s0 4-1 2c-1-1-1-1-1 1 0 1 1 2 2 2s1 0-1 1c-1 0-2 1-1 1s1 1 1 3c0 3 0 3-1 1 0-4-2-4-1-1 0 2-1 3-1 4-1 0-1-2-1-4 0-3 0-4 1-4s1 0 0-1c0 0-1-1-1-2-1-1-1 1-1 4 0 4 0 6-1 6s-1-1-1-2c1 0 1-1 0-1 0 0-1 1-1 2-1 1-1-1 0-4 0-3 0-4-1-3-1 4-2 9-1 8 1 0 1 1 1 1 0 1-1 2-2 1-2 0-3 3 0 4 0 1 1 2 1 3s0 1-1 0-1 0-1 2c0 8-2 11-2 4v-13-12c0-5 0-7-2-9-3-4-3-4 1-3 1 0 2 1 2 1 0 1 0 1 1 0s1-1 1 1 0 3-1 2c-1 0-1 1 0 3 2 2 2 2 2 0 1-1 1-2 1-3v-5c0-4 0-4 1 2 0 4 1 7 1 8zm-4 68c2 0 10 16 10 17s-2 1-5 1c-6 0-11 2-13 4-1 2 0 7 1 7s1 1 1 2 1 3 3 4l3 2 4-3 6-6c3-2 2-4-4-4l-5-1 3-2c4-2 6-1 10 2 4 4 4 9 1 18 0 3-1 7-1 10-1 6-5 12-12 17s-11 6-13 3-1-5 2-5c2 0 2-1 3-3 1-3 2-3 4-2 3 0 3 0 3-1s-3-2-7-3l-6-1 1-3v-5c-1 0-2-2-2-5v-9c0-3 0-7 1-9 0-4-1-6-4-5-1 0-2 0-2-1 0-2 3-2 5-1 2 2 3 0 1-2-1 0-2-2-1-2 0-1-1-1-1-2-2 0-2-2-1-2s3-2 3-4c1-1 3-3 4-3 0 0 1 0 1-1 0 0 4-3 5-3s2 0 2 1zm274 60c0 1 0 2-1 1 0-1-3-2-3 0s0 3-1 2c-1-2-5-3-5-1s2 5 3 4 1-1 2-1c0 1-4 9-5 9-3 0-3 3-1 5 3 2 2 3 0 2s-3-2-3-2c0-1-1-1-2 0s-1 1 0 3c1 1 2 2 1 3s-1 1-2 0c0-2-4-1-4 1s-3 4-4 3c-1 0-1-2-1-4 1-5-1-5-1 0-2 6 2 10 5 5 2-1 3-1 5 1 1 0 3 1 4 1 2 0 2-1 1-2-3-3-1-5 1-3 1 1 2 1 2 0 1 0 0-1 0-1-1-1-1-1-1-2 1 0 2 0 3 1s1 2-1 4c-1 1-2 2-2 3 1 0 2-1 3-2 1-2 8-5 9-5 0 1 0 2-1 3-1 4 0 4 2 0 2-2 2-2 4-1 1 1 1 1 1-1s1-3 1-3c1 0 3-1 4-2 0-1 1-2 0-2l-2 2c-1 0-2 1-3 1s-1-1 1-2c2-2 4-3 5-2 0 0 1 0 1-1 0-2-5-1-7 1-1 1-2 1-2 0 0 0 0-1 1-2 1 0 0-2-1-2s-3 5-2 8c0 2 0 2-1 0-1-1-2-3-4-3-3-1-4-3-1-2 2 0 2 0 1-2-2-2-2-3 1-2 1 0 1 0 0-1 0-2 3-3 5-1 0 1 2 2 3 2 2 0 2 0 1-2-2-2-2-2 1-3 3-2 3-2 1-2-1 0-3 0-4 1-2 1-8 0-7-1 0-1 1-1 1-1 1 1 2 0 3 0 1-1 1-1-1-1-2-1-3-2-1-4 2 0 1-3 0-3s-2 1-2 3z" fill="#ccc"/></svg>