<svg version="1" xmlns="http://www.w3.org/2000/svg" width="600" height="400" viewBox="0 0 450.000000 300.000000"><path d="M0 22c0 20 0 21 2 24 6 8 6 17 0 11-2-1-2 0-2 37v39h4c3-1 9-2 14-3s11-2 12-2c5 0 11-2 11-4-1-2 1-4 3-4 1 0 2 0 2-1-1-1 4-4 7-4s9 5 9 8c0 0 1 1 2 1s2 1 3 1c3 2 0 3-3 2-2-1-2-1-3 0s-1 1 1 1c1 0 3 1 4 3s1 2-1 2c-4-2-4 7 0 16 3 9 20 29 17 21-1-3 1-7 3-7 0 1 1 0 1-1 0-2 5 6 6 11 3 15-2 16-14 4-11-11-20-32-19-44l1-5-4 1c-6 0-8 3-8 9 0 12 8 29 17 38 2 2 3 3 3 4 0 0 2 2 4 3s4 3 4 3c0 1 1 1 2 1s1 0-1-2c-2-3-1-4 3-1 2 1 2 1 1 2-3 2-2 3 2 5 4 1 6 1 12-3 5-3 5-3 7-1 2 1 3 2 2 2-1 2 8 1 17-1 5-1 9-2 10-3s3-2 5-2c1 0 4-1 5-2 2-1 5-1 9-1 4 1 5 0 7-1s3-2 3-1c0 0 1-1 1-3 2-2 2-3 5-3 2 0 3 0 3-1s5-1 12 1c3 1 4 2 3 2-1 4 12 1 18-3 2-1 4-2 5-2s3-1 4-2c4-3 14-6 15-5 1 0 1 1 1 3 0 1 1 2 2 2s2 1-2-22-5-38-2-39c2-1 2-1 1 2 0 2 0 2 2 1 1-1 2-2 1-3-1-4-1-5 0-3 2 3 9 6 22 9 8 2 9 2 7 0s-2-6 0-5c0 1 1 0 2 0 0-2 2-2 5-2 2 0 1 2-1 2s-2 1-1 2c2 2 2 2 0 3l-2 2h2c2 0 3 0 3 1s1 1 2 1c2 0 2-1 2-7s1-6 2-6c2 0 3-1 3-1 1-2 2-1 9 0 13 3 18 3 7 1-11-3-11-3-11-7 0-2 0-2 1-1s20 5 23 5v2c0 2-1 3-2 3h-2l2 1c1 1 2 2 2 3 0 2 0 2 1 1s2-1 4 0 2 2 2 8c0 8-1 10-2 10s-2-2-3-6v-7l-16-3c-9-2-17-3-17-2 0 0 0 2 1 5 1 5-1 7-4 4l-14-4c-7-2-15-4-17-5-5-1-5-1-4 1s11 4 63 16c25 6 46 11 46 12 1 1-2 0-76-17-11-2-21-4-22-4s-4-1-6-2c-5-3-10-4-12-3-1 2-1 4 1 14 3 19 3 19 4 17 1-1 0-4 0-7-1-3-2-7-1-9 0-2-1-4-1-5-1-1-1-1 0-2s1-1 2 0c1 2 2 1 2-2-1-2-1-2 1-2 0 1 2 1 2 1 1 0 1 1-1 1-1 1-1 2 0 2 0 0 1 0 2-1 0-1 0-1 1-1s4 20 4 31c0 3 1 6 1 5 2-1 3 11 1 14s-7 5-7 3c0-1 0-1-1-1s-1 1-1 2 0 2-1 2-4-3-4-5c0 0 0-1-1-1s-1 1-1 1c0 1-1 2-2 2-4 0-7 3-7 6 0 2 0 2-1 1s-2 0-5 6c-1 2-3 6-5 7-3 4-3 5 0 5 8 0 16 5 18 11 0 3 0 4-3 6s-3 3-3 7v4l1-3c3-7 8-11 16-13 5-1 22 4 20 6 0 1 1 1 2 1 1-1 2-1 2 0l6 6c5 6 8 10 8 13 0 1-1 0-2-2-1-4-9-12-10-12s0 2 3 4c7 8 9 16 4 22-2 3-2 4 1 1 1-1 2-1 2 0 0 0-1 2-2 2-2 2-2 2 2 2 5 0 6 0 3 3l-1 3 4 2c3 1 5 2 6 2s2 2 2 5c0 1 1 2 2 3s2 2 2 4c0 7 1 11 3 12 2 0 15-3 15-4 0 0 1-1 2 0 2 0 2 0 2-1-1-1-1-1 2-1 2 1 3 1 3 0s2-1 6 1c1 0 1 0 0-1-1-2-1-2 1-2s3 0 2-1c0-1 1-1 3-1 2 1 2 1 1-1-2-2-2-2 4 1 1 0 1 0 0-1-1-2-1-2 1-1 2 0 3 0 3-1-1-2 1-1 6 1 2 1 4 2 4 1 0 0-1-1-3-2-4-2-5-3-1-2 4 0 4 0 0-3-2-1-2-1 0-1 1 1 2 0 2 0s2-1 3-1c2-1 2-1 1 0s-1 1 0 1c2-1 12 2 15 4 2 2 12 5 13 5 1-1 4 0 3 1 0 1 1 1 2 1 2-1 2-1 1 0-2 1 6 4 9 3 2 0 2 0 1 1-2 1 14 7 17 7 2-1 2-1 1 0-1 0 2 2 10 5 6 2 12 5 13 5 4 2 12 1 12-1 0-1-1-2-1-2-1-1-2-1-2 0l1 1 1 1c-1 1-7-1-6-2 0-1-5-3-6-2-1 0-1-1-1-1 0-2-3-3-3-1 0 1-1 0-1-1-1-2-1-2-2-1 0 1-1 2-1 2-1 0-1-1 0-1 0-2-7-6-10-6-1 0 2 2 5 4 2 1 4 1 4 2-1 1-10-3-10-5 0-1 0-1-1 0 0 0-2 1-3 0-1 0-2-1-1-1 0-1 1-1 2 0 0 0 1 0 1-1s1-1 2-1c2 0 0-1-3-3-4-1-7-3-8-3-3-1-2-1 5 1 2 0 2 0 1-1-2-1 0-1 3 0 1 0 1 0-1 1-1 1 0 1 5 3s6 3 4 3l-2 1h2c4 1 5 1 3 0-2-2 1-1 5 1l3 1-4-1c-5-1-4 0 8 5 10 3 14 4 10 2-1-1-1-1 0-1s1-4 0-4c-1-1-1-1 0-1 2 0 1-2-1-2-1-1-1-1 0-1 2 0 3-31 1-32-1-1-1-1 0-1s1-5 0-5c-1-1-1-1 0-1s1-25 1-122V0H64l-2 7c-1 6-1 8 0 12 1 3 2 6 2 7s1 4 2 6c0 3 2 7 2 10 2 17 5 24 9 22 2-1 7 0 7 2 1 0 0 1-2 2-1 0-2 1-2 1 0 1 13 5 15 5 1 0 3-2 5-6 5-6 5-6 16-2 9 2 9 1 7 14-1 8-1 8 2 14 4 7 4 8 7 5 1-1 2-2 3-2 0 0 1-1 1-3 1-4 4-4 15-1 5 2 12 3 16 4h6l2 6c1 3 2 6 2 7-1 1 0 2 3 2 6 1 5 3-2 4-3 0-7 0-9 1-2 0-4 0-7-2-2-2-5-3-6-3-3 0-8-4-13-11l-2-3-3 2c-2 1-4 2-5 2s-3 1-4 1c-2 1-2 1-5 0-1-1-9-4-17-6-9-3-16-6-17-6-2-1-7-3-12-5l-10-4-1-7c0-4-2-9-4-14-2-4-3-8-3-9 0-2-4-8-5-8-2 0-5-8-13-40l-1-4H0v22zm44 15c2 0 2 1 0 3-1 1-3 4-3 5v6c0 1 0 5 1 8 2 8 1 9-5 9-4 0-5 0-6-2s-4-3-7-4c-6-3-13-11-10-14 2-1 3-1 8 1 8 2 8 2 8-3s1-6 7-8c5-2 5-2 7-1zm77 20c1 3 6 5 9 3 4-3 7 0 4 4-1 2-2 2-6 2-3-1-6-1-7-1-6-1-7-3-4-9 2-2 4-1 4 1zm81 29s0 3 1 5c1 12 1 12-2 13-3 0-5-3-5-7 0-2-1-4-2-5s-2-3-2-4 10-4 10-2zm131 20c1 1 3 2 4 2 2 1 2 1 1 2s-1 1-2 0-3-1-5 0c-2 0-2 0 3 2 3 1 4 2 4 3v3c0 1-1 1-1 1h-2c0 1 2 1 3 1 2 0 3 1 0 3-1 1-1 1 3 1h5l-2-4c-4-6-4-7 2-4 7 4 24 5 28 2 1 0 1 0 1 1 0 3-7 7-15 8-3 0-5 1-4 1s3 1 4 1c2 2 8 2 13 0 3 0 6-1 6-1v4c-1 8-18 8-53-1-14-3-14-3-14-4 1-1 6-1 10 0 3 1 4-1 5-6 0-1 1-2 2-3 3-2 2-4-1-4-2 0-2 0-2-2 1-1 0-1-1-2-1 0-2-1-1-2 0-2-2-4-3-2l-1 1c0-1 0-2-1-3-1-2 10-1 14 2zm-58 23c1 0 2 1 2 1 1 1 4 2 12 3 1 1 5 1 7 2 7 0 6 2-1 2-10 0-12 2-8 7 3 2 2 4 0 4-1 0-2 2-2 3s1 2 2 1c1 0 1 0 0 2-2 1-2 1 0 1 3-1 3-1 4 5 1 3 1 7 1 8-1 1-1 1-1-1s0-3-1-4c-1 0-1 1-1 4 1 2 1 4 0 3-1 0-1-1-1-2 0-4-1-6-3-6 0 0-1 1-1 2 0 2-1 3-2 4-2 2-2 2-2-1s0-3 1-2 1 1 1-2c0-1-1-3-1-3-2-1-3-10-2-12 1-1 1-1 0-1s-2 1-2 2l-2 2s-1-1 0-2c0-1 0-2-1-2l-1 1c0 3-1 2-5-1-3-3-3-7 0-6 5 2 6 2 6 1l-1-1c-1 0-2-1-1-2v-4c0-1 1-1 1-1 1 1 2 1 2 0 2-2-3-2-5 0-1 1-1 1-2 0-1 0-3-1-4-1-2 0-3 0-3-2 1-2 3-3 8-2h6zm16 52c0 1 1 3 2 6s0 8-2 8c-1 0-3 5-2 6 0 1 1 3 1 5v10c1 4 1 7 0 7-1 1-1 0-1-1s0-2-1-4c0-1 0-4-1-8 0-5-1-7-2-8s-2-3-3-6v-4l4-1c5-2 6-2 4-8v-4c1 0 1 1 1 2zm-31 18c4 1 5 2 4 4 0 2-5 3-6 1-1-1-3-2-6-2-3-1-6-2-8-4l-2-2h7c4 1 9 2 11 3zm68 11s0 1-1 2c-1 0-1 34 1 48 0 6-1 9-3 9 0 0-1-4-1-10 0-5 0-18-1-28 0-18 0-19 2-20 2-2 3-2 3-1zM0 240v29l8 6c8 6 9 8 7 12-1 3-8 6-12 6-3 0-3 0-3 3v4h9c10 0 11-1 11-6 0-4 10-8 12-5 1 1-3 7-6 9l-3 2h27v-6c0-14 1-41 2-44 1-2 2-4 3-4 1-2 1-3-27-20-12-7-23-13-25-14l-3-2v30zm30-8c0 1 3 3 5 5 9 8 10 9 11 13 3 7 2 8-1 12s-3 4-11 9c-7 3-13 4-12 1 1 0 1-2 0-3s-1-4-1-6c-1-5-2-8-3-11 0-1-1-5 0-7 0-3-1-5-1-5-1 0-1-1-1-1 0-1 1-1 2 0s1 1 1 0c-1-6 6-11 11-7zm204-12c-3 1-5 6-5 10 2 10 15 19 28 19 4 0 6-1 4-2-1 0-1-2-1-3 1-3 1-3 4-3 3 1 4 2 1 4-2 3-1 4 2 1s4-6 2-4c-1 0-1-1-1-4l1-4-2 3c-3 3-8 4-13 2-6-2-16-15-14-19 0-1-2-1-6 0z" fill="#ccc"/></svg>