<svg version="1" xmlns="http://www.w3.org/2000/svg" width="600" height="400" viewBox="0 0 450.000000 300.000000"><path d="M98 4c-2 9-4 16-7 22-2 4-3 8-3 10-1 3-4 10-8 18-6 13-6 13-7 22 0 10 1 14 5 15 2 1 3 0 1-1-1 0-1-2-1-2 1-2 2-2 13 3s21 5 21 0c0-2 1-3 3-1 3 3 4 2 6-2 1-3 16-17 23-22 3-2 5-4 5-5 0 0 3-3 8-7 7-5 7-5 7-9 0-6 3-21 6-30 2-5 3-10 4-12V0H99l-1 4zm90-3c2 1 3 2 3 3-1 1-1 4-1 6-1 3-2 7-3 10-1 4-1 4 0 5 2 1 2 2 0 3-1 2-1 2-2 0v-2l-2 2c-1 3-1 4 0 4 0-1 1 0 1 0 1 1 0 2-1 2 0 1-1 3-2 5 0 2-1 3-2 3-2-1-1 0 1 2 1 1 2 3 2 3 0 3-2 2-4-1-1-2-2-3-3-3 0 0 0 2 2 4 1 3 3 6 3 9 3 6 7 15 8 16 1 0 1 1 1 2-1 0 0 1 1 1 0 1 1 1 1 2 0 2 8 12 14 18s16 11 17 8c0 0 1-1 2-1s1 0 0 1c-2 2-2 2 3 2 6 1 12 1 12 0s1-1 2-1c1 1 2 0 3 0 0-1 1-1 1 0 1 0 2 0 2-1 1-1 2-1 3-1s1 0 0 1c-2 2 4 3 6 1 1-1 1-1-1-1-4 1-4-1-1-3 2-2 3-3 3-1-1 1-1 1 0 1s1 1 1 1c-1 1 0 2 0 2 2 0 15-5 22-8 7-4 9-4 10-1 0 2-1 5-2 3-1-1-2-1-3 0s-3 2-5 2c-2 1-4 2-5 2 0 1-2 2-3 2s-8 6-7 7c1 0 2 0 3-1s1-1 1 0c-1 2-1 2 1 1s3-2 3-1 0 1 2 0c2-2 1 0-1 3-3 4-4 6-1 4 0-1 1-1 1 0 0 0-1 1-1 2l-2 2c0 1 1 0 2-1s2-1 2 0 0 1 2 0c1-1 1-1 1 0s-1 2-1 3c-1 1-2 2-2 3s1 1 2-1 1-2 1 0 1 3 3 1c0-1 5-1 6 0 0 1 0 1-2 0-2 0-2 0-1 1s1 2 0 3c0 1 0 2 1 2 1 1 2 3 2 4 1 2 0 2-6-1-5-2-16-2-14 0 0 0 1 1 2 0 2-1 5 1 5 3 0 1 0 1 1 0s1-1 1 0c1 1 1 1 1 0 0-2 2-3 3-1 0 1 2 2 4 2s3 0 3 2c0 1 0 2 1 2s3-14 2-15c-2-1-1-2 1-3 1-2 1-2-1-2-3-1-2-3 2-4 7 0 11 7 14 22l1 10h5c2-1 5-2 7-2 6-4 16-4 16-1 0 0 1 1 2 1s4 0 6 1c9 2 12 2 17 2 3 1 5 0 5 0 0-1 1-1 2-1 0 0 4-3 8-7 7-7 9-7 14-2 3 3 2 4-2 7-2 1-3 2-3 4 0 1-1 3-3 5-3 4-2 6 4 7 3 0 11 3 12 4s5 2 7 3h3c3 0 2 2-1 2-1 0-3 1-4 2s-2 1-2 1c-1 0-1 0 0 4 1 3 1 3 0 4s-2 3-3 5c-1 4-7 8-9 6-3-2-5 1-3 4 5 6 10 7 14 3 2-1 3-1 3 0s0 2 1 2 1-1 1-2c0 0 0-1 1 0 1 0 1 1 0 2s-1 2-1 3c1 0 0 2 0 4-1 3-1 4 1 6 3 3 3 7 0 4-1-1-2-2-2-3s-4-1-5 0-2 1-3 0c-1 0-1-1 0-1 2 0 0-2-2-2-1 0-2 1-3 2s-2 1-3 0-1-1-2 0c0 1-1 2-1 2-2 0-1-3 1-4s1-2-1-1c-2 0-10 7-8 7 0 0 0 1-1 2-1 2-1 2 0 2 2 0 3 2 3 6 0 3 2 4 3 2 1-1 1-1 2-1 0 1 1 2 2 2 3 0 3 0 2 2-2 1-3 1-4 0 0-1-1-1-1 0-1 2-5 1-5-1 0 0-1-2-3-2-1-1-2-2-1-2 1-1 1-1 0-1s-3-1-3-3l-1-3-3 3c-4 3-9 5-8 2 0 0-1-1-2-1-2-1-3 2-1 3l1 1c-1 0 0 1 1 1 2 0 3 1 3 1 0 1 1 2 3 3 7 4 10 12 4 10-1 0-1 0 0 1s1 1-1 1c-1 0-2 0-2 1 1 1-1 2-4 3-2 0-3 0-3 1-2 2-3 1-2-1 1-1 1-1 0-1-1 1-2 1-3 1l1 1c0 1-1 1-2 1s-2 0-2-1 0-1-1-1-1 1-1 1c1 2-2 2-4 0-1-1-1-1-1 0 1 1 0 2-1 2-2 1-2 1-3-1-2-1-2-1-2 0s-1 2-2 2c-2 0-3-1-3-1 0-1 0-1-1-1s-1 1 0 2c0 1 0 1-1 1-2-1-2-1-1 0 0 1 0 1-1 1-1-1-2 0-3 0-2 2-3 2-4 1s-2-1-3-1-1 0-1-1c1-1 1-1-1 0-1 1-2 1-2 0 0 0 1-1 2-1 3-1 2-3-1-2-2 0-2 0-1-1s2-3 1-3c0-1 1-1 1-1 1 0 2 0 2 1s0 1 1 1 1-1 1-2c0 0 1-2 3-3 1-2 2-3 2-4-1 0-9 3-11 5-1 0-2 1-3 1 0 0-1 0-2 1 0 1 0 1 2 0 2 0 2 0 2 1-1 1-2 1-4 1-1-1-2-1-1 0 1 0 0 1-2 2s-3 2-2 3c0 1-1 1-2 1-2 0-2 0 0 1 7 3 39 5 51 3 8-1 11-3 15-9 3-5 7-6 10-3 3 2 2 4 0 2-3-2-6 0-10 6-3 3-5 6-6 6s-1-1 0-1c0-1 0-1-1-1-5 2-16 3-32 3-21 0-34-3-50-10-10-5-14-7-13-5 1 1-3 8-4 8s-8-4-11-6c-1-1-3-2-3-1-1 0-1 0-1-1s-1-1-2-1c0 0-1 0 0 1 0 1-9 1-11 0-1-1-1-1-2 0-2 3-14 3-15 0l-1-2-1 2c-2 3-12 3-13-1-1-3-2-3-3 1-2 4-13 3-15-1s-3-4-4-1c-1 4-8 5-8 1 0-1-1-2-2-3s-1-1-2 2l-1 3h-17c-5 1-19 3-29 3-28 2-40 2-43 1-4-1-24-5-26-5 0 0-1 1 0 1 0 1-1 2-3 3-2 2-3 2-6 0s-5-8-1-6c2 0 1-1-3-5 0-1-1-2-1-2 0-1-5-1-6 0 0 1 1 2 2 3 2 2 3 3 2 3-1 1-1 2 0 2 1 1 1 2 0 2-1 1-1 1 0 3 2 2 2 2 1 3-2 3-5 0-5-3 1-2 0-2-6-5-4-2-7-3-7-4-1-1-2-1-2 0-1 0-1 0-1-1s-4-2-5-1c-2 2-8 2-8 1s0-2-1-2-1 10-1 29v29h450v-19c0-20 0-20-2-19-2 0-2 0-2-1 1 0 2-1 3-1s1-16 1-116c0-89 0-116-1-115-1 0-1 3-1 6-1 6-4 15-6 15-1 0-2 0-2 1s-2 1-5 2c-4 0-5-1-10-8-2-6-3-10 0-37V0h-18c-15 0-19 0-18 1 1 2 3 16 2 24v15c-1 10-4 16-9 17-2 0-4 0-4-1-1-1-7-1-16 1-3 0-5 0-6-1-2-2-2-2-3 1 0 2-1 4-1 6 0 3-3 9-5 10-8 4-10 4-13 3-5-4-6-4-7-15-3-17-3-17-8-17-3 1-7 1-10 2h-6l4-4c6-5 8-9 8-15 0-8-2-12-6-15-6-4-7-5-5-9l1-3h-44c-44 0-44 0-40 2 7 2 8 6 4 10-3 4-6 4-14 1-7-2-9-2-15-2-3 0-3 0-3 3v3l-1-3c0-2 0-2-1-1-1 2-1 2-1 1s0-2 1-3c1 0 1-1 1-3V5h5c2 1 8 2 11 4 10 4 14 4 16-1 1-2 1-3-1-3-2-1-6-2-10-3-8-2-30-3-25-1zm28 58c2 2 4 3 4 3 4 0 4 5 1 9-1 1-2 3-3 4 0 2-1 3-3 4s-3 2-3 2-2 1-3 2c-2 1-4 3-3 3 0 1-1 1-4-1-2 0-3-2-3-3l-1-1c-3 0-11-14-11-18 1-4 2-5 8-4 4 1 6 1 9 0s5-1 6-2c2 0 3 0 6 2zm60 197c12 6 11 6 9 10l-2 3-4-2c-3-1-6-2-8-3-2 0-4-1-5-2-2 0-2-1 0-6s2-5 10 0zM2 78c-2 2-3 33-1 31 1 0 1-2 1-4s1-3 2-4c1 0 2-3 3-5 1-3 3-4 6-5 4-2 5-4 3-5 0-1-1-2 0-3 0-1-1-2-4-4-4-3-8-4-10-1zm109 19c0 1-5 1-9 1-11 1-13 2-10 5s1 5-8 6c-7 0-7 0-7 3 0 1-1 3-2 4-3 4-3 11-1 13 4 2 6 10 6 18 0 3 1 6 2 7s0 2-1 3c-3 2-2 3 4 5 9 3 14 2 21-4 4-5 8-6 17-7 3-1 4-1 8 3l5 4-4 4c-2 2-4 4-5 4-2 1-2 1 0 2h2c1-1 2-1 3-1s3-1 4-3c5-3 4-3 15 6 5 5 9 9 10 9 0 0 1 1 2 1 1 2 11 10 12 10 2 0 1-2-4-6-2-2-8-7-13-11s-11-10-15-12l-11-11c-3-2-9-7-12-10-8-7-16-16-19-20-2-4 0-8 7-16 3-3 5-6 5-7s-1-1-2 0zm88 14c1 1 3 5 5 7 7 12 29 46 33 49 9 10 19 9 22-1 2-6 2-15 0-18-1-2-3-2-3 1 0 2-2 5-3 5h-1c-2 1-4 0-4 0-1-1-1-1-2 0s-1 1-1 0 0-1-1-1c-1 1-10-9-17-17-2-2-6-8-10-12-6-7-7-9-3-7 1 1 3 1 3 0 1 0-1-1-5-2-3-1-7-2-9-4-5-3-6-3-4 0zm29 8c0 1 4 1 8 1s8 0 8 1h6c4 0 6 1 6 1 0 1 0 1 1 0 0-1 2-1 4-1 5 1 6 2 3 2-1 0-3 1-4 2-2 2-3 3-3 2-1 0-1 0-1 1s3 1 3 0c1 0 2-1 3 0 0 0 1 0 2-1 0-1 1-2 4-1 5 0 5 0 0-4-3-2-3-3-22-3h-18zM0 137c0 19 0 18 7 18 5 0 14 1 15 3 1 1 1 1 1-1 1-1 1-1 2 0s1 1 2 0 8-4 11-4c1 0 3 2 4 4s3 4 4 5c2 0 3 1 4 2 2 1 5 1 5-1 0-1 1-3 2-5s2-6 3-7c0-2 1-3 2-4 2 0 4-1 5-3 1-1 3-2 4-2l1-1c0-1 0-1 1 0s1 1 1-1c0-6-6-10-12-9-2 1-3 1-5 0-1-2-4-3-4-1s-4 5-7 5c-2 0-3 3-1 5 3 3-4 7-9 5-3-1-4-4-3-11 2-8 2-8-12-7-13 0-16-1-19-5-2-2-2-1-2 15zm120-10c-2 3 1 6 18 21 9 8 18 16 21 18 6 6 9 8 12 8s5-2 3-2c-1-1-1-1 0-2s1-3 1-4c-1-2-22-19-45-39-4-3-9-3-10 0zM0 203c0 12 1 14 4 11 1-1 2-2 3-2s2 0 2-1 1-2 1-3c2-1 2-1 0-4-1-2-1-3-2-2s-1 0-3-2c-3-2-3-3-2-5s1-2 0-3c-3-2-3-1-3 11zm176-5c0 5-3 8-11 8-7 0-27-3-30-5-1-1-5 0-10 2-7 2 35 16 48 16 12 0 18-10 11-18-1-2-2-3-1-3s1 0 0-1c0-1-1-1-2-1 0 1-1 1-1 0 1-1-2-2-4-2-1 0-1 2 0 4zm115 1c-2 2-48 14-56 14 0 0 0 1 1 1 1 2 3 3 3 1-1-1-1-1 0-1l1 1c1 1 1 1 1 0 0-2 1-2 4-2 2 1 4 0 3 0 0-1 0-1 1-1s1 1 1 1c0 1 0 1 1 0 0 0 2-1 4-1 2-1 4-1 5-1 4-2 8-2 9-1s1 1 1 0c0-2 1-2 3-2h3c0-1 6-2 9-2 1 0 2-1 2-1 0-1 1-1 2-1 2 0 3 0 4-1s1-1 0-1-1-1 0-2c0-2-1-3-2-1zM9 220c0 1-1 2-1 2s-2 1-3 1c-2 1-4 2-4 1-1 0-1 3-1 7 0 7 0 8 2 8s3-3 2-5c-1-1 1-8 2-8s1 1 1 2 1 1 3 1c4-1 7 0 5 2 0 1-1 2 0 2 0 1-1 1-2 2-3 0-3 3-1 4 1 2 1 2 4 1 4-2 6-5 4-6-1 0-1-1 0-1 1-1 1-2 1-3s1-2 2-3c2-1-1-4-4-4-2 0-3-1-3-2s-4-3-5-3l-2 2zm134-1h-6c-8 0-12 1-12 3 1 1 0 1-4 1H98l4 2c2 0 8 2 11 2 4 1 10 2 12 2 3 1 8 2 10 3s6 2 8 2c1 1 6 1 11 1h24c10 0 14 0 11-2-1-1-3-1-4-1s-2 0-2-1c0 0-1-1-2 0-3 0-3-1 1-5 3-5 2-5-2-4-3 1-6 1-21-2-6-1-16-2-16-1zm-19 20c-4 0-16 1-26 2-16 0-19 1-20 2-5 5-1 7 9 7 7 0 9-1 9-4s2-5 5-3c1 2 1 2 0 4s-1 3 5 2c5 0 5 0 4-3 0-2 0-3 2-4 3-2 8 2 5 4s-1 3 5 3l5-1v-3c0-3 1-4 3-4 1 0 3-1 3-1 2-1-2-2-9-1zm174 2c0 1 0 1-1 1-1-1-2-1-1 0 0 1-1 1-2 0-1 0-1 0-1 1 1 1 1 1 0 1 0-1-2 0-3 1-2 2-3 3 0 3 0-1 1-1 1 0 0 0-2 1-5 2l-4 2 4 2c5 2 6 3 6 1-1-1 0-1 1-1 0 0 1 0 0-1 0-1 1-1 1-2 1 0 2-1 2-2-1 0 0-1 1-2 0 0 1-1 1-2l2-2c1 0 1-1 0-2s-3-1-2 0z" fill="#ccc"/></svg>