<svg version="1" xmlns="http://www.w3.org/2000/svg" width="600" height="400" viewBox="0 0 450.000000 300.000000"><path d="M0 10c0 11 0 11 8 17 2 2 4 3 3 3-1 1-3-1-6-3l-5-4v12c0 8 0 12 1 12 1 1 1 1 0 1S0 74 0 174v126h450V0H30l2 3c5 5 15 12 24 16 5 3 9 5 8 5-2 2-25-12-32-20l-4-4H0v10zm386 26c2 2 5 6 5 8 0 0-1 1-3 1-1 1-3 2-4 3-3 1-2 1 3-1 1 0 1 0 0 1s-4 3-6 4c-6 2-13 6-20 11-7 4-8 4-8 0 0-3 3-6 4-5 0 0 2-1 3-3 3-5 5-6 6-6 0 1 1 0 2 0 1-1 1-1 3 0 1 1 1 1 1 0s0-2 1-2 1-1 1-2c0-2-2-2-4 0-1 1-3 2-3 1l1-1s1-1 1-2 0-2 1-3c1 0 1-1 1-2s0-2 1-2 1 0 1 1c-1 2 0 2 1 2 2-1 3-1 4-1 2 0 2 0 1-2-2-2 3-2 7 0zm-147 4c0 1-3 4-6 8-5 5-6 6-7 4-1-1-1-1-2 0s0 2 0 2c2 1-1 5-4 7-2 1-4 3-4 4l-2 2c-1 0-1 1-1 2s0 2-1 1c0-1-1-1-2 0-2 1-5-1-5-4 0-1 1-2 3-2 1 0 2-1 2-1 0-1 1-2 2-4 1-1 3-2 4-3 2-3 9-9 10-9s4-2 6-4c5-5 7-5 7-3zm161 12c1 2 1 7 0 5 0 0-1 1-1 4 0 6 0 8-3 8-2 0-3 0-3-1s-1-1-1-1c-1 0-2 0-3-1 0-1 2-4 4-4 1 0 1-1 1-2-1-2 1-4 2-3 1 0 1 0 1-2 0-3 0-4 1-4 0 0 1 1 2 1zM202 70c0 1-3 1-6 2-3 0-5 1-5 2s2 1 8 0c7-2 13-3 13-2-1 0 4 1 10 1 9 0 10 0 18 4 4 2 8 4 9 5 1 0 3 1 5 2s4 2 5 3c1 0 2 1 3 1 5 0 24 14 22 17 0 1 1 2 2 2s2 2 3 4c0 3 1 3 3 3s3 2 1 3c-2 0-1 1 0 2s2 2 1 3c0 0 0 3 1 9 0 5 1 9 0 9 0 1-3-1-3-3-1-2 0-2 1-2 1 1 1 0 0-2 0-1-1-2-1-2-1 0-3-3-5-6-3-6-3-7-3-3 0 3-1 2-4-3-4-6-9-11-9-9s-3 3-4 2c0 0 0-1 1-2 1-2 1-4-2-4 0 0-1-1-1-2 0 0 0-1-1-1 0 1-2 0-4-1-3-3-11-5-11-3 0 1-1 0-1-1 0-2-1-2-4-3h-3l3 3 3 3c1 0 5 4 5 5s1 1 1 1c1 0 1 0 1 2s0 2 1 1c2-1 3-1 3 1-1 1-1 1 1 1 1-1 2 0 2 1l2 2c2 0 0 2-3 2-2 1-3 1-2 2 0 1 1 1 1 0 1 0 3-1 4 0 1 0 2 0 2-1-1-1 1-1 3 0 1 0 1 0 0 1s-1 1 0 1c1-1 2-1 1 0 0 1 0 1 1 1 0-1 1 0 2 0 1 1 1 1 0 2 0 0-1 1 0 2 0 0 1 1 1 0 1 0 1-1 0-1-1-2 2-1 5 2s4 3 5 2c3-3 7 6 5 10-2 3-3 3-3 0 0-1-1-2-2-3s-2-1-2-1c0 1-1 1-2 0-2-1-2-1-2 0s0 1-1 0-2-2-3-2-2 0-1-2c0 0 0-1-1-1s-1 0 0 1c0 1-1 1-1 1-1 0-2-1-3-1 0-1-1-2-1-2 0 1-2 0-3-1-2 0-4-1-4-1 0 1-1 0-2-1l-1-2-3 2c-1 1-2 2-2 1-1-1 0-1 1-2 2-1 3-2 2-3h-3c0 1-1 1-2 0-1 0-2 0-2 1s-1 1-2 1-2 1-2 1c-1 1-1 1-1-1 0-1 1-2 1-3 1-1 1-1 0-3-2-1-2-1-1-3 2-1 3-1 7 3 1 2 2 2 2 1 1-1 1-1 1 0 0 0 1 1 1 0 2 0 1-3-1-3 0 0-1 0-1-1 0 0-1-1-2 0-1 0-3-1-4-2-2-1-3-2-4-1s-2 1-3 0-1-1-1 0c0 0 1 1 1 2 1 1 1 2 1 3s-1 1-2-1c0 0-2-1-2 0-1 0-2 0-3-1s-1-2 0-2c2-1 0-3-2-3s-2 0-1-1c2-2 2-2 0-2 0-1-1-1-1-2 1-1 1-1 0-1s-1 0 0-1c0-1-1-1-1-1-1 0-2 0-1-1 0-1-2-1-3 0 0 1-1 2 0 3h-1c0-1-1 0-1 1-1 1 0 1 2 0 1-1 1-1 1 0 0 0 0 1-1 1s-1 1 0 1c0 2-1 2-3 1-1-2-3 0-2 1s2 2 2 1c1 0 1 2 0 4-1 1-1 1 0 1 2 0 2 0 0 3-2 2-3 4-3 5 0 2-1 3-2 3-2 1-3 0-1-1 0-1 1-3 1-4 0-2 0-3 1-3v-5c-1-3-1-7-1-8-1-4-15-9-21-7-5 2-5 2-1 4 5 3 6 6 4 8-1 2-2 2-2 1-1-1-3 0-3 1s1 1 2 1c0-1 1-1 1 0s-1 1-1 1c-1 0-2 0-2 1s0 1 1 0c1 0 1 1 1 2 0 2-2 3-5 3 0 0-1 0-1-1 1-1 0-1 0 0-1 0-2-1-3-2-1 0-4-2-7-4-3-1-6-3-6-3-1 0-3 1-5 3s-3 4-2 4c0 0 0 1-1 1-2 2-1 5 3 8 4 4 4 5-1 8-3 2-3 2-4 1 0-2-2-2-2-1s1 2 2 2 1 0 0 1-2 1-3 1-1 0 0 1 1 2-1 4c-1 1-2 2-1 2 2 0 1 2-1 2-2 1-3 4-2 9 0 0 0 1-1 1s-2-6-2-11c1-4 0-7-1-7s-2 4-2 6c0 1 0 1-1 1-2-2 0-11 3-15 0-1 1-2 1-3s1-3 2-5c2-2 3-4 2-5-1 0-1-1-1-2 0-2 0-2 1-1 1 2 4 1 6-2 0-2 1-4 2-4 1-1 1-2 1-3 0-5 16-23 23-27 3-1 3-1 2-2-3-2-1-6 1-6 5-1 13-1 12 0zm173 3c-1 1-1 1 0 1 3 0 4 0 4 1-1 1-1 2 0 2l1-1c1-1 1-1 2-1 0 1 0 2-1 2-2 2-3 7-2 7s1-1 1-2c0-2 0-3 1-3 0-1 1 1 1 2 0 2-1 4-1 3-1 0-1 1-1 1 0 1 0 2 1 2s1 1 0 2-1 1-1 0c0-2 0-2-2 0l-2 2-3-3-4-4c-5 0-11-5-9-7 1-1 2-2 2-1 1 0 1 0 1-1 1 0 3-1 5-1 2 1 4 0 4 0 0-1 1-2 2-2 2 0 2 0 1 1zm40 11c1 0 2 1 3 1 2 0 3 0 4 1 3 3 9 4 14 2 4-2 4-2 5 1 2 4 2 5 0 3l-2-2 1 3c0 2 0 4-1 5s-2 2-1 2c0 1 0 1-1 1s-2 1-3 2c-1 0-2 1-3 0-3-1-6-1-5 2 0 1 0 2-1 1-2-1-5-1-5 0s0 3-2 4c-2 2-2 2-3 1-1-2-2-2-4-1-5 1-8 0-7-3 0-1 0-2-1-2-1-1-1-2 1-5 2-4 3-12 1-14s-1-3 2-3c2 0 4-1 5-1s2 1 3 2zm-178 33c2 2 1 4-1 7-2 2-3 5-3 6-1 2-2 3-3 4s-2 1-2 2c2 2-8 6-13 6-6 0-8-2-8-7 1-4 6-11 6-8l-2 2c-3 3-3 6-1 8 5 3 10 3 6 0 0-1-1-2 0-3 0-1 0-2-1-2s0-1 1-1c1-1 2-1 2-2-1 0-1-1 0-1 1-1 1-1 1 0 0 0 1 2 2 3 2 2 2 2 1 4s0 3 3 0c3-2 4-3 3-6 0-1 0-2 2-3 1 0 1-1 0-2-1 0-1-1-1-2 1 0 1 0 2 1l1 1c1 0 1-1 0-2s-1-1 2-1c1 0 2 0 1-1-2 0-3-2-1-3 1-1 1-1 3 0zm-45 21s0 1 1 1 1 0 1-1c-1 0 0-1 1-1 2 0 3 3 1 4-2 0-2 5-1 5s1 1 0 1c-1 1-1 2 0 3 2 1 2 1 0 3-1 0-1 1 0 1s1 0 1 1c-1 0-2 1-2 1-1-1-1 0-1 0 1 0 1 1 1 2s0 1-1 0c-2-2-2-4 0-5 1-1 1-1-2 0-2 0-3 0-3-2-1-1 0-2 0-2 1-1 0-1-1-1s-2 0-2 1c1 2 0 2-2 0-2-1-2-1 0-1 1 0 2-1 3-3s1-3 2-3c0 1 4-1 4-2 0 0-1-1-2 0-3 0-6-2-4-3s6-1 6 1zm123 4c2 2 2 2 1 3s-2 2-3 2-5 6-5 7-1 3-3 5-2 2-1 0c0-1 0-2-1-2s-1 0-1 1c1 0 0 1-1 1-1 1-1 2-1 3 1 2 1 2-1 2-2-1-3-2-4-5l-1-5v4c0 5-2 9-2 5-1-12 1-22 2-21 1 0 1 1 1 2 0 3 2 3 4 1 3-2 3-3-1-3-2 0-2 0-1-1 2-3 15-2 18 1zm-31 3c1-1 1 0 0 3 0 4 0 4 1 2 1-1 1-3 1-5s0-2 1-1c2 2 2 3 0 7-1 5-3 7-3 3 0-2 0-2-1 0-1 1-2 2-2 3 0 2-1 3-3 3-4 0-7-1-7-3 1-2 5-3 7-1 1 1 1 1 1-1 0-1 0-4 1-5 0-2 0-2-1-2-1 1-1 1 0-1 1-1 1-2 0-2s-1 0-1-1 1-1 2 0 3 1 4 1zm-48 6c0 1 1 2 2 2s2 1 3 2c2 3 2 6 1 6s-1 1-1 1c0 1 1 1 2 1 5-2 6-2 7-1 0 1-2 1-4 2-6 2-9 4-9 7-1 3-3 2-3-1 0-2 1-3 1-2 1 0 1-1 1-2s0-1-1 0c-3 2-5 1-5-2 0-1 0-2 1-2 0-1 1-2 1-4 1-2 2-3 3-3s1 0 0-1-2-2-2-3c1-1 3-1 3 0zm-30 3c-1 2 0 2 1 2 3-1 5 6 3 7l-1 1c1 0 1 1 0 2s-2 1-3 0c0-1-2-1-3-1-3 1-7-2-7-5 1-1 2-1 3-1 1 1 6-2 5-3 0-1 1-3 2-3v1zm119 10c3 1 4 5 1 5l-1 1c0 2-19 8-20 7s4-5 6-4 6-1 10-5c2-2 2-2 0-2-2 1-2 1-2 0 1-1 0-2-1-2-2-1-1-1 1-1s5 1 6 1zm-177 12c1 0 1 2 1 3 1 1 1 2 1 3 1 2 1 2 0 1-1-2-2-3-2-3 0-2-4-3-7-1-3 1-3 4 0 4 1 0 1 0 0 1 0 0-1 1 0 1 0 1-1 1-1 1-3 0-2 2 0 2 1 1 1 1-1 1-3 0-1 2 3 2 2 0 3 0 3 1s-1 1-4 0c-2 0-3 0-3 1 1 0 0 1-1 2-2 0-2 0-1 1 2 2 1 3-1 2-3-2-4-1-3 1 0 2 0 2-1 1-2-1-2-1-2 1 0 1 0 1-1 0 0-1-1-1-2 0s-2 1-3 1c0-1-1 0-2 1 0 2 0 2-1 1s-2-1-4 1c-1 2-2 3-2 2 0-2 3-7 6-9 6-4 12-10 13-16 2-5 4-7 7-8 2-1 7 1 8 2zM27 232c0 1-1 3-2 5s-1 4-1 4c-2 4-4 7-4 4 0-1-2-2-5-2-3-1-4-2-4-3s0-2-1-2-1 0-1-1 1-1 1 0c2 0 4-3 4-4 0-2-2-1-2 1-1 1-1 1-1-1s4-4 7-4c1 1 2 1 2 0 0-2 1-2 4 0l3 3zm136 12c17 8 44 14 63 14 8 1 17-1 24-3 4-1 9-2 11-3 2 0 6-1 9-2 5-2 8-2 6 1-1 3-1 6 0 7 1 0 2 2 3 3 2 3 2 4-6 7-11 4-13 4-16 3-2-1-3-1-4 0-2 1-6 1-8 0-1-1 0-4 3-7 1-1 1-1-1-1-1 1-2 0-2 0-1-1-7 1-9 3-1 1-4 2-8 3-8 1-7 0-8 1s-4 1-6 2c-3 0-5 1-5 1 0 1-12 0-16-2-2 0-4-1-5-1s-3-1-5-2c-1-1-6-3-10-5-9-5-10-6-8-7s-1-6-4-7c-4-2-9-6-9-8 0-1 0-1 11 3zm-88 23c2 0 3 0 3-1s0-1 1-1 1 0 1 1c-1 1-1 2 0 3 1 2 1 2 0 4-1 0-2 2-2 2 0 1-1 1-1 1-1 0-2 1-3 1 0 1 0 1 1 1 2-1 3 0 1 2-1 0-2 0-2-1s-1 0-3 1c-1 1-3 2-3 2-1 0-1-2 0-2s0-1-2-2l-4-2c0-1 0-1-1 0-1 2-2 0-2-4 1-3 5-6 7-6 1 1 2 0 3 0s2-1 2 0c1 0 3 0 4 1zM220 78c-2 1-1 2 1 2 4 0 8 0 8 1s-3 2-4 1c0 0-1 0-1 1-1 1-1 1 0 1 0 0 2 1 3 3 3 2 3 2 8 2 3-1 6-1 6 0 1 1 8 4 9 4s1 0 0-1-1-1 1-1h5c3-1 3-1 3 0-1 1 0 2 2 3 3 2 3 1 1-2s-3-3-6-3c-4 1-6 0-4-1 1 0-2-2-5-4-4-2-7-4-8-4 0-1-1-1-2-1s-1 0 1 1c2 3 0 2-8-1-7-2-9-2-10-1z" fill="#ccc"/></svg>