<svg version="1" xmlns="http://www.w3.org/2000/svg" width="600" height="400" viewBox="0 0 450.000000 300.000000"><path d="M3 1C2 15 3 21 5 18c0-1 1-1 1-1 1 1-3 7-4 7-3 0-3 17 0 17 0 1 1 1 1 2s0 1-2 0c-1-1-1-1-1 1s3 3 3 1c0-1 1 0 1 2v3c-1 0-1 0 0 1 1 0 1 1 1 2-1 0-2 0-2-1s-1-1-2-1c0 1 0 1 1 2 1 0 1 1 0 3-1 3-1 4 0 3s2-2 1-3c0 0 0-1 1-1 0 0 1 1 2 3s0 3-1 4-2 2-2 3 0 2-1 2-1 1 0 2c0 1 0 2-1 2 0-1-1 0-1 2 0 1 1 2 2 2 1-1 1 0 1 2s-1 3-1 3c-1 0-1 0 0 1 0 1 1 3 1 6v4l-1-4c-1-9-2-5-2 7 0 7 1 12 1 12 1 0 1 1 1 3s0 5 1 6c0 2 0 2-1 1-2 0-2 0-2 2 0 1 1 1 3 1 1 0 2 0 2 1s-1 1-2 1c-2 0-3 0-3 1s1 1 1 1c1 0 1 0 0 1S0 228 1 233c1 2 1 3 0 3-1-1-1 10-1 31v33h3c3 0 3 0 3-14 0-7 1-10 2-5l1 2v-2c0-1 0-2 1-2s1-1 0-2c-1-2-1-4 0-7v-5s0-1 1-1 1 0 1-1c-1-1-2-1-2-1-1 0-1 0 0 1 0 1 0 1-1 1s-1-1-1-2c1-1 0-2-1-2 0 0-1-1-1-3s0-3 1-3c0 0 1 1 1 3 1 2 2 3 3 3s0-3-1-4-1-2 0-2c1-1 2-2 1-2-2-1-1-6 1-12 2-4 2-4 1-1-1 7-1 9 2 10 4 1 6 1 6 2s0 1-1 1c0-1-1-1-1 0-1 0 0 1 1 1 3 1 1 3-2 2-3 0-3 0-1 1 3 1 3 4 0 7-1 0-1 2-1 2 1 2 0 2-2 0-1-1-2-1-2 0 0 0 1 1 1 2 1 1 2 3 2 4 0 2 0 4 1 4s1 1 0 2c-1 2-1 2 1 4 3 3 3 5 1 5s-2 3 0 4c2 0 3 2 1 2-1 0-1 0 0 1 0 0 1 1 1 2 1 1 1 1 1-1 0-1 0-2 1-2s1 0 1 1c-1 0 0 1 1 2s1 1 1 0c0 0 0-1 1-3l2-2v3c-1 1 0 3 0 4 1 1 1 1 0 2s0 1 3 1 5 0 5-1c1 0 2-1 4 0 2 0 6 1 9 1h5l-2-2c-1-2-2-4-2-6-1-1-1-4-1-5l-1-3 2 3c3 4 4 4 1-2-1-2-1-5-1-5 1 0 1-1 0-1-1-2-1-6-1-6 1 0 2 2 3 3 1 2 3 4 3 4 1 0 3 1 5 3l3 3-3-1c-2 0-5-1-6-3-5-4-3-1 2 6 5 6 5 7 2 5-1-1-2-1-2 0s0 1 1 1l4 2 4 2-5 1c-4 1-3 1 4 1h8l-1-4c0-3-2-5-3-3-1 1-1 1-1 0s1-2 1-2c1 0 2-3 1-12l-1-1c-1 0-3-1-4-2-2-1-3-2-4-2s-1 0-1-2c0-1 0-1-1 0 0 1-1 0-3-2l-2-4c0-1 6-1 7 1 1 1 1 1 0 1 0 0-1 0-1 1s1 1 3 1 3-2 1-2c-1-1-1-1 0-1s2-1 2-2l2-4c2-1 3-3 3-4 0-2-3-1-4 1s-1 2-1 1c-1-1-2-2-3-2s-1 0 0-1c1-2 1-5-1-5 0 1-1 2 0 2 0 1 0 2-1 2-1 1-1 0-1-2s0-5-1-7c0-3 0-5 1-5s0-1-2-2c-4-1-5 0-3 2 1 1 2 2 1 3 0 2 0 2 1 0 1-1 1-1 1 3s0 4-2 2c0-1-1-2-1-3s-1-3-2-5l-2-4 2-2c2-1 5-3 8-5 4-2 6-4 6-5s0-1 1 0 1 1 0 2c-1 2-1 5 3 13 0 1 0 2-1 2-2 0-4-5-4-9 0-2 0-3-1-3-2 0 1 14 3 14h3c2 0 3 2 4 3 1 2 1 2 2 0 3-2 5-3 5-1 1 1 1 1 1-1 0-1 0-3 1-3 0-1 0-2-1-2-2 0-1-1 1-5 3-5 3-5 6-4s6 5 6 8c0 2 0 2 3 2 1-1 2 0 2 0 0 1-1 1-2 1-2 0-2 0-2 4 2 13 2 15 1 15-1-1-3-1-3-1-1 0-1-1 0-2s1-2 0-2c0-1-1 0-1 1-1 1-1 1-1-1 0-1 0-3 1-4s1-4 1-6c1-4 0-4-2-4-3 1-6 9-4 9 2 1-2 4-5 4-2 0-2 0-1 7 0 5 0 8 2 9 1 0 1 1 1 2-1 0-1 0-2-1 0-1-1 0-2 2 0 1-1 3 0 3l-2 4-2 3-1-2c-2-3-2-3-3-2-2 2-2 2 0 2 2 1 2 2 2 6-1 3 0 5 0 5 1 0 1 1 1 2-1 1 0 2 0 2 0-1 1 0 0 1 0 2 0 2 3 2 2 0 4-1 4-1 1-1 1-1 2 0 1 2 1 2 3-4 1-5 4-3 2 2-1 6 3 3 6-3 1-3 2-2 1 2 0 4 0 4 3 4 1 0 2 0 1-2 0-1 0-1 1 0 1 0 2 1 2 1 0 1 1 1 3 1 1 0 2 0 1-1l-1-1c0-1 1-1 2 0 2 1 13 2 13 1-1-2 1-2 2-1 2 3 20 3 24 0 2-1 4-2 4-1 1 0 0 1-1 2s-1 1 2 1 4 0 3-1c-2-4-1-5 2-3 2 0 3 2 3 3 1 2 9 1 10-1 1-1 1-2 1-3-1 0 0-1 0-1 1-1 1-1 0-2-1-2-1-3 0-3 2 1 5-2 5-6 1-2 1-2-5 4s-8 7-7 5c1 0 0-1-2 0-3 0-4 0-4-1l1-1c3 0 9-4 11-8 4-5 3-5-4 0-3 3-6 5-7 5-2 0-2 1-2 4 0 2 0 3-1 2-1 0-1-2-1-4 1-4-1-5-5-2-3 2-4 2-4 1s2-3 4-4c4-2 4-2 6 0 1 2 3 2 9-3 2-2 5-4 6-5s1-1-2-1c-5 0-5 0-5-5v-10c0-4 0-8-1-9-1-2-1-2-1-1s0 2-1 2c0-1-1 0-2 1-2 2-2 2-3 0-1-1 0-2 3-4 3-1 4-2 4-1s0 1 1 0c2-2 3-1 3 1-1 2 0 4 2 6s3 4 3 5c-1 0 0 1 0 2 1 1 2 2 1 3 0 2 0 2 1 1 1 0 2-1 2-1 0-1 1-3 2-4l2-3v4c0 2 0 3 1 3s1 2 0 4c-1 1-1 1 1 1 1 0 1 0 0 2-1 1-1 3 1 2 0-1 1-5 1-10 0-7-1-8-2-7-2 0-2 0 0-5 1-3 2-5 2-4 2 2 7 19 7 21-1 2-4 3-4 0 0-2-1-1-2 1 0 5-5 17-7 18-2 0-2 1-1 1 1 1 1 4-1 7 0 2-1 3-1 4h10c5 0 9 0 9-1-1 0-1-1 0-1 1-1 1 0 1 1s0 1 2-1c2-3 3-3 5-2s3 3 1 3c-1 1 0 1 3 1 5 0 5-2 0-4-2-2-5-2-8-2-5 1-6 0-4-2s2-2 4-2c1 0 1 0 0-1-2-2 0-7 4-11l3-2 3 2c1 1 3 2 3 2 0-1-2-3-4-4-1-1-1-1 0-1 0 0 1-1 1-2 0-2 3-7 3-6 0 0 0 1 1 2v5c1 1 1 3 2 3l2 4c0 3 0 3-4 3h-4l4 1c4 0 6 1 8 4 2 2 3 3 3 2-1-1 0-3 1-5s2-3 2-4 4-6 4-5-1 4-3 7-3 6-2 6c0 0 1-1 2-3s2-3 2-3l2-6c1-5 2-6 3-5 1 0 1 0 0-2-1-1-2-2-1-2 0 0 5 4 9 9 5 5 9 9 9 8 0 0 1 0 0 1l1 1c1 0 1 2 1 5l1 3-1-3c-2-5-3-5-5-2-1 2-1 2-1 1 0-2 0-2-2 0-1 1-1 1-1-2 1-3 1-3-1-2-2 2-2 2-2-3 1-5 0-6-1-7-2-1-2-1-2 2s0 3 1 2 1-1 1 1c0 1 0 2-1 2 0 1-1 2 0 3 0 2 0 3-1 3 0 0-1 1-1 3 0 1 0 3-1 4-1 2-1 2 8 2 6 0 9-1 10-2 3-1 4-1 3 0 0 3 17 3 18 1 1-1 1-1 2 0 0 1 45 1 46 0 0-1 0-1-1-1s-1-1-1-2c0 0 0-1-1 0-1 0-1 0-1-1 1 0 1-1 0-1s-1-1 0-2c1-2 3-3 3 0 0 1 0 3 1 4l1 2v-2c0-2 0-2 2-1 1 1 1 2 0 2s-1 1-1 2 2 1 11 1 11-1 11-2c0 0 0-1 1-1s1 1 1 1c0 1 1 2 2 2l1-1c0-1 0-1 1 0 1 2 32 1 32-1 0-1 0-1 1-2 1 0 1 0 1 2-1 2-1 2 3 2 3 0 5 0 5-1s1-1 2 0c3 1 4 1 7-5 4-11 6-17 5-19-2-1-3-3-1-3 1 0 1 1 1 2 0 3 2 0 3-6 1-4 3-8 5-11 1-2 2-5 1-5 0-1 1-2 2-3s1-1 0-1c-2 0-2 0-1-1s1-1 0-1c0 0-1-1-1-2l-3-3c-3-1-3-1-1-3 1-1 2-3 2-3 0-5 9 0 9 4 0 2 1 1 4-4 6-13 11-17 18-17 1 0 2-1 2-6 0-4 0-6-1-6-1 1-1 1-1 0s-1-2-2-3c-1-2-1-2 0-2s2-1 1-1c0-1-1-2-2-2 0 0-1 0-1-1s1-1 2-1 1 0 0-2c-1-1-2-2-2-1s-1 0-1-1c-1-1-1-2-2-2s-4-1-4-2 1-1 2-1c1 1 2 1 2-1 0-1 0-1 1 0s1 1 0 2c-1 0 0 1 1 2 2 0 4 3 5 5l2 4v-8c0-9 0-9-2-8-2 2-2 2-5-1-2-2-4-3-5-3s-2 0-3-1c0-1 1-1 3-1 3 0 4 1 4 2s1 0 4-2c4-3 5-5 2-9-1-3-1-3 0-3 2 0 2-3 2-17 0-16 0-17-1-12-1 3-2 5-2 4-1 0 0-5 1-9 1-5 2-12 2-15v-7l-2 2c-3 2-4 5-2 4 1-1 1-1 1 0s-3 1-4 0c0-1 1-3 3-5l4-3V53c0-35 0-53-1-52s-1 1-1 0c0-2-5-1-5 1-1 1-1 1-1 0 0-2-1-2-8-2-8 0-9 0-9 2 0 1 0 1-1 0-2-3-4-2-6 0s-2 3-5 2c-3 0-4 0-4 1s0 1 1 1h2c1 1 3 1 4 0 3-1 3 0 1 2s-6 2-6 0c0-1-1-1-2 0-1 2-1 2-1-3 1-3 1-5 0-5 0 0-1 3-2 7 0 3-1 7-1 8-1 1-1-8 1-13 0-2 0-2-2-2s-3 1-3 1c-1 1-1 1-2 0 0-2-2-1-2 1 0 1 0 2-1 2s-1 0-1-1c1 0 1-1 0-1s-1 0 0-1 1-1-1-1h-3v7c1 3 1 8 2 10 0 3 0 3-1 2 0-1-1-4-1-6V8l-1 4c0 4-1 5-4 5s-4 1-4 2c0 2 0 2 1 1 2-1 2-1 3 2 0 3 1 4 1 3 2-1 7-1 6 0 0 1-1 2-3 2-1 0-2 0-3 1 0 1 0 1 1 0 2 0 2 1 2 3s-1 3-1 2c-1-2-2 0-1 2 1 4 1 5 0 5s-1 1-1 2c1 1 0 2 0 2-1 0 0 1 1 1 2 1 3 5 1 8 0 3-2 2-2 0 0-1 0-2-1-2s-1 0 0 1c0 1 0 2-1 2-1 1 0 2 2 3 1 1 2 2 1 2-2 1-3 1-2 0 0-1 0-1-1-1 0 0-1 0-1 1-1 1-1 1 0 1 2 0 1 13-1 17-1 3-2 5-1 5s1 1 0 1c0 1 0 1 1 1l2 6c1 9 1 8-1 9-2 0-3-3-1-4 1-1 1-1-1-3s-3-4-1-2c1 0 1 0 1-1l-2-2c-3-1-4 2-4 9 1 4 1 6 0 5 0 0-1-1-2-1s-1 0 0 1c1 2 1 5 0 9v5c0 1-1 1-2 1s-1-2-1-6c0-6 2-22 3-28 1-2 1-6 1-9 1-5 3-10 4-9 0 1 1 0 2-2l2-2h-2c-3 1-3 0-2-2 0-1 1-3 2-4s1-1 0-1c-2 1-3 0-1-2 1 0 1-1 1-3 0-1 1-2 1-3 2 0 2-3 1-3s0-5 2-9c1-2 2-3 2-4-1 0-5 7-5 8 0 0-1 1-1 3-2 1-2 0-1-9 0-6 0-11 1-12 0-1 0-2-1-3s-1-3-1-8l1-8h-45v3c0 1 0 2-1 2s-1-1-1-3c1-1 1-2 0-2s-1 1-1 2c0 2-1 4-2 7 0 2-1 4-1 5 1 1 0 2 0 3-1 0-1 1-1 2 1 0 0 1 0 2-1 0-1-2 0-7 0-4 0-6-1-6-1 1-3-5-1-7 0-1 0-1-2-1-1 0-2 1-2 3v6c0 3 0 5-1 5 0-1-1-2 0-3 0-2 0-2-1-1 0 1-1 1-2 1 0-1 0-1 1-2 1 0 1-1 0-3-1-1-1-2 1-3 0 0 1-1 1-2s-2-1-2 0c-1 1-1 2-2 2s-1 0 0-2c1-1 0-1-6-1-5 0-8 0-7 1 0 1 0 1-1 1 0 0-1 0-1-1-2-2-6-1-6 1l-1 2V2c0-2-1-2-3-2-3 0-3 0-2 5 0 3 0 5-1 4 0-1-2-1-2 0s-1 2-1 2c-1 1-2 0-2-1l-1-1c-1 0-2 1-1 1 0 1-1 4-1 7-3 8-2 9 1 3 2-4 4-6 7-8l4-2v3c0 5 1 5 4 4 1-1 2-1 2 0 0 3 3 4 3 2 1-2 1-2 2-1s1 1 1 0c0 0 1-1 2-1s1 0 0-3-1-3 2-2c4 2 5 4 6 11 0 6 0 6-5 6-2 0-2 0-2 4 1 2 0 4 0 4-1 0-1 3 1 4 1 1-2 3-3 2-1 0-2 1-3 1-2 1-2 1-3 0 0 0-1-1-2 0-1 0-1 1 0 2 2 2-5 0-7-2-2-1-2-2 1-2 2-1 2-1-2-1-3 0-4 0-5-1 0-1 1-1 3-1 2 1 3 0 3-1-1-1-1-1 0-1 1 1 1 1 1 2s4 2 5 1c0-1-1-2-2-2-4-2-4-3 0-3 3 0 5-2 4-6-1-3-3-4-4-2 0 1-1 2-1 1-1 0-2 1-2 1-1 2-1 2-3 1s-2-1-3 0c0 0-2 1-5 1s-5 0-6 1c-1 2-1 2 1 1 2 0 2 0 1 1-1 2-1 2 2 3s3 1 1 1c-1 1-3 1-4 0s-1-1-2 0c-2 2-3 5-1 5 1-1 2 1 1 2 0 1-1 0-3-1-2-2-3-5-1-5 1 0 1-1-1-2-1-1-1-1 2-1l4 1-4-2c-3-1-4-4-1-5 1-1 1-1 1 0-2 4 1 2 3-3 5-8 8-21 5-14-1 1-2 2-2 1 0 0-1-1-1 0-1 0-2-1-2-2-1 0-1-1-2-1-1 1-1-5 0-8s1-3-1-3c-3 0-4 5-4 12 1 4 0 5-2 3-2-1-2-3-2-7 1-4 0-5-1-6-1 0-1 0 2-1 2-1 1-1-3-1-5 1-9 3-4 3 4 0 4 1 0 3-2 0-3 0-5-1s-2-1-1-2c1 0 2-1 2-1 0-1-1-1-2 0 0 0-2 0-2-1-1-1-1-1-2 0 0 1-1 1-1 0 0 0-2-1-3 0-2 0-2 1-1 2 1 0 1 1 0 2 0 1-1 1-2-1-1-1-1-2 0-3s1-1 0-1c-2 0-2 3-1 5s-1 5-2 3l1-1c1 0 0-1-1-2s-2-1-2-1c-1 0-1-1-1-2 1-2 1-2-3-2s-5 1-2 2c1 1 1 1 0 2-2 1 1 17 3 16 1 0 2 0 2 1s0 1-1 1c0 0-1 1-1 2s0 1-1 2c-1 0-1 0 0-2 0-1 0-1-1 0 0 1-1 1-2 1-1-1-1-1 0-2s1-1 0-2c0-1-1-1-2-1-1 1-1 6 0 6 0 0 1 1 1 2 1 2 4 3 4 1 0-1 1-1 2 0 2 2 3 5 1 5 0 0-3 2-5 3l-5 4v-7-10c-1-3 0-4 2-5s3-2 2-2c-1-1-1-2 0-2 0-1 0-3-1-6l-1-5-3 3-2 3-4-2c-4-3-4-4 0-3 2 1 3 0 5-1 1-2 2-3 3-3 1-1-9-1-22-1-22 0-25 0-26 2-1 1-1 1-1 0 1-2 0-2-3-2s-3 0-2 1l2 2c0 1-1 1-1 0-1-1-3-1-3-1-1 1-3 0-4-1-5-2-7-1-7 2 1 3 1 3-1 2 0-1-1-2-1-3 1-1 0-2-11-2-7 0-12 1-11 1 0 1 0 1-1 1-1 1-1 0-1 0 0-2-4-2-33-2-33 0-33 0-32 2 0 2 0 2-2 1-2 0-3 0-2 2 0 2 1 3 3 2 4 0 5 2 1 4-2 1-3 2-3 3s0 1 2 0c1-1 2-2 3-2l1-1c0-1 1 0 2 1 4 4 9 2 10-3 1-3 1-4 4-4 2 0 7 4 7 6s-2 2-3 1-1-1-2 0c0 0-1 1-1 0-1 0-5 4-5 6 0 3-1 3-4 1-3-1-9 0-9 2 0 1 2 1 3 0 1-2 5-1 5 1 0 1 0 1 1 2 0 0 1 0 1-1 0 0 1-1 2 0 2 0 1 2-1 2-2 1-7-1-6-3 0-1-1-1-1 1-1 1-2 2-4 1-3 0-4-1-2-2 1-1 0-5-2-6h-1c-1-1-5 0-6 1s-1 1 0 1 1 0 1 1c-1 1 0 2 0 3 1 1 2 3 2 4 0 2 0 2-2 1 0-1-1-2-1-2-1 1 1 7 2 7s1 1 1 1c0 1-1 1-3 0-3-3-3-2-2 2 1 3 1 4 0 5s-1 1-1-1l-2-2c-1 0-1-1 0-3 0-1 0-3-1-4s-1-1 0-2c1-2 1-9 0-8-1 0-1-1-2-3s-1-3 0-3c1-1-3-5-4-5-2 0-1 7 0 10 1 1 1 2 0 2 0 0-1-1-1-2-1 0-2-1-2-1-3 0-5-3-3-4 1-1 1-1 0-1-2 0-1-2 2-2 2-1 3-2 0-5-1-1-1-1-1 1 1 2 0 2-1 2-1-1-1 0-2 2 0 3-3 5-3 2-1 0-1-1 0-1s1-1 1-2 0-2 1-2 1-1 1-2c-1-2 0-5 1-3 1 1 1 1 3-1l2-2H34c-8 0-10 0-9 1 0 1 0 2-1 2s-1-1-1-2-1-1-4-1c-4 0-4 0-4 4-1 2-1 5-2 7-2 3-2 3-1 0 1-6 1-11-1-11-1 0-1 1 0 3 0 3 0 3-3 3-4 0-4 0-3-3 1-2 1-3-1-3L3 1zm182 6c2 1 2 2 1 3s-2 3-2 6c1 4 1 4-1 2-1-1-4-2-5-3-4-1-5-4-4-6 0-2 1-2 2-1s1 1 2 0c0-1 1-1 2-1 1 1 1 0 2 0 0-2 1-2 3 0zm-22 2c0 2-3 6-6 6l-1 1c-1 1-1 1-2 0s-1-1-1 0c0 2 0 2-1 1s-1-1-2 0-1 1-2 0c0-1-2-1-2 0 0 3-4 5-6 4s-2-2 0-4c1-1 1-2 0-2l-1-1c0-1 1-2 2-1 1 0 2 0 2-1s0-1 1 0 2 2 3 1c1 0 2-3 0-3h-4c-3 0-3 0-1-1 1-1 2-2 2-1h5c2 0 4 1 4 2 0 0-1 1-2 0-1 0-2 0-2 2 0 1 0 1 1 0s1-1 1 0c0 2 4 1 6-3 4-4 5-4 6 0zm170 9c0 5-1 10-1 10-1 1 0 1 1 1 1 1 0 1-2 1-5 0-3 2 2 2 1 0 3 1 4 2s2 2 3 2c0-1 0-2-1-3-1 0-1-1-1-2 0 0 5 4 10 10 4 5 10 11 11 12 2 2 3 4 3 5 0 0 1 2 2 2 1 1 2 2 1 3-2 1-3 1-3 0 1-2-20-28-22-27 0 1 1 2 2 3 2 2 2 2-1 2-2 1-4 0-4 0-1-1-1-1-2 0s-1 1 0 1 2 0 2 1-1 1-2 0c0 0-2 0-2 1s-2-1-6-5c-3-5-5-7-4-7 1-1 1-1-1-1-4 0-2-2 3-2l5-1 1-7c1-3 1-7 1-8 0-3 0-5 1-5v10zm-69 5c3 2 2 8-2 9s-4 3-1 4c4 0 5 4 2 6-2 2-3 2-5-2-1-3-2-6-2-7v-3l-1 3c0 2 0 2-1 1l-1-1c-1 0 0 2 1 3 2 3 2 8 0 9-1 1-1 1 0-2 0-2 0-4-1-4-1-1-1 0-1 1s-1 1-2 0h-7c-3 0-4 0-4-1s-1-1-1 0l-2 2c-1 0 4-9 5-11 1-1 2-2 2-3 0 0 0-1 1-1s1 1 0 1c0 2 4 4 5 2 1-1 1-1 3 0 3 1 8 0 9-2s1-2 0-2-2-1-1-2c0-2 1-3 4 0zm147 3c0 1 1 3 2 4 2 2 2 4 0 6-1 1-2 2-1 2 0 1 0 1-1 1 0 0-1 2-1 6 0 5-1 6-2 7-1 0-1 0 0-1 1-2 1-2-1-2l-2 1 2-2c2-2 2-2 1-3s-1-1 0-2c1 0 1 0 0-1s-1-1 0-1 1-1 1-3-1-3-3-3-3 1-2 1c1 1 1 1-1 0-2 0-2 0-1 1 1 0 0 1-1 2-4 2-5-2-1-4 2 0 3-1 3-2s-1-1-4 1c-1 1-2 1-2 0 0 0 0-1 1-2 1 0 1-1 1-2-1-1 2-2 3-1 1 2 5-1 5-3-1-1 1-2 3-2 0 1 1 1 1 2zm-308 8c1 2 2 4 2 5 0 2 0 3 1 4 2 2 3 9 2 11-1 3-2 4-2 1 1-1 0-2 0-3-1 0-1-1-1-2s0-1 1 0 1 1 1 0 0-2-1-2-1-1-1-3c0-4-2 0-2 6-1 5-1 5 1 6 2 0 3 2 0 3-2 1-6 0-8-4-2-2-3-3-3-2-1 1 0 2 1 2 0 1 1 2 1 3 0 0 1 1 2 1s1 0 0 1c0 1-2 1-4 1-3 0-4-1-4-3v-4c-3-2 0-5 3-3 1 1 1 1 1-1-1-2 0-3 2 0 2 1 2 2 2 4 0 1 1 1 2 1s1-1 1-2c-1-1 0-2 1-4 2-3 1-5-2-5-1 0-2-1-2-2s0-1-1-1c-1 1-1 1-1 0s-1 0-1 1l-2 2c-1 0-1 1 0 2 0 1 0 1-1 0 0-1-1-1-2 0-1 2-2 2-4-1-2-2-2-2-1-4 3-2 2-2-1-5s-4-5-1-6c2-1 2 0 3 5 0 2 4 1 6-1s3-3 2-4c-1-3 7-1 10 3zm-53 3c3 3 4 5 3 7-1 0-1 2-1 4 1 2 2 2 2 0 1-4 2-7 3-7s0 5-2 8c0 1-1 3-1 5 0 1 0 2-1 1-1 0-1 0-1-1 1 0-3-5-5-5 0 0-1 0-1-1-1-16-1-16 4-11zm150 4c1 0 2 1 3 3 0 2 1 4 2 4 3 0 8-2 8-4 0 0 0-1 1-1s2 2 2 4c0 1-6 3-9 3-2-1-2-1-1 0 1 2 1 3 0 2-1 0-1 0-1 1s-1 0-3-2c-3-3-3-3-3-2 0 2-1 1-1-1-1-2-2-4-2-5-2-1-1-3 0-2h4zm37 3c0-1 1 1 0 3 0 3 0 4 2 7 2 2 3 3 2 3l-2-2c-1-1-7-2-7 0 0 0 1 1 2 1s2 1 3 3c2 3 2 3 0 5-1 1-2 2-3 1s-2-1-3 0v-1c1-1 0-2 0-2-1 0-1-1 0-1 3-2 2-3-1-3-2 1-2 1-2-2 1-2 1-3 0-3s-1 1-1 4c0 1 0 1-1 0l-2-2c1 0 0-1 0-2-2-2 2-5 7-6 3 0 4-1 4-3 0-1 0-2 1-1l1 1zm55 6s-1 0-2-1c-4-3-5-2-2 0 2 3 1 9-2 9l-1 1c0 1 1 2 2 1 1 0 1 0 0 1 0 1 0 2 1 2 1 1 1 2 1 3 0 0 1 3 2 5 2 2 3 4 2 4-1 1-6-6-6-9 0 0-1-1-2-1-2 1-2-9-1-18l1-4 4 3c2 2 4 4 3 4zm52-6c1 1 1 1 1 0s0-1 1 0 2 2 1 2c0 1 1 1 2 1s1 0-1 2-2 2-3 1-2-1-2 0c-1 1 0 1 1 1 0 0 1 0 1 1-1 2 1 5 4 5 1 0 2 0 2-1s4-1 5 0c0 1 0 1-1 1-1-1-2 0-2 1 0 0 1 1 3 1 1 0 2 0 3 1 0 1 0 1-1 1s-1 1 0 1c0 1 0 1-2 1-1-1-2 0-2 0-1 1-1 1-3 0s-2-1-1-1 2 0 2-1c0-2-3-1-4 0-1 2-1 2-3-1-1-1-2-3-1-3 0-1 0-1-1-1-1 1-1 1 0 0 0-1 0-3-1-4-2-2 0-4 3-4 2 0 2-1 0-2-2 0-4-1-4-2s1-1 3 0zM22 52c3 5 4 27 1 25-1 0-2 1-1 5 1 3 1 8 1 10 0 3 0 5 1 5 0 1 0 1-1 1s-2 0-2 1v3c-1 3-4 7-6 7-1 0-1 0 1-2 1 0 2-2 2-3s1-3 2-6c0-2 1-4 1-5-1-1 0-2 0-2 1 0 0-10-1-12-2-2-2-6-1-6 1 1 1-1 1-3v-9c1-1 1-2 0-2s-1 1-1 1c0 1-1 2-3 1-1 0-2-1-2-2 0-2-1-2-2 0-1 1-2 1-3 1s0-2 2-4c5-5 5-5 2-5-2 1-3 0-1-1 1-1 2-2 1-3v-2l3 2c2 1 4 3 6 5zm405-3c-2 1-1 1 3-1 1-1 2-1 3-1 0 1-1 1-2 2s-2 2-3 2c-1 1-3 3-5 4-2 2-4 7-2 5 1 0 1-1 1-2l2-2c2-1 2-1 1 1 0 1 0 1 1 0s1-1 2 0c0 1 0 2-1 3-1 0-2 1-1 1 0 1-3 8-4 8 0 0 0-1 1-2 0-3-1-2-3 1-1 3-1 3-2 2s-1 0-1 2c1 2 0 4 0 5-1 0-1 1-1 2 0 2-3 7-4 7 0-1 1-2 1-4 3-3 2-4-1-1-1 1-2 2-2 1s1-3 3-4 3-3 2-3c0-1-1-1-2 0s-1 1-1 0 1-2 1-2c1 0 1 0 0-1s0-3 4-11c6-10 10-17 11-15 0 1 0 2-1 3zm9-1c-2 2-3 4-1 2 1-1 2-1 4 0 1 1 1 1-2 1-4 1-4 3 0 2 3 0 3 0 2 1s-1 1 1 0c2 0 2 0 1 1-1 0-1 1 0 1 0 0 0 1-1 1-1 1-2 2-2 3s0 1 2 0c2-3 2-2 0 2-1 1-2 2-3 2 0 0-1 0-1 1 0 2 3 1 6-1 2-2 4-2 3 0-2 3-7 4-10 3-1-1-3-2-3-1-1 0-1 0-1-2 2-5 2-7 0-8-1-1-1-1-1 0s0 1-1 1c-2-1 5-11 7-11 1 0 1 1 0 2zm-213 7c0 4-2 11-3 12s-1 1 0 1c3 0 5 4 4 9l-2 4c-1 0-1 1-1 2 0 2-3 3-9 3-3-1-5 0-6 0-1 1-1 1-1 0v-3c-1-1-1-2 1-4s2-2 4 1c4 3 5 3 7 0 2-2 2-7-1-10-1-2-1-2 0-2 2 0 6-11 5-14l1-1c1 0 1 1 1 2zm27 8c-1 1-2 2-2 1-1 0-1 0-1 2 1 1 1 2 0 2 0 1-1 0-1-2-1-3-3-3-3 1 0 1 0 2-1 2-1-1-3 0-4 2-1 1-2 4-4 5-1 1-2 2-1 2s6-4 7-6c1-4 3-2 2 2 0 4-3 8-3 5 0-1 0-2-1-1-1 0-1 1-1 2 1 1 1 1-4-1l-5-1 2-2c3-2 7-6 10-11 1-3 3-4 4-4 0 1 2 0 3-1 3-2 4-1 3 3zm7-4s1 2 1 4l2 4 1-3c1-2 2-3 2-2 0 2 1 2 2 2 1-1 2 0 3 0 1 1 2 1 3 1l1 1c0 2-1 2-3 1-3 0-3 0-2 1s1 1-1 1-4 1-6 2c-2 0-3 1-3 0s0-1-1-1c0 1-1 2 0 2 0 1-3 4-7 7-3 4-7 7-7 8-1 2-1 2-1 0 0-3 2-7 8-12 5-4 5-5 5-7-1-2-1-3-2-3-2 0-1-2 1-4s4-3 4-2zM61 63c7 8 9 14 4 14-1 0-1-2 0-2 2-1-2-9-4-9s-2 4-1 10c2 6 2 7-3 9-3 1-5 1-6 2-1 0-1 0 0-1 3-3 7-10 4-7-2 1-2 1-2 0s-1-1-3-1c-3 1-3 3 1 2 2 0 2 0 1 2-2 2-1 2-15-5-7-4-8-4-5-1 0 2 1 4 1 5-1 2-1 2-4-1l-3-3 1-4c2-2 4-5 6-7l4-2 2 2c2 2 2 2 1 3s0 1 2 3 3 2 4 1c0-1 1-1 2 1 2 1 2 1 2 0s1-3 2-4c0-2 1-5 1-6 0-4 0-4 2-4s4 1 6 3zm40 2c2 3 1 5-1 3s-2-2-2 2c1 2 1 5 2 5 1 1 1 1 1 0-1-3 0-3 2 1s3 7 1 5c-2-1-2 0-4 4-3 6-3 6-2 5 1 0 1 1 1 3s1 5 1 7c1 3 2 5 1 5-1 1-1 2 0 3 1 2 1 3 0 3s-3-6-2-7c2-1 1-2-1-2-1 0-2 1-2 2l-2 2c-2 0-2-6 1-17 2-10 2-11 0-5-4 8-4 8-4 3 0-2 1-3 1-3 1 2 3-4 4-10v-6l-2 4c-2 5-4 4-4 0-1-3 0-3 4-5 2 0 4-1 4-2-1-3 2-3 3 0zm176 3s1 2 4 3c3 2 4 3 4 7 0 3 1 4 2 4h5c2-1 5-1 6-2 2-1 9-2 10-1 0 1-1 1-3 1s-3 1-4 2c-1 2-2 3-4 2-2 0-4 0-5 1s-2 1-3-1c-2-1-2-1-1 4v8c0 1 1 3 2 3 1 1 1 1 0 1s-2 0-2 1 0 1 1 0c1 0 1 2 0 7 0 5-3 6-3 1 1-4 0-4-2-3-1 0-2 0-2-1 1 0 0-2-1-3-2-1-3 0-1 2 2 1 0 3-1 1-1-1-2-1-2 0 0 0 1 2 2 2 1 1 2 2 1 2-1 1-2 0-3-1-2-3-2-4-1-4 1-1 1-1 0-3 0-2-1-4 0-4 0-2 0-2-1-1-2 0-2 0 0-4 1-3 2-21 1-19-1 1-1 1-1 0 1-1 0-2 0-3-1-1-1-1 0-2 2-2 2-2 2 0zm-144 2c0 2 5 3 7 2 0-1 1-1 1 0 1 1 0 1-1 1s-1 0 0 1 2 2 2 3c0 0 0 1 1 1 0 0 1 2 1 4 0 3 0 5 3 7l3 3-3-1c-3 0-3 0-2 2v4c-1 2-5 3-5 1 0-1 0-1-1-1s-1-1-1-2c1-1 1-2 0-2s-1-1-1-1c1-1 0-2-1-2-1-1-2 0-2 0 0 1-1 1-2 0-2-2-3-2-3 0 0 1-1 1-2 0-2 0-3 0-3 1s-1 2-2 2c-2 0-3 1-4 2s-1 1-2 0-1-1 1-1c1 0 1 0 0-1-2-2-2-2 0-4 1-2 1-2-1-3-3 0-3 0-2-2 1-1 1-1 0-1-1 1-2 0-3-1-2-3-1-5 3-7 4-3 4-2 4 1-1 1-1 2 0 2 1-1 1 0 0 1 0 0 0 2 1 2 1 1 1 1 0 2-2 0-1 2 1 2 1 0 2 0 2 1-1 0 0 1 0 2 1 1 4 0 4-3 0-1 1-1 2-1 1 1 1 1 1 0s0-2 1-3c1 0 1-1 0-1 0 0 0-1 1-3s1-4 1-6c-1-1 0-2 0-2 1 0 1 0 1 1zm130 4c0 1-1 3-2 4-2 2-3 5-2 11 1 2 0 4 0 5-1 0-1 1 0 1s1 2 1 3c-1 3-1 2-3-3 0-1 0-1-1-1-1 1 1 14 3 15 1 2 1 5 0 5-1-1-2 0-3 1-1 2-2 1-1-2s1-3-2-4c-3 0-3 0-1-3 1-3 1-3-2-4s-4-3-2-4c1 0 1-2-1-5-2-4-2-5-1-5s1 1 1 2 0 1 1-1 1-2 1 0 0 3 1 2c0-1 1-2 1-1 1 0 1-1 0-3-1-1-1-3 0-4s1-1 1 1c0 1 1 4 2 6l2 3-1-4c0-3 0-5 1-5 0 0 1-1 1-2 0-4 1-8 3-9 3-2 4-1 3 1zm59 13c3 0 3 0 4 1 0 2 0 2-1 1s-1-1-1 0 0 2-1 3c0 1-1 2-1 2 0 1 1 1 1 0 2-2 5-3 5 0 0 1 0 2 1 2 3 0 6 3 5 4 0 0 1 2 2 3 2 1 3 0 1-2-1 0 0-1 1-3 3-3 7-1 8 3 0 2 0 2 1 0 1-1 0-2-1-3l-2-2 2 1c2 0 3-3 1-5-1 0-1 0-1 1s0 1-1 1v-2c0-1-2-2-4-2l-3-1 2-2c2-1 4-2 6-2 3-1 5-1 5-2s1-1 2 0c1 2 1 2-1 2-1 0-4 3-4 4s1 1 2 1 2 0 2 1-1 1-2 0c-2 0-2 0-1 2 3 4 5 5 7 4 2-2 4-6 4-7s1-2 1-2c1 0 1 0 0-1-2-1-1-2 2-1l3 3c1 2 1 2 0 2-3-1-3 0-4 18 0 18 0 24-1 31v4l-1-6-1-6v6c-1 3-2 5-2 5-1 0-1-4-1-13 2-24 2-24 0-24l-2-2c-2-6-2-7-3-6s0 2 0 2c1 1 1 2 0 5-1 2-3 4-3 3-1 0 0-1 0-3 3-3 2-5 0-2-2 2-5 1-4-2 0-2-4-1-4 1-2 3-1 5 1 3 1-2 1-2 2-1 1 2 1 3 0 2-1 0-1 1-1 2s1 1 2 1c1-1 2 0 2 0-1 1-2 1-3 1-2 0-2 0-2 1 1 1 1 2 0 2s-1-1-1-2c0 0 0-1-1-1s-1 2 0 4c1 1 1 2-1 2-2 1-3 0-4-2-1-1-1-1-1 0 0 2-3 2-3-1 0-1 3-2 4-1 0 1 1 0 2-1 2-2 2-4 0-2-2 1-6 1-6 0s0-1-1-1-1 0-1 1v2c0 2 0 2-1 0s-1-2-2-1c-1 3-3 2-2 0 0-1 0-2-1-2-2 0-3-3-1-4l1-1c0-1-1-1-2 0-2 1-3 0-1-2 1-1 1-1-1-1s-3-1-1-3c1-1 2-1 3 0 0 1 1 1 1 0 0 0-1-2-3-3-3-3-4-3-4-1s-2 3-2 1c-1-1-1-1-1 0 0 2 2 6 2 4 0-1 2-1 2 0s-1 1-2 2c-1 0-2 1-1 1 0 0 1 1 1 2 0 2-1 3-1 2-1 0-1 0-1 1s0 1-1 0c-2-2-3 0-1 2 1 1 1 1 0 1-1-1-2-1-2 0s1 1 2 1 2 0 2 1c0 0-1 1-2 0-2 0-3 1 0 3 0 1 1 2 1 2 0 1-1 1-1 0-1-1-2-1-2 0 0 0 1 1 2 1 0 1 1 1 1 2s0 1-1 0c-1 0-2-1-2-1-1 0-1 0 0 1s-2 1-7 0l2-2c0-1 1-2 1-2-1 0 0-1 0-3 1-1 1-4 2-6v-4c1-2 1-2-1-2-1 0-1 0 0-1 2-1 4-2 4-5 1-3 5-6 7-6 3 0 2-2 0-4-1-1-3-2-4-1-2 0-2 0-2-1s1-1 2-1 2-1 2-1c0-1-1-1-2-1s-1 0 0-1v-4c0-1 2 2 4 6 3 7 4 7 7 7zm-160-4c1 0 2 2 3 3 1 3 1 3-1 3s-2 1-2 4c0 2-1 3-2 2h-3c-1 0-1-1-1-3 1-3 0-4-3-1-1 1-2 2-2 1-1 0 0-2 2-3 1-1 2-3 2-4-1-2 0-3 2-2h5zM60 95c-2 1-3 2-3 3s1 1 1 0c2-2 2-2 2 0 1 1 2 2 3 2s1 0 0 1c-2 2-2 2 0 4 3 1 3 1 5 0 1-1 1-2 0-2-1 1-1 0 0-2 1-1 1-1 1 0 0 2 0 2 2 1 0-1 1-1 2-1 0 0-3 3-6 7l-7 6-1-3c-1-2-1-4-1-4s-1-1-3-2-2-1-2 1 0 2-1 1c0 0-1-1-1 0-1 0-1-1 0-3 1-1 1-1 0-1s-2-1-3-1c-1-2 2-5 8-8 3-1 5-3 5-3 0-1 0-1 1 0 0 1-1 2-2 4zm25 3c5 4 7 8 3 8-1 0-1 0 0-1 1 0 1-1 1-2-1 0-1 0-2 1 0 1-1 0-1-2-1-4-2-3-3 0v3h-4c-5 0-8 3-8 9 0 3-1 4-2 4v-1c0-1-2-1-4-1-5 1-5 0 3-7 7-6 10-12 9-15-2-3 3-1 8 4zm56 12c1 0 2 0 2 1 0 0-1 1-2 1-3 1-4 3-2 3 1 0 1 1 1 2-1 1 0 2 1 3 1 2 0 3-2 1 0-1-1-1-2 0-2 1-1 2 2 3 1 0 3-1 3-1 1-1 1-1 1 0s0 1 2 0c1-1 1-1 1 0 0 2-2 4-3 4 0-1-2-1-3-1-1-1-4-1-5-2-2-1-4-1-4-1-2-1-2-4 0-4 2-1 3-4 1-4-1-1-1-1-1-2 1 0 2 0 3 2 1 1 2 2 3 2 0 0 0-1-1-2s-1-4-1-5c0-2 0-2 2-1 1 1 2 2 4 1zm187 7c2 1 3 3 3 3 1 2 0 5-2 5-1-1-2 1-2 3 0 1 0 1 1 0 1 0 2-1 3-1s2-1 2-4c0-2 0-4 1-4 0-1 5 5 4 6 0 1 0 1 1 1 2-1 2 0 1 2-1 1-1 1-2 0 0-3-4-1-4 2-1 2-1 3-2 3s-1 0-1 1c0 2-5 15-6 15v-5c0-4-1-5-2-5 0 0-1 0-2-1h-2c-1 0-2-1-2-3-1-2-1-2-2-1s0 2 0 3c1 0 0 1-1 1h-4c-2 1-2 1-2 0s1-2 2-2 1 0 0-1 0-10 1-10 1 1 1 2v5c0 3 0 3 1 1 1-3 3-4 3-2s3 3 3 2c1 0 0-1-1-2s-2-2-2-3 0-1 1 0c0 2 3 1 3-1 0-4 2-7 3-6 1 2 1-1 0-3s1-3 5-1zm-255 9c-1 1-1 8 0 8 0 0 1 1 3 2 1 1 2 1 3 0 0-1 0-1-1-1s-1 0 0-1c1 0 3-2 5-4 3-4 6-4 9-1s5 6 3 8-1 1 3-1c2-1 4-3 4-4s0-1 1 0 1 1 1 0 0-1 1 0 5-1 5-3c0-1 0-1-1 0s-1 1-1 0 1-2 2-2 1 1 1 3c-1 2 0 5 1 6 1 2 1 3-2 4l-3 2h2c2 0 3 1 4 2s2 2 3 1c1 0 1 0 0 1 0 3 1 2 4 0 1-1 3-2 4-2 2-1 2-1 1-3-2-2-2-3 0-5 1-2 2-2 5 0 5 3 5 5 2 10-2 3-2 6-3 13 0 10 0 9-3 8-2-1-4-1-4-1-1 1 3 4 5 4s3 2 1 2l-2 2c0 1-1 2-3 3-2 0-3 1-2 1s2 1 3 0c2 0 2 0 2 1-1 1-4 1-5 0-1 0-3-1-5-1s-5-1-6-2l-4-2c-1 0-2-1-2-1 0-1-1-3-2-4-4-5-5-12-2-10 1 0 1 1 0 1 0 2 6 7 7 6 1 0 1 0 0 1v1c1-1 4 1 4 2s-1 1-2 1c-2 0-1 1 2 2 1 0 2 0 4 1 1 0 1 0-1-2-1-1-2-4-3-5-1-2-3-4-5-5-3-2-5-6-5-12 0-2 0-3-1-2 0 1-3-1-3-3 0 0 0-1-1-2-1 0-1 2-1 8s0 8-1 8-1 1 0 3c1 1 1 1-2 1-4-1-6-3-6-4 0 0 2-4 5-9 4-10 5-12 2-10-2 2-7 4-7 3l4-2c3-2 4-3 2-5-1 0-3 2-5 4l-5 5c-1 0-3 0-4 1-6 2-8 1-8-6 0-6-2-10-2-5 0 3 0 3-1 2-1-2 1-8 2-10 1 0 1-1 1-2 0-2-1-2-2 1-2 3-3 4-3 3-1-1-1-1-2 0-1 2-2 2-2 1s1-2 3-4c4-3 4-4 1-3-2 0-2 0-1-1 2-1 3-2 4-2 0 1 1 0 2 0 0-1 1 0 2 2s2 3 1 4zm92-1c0 3-1 5-1 4-1 0-1 0-1 1 1 1 3 2 6 3 6 3 8 5 7 8 0 1 0 3 1 3 0 1 1 4 1 7 1 3 1 6 2 6 2 3 0 6-3 5-3 0-4-2-1-2 1 0 1 0 0-2 0-1-1-4-1-6 0-9 0-11-1-9s-2 6-3 10l-2 7-3-3-3-4v4c1 2 1 3 0 2-1 0-2 1-3 3 0 3 2 5 5 4 2 0 4 4 3 6-1 3-9-6-9-9 0-2 0-4-1-5s-1-1-1 2c0 6 2 9 5 11 4 2 2 3-2 1-2-1-3-1-4 0 0 1 1 1 2 2 4 1 2 2-2 1-5 0-7-1-4-1s2-5 0-6c-1-1-3-1-4-1 0 0-1 0-1-1 0 0 0-2-1-3 0-1 0-1 1-1 0 1 1 1 1 0 1 0 0-1-1-2s-1-2-1-7c0-6 0-6-1-5-1 2-2 3-1 5 0 2 0 3-1 3 0-1-1-3-1-5-1-2-2-5-2-6-4-4-2-8 4-11 5-3 7-3 5-1-2 3 1 12 5 13 2 1 2 0 1-2 0-2 0-3 1-3 0 0 1 0 1 1s1 2 1 3c2 1 8-3 7-5-1-1-1-1-2 0-2 3-2 0-1-4 1-3 1-5 0-5-1-2-1-3 0-3 0 1 1 0 1-1 0-5 0-8 1-8 0 1 1 3 1 6zm229-1c0 1 1 2 2 4 2 1 3 3 3 3 0 1 1 1 1 0l2-2c1 0 0 1-1 3s-1 2 0 2c3-1 2 0-2 3s-5 5-2 4c1 0 2-1 2-2 0 0 0-1 1-1 2 0 1 2-1 4-1 1-3 2-5 4l-2 2-1-3c-1-1-1-2 0-3s1-1 1 0c0 2 2 3 2 1 1 0 0-1-1-1-1-1-1-1 1-3l2-1-3-3c-1-2-4-4-5-6-2-2-2-4 2-4 0 0 1 0 1-1 0 0 1-1 2-1s2 1 1 1zm-95 23c0 15-1 17-2 17s-2-1-1-8v-9l-2 7c-3 8-6 12-6 8 0-1 1-3 2-4 0-1 1-3 1-5s1-3 2-3c0-1 1-1 1-2s-1-1-1 0c-1 0-1 0-1-2 1-1 2-4 3-7 1-5 2-9 4-9v17zm57-2c3 2 3 6 2 8-1 1-1 5 0 5s1 1 1 2c-1 1 0 2 0 3 1 0 1 1 1 2s0 1-1 0c0-1-2 0-2 1s0 1 1 1c0-1 1 0 2 1 2 4 0 11-3 11 0 0-1 0 0 1 0 1 0 1-1 1s-1-1-1-2 0-2-1-2-1-1-1-2c0-2 0-2 1-1 1 2 1-2 1-10 0-6 0-11-1-10-1 2-10 2-10 0-1-1 0-2 0-2 2-1 3-1 3 0 0 0 1 1 2 1 2 0 3-2 1-2-1-1-1-1-1-2 1 0 1 0 2 1l1 1c1 0 1-1 0-2s-1-3 0-4c2-4 2-4 4 0zm67 4c3 3 4 4 5 3 0 0 1-1 2-1s1 0 0-2c-1-1-1-1 0-1l1 1c0 1 0 1 1 0 0-1 1-1 1 0 1 1 1 1 0 1s-1 0-1 1h4c2-1 4-1 4 0 2 1 4 0 4-2 0-1 1-1 1 0 2 2-2 5-7 4-4 0-4 0-5 2s0 3 2 4c1 1 2 2 1 2 0 0-1 1-1 2 0 0-1 1-2 1-2 0-2 0 1 3 3 2 6 4 7 5 3 1 3 1-1 0-4 0-5 0-5 1 1 0 1 1 0 1-2 0-2-2-1-3s1-1 1-2c-1 0-2 0-2 1-1 1-1 1-2 0 0-1-1-2-2-2s-2 0-1-1c0-1 0-1-1-1s-2-9-1-9c1-1 1-1 1-2-1 0-1 0-2 1 0 1-1 1-3-1-1-2-3-2-5-2-2 1-3 0-3-1-1-2 4-9 5-8 0 0 2 3 4 5zm-203 6v27c0 13-1 27-1 29-1 4-1 3-1-7 0-11 0-12-1-11-2 1-2 0-2-5 0-4 0-7-1-8-2 0-1-2 0-1 1 0 2 2 2 6 1 5 1 4 1-3 0-6 0-10-1-10v3c0 2 0 3-1 3-1-1-1-10 0-12 1-1 1-1 1 0 0 2 2-4 2-8 0-2-1-2-3 3s-3 6-3 5c-1-1-1-1-2 0s-1 1-1 0c0 0-1-1-3-1-3-1-1-4 5-6 2-1 5-3 6-5 3-3 3-3 3 1zm-149 9s-1-1-3-2c-2-2-2-2-2-1 2 5 2 5 1 4-1-2-2-2-2-1s7 11 8 11 1 0 1 1c-1 0-2 1-3 0-1 0-1 0-1 1 1 0 1 1 0 1s-1 0 0 1c0 1 0 2-1 2-1 1-1 2-1 3 1 1-1 2-3 1-1-2-1-6 2-7 2-2 3-3 0-3-1 0-2 0-2-2 0-1-1-2-1-2-1 1-2 0-2-3-1-4 0-5 1-2s4 6 4 4c0 0-1-1-1-2-1-1-2-3-3-5 0-3 0-3 1-2 1 2 1 2 1-1v-4l3 3c2 2 3 4 3 5zm316-6c4 3 15 5 16 3 0-1 1-1 1-1 2 0-2 4-3 4s-3 2-4 4c-3 3-3 6-2 5 2 0 1 6-1 7-2 3-2 2-2 0 1-1 1-3 2-4v-3l-2 3c-2 2-4 2-7 2-3-1-3-1-2 1 1 1 1 1 0 1-2 0-6-5-6-7 0-1 0-1 2 1 1 2 2 2 4 2 1-1 2-1 2 0 2 2 4 1 5-2 0-2 1-3 1-4 1 0 1-1 0-1 0-1 1-2 2-2 3-1 2-3-1-2-2 0-2 0-1-1s3-1 3-1c1 1 2 0 3 0 1-1 0-1-3-1s-5 0-7-1c-1-1-2-2-3-2-2 0-3-1-1-2 1-1 1-1 4 1zm-108 6c2 2 3 4 3 6-1 3-2 4-2 2 0-1 0-2-1-1-1 0-1 1-1 3 1 2 1 2-1 2-1-1-2-1-2 0s0 2-1 2-1 2-1 4v3l-1-2c-2-4-3-12-1-11 2 2 5-4 5-8-1-4-1-4 3 0zm-225 4c3 2 7 8 6 11-1 1-1 1-2 0 0-1-1 0-3 2-1 1-2 3-1 3 1 2-1 3-3 2-1-1-1-1-1 0 0 2 1 2 3 2 3 0 3 0 2 1 0 1-1 3 0 4 0 2 0 2-1 0-3-4-4-4-3 0 1 3 1 3-1 2-1 0-2-1-1-1 0 0 0-2-1-3-1-2-1-2-1 1 0 2 1 5 1 7 1 1 2 5 2 8 1 3 1 6 2 6 1 1 1 2 0 2-1 1-2 0-3-3s-1-3-2-2-1 2-2 2-2-3-1-4c0-1 0-3 1-4 0-1 0-3 1-3s1-1 1-2c0-2 0-2-1 0l-1 2-2-2c0-2-2-3-2-3-2-1-2-1 0-3 3-3 3-5 0-4-1 0-2 2-2 3-1 1-1 1-2 0s-1-1-2 0c0 1-2 1-2 0 1-2-4-6-6-6s-2 0-2 3c1 3 1 4-1 3-1 0-1 0 0 1 2 2 2 2 0 4-1 1-2 2-3 1s-1-4 1-6c1-1 1-1 0-1s-1-1-1-2c1-1 0-2 0-2-1 1-2-3-1-6 2-3 6-9 7-9 0 0 1 1 1 2 1 1 1 2 2 2 0 0 1-1 0-2 0-1 0-1 2 1 1 1 3 2 4 3 3 2 2 2-2 1-2-1-7-2-7-1 0 0 1 1 1 3 2 2 2 2 2 0 0-5 3 0 3 6 0 0 1 2 2 2 1 2 1-3-1-6-1-3-1-3 1-2 2 2 6 2 7 0 0 0 0-2 1-3 1-3 1-4 2-9 0-5 0-5 3-4 1 1 4 2 6 3zm357 9c0 2 1 3 2 3l2 2c0 1 1 2 3 2 1 0 2 0 1 1 0 1-5 1-8-1-2 0-2 0 0 2 2 3 2 4 2 12 0 5 1 9 2 11 0 1 1 3 0 3 0 1 0 1 1 1 0-1 1 0 1 1 1 0 1 1 0 1s-1 1 0 2c0 1 0 1-2 0-3-1-10-3-10-2s0 1-1 1c-2-2-5 1-5 3s-1 3-1 4c-1 0-1-1-1-3 1-1 0-3 0-4-1-1-1-1 0-1s2-1 3-2 1-1 2 0 1 1 1 0 1-2 2-4c1-1 1-1 1 0-1 1 0 2 0 2 1-1 1 0 1 0-1 0 0 2 1 2s1 0 1-1c-1-1 0-1 1-1s1-1-2-3c-2-2-3-3-2-3s1-2 1-10c0-6 1-11 1-11 1-1 1-1 0-1s-2-6-1-9c0-1 3 1 4 3zm18 0c2 2 2 6 0 11v2c0 1-1 1-1 2-1 0-1 1-1 3 0 1-1 3-1 5-2 3-4 15-3 15s1 3 1 7c0 10 0 11-1 10-1 0-1-1-1-1 1 0 0-1 0-1-1-1-2-3-2-6v-5c-1-1 0-8 2-17 1-3 1-6 0-10-1-5-1-6 1-8 1-1 1-3 1-6-1-4 0-5 5-1zm-181 3c0 1-1 2-1 2-1 0-1 1-1 2s-1 4-2 7c-2 7-5 9-8 4-2-2-2-3 1-7 2-2 4-5 6-5 1-1 3-3 4-3 2-2 2-2 1 0zm125 5c0 7 0 7 3 9 3 1 4 2 1 1-2 0-2 0-2 1 2 2 6 1 8-3l2-3 2 6c1 4 1 6 0 7-1 3-1 3 1 3 2 1 2 1 1 2-2 1 0 2 2 1 1 0 1 1 1 2-1 2-1 2 0 1s1-1 1 0c-1 1 0 3 1 4 2 1 2 1 0 3-1 1-1 1 0 1 3 0 2 1-1 2-4 0-6-2-4-4l2-2c0-1-1 0-2 1-3 3-5 2-3-1 1-3 1-4 0-2-1 1-2 1-2 0 0 0 0-1 1-1s1-2 0-3c0-1-1-2-1-1-1 0-1 0 0-1 0-1 0-1-1-1-1 1-1 0-1 0 0-1 0-2-1-2s-1 1 0 3c1 0-1 1-4 1s-8 1-11 2-7 2-8 2c-2-1-2-1-1 2s1 3-2 3c-2-1-4 0-5 0 0 1-1 1-1 0-1 0-1 0-1 1 1 0 1 1 0 1s-7-4-7-5v-5c-1-5-1-5 2-7 4-1 5-1 3 1-1 2-1 2 0 2 0 0 1 1 1 2 0 3 1 3 5 2 2-1 4-1 4 0 0 0 3 0 7-1s9-2 11-2c3-1 4-1 3-2h-3c-1 0-2 1-3 0s-2-9-1-9 1 0 0-1-1-4-1-6c0-3 0-6-1-6-1-2-2-2 3-4 1 0 3-1 3-1s-1 3-1 7zm-145 6c-2 17-2 21 0 21 1 1 1 1 0 2 0 1-1 1-2 1 0-1-1-1-1 0s0 1-1 1c0 0-1-4 0-8 0-7 0-8-2-10-1-2-1-2 1-3 2 0 2-1 4-10s2-6 1 6zm-37-9c0 1-1 1-1 1-1 0-2 0-2 1s1 1 2 1c1-1 1 0 1 1 0 2-1 3-1 3-1 1-2 2-2 3s0 2-1 2c0 0-1 3-1 6-2 12-2 14-3 14 0-1-1 0-1 1-1 3-5 4-5 2 0-1 1-2 2-3s1-1 0-2-1-1 0-1l1-1c0-1 0-1-1 0-3 2-2 1 1-6 2-3 3-6 3-7s1-3 2-5 2-3 2-5c-1-4 2-8 4-5zM86 196c0 2 0 3-2 3-1 0-3 0-3 1-2 0-2 0-2-2 0-3 0-3-2-2s-3 2-2 3 1 4 1 6v3l-2-4c-3-4-4-3-1 2 0 2 1 3 1 4-1 0-5-8-5-10 0-5 2-8 9-10l7-3v3c0 1 1 4 1 6zm20-5c1 0 3 2 4 4 1 3 1 3-2 6s-3 3-3 1c0-1 0-3 1-4s1-1 1 0 0 1 1 0 1-1 0-2c0-1-1-1-1-1 0 1-1 0-2 0-2-3-3-1-2 5 0 4 0 6-1 6s-1 1-1 1c0 1-1 2-1 2-1 0 0 1 1 2l2 2 2-3c1-4 3-3 1 1-1 2-1 3 1 3 0 0 1-1 1-2 0-2 1-3 1-4 2-2 2-2 2 2 1 2 1 4 2 5 0 1-1 2-2 1-4 0-4 1 0 2 1 1 2 2 2 3s0 1-1 0-1-2-2-2c0 1-1 0-2-1-1 0-2-1-3-1s-1 0 0 1 0 3-3 3c-2 1-2 0-2-2s0-3-1-3c-4 0-5-2-4-4 1 0 1-1 0-1-1-1 2-9 4-10 1-1 1-1 0-2-2-2-2-4-1-7 2-3 4-4 8-1zm258 30c-1 3-3 4-3 3s-1 0-1 2c-1 5-3 4-3 0 0-3 0-3-1-2s-1 2-1 3c1 0 1 1 0 1-2 1 0 4 2 4 0 0 1 1 1 2 0 0 0 1-1 1h-1c0 3 0 3 3 2 1 0 2 0 2 1s0 2 1 2c0-1 1 0 1 1 1 2 2 3 3 4 2 0 2 0 0 1s-4 2-5 4l-2 2v-2c1-2 0-5-1-7-2-3-4-4-2-1 0 1 0 2-1 2-2 0-2 0 0 2 1 1 2 3 2 4s-2 0-3-3c-1-2-3-3-3-1 0 3-2 2-2 0-1-4-1-5 0-4 1 0 1 0 1-1-1-1-1-2 0-1 1 0 1 0 1-2-1-2-1-2 1-3 3 0 3 0 2-3-3-6-2-13 2-12h1s2 0 3-1c1 0 3-1 4-2 2-2 2-1 0 4zm-346-3c2 2 1 5 0 3-3-2-2 0 0 3 3 4 4 8 2 8-1 0-2 0-3-1 0-1-1-1-1 0-1 0-1-1-1-3 1-3-4-10-5-7-1 1 0 2 1 2s2 4 2 7c-1 1 0 2 0 2s1 1 0 2c0 2 0 2-1 1 0-1-1-3-3-4-2-2-2-3-1-5s1-3 0-3c-2-1 1-4 4-4 1 0 2 0 3-1 0-1 1-1 3 0zm374 7c0 2 3 2 5 0 1-1 1-1 1 1 0 4 1 7 1 10 2 4 0 4-2-1 0-1-2-3-2-3-1 0-1 0 0 1 0 1 1 2 1 3 0 2 4 7 5 6s1-1 1 1c-1 4-2 4-5-1-2-5-3-4-1 0 1 3 0 4-2 3 0-1-1-1-1 0-1 1 0 2 1 2 2 1 1 3-1 3-1 0-1-1-1-2s0-1-1-1c0 1-1 0-2-2-1-1-2-2-1-2 2 0 1-3-1-4 0 0-2 0-2 1-3 2-4 1-2-2 3-4 9-8 11-8 0 1 1 1 1 0 1-1 1-1 0-1s-1 0-1-1c1 0-2-1-6 0-3 0-6-1-6-1 0-1 1-1 2-1s3-1 4-1c3-2 5-2 4 0zm-178 1c2-1 3 4 2 9-1 4-2 6-5 8-5 5-9 5-5 0 2-3 3-5 1-3-1 1-2 1-3 0-1 0-3 1-4 3-2 4-6 6-4 2 1-1 1-2-1-2-2-1-2-1-1-3 3-2 1-3-2-1l-2 2c-2 0-1-3 1-4 1-1 1-1-1-1s-3 1-3 1c0 1-1 0-1-2-1-2-2-4-2-5-1-1 0-2 2-3s4-1 4-1c1 0 2 3 3 6l3 6 6-3c5-3 6-3 7-2 2 2 3 1 2-1-1-1-1-1 0-2l1-1c0-1-1-1-2 0-2 1-2 1-2 0 1-1 1-2 0-2s-1 0-1-1c0 0 1-1 3 0s4 1 4 0zm114 16c1 1 4 2 5 2 2 0 3 1 3 4 2 5 3 5 5 0l2-5 1 4c0 2 1 3 1 2 1 0 2 1 1 3-1 1-1 1-2 0-1-2-2 0-1 2 1 3 1 3-3 7-3 3-5 4-5 4 0-1-1-1-1 0-1 2-1 2-1 0 0-1 2-4 4-6l4-5-3-1c-3-1-15-12-15-13s1-1 5 2zM53 253c1 0 1 0 1 1 0 0 0 1-1 2-1 0-1 1-1 3 1 3-3 5-6 3-2 0-3-2-3-2 0-1 0-1 1-1 1 1 1 1 1 0l-1-1c-1-1-1-1-1-2 1 0 1 0 2 1s1 1 1 0c1-1 1-1 0-1s2-6 3-6c0-1 1-2 2-4 0-3 1-3 1 2 0 4 1 6 1 5zm54-2c0 1 0 3 1 4 0 1-1 3-1 4-1 1-1 1 0 1 2-1 2-1 2 6-1 9 1 12 4 12 2 0 3-2 3-4 1-4 4-10 5-11 0 0 1-2 2-5s1-3 2-1c0 3 3 3 4 0 0-2 0-2 4 0s4 2 3 5c-1 1-2 2-3 1 0 0-1 0-1 1s-1 1-1 1c-2-1-2 5 0 6 1 0 1 2 0 4s-1 3 0 3c2 0 1 3-2 5s-4 1-1-1c2-2 3-5 1-3-1 0-1-1-1-3 0-4-1-7-3-6 0 1 0 2 1 2 1 1 1 1 0 1s-2 1-3 1c-1 2-1 2 1 2 1 0 1 0 0 1s-1 1-2 0c-1 0-2-1-3-1s-1 0 0 1c2 1-2 3-5 2-2 0-2 0-1 1s3 1 5 1 2 0 0 1-1 1 3 1c4-1 4-1 3 1-2 0-3 1-4 1s-2 0-2 1 1 1 3 0c4 0 4 1 1 4-3 2-3 2-5 0-4-3-7-7-6-9 1-1 1-1 0-1s-2 1-2 2c0 2-2 5-4 6h-3c-2 1-2 1-2-4 0-2 0-4 1-3l1 1c1 0 1-1 0-2-2-3-1-6 1-3 0 1 1 2 1 1s1-1 3 0c3 2 3 1 0-2-2-2-6-8-5-9 0 0 0-2-1-4-2-5-2-11-1-13 2-2 7-1 7 1zm220 1c-2 1-3 2-3 3 1 0 2 0 3-1s1-1 1 0c-1 2-1 2 1 2 1-1 2 0 2 0 0 1-2 2-3 2-2 0-8 6-7 7 0 1 0 1-1 1s-5 8-7 14c-1 5-4 8-4 5 0-1-1-2-1-3l-2-2c0-1 0-1 1-1 1 2 3-3 1-5-1-2-1-2 0-2s1-1 1-4c-1-2-1-3 0-3s1-1 1-2 0-1-1 0-1 1-1 0 1-2 2-2 2 7 1 7c-1 1-1 1 0 2 2 2 2 2 2 0l2-2s1-1 1-3c1-1 1-2 2-2 1 2 4-4 4-6-1-3 4-7 7-7 1 0 0 1-2 2zm80 1c-1 0 1 2 3 4 3 2 4 4 3 4 0 0-2 1-2 3-1 2-1 2-2 1-2-2-7-3-6-1 1 3-5 3-8 1l-3-2h3c2-1 3-2 3-2 0-1 0-1-1-1-1 1-1 0-1 0 0-1 1-2 2-2s1 0 0-1l-1-1c0-1 1-1 1 0 1 1 2 1 2 0 1-1 1-1 0-1s-1-1-1-1c0-1 0-1 1 0 2 1 3 1 3 0-1-1 0-2 2-2s3 0 2 1zm-109 6c2-2 2-2 2 0 1 2 1 3-1 2-1 0-2 0-2 1 0 0-1 1-1 0-1 0-2 1-3 2-1 4-1 5 0 4 1 0 1 1 1 1 0 1 0 2-1 2s-1 1-1 1c0 2 2 2 4 1 0-1 1-1 1-1 1 0-1 2-3 4-3 3-5 5-4 5 0 1 0 1-1 1s-1 0-1 1c1 0 0 2-2 4s-3 4-2 4c0 1-3 5-4 5s-1-1-1-2c0 0 0-1-1-1s-1-1 0-2c0-2 1-3 1-3-1 0-1-2-1-4-1-3-1-3 1-3 1 0 1 1 1 4 0 4 0 4 5-3 4-5 5-7 5-10s1-6 2-8 1-3 0-4c-2-2-1-3 2-1 2 1 2 1 4 0zM35 271c0 9-3 14-7 14-2 0-2 0 1-3 3-2 2-3-3 0-3 1-6 1-6-1 0-1 1-1 3-1 1 1 2 1 2 0-1-1 1-3 4-6s4-4 3-5c-1 0 0-1 1-4 2-5 2-3 2 6zm353-4l-2 2c-2 1-1 3 2 3l-1-1c-1-1-1-1 2-1 2 0 2 0 1-1-2-2-1-2 2 0 1 0 4 1 5 2 1 0 2 2 2 2 0 1 0 1 1 0 0-1 7-5 7-4 1 0 0 2-1 5 0 2-1 3-1 3s0-1-1-2c0-3-1-4-1-1 0 2-3 5-5 5l-4 2c-2 1-3 1-7 0-2-1-2-1-1 1 0 1 0 1-1 0-2-1-2-8 0-9 1-1 1-1 0-1s-2 1-3 2-2 1-2 0l2-2c0-1 2-2 2-4 1-2 4-3 4-1z" fill="#ccc"/></svg>