<svg version="1" xmlns="http://www.w3.org/2000/svg" width="600" height="400" viewBox="0 0 450.000000 300.000000"><path d="M0 150v150h53l1-2c1-2 1-3 0-3s0-1 1-2c2-2 2-3 1-3-2-1-1-1 2-8 0-2 0-2-1-2 0 1-1 1-1 0l2-2c2-1 3-3 0-2-1 0-1 0 0-2 1-1 2-2 2-1 1 0 1 0 1-1-1 0 0-1 0-1 1-1 1-1 0-1s-2 0-2-1 0-1 1-1c0 1 2 0 3-1s1-1-1-2c-1-1-1-1 0-1 0 0 1 0 1-1s1-2 2-3 1-2 0-2 0-2 2-3c2-2 3-4 3-5-1 0 0-2 2-3s3-2 2-2c0-1 0-1 1-1s1 0 0-1-1-1 2-4c3-2 3-3 2-3s-2 0-2-1 1-1 2 0c1 0 1 0 1-1-1-1 0-2 2-3s2-1 1-2-1-1 0-1 2-1 2-2c0 0 0-1 1-1l4-2c3-2 3-2 2-3-2-2-2-2 1-3 2-1 3-2 2-3 0-1 1-2 2-2l5-5c4-4 6-5 11-6 3 0 4-1 1-2-1 0-2-1-1-1 0 0 2 0 3-1 2 0 4-1 5-2s1-1 0-1c-2 1-4 1-5 2-3 0-3 0 1-2 2-1 4-3 5-4 0-1 1-2 1-2 1 0 1-1 1-2-1-1 0-1 1-2 3-1 5-4 3-4s2-5 4-5l2-2s1-1 2-1c0 0 1 0 0-1 0-1-1-1-2 0 0 1-1 1-2 1-2-1 7-5 10-5 1 0 2 0 2-1s0-1-1-1c0 0-2 0-3-1-2-1-2-1 1-1s4 1 4 2 0 1 2 0c1-2 1-2 1-1s1 2 1 2c2 1 4 0 3-1 0-1 0-1 1-1 3 1 7-2 9-6 1-2 3-4 3-4 1 0 1 0 0-1 0-1-1-1-1 0-1 0-1-1 0-2s1-2 0-2-1 1-1 1c0 1 0 2-1 2l-2 2c-1 2-2 3-2 2-1 0-2 0-2 1-1 1-2 1-3 0 0-1-1-1-3-1-2 1-2 1-1 0s2-2 2-1c1 0 2-1 2-2 1-2 0-2-2 0-2 0-3 1-3 1-2 0-1-3 1-4h3c1 0 1 0 1-1-1 0 0-1 1-2 2-2 2-2 1-2-2 0-3-2 0-2 0 0 1-1 1-2s1-2 4-3c5-1 7-3 5-3-1 0-3 1-5 1-2 1-4 1-4 1v-1s2-1 5-1c3-2 3-2 1-2-3 0-3 0-2-1s3-1 5-1 2 0 2-1c-1-1 0-3 2-4 3-2 3-3 0-2-2 1-3 1-4 0 0-1 1-1 4-1v-1c-1 0 0-1 0-2 1-1 1-1 0-1s-1-1 0-2 2-2 2-3c-1-1 5-7 7-8 1 0 1-1 1-1-1-1-2 0-4 1s-3 1-4 0-1-1 1-1c1 0 2 0 2-1-1-1 0-1 2-1s3-1 3-2c1 0 2-1 4-1s4 0 5-1 0-1-2-1c-4 0-4 0-2-1 1-1 2-2 4-3 1-1 4-3 7-4s4-1 2-1c-3 0-4-2-2-2s2-2 1-4c-1-1-1-2 0-1 1 0 1-1 1-3-1-3-1-3 0-1 2 3 3 2 2-2-2-4-2-5 0-2 1 1 2 2 2 1 0 0 1-1 4 0 3 0 4-2 1-2-2-1-2-1 0-1s3-1 3-1c0-2-3-5-6-4-1 0-2 0-2-1 2-2 11-1 11 1-1 1-1 1 0 1 1-1 2 0 2 0 1 1 1 1 2 1 0-1 0-2-1-2-1-1-1-2 0-2 1-1 2 0 3 0 0 1 1 1 1 1 1 0 1 0 1-1-1-1 0-1 0-1 1 0 2-1 1-2 0-1 0-1 1 0 2 1 2 1 2-1-1-1-1-2 0-2 0 1 1 0 2 0 2-2 5-2 5-1s0 1-1 1-1 1 0 2c1 2 1 2-1 3-1 1-1 2 0 3 1 0 2 0 2-1 0-2 2-1 2 1 1 1 1 1 1-1 0-4 0-4 3-1 2 2 3 3 3 2s0-1 2 0c1 1 1 1 1 0-1-1-1-2 0-1 1 0 1-1 1-1 0-2-2-3-2-1-1 1-1 1-1 0s1-2 2-3c1-2 1-2 0-3s-1-2 0-2c0-1 1 0 1 0 1 1 1 1 2-1 2-1 2-1 2 0s0 2 1 2 0 1 0 3c-2 3-2 5-1 3 3-3 6-4 6-2 1 1 0 2 0 2-1 0-1 1-1 2s0 1 1 0c0 0 1-1 1 0 1 0 1-2 1-5 0-6 0-8 1-4 1 0 1 1 2 1 0-1 1 2 2 6s2 7 2 6c1-4 2-1 2 3 0 3 0 3 1 0 0-1 1-2 1-2 0 1 1 1 1-1 1-2 1-7 0-7-1 1-1 0 0 0 0-1 1-2 1-2 1 0 1-1 0-1 0-3-2-1-2 1s0 2-2 2c-1-1-1 0 0 2 0 2 0 2-1 0-1-1-2-3-3-5 0-2-1-4-1-4-1 0-1-1-1-2 1 0 1-1 0-1s-4-6-4-8c0-1-1-1-1-1-2 1-5-2-5-4 0-4 2-5 7-3l4 2 1-3c0-2 0-2 2 0 2 3 3 3 3 0-1-2-1-2 1 0s3 3 5 3c1-1 2 0 2 1 0 0 0 1-1 1s-1 1-1 2 0 1-1 0-2-1-2 0c0 0 0 1 1 1 1 1 1 2 1 2 0 1 0 1-1 0-2-2-3-1-2 1 1 3 1 3-2 4-1 0-2 0-1 1 0 0 1 2 1 3v3l1-3c1-3 1-3 2 0 0 3 1 4 1 1 0-1 0-1 1 0s1 1 1-1 0-2 1-2c0 0 1 0 1-1s1-1 1 0c2 0 2 0 1-3-2-7 6-22 14-28 7-6 29-16 29-14 0 0 1 0 2-1s2 0 4 1c2 2 2 2 0 2-1 0-1 0 1 1s2 1-3 1c-3 1-5 1-4 2 3 0 1 2-2 2h-3l3 1c4 2 2 3-2 1-2 0-3 0-5 1s-2 1 2 2c6 2 8 6 2 5-3-1-3-1-2 1 3 3 2 3-1 1-3-3-6-4-9-2-1 1-1 1 2 1 2 0 5 0 6 1 2 2 2 2 0 3-1 0-2 1-2 0h-3c-1 1-1 1 0 3 2 1 2 1 0 1-3 0-2 1 3 3 1 1 3 2 3 3-1 0 1 1 3 2 3 1 5 1 5 0s1-1 2-1c0 0 1-1 0-1 0-1 1-2 1-3 2-1 2-2 1-3-1-2-1-2 0-2s2-1 2-1c0-1 1-2 2-2l3-1h-3c-2 0-2 0-1-3 1-1 2-2 3-2s1 0 0-2c0-1-1-2 0-2 0-1-1-1-3-1h-3c0-1-1-1-1-1-1 0-2 0-2-1h6c7 1 8 2 8 3-1 0-1 1 0 2 1 0 1 1 1 2-1 0 0 1 0 1 1 0 1 1 0 1 0 1 0 3-1 6 0 6-1 14-2 16v4c0 2 0 3-1 3-1 1-1 2 1 4 1 3 1 6-2 9-1 2-1 2-2 1s-1-1-3 0c-1 1-1 1 1 2 1 1 1 1-1 1-3 0-6 2-4 3 0 1-1 1-2 2s-2 1-2 0l-2-2c-2 0-2-1-2-2 1-1 1-2 0-2 0 0-1-1-1-3 0-1 0-2 1-1 1 0 1 0 1-2-1-1-1-2 0-1 2 0 4-4 3-7 0-2 1-4 3-6 5-4 5-4 1-4-7-2-17-1-14 1 1 1 1 1 0 2s-1 1 0 2c2 1 2 2-1 3-2 1-3 1-4 1-1-1-1-1-1 0 0 0-1 1-2 1-2 1-1 1 3 2 6 1 8 2 2 2-2 0-3 0-2 1s-2 2-7 1c-1 0-2 0-2 1s1 1 2 1 2 0 3 1h2l-2 2c-3 1-3 1-1 2 1 1 1 1 0 1s0 1 2 1c3 1 5 1 7-2 1-2 1-2 1-1s1 2 1 1c1 0 2 0 2 1s-1 1-1 2c-1 0-2 1-2 2-1 2 0 2 1 2 0-1 1 0 1 1s0 1 1 0c1 0 1 0 1 1-1 2-1 2 1 2 2-1 2-1 1 0-2 2-2 2 2 2 3 1 4 1 3 2 0 1 0 1 1 1 1-1 2-1 2 0l-1 1c-1 1 0 1 1 1 2 0 3 1 3 1 0 2 1 2 5 2 1 0 2 0 2 1-1 1-2 1-2 1 0-1-1-1-1 0s-2 1-3 1c-4 1-3 2 2 2l5-1-4 2c-4 2-4 2-2 2 1 1 2 2 1 2l2 2c1 1 1 1 0 1h-4c-1 0-1 0 0 1 2 2 2 2 0 2s-2 0-1 1 1 1 0 1-3 1-4 3c-2 1-3 2-5 1-1 0-1 0-1 1 1 0 0 1-1 1-2 1-3 0 0-1 1-2 1-2-1-2s-2 0-1-3l2-2h-3c-4 1-7-1-3-2 1-1 0-1-2 0-4 0-5-1-2-2 2-1 2-1-1 0-3 0-4 0-3-1 1 0 0-1-2-2s-3-1-4-1c0 1 1 1 2 1s1 0 0 1c-1 0-2 1-2 0-1 0-1 0-1 1s-1 1-1 1c-1 0-1 0 0-2 1-1 1-1-1-1-1 0-1 0 1-2 3-2 1-3-2 0-1 0-3 1-4 1h-3c-1 1-1 1-1-1 0-1 0-1-2 0-1 2-1 2-1 0 1-1 1-3 1-3 0-1 1-1 2-1 3 1 4-1 2-3-1-1-2-1-2 0 0 0 0 1-1 1-2 0-1-3 1-5s3-3 0-3c-1-1-1-1-1 0s0 2-2 4c-1 1-2 3-1 4 0 2 0 3-1 4-1 0-1 0-1-2 1-2 1-2 0-2s-2 2-2 4c0 1-1 2-1 1 0-2-2-1-2 1s-3 6-3 4c0-1 0-1-1 0-1 0-1 1 0 2 2 2 2 5 1 6s-1 3 0 4v2c1 0 1 2 2 3 0 2 1 3 1 4-1 1 1 5 2 4 1 0 1 0 1 1-1 0-1 1 0 1s1 0 1 1c-1 1-1 1 0 1 0 0 2 1 2 3 2 4 2 5 1 3-3-2-2 0 0 2 0 1 1 2 0 2 0 0 0 1 1 1 0 1 1 3 1 4-1 1 0 2 1 2 0 0 1-1 1-2 0 0 0-1 1-1s1 1 0 3c-2 4-1 6 1 4 1-1 1-1 1 0-1 1 0 2 0 2 1 0 1 0 1 1-1 0 0 1 0 3 1 1 2 3 1 4 0 1 0 1 1 1 1-1 1 0 1 1 0 2 1 3 3 0 0-1 1-1 1 0 0 0-1 2-2 3-2 2-2 2 0 2 1 0 1 0 0 1-1 0-1 1-1 2 1 0 1 1 0 1s-1 0 0 1c1 0 1 1 0 1-1 1-1 2-1 3 0 0-1 2-2 3-2 2-2 2-4 0-1-1-1-1-1 0 1 2 0 3-2 1-1-1-1-1-1 0s0 1-2 0c-1-1-1-1 1-3l3-1h-3c-2 0-3 0-4 1 0 1-1 1-1 1-1 0 0-1 2-3 10-10-6-22-18-13-3 2-3 3-3 7 1 2 2 5 2 6 1 1 2 2 2 3-1 0-1 2 0 3 1 2 0 2-4 2-3 1-6 0-6 0-1-1-1-1-1 0-1 2-3 1-3-1 1-2-1-1-2 1-1 3-1 3 1 3 0 0 1 0 1 1s0 1 1 1c1-1 1-1 1 0 0 0 0 1-1 2-1 0-1 1-1 1 0 1 1 1 2 0s1-1 3 0c0 2 1 2 2 2 0-1 2 0 4 2s3 3 3 2 0-1 2 0c0 1 1 1 1 0 0 0 1-1 2 0h3s1 1 1 3 0 2 1 0c2-1 2-1 3 0s1 1 2 0c0-2 2-3 2-1 0 1 0 2 1 2s1-1 0-2c0-2 1-1 3 1 2 3 3 2 1-1-1-2 1-4 4-4 0 1 1 0 1 0 0-1 1-2 2-1 1 0 1 0 1-2s1-3 1-3c1 0 1 0 0-1-2-1 0-3 2-3 2 1 2 0 2-1-1 0 0-1 0-1 1 0 1-1 0-1-1-2-1-3 3-6 2-2 3-4 2-5 0-2 0-2 2-2 1 0 2 0 1-1-2-1-1-2 3-2 2 0 3 0 3-1-1 0-2-1-4 0-2 0-2 0 0-1 1-1 1-1 0-1-2 0-2 0-1-1s1-2 0-3-1-1 0-1c0 0 1 0 2 1 0 1 0 1 1 0s0-2 0-3c-1-1-1-1 0-1 1 1 3 1 3 1 1 0 1 0 1 1s-1 1-2 1-1 0 0 1 1 1 2 0c2-1 5 1 3 2l2 2c1 1 1 1 1-1-1-1 0-2 0-2 1 0 1 0 0-1-2-1-1-2 2-1 1 1 2 2 2 3s0 1 1 0 1-2 0-2c-2-2-1-4 1-3 2 0 3 0 3-1s0-1-1-1l-2-2c-1-2-1-2 0-2 1 1 2 1 2 0-1 0 0-1 0-1 1-1 1-1 0-3-2-3-1-4 1-1 2 1 2 1 2-1-1-2-1-2 2-1 2 1 2 1 1 2s-1 1 0 1c1 1 1 1 1 0 0 0 1-1 2 0l1 1c0 1 0 1-1 0-1 0-1 1 0 3 1 1 1 1 0 2-1 0-2 1-2 2l-1 1c-1 0-1 0 0 1 0 1 1 2 0 2 0 1 0 1 1 1s1 1 0 1c0 1 0 1 1 1 1-1 4 1 3 1-1 1-10-2-10-4-1-1-2-1-2-1-1 0 0 1 1 2 2 3 3 5 1 4-1-1-1 0 1 3 1 2 1 2 0 2s-1 0 0 1l2 2c0 1-1 1-2 0-4-3-5-2-2 0 2 2 2 3 1 3-1 1-2 1-2 0 1-1-1-1-4 0-1 0 0 2 1 3 1 3 2 4 1 4s-1 0 0 1c1 2 1 2 0 2s-1 0 0 2c1 1 1 1-2 0h-2l2 2c3 3 4 5 2 3-1 0-1 0-1 1 1 0 0 1 0 1-1 1-1 1 0 1s2 1 3 1c0 1 0 1-2 1-3-1-6 0-4 1s2 3 0 3c0 0-1 0 0 1 0 1 0 1-1 1s0 1 2 3l3 2h-5c-4-1-5 0-2 1 2 1 2 1-1 1-5-1-5-1-1 2 3 2 3 2 1 2-1-1-2 0-3 0 0 1 1 1 3 2 4 0 4 2 1 3-4 1-4 3-1 4l3 1h-3c-1 0-2 0-1 1 0 1 1 1 1 0 1 0 1 0 1 1-1 1 0 1 1 0 1 0 1 0 0 1s-1 1 1 2c1 0 2 1 2 1 0 1-1 1-2 0h-4c-3 2 0 3 4 2 2 0 3 0 3 1 0 0-1 1-2 0-2 0-2 0 0 1 1 0 3 1 4 1 2 1 3 1 3 2s-1 1-3 0c-2 0-2 0-1 1 0 2-1 2-4 1-4 0-4 0-2 1 1 1 3 1 4 1 2 0 4 0 5 1 4 1-5 1-10 0-4-1-5 0-1 1 5 2 7 7 2 5-2 0-2 0-1 1 0 1 0 1-1 1-3-1-4 0-2 2 1 1 1 1 0 1-2 0-2 1 1 2 3 2 2 2-2 1-2-1-2-1-1 0 2 1 3 2 4 2s2 0 2 1c-1 0-2 1-4 0s-4-1-4 0c-1 0-2 0-2-1-1-1-2-1-2-1-1 0-1 1 0 2 1 0 3 1 5 1 1 0 3 0 3 1l-1 1h-5c-3 0-3 0-1 1 3 2 3 3-1 2-3-1-5-1-3 0 1 1 1 1 0 1-2 0-1 1 2 2 4 2 4 2 2 2-3 1-3 1-1 4 0 2 0 2-2 1l-4-2c-1 1 0 1 1 2h2l-2 2c-2 0-2 1-1 1s1 0 0 1c-2 2-2 4 1 6l3 3c0 2 0 2-5 0-5-1-5-1-3 2 0 1 2 2 2 2 1 0 2 1 4 2l2 2h-3c-2-1-5-1-6-2 0-1-1-1-2-1 0 1 1 2 2 3 1 0 2 2 2 2 0 1 0 1-1 0-2-2-3-1-2 1 2 2 4 2 82 2h80V0h-34l-1 2c-1 3-4 3-5 0 0-2-2-2-48-2-48 0-48 0-50 2s-5 2-4-1c1-1 0-1-1-1s-2 1-2 2c0 6-7 8-10 3-1-5-3-6-4-4s-5 3-6 0c0-1-17-1-143-1H0v150zM183 13c-1 1-1 1 1 1 1 0 2 0 2-1l-1-1c1 0 7 3 7 4 1 0 2 1 4 2 4 0 11 5 11 7 0 1-1 1-2 0s-1-1-1 0 2 1 3 1 2 1 2 1c0 1 0 1 1 1 3 0 11 8 11 11 0 1 1 3 2 4 2 2 2 3 1 6l-1 3-1-3c0-2-1-3-1-2 0 0-1-1-2-1-3-4-4-5-3-5s0-4-2-4c0-1-1-1-1 0l1 1c1 1 1 1-1 2s-2 1-2 0 0-1-1 0c0 1 0 3 2 7 2 3 3 7 3 9 1 2 1 3 0 2l-1-1c-1 0-1 1 0 1 0 1 0 1-1 1-1-1-1-1 0 1 0 1 0 1-2 1-2-1-3 0 0 2 1 1 1 1-1 1-4 0-9-2-7-2 0 0-1-1-3-1l-4-1h10l-6-2c-3-2-6-4-7-5s-3-2-4-2-1 0-1-1c1 0 0-1 0-2-1-1 0-1 4-3s6-5 2-3c-1 0-1 0 1-2 1 0 2-2 2-2 0-1-1-1-1 0-2 1-2 1-2 0s0-1-1 0c-2 1-4 1-4 0s1-2 2-3c1 0 1-1 1-2-1 0-2 0-3 1-2 2-2 2-2 0-1-1 0-2 1-2 1-1 1-1 1-2-1 0-2 0-3 1s-2 1-2 0 0-1 1-1 4-6 4-7-1-1-3-1c-2 1-3-1 0-2 1-1-2-3-5-3-2 0-3 1-3 1 0 1 0 1-1 0s-1-1-2 0-2 2-3 2-1 0 1-2l2-2-2-1c-2 0-2-1-1-1s2 0 3 1c2 1 2 1 2 0s-2-2-4-2c-4 0 0-2 6-1 4 0 5 1 4 1zm-12 8c0 1-1 2-1 2-1 0-1 0-1 1 0 0 2 0 4-1 5-3 6-2 2 1-4 2-6 6-5 7l2-2c4-3 5-2 2 1-2 2-3 3-2 3s1 1 0 2-1 2 0 2 1 0 1 1c-1 1-1 1 0 1s1 3-1 5c-1 1-1 1 0 1s2 0 2-1 0-1 1-1c2 0 0 3-2 3-2 1-2 1-1 2 1 0 2 0 2-1 2-1 3-1 3 0-1 0-1 1 0 1 2 2 1 3-1 2-3-2-4-1-2 2l2 4c0 1 1 2 1 1 1 0 2 1 2 1 1 1 0 2 0 2-1 0-1 0 1 1h2c1-1 1-1 1 0s-1 3-2 3c-1 1-1 2 0 3 1 0 1 1 0 1-1 1-1 1 0 1s2 1 3 2c1 2 1 2 1 1 0-3 3-3 3-1 1 2 1 2 2 0 0-1 1-2 1-1s0 1 1 0c1 0 1 0 1 1s0 1-1 1-1 0-1 1c1 0 0 1 0 2-2 1-2 1-3-1 0-3-1-2-2 1v3c0 1-2 1-3 1h-6c-1 1-2 1-2 0s0-1-1-1c0 1-3-1-3-3 0-1-1-1-1-1-1 0-1 0 0-1 1 0 1-1 0-1 0-1-1-2 0-3 0 0 1-1 1 0 1 0 1-1 0-4-1-2-2-3-1-4s1-1 0-1c-2 0-3-4-5-13 0-2-1-5-1-6-2-4 3-21 6-21l1 1zm64 19c1 0 4 3 4 4s0 1 1 0 1-3 0-3c0-1 0-1 1-1 1 1 1 2 1 3 0 2 0 3 1 2 1 0 1 0 1 1-1 1 0 3 1 4 1 2 1 3 0 4s-1 1-1-1c0-1 0-1-3 1l-2 3v-3c1-3 1-4-1-4-1-1-1 0-1 1s0 2-1 2c-1 1-1-1 0-3s-1-5-3-3c0 1-1 0-2-1-1-2-2-2-2-1-1 1-1 1-1 0s1-2 1-2c3 0 4 0 3-2s0-4 1-2c0 1 1 1 2 1zm-1 31c1 2-2 7-3 5-1 0-1 1-1 2s0 1-1 0c-1 0-2-1-3-1-2 0-2 1 1 3 3 3 4 4 3 5 0 2 0 2 1 2 0-1 1-1 1 0 1 1 1 1 0 1s0 1 0 2c2 1 2 2 1 4-1 1-1 1-2-1-2-3-3-4-5-4-1 0-1 1 1 2s3 3 1 2c-2 0-2 1 0 3 2 3 1 4-1 3s-3-2-3-3 0-2-1-2-1 0 0 2c1 1 1 1 0 1-2-1-4 1-3 2 0 1-1 1-2 0-2 0-3 0-3 1 1 0 0 2 0 3-2 1-2 1-3 0 0-1-1-2-2-1-1 0-1 0 0 1s1 1-1 1c-1 0-2 1-2 2s1 1 2 0c2 0 2 0 1 1s-1 2-1 3c1 1 0 1-1 1-2 0-3 0-2 1 0 2 0 2-2 2-3 0-3 1-2 4 2 2 2 3 0 3-2 1 0 3 3 3 2 0 3 0 3 1s0 1 1 1 1 0 1-1c-1-1-1-1 0-1s1 1 1 1c-1 1 0 2 0 2 1 0 1-1 1-2-1-1 0-2 1-1 1 0 2-1 3-2 1-2 1-2 4 0 1 1 3 2 5 2 1 0 2 0 2 1-1 1-7 2-7 1s-4-2-5-2c0 1 0 2 1 2 1 1 1 1 0 1s-2 0-1 1c0 1 0 1-1 1 0-1-1 0-2 1-2 2-2 2 1 2 3 1 5 3 3 3-1 0-2 0-1 1 0 1-1 1-3 1-2-1-4 0-5 0 0 1 1 1 2 1s1 0 0 1-1 1-2 0c0-1-7 0-8 1 0 1 1 1 2 1 2-1 2-1 2 0-1 1 0 1 2 1 6 0 6 0 5-1 0-1 1-2 2-2 1-1 1-1 1 0-1 2 0 3 2 2 1-1 1-1 1 0l-1 1c-1 0-1 0 0 1 3 2 6 0 5-3 0-1 0-2 1-2 0 0 1 1 0 1 0 1 0 2 1 2s1 0 0-1c0-1 1-1 1-2 1 0 2-1 1-1 0-1 1-1 2-1s2-1 2-2 1-1 2-1c1 1 2 0 2 0 0-1 1-1 2-1 1 1 2 2 1 3 0 1 0 1 1 1 0-1 1-1 1 0 0 0 0 1-1 1-1 1-1 1-1 0 0 0-1-1-2 0-2 0-2 0 0 2s2 2 0 1c-2 0-3 1-1 2 1 1 1 1 0 1 0 1-1 1-1 0s0-1-1-1-1 3 1 5c2 1 3 3 0 3-1 1-1 1 0 1 2 0 3 2 0 2-1 1-1 1 0 2s1 1-1 1l-2-1 2 2c3 3 3 3-1 2-3-1-4-1-5-1-1 1-3 1-4 1-1-1-1-1 1-2s2-1-1-2c-2-1-5-2-7-2-3-1-3-1-2 1 1 1 3 1 5 2 4 0 4 1 0 1-2 0-4 0-5-1 0-1-1-1-3 0-1 1-1 1 2 1 1 0 2 0 1 1-1 0-2 1-2 1 0 1 3 1 4 0 0-1 1 0 3 1 1 1 3 2 4 2s2 0 3 1 0 1-3 1l-5-1 5 2c3 1 6 2 7 3 1 0 2 1 2 1 1 0 1 1 1 2-1 2 0 2 2 3 3 0 4-1 2-3-2-1-2-1-1-1 2 0 3-4 2-4-1-1-1-1 0-1s1-1 0-1c0-1 0-1 2-1 1 1 2 0 2 0 0-1 0-1-1-1s-1-1 0-2c0 0 0-1-1-1s-2 0-1-1c0-1 1-1 2 0s2 0 0-2c-1-1-1-1 1-3 1-1 2-2 2-1 1 0 1 0 1-1 0 0-1-1-1-2-2-2-2-6 0-5 0 0 1 0 1-1s-1-2-1-1c-2 0-2 0-2-2 0-1-1-2-1-2-1-1 0-1 1-1 3 1 3-1 0-1-1-1-2-1-2-2s1-1 2 0c2 1 2 1 3-1 0 0 1-1 2-1 1 1 2-3 2-8 0-2 0-3 1-4 1 0 1 1 1 1 0 1 0 2 1 2 1-1 1-2 0-3-1-3-1-3 2-3 1 0 2 0 3-1 0-1 0-1-1 0-2 1-3 0-2-3 0-2 0-3-1-4-1 0-1-1 0-3 0-1 1-2 1-2 0 2 3-1 3-3s0-2 1 0c0 1 1 2 1 1v-2c1-1 0-2 0-3-1 0-1-1 0-1 0-1-1-2-1-3-2-2-3-1-2 1 1 1 1 2-1 4-1 1-1 1-2-1l-1-3-1 3-1 2-1-2c0-2 0-2-2 0-1 1-1 1-1 0s0-2 1-2 1 0 0-1c0-1-1-1-2 0s-1 1-1 0-1-2-1-3c-1 0-1 0-1 2 1 1 0 3 0 4l-1 1c-1-4-1-4-2-5s-1-3-1-4c0-2 0-2 1 0 0 1 1 2 1 2 0-1 1-2 0-3 0-2 0-2 1-2 1 1 1 0 1-1s0-2 1-2 1 1 1 1c0 1 0 2 1 2s1-1 0-1c0-1 1 0 2 1 2 2 3 4 3 5-1 0 0 1 0 1 1 0 2 1 3 2v2l1-2c0-1 0-3-1-4-2-1-3-3-1-3s1-2-1-3h-2-1c-3-1-5-3-5-5-1-3 1-2 2 1 1 2 1 2 1 0 0-1 0-2 1-2 1 1 2-2 1-3 0 0-1 0-1 1-1 1-1 1-1 0 0-3-5-7-7-8-2 0-2 1-2 3zm-71 91c-1 0 0 1 0 1 1 1 1 1 0 1 0 1-1 1-1 0s0-1-1 0c-1 0-1 1 0 1 1 1 1 1 0 2s-1 1-1 0c0-3-3-2-4 0 0 1 0 1 1 0s2-1 2 0l-1 1c-1 1-1 1 0 2s2 2 3 1c2-1 2-1 2 0-1 2-7 4-7 3s1-1 1-1c1 0 1 0 0-1s-2 0-4 2c-1 1-1 3-1 3 1 0 2 0 2-1 1-1 1-1 2-1 0 1-1 2-1 4-1 1-2 2-2 3 1 0 0 1-1 2-2 0-2 1-1 1s3-1 4-2c1 0 2-1 2 0 0 0 1 0 2-1 0-2 1-2 1-1s0 1 1 0 2-2 1-2l4-4c1-3 3-4 3-3s0 1 2 0c0-1 1-2 1-3s0-1-1 1c-1 1-2 1-2 0s-1-2-2-3c-2-2-2-2-1-3 1 0 2-1 1-1 0-1-1-1-2-1 0 1-1 1 0 0 0-1 0-1-1-1 0 0-1 0-1 1zm-44 37c-1 2-1 2 0 2s2 1 1 2c0 0-1 1-2 1 0-1-2 0-2 0-1 1-2 2-2 1-1 0-1 0-1 1-1 1-1 1 0 1s1 0 1 1c-1 1 2 1 3 0s1-1 2-1c0 1 0 2-1 3-2 1-2 2-1 2s0 1-2 3c-2 1-3 2-3 2 0 1 1 1 2 0l4-2c1 0 1 0 0 1s-1 1 0 1 1 0-1 1c-2 2-1 2 2 1 2-1 2-1 1-3s-1-2 2-2 5-2 3-3c-1-1-2-2-2-1 0 0-1 0-1-1-1 0 0-1 1-2 3-1 5-4 5-5s-1 0-2 1c-3 2-4 1-1-2 2-2 2-4-1-2-1 0-2 1-2 0s-1 0-3 0zm-16 43c0 1 0 1-1 1 0-1-2 0-3 2-2 2-2 2 0 2 1 0 1 0-1 2-1 0-3 1-3 1-2 1-2 1-2 3 0 1 1 1 2 0 3-3 6-4 7-3 1 0-1 3-3 3s-3 1-3 2 0 1 1 0c1 0 2-1 3-1s1 1-1 2c-3 2-5 3-3 1 1-2-4-1-6 2-3 2-3 2-1 2 1-1 2-1 2 0s-6 6-7 6-1 0 0 1 2 0 4-2 3-3 2-1c0 2 1 3 2 1 1 0 2-1 3-1 2 0 2 0 1 2-1 1-3 1-4 1s-1 1-1 2c0 0 0 1-1 1 0 0-1 0-1 2 0 0 1-1 2-1 3-3 6-3 4 0-2 1-2 1 0 1 1 0 1 0 0 1-1 0-1 3 0 3s1 1 0 2c-2 2-5 2-3 0 0-1 0-1-1-1s-1 1-1 2-1 2-2 2c-2 0-2 0-1 1 1 0 1 1 0 1-1 1-1 3 0 2 1 0 1 0 0 1s1 5 3 4c2-2 1 0-2 3-2 3-4 6-2 6 1 0 2-1 2-2 1-1 2-2 3-2 1 1 1 2 0 3s-1 1 0 1c0 0 1 0 2-1 0-1 1-1 1-1 1 0 1 0 1 1-2 2 15 1 19-1s5-4 2-3c-1 1-2 0-3-1s-1-1-2 0-2 2-2 1c-1 0-2 0-3 1s-2 0-3-1c-2-2-2-2 0-2 1 0 1 0 0-1-2-1-2-3 1-3s11-5 11-6c-1 0-3 1-5 2-3 2-6 3-8 3s-2 0 2-2c3-1 3-1 1-1-1 0-2 0-1-1 2-1 1-2-1-1-1 0-2 0-1-1 2 0 1-2-1-1h-1c1-1 0-2-1-3 0-1-1-2 0-2 0-1 0-1 1 0 0 1 1 1 2 0 2-2 3-3 0-2-1 0-1 0-1-1 1-2-1-1-2 0-2 2-3 3-2 1v-3l4-2c4-2 6-5 2-4-1 1-1 1 0 0 0-1 0-1-2 0-3 2-2 0 2-3 2-2 3-4 2-4s-1 0 0-1c0-1 0-1-1-1s-1-2 1-4c1 0 1-1 1-1-1 0 0-1 1-2l3-2h-3c-3 1-3 1-2-1 1-1 2-2 2-1 1 0 1 0 1-1 1-1 0-1-1-1s-1 0 0-1 1-1-1-1c-1 0-2 0-3 1z" fill="#ccc"/></svg>