<svg version="1" xmlns="http://www.w3.org/2000/svg" width="600" height="400" viewBox="0 0 450.000000 300.000000"><path d="M269 5v5c1 0 1 1 0 1-2 1 0 5 3 5 1 0 2 0 2 1s-1 1-2 1c0 0-1 0 0 1 0 1-1 1-1 1-1 0-2 0-2 1v2c-1 2-1 2 0 3 1 0 1 1 1 2 0 2 0 4 1 3 0 0 1-1 3-1 1 0 1 0-1 2l-2 3h3c2 0 3 0 3 2 0 1 1 2 3 2 1 0 3 0 3 1 0 0 0 1-1 1h-1c0 1 1 1 3 1 3 0 4-1 2-2-2-2-1-3 2-2 5 0 9 2 5 2-2 0-2 0-1 1 1 0 2 1 4 0 1 0 3 0 5-1 2 0 3-2 0-2-1 0-2 1-2 1 0 1 0 1-1 0-2-1 0-2 5-3 5 0 6 0 6 1s0 2-1 2-1 1 0 1c0 1 1 2 1 2 1 0 2-1 2-1-1-1 1-1 5-1s6 1 8 3c2 3 5 4 4 1l-1-1c-2 0-3-2-2-4 0-2 2-1 3 1 0 2 0 2 2 0 1-1 1-2 0-3-2-2-2-2 0-3 4-2 4-2 1-4-1-1-1-2 0-3 0-1 1-1 1 1 1 1 2 2 3 2 0 0 1-1 0-2l-1-1c-1 0-1 0-1-1s1-1 2-1c2 0 2 0 2 1-1 1 0 2 2 3 1 0 2 1 1 1 0 1 0 1 1 1s1 0 1 1c-1 0 0 2 0 3 1 2 1 3 1 3-1 0-1 1 0 2 0 1 0 1-2 0-1-1-2-2-4-1-3 0-5-2-3-5 1-1 1-1 0-1s-2 2-2 4v4c-1 0-1 1 0 1s1 1 1 2c-1 3 4 5 6 2 1-2 4-3 4-1 0 1 0 2 1 2s1-1 1-2v-3l2 3c2 2 2 2 2 0 0-1 0-2-1-2-1-2-1-4 1-4 1 1 1 0 0-2-1-1-2-2-1-2 0-1 0-2-1-2-1-1-1-1 0-2 0 0 1-2 1-3-1-2 0-3 0-4 1 0 1 2 1 4s1 6 2 8 1 4 0 6c0 3-1 5 0 6 1 2 1 2 3-2 1-3 2-6 2-7 0-5 4-8 24-17 10-5 27-7 31-4 2 1 3 10 1 8-1 0-1 0-1 1s0 1 1 1 1 1 1 2 0 1-2 0c-1-1-1-1-1 2 1 4-1 9-2 7-1-1-1-1-1 1 2 4-8 26-15 34-1 1-3 4-4 5s-3 2-4 3h-5c-2 1-3 1-2 0l1-1c0-1-1-1-1 0-1 0-1 0-1-1 1 0 1-1 0-1s-1 1-1 1c0 1-1 2-1 2-1 1-2 0-2-1 0 0 0-1-1 0-1 0-1 0-1-2 1-2 1-3 0-2-2 0-2 4-1 4s1 0 0 1c0 1 0 1-1 0s-4 3-8 8c-1 1-1 1-1-3l1-4-2 5c-2 5-4 5-2 0 2-4 1-5-2-3-2 1-2 0 0-6 0-1 0-1-1 0l-2 2c1 0 0 1 0 2-1 1-1 1-1 0s0-1-1-1c-1 1-1 1-1 0l2-2c1 0 1-1 0-1 0-1-1 0-2 1-1 0-2 1-2 1-1 0 0-1 0-2 2-2 2-2 0-4-1-1-2-2-2-3s4-5 6-5c0 0 1 0 1-1s-1-1-1-1c-1 1-2 0-2-1-1-2-3-4-6-6-6-3-7-5-5-5 1 0 0-1-1-3-2-2-5-3-5-1 0 0 0 1 1 1 0 0 0 1-1 0 0 0-1 0-1 1s0 1 1 1 1 1 1 2c-1 1 0 2 0 3l2 2c0 1 0 1-1 1 0-1-1 0-2 1-2 1-3 1-1-2 1-1 0-2-1-3 0-1-2-3-2-6-2-5-4-6-7-3-1 1-1 1-1 0v-2c-3 0-4 0-4 1 0 2-1 2-2 1-2-1-3-1-3 0s-1 1-2 0-1-1-2 0c-1 2-1 2-3 1-1-1-1-1-1 2 1 2 0 3 0 3-1-1-1-1-1-2 0-3-2-2-3 0-1 3-1 8 1 11 1 1 1 2 0 3-1 0-1 1-1 2 1 0 1 1 0 1s-1-1-1-2c0-2-2 0-2 3 0 1-1 2-1 1-1 0-1 0-1 1 1 3 0 4-1 3s-2-1-2 0c-1 1-2 1-2 1-1-1-3 2-3 5v3l-2-2c-1-2-1-2-1 0 0 1-1 1-3 0-2 0-2 0-2 1 1 3-2 4-4 2-1-1-1-1 0 1 0 2 0 2-1 1-2-1-2-1-1 2 2 3 0 4-2 1-2-2-2-2-2-1 3 7 2 8-1 3-1-3-3-5-3-5-1 0-1 1 0 2s1 2 1 3-1 1-1-1c-2-3-11-11-12-10 0 1 0 2 1 4 1 1 1 2 0 2 0 0-1 0-1-1 0-2-7-1-8 1s-1 2 1 2c0 0 1 0 0 1 0 1 4 5 6 5 3 0 1 2-4 3-7 2-9 2-7 1 1-2 0-7-2-8-1-1-1-1 0-1l1-1c0-1-1-1-3-1-8 2-20-8-29-25-1-1-1-1-1 1v2l-1-2c0-1-1-4 0-5 0-2 0-3-2-4-1-1-1-1-1 0 1 1 1 3 0 3s-1 3 0 7c1 8 1 10-3 10-2 0-3 0-3 1 1 1 1 3 2 3 0 1 0 2-2 2h-4c-2 0-3 0-3-2s0-3 1-3c2 0 4-5 3-6 0-2-2-2-3 2-1 3-3 2-3-3s1-6 3-5c2 0 1-3-2-5-2-3-3-4-3-10-1-8-4-13-5-11s-1 6 1 8c1 3 2 5 3 12 0 4 0 4-2 5-1 0-2 1-2 1 0 1 1 1 2 0 1 0 2 0 3 2 0 1 0 2-1 2s-1 1 1 3c2 5-1 17-3 13-2-2-3-1-3 2 0 2-1 3-3 3-1 0-2 0-1-2 0-3-2-3-3-1s-1 3-2 3-3-3-3-5c1-1 0-2 0-3-1-1-1-4-1-8s-1-8-1-9c-1 0-1-3-2-6v-6l-2 4c-1 3-2 4-4 3-1 0-2 0-3 1 0 1-1 1-1 0-1 0-1-1 0-2 1 0 1-1 0-1 0-1-1-1-2 0s-1 2 0 2c1 1 0 2-2 2-4 0-7 3-6 7 0 3 0 3-2 3-1 0-1-1-1-3 0-3 1-9 1-17 1-3 2-7 3-8 0-2 1-4 1-5-1-1 0-3 0-4 1-1 1-3-1-2-1 1-1 2-1 4s-1 4-2 5-1 1-2-1-1-2-2-1c0 1 0 2 1 4 1 3 1 14-1 17 0 3-2 2-3-1-2-3-3-2-2 2 0 3 0 6-1 7-1 2-1 3 0 4 3 2 2 3 0 3s-2 0-1 1c4 3 1 6-3 3-5-2-6-4-5-6 2-1 0-3-1-1h-3c-3-1-7 1-7 2s-3 2-4 1c-2 0-7-8-7-10 0-1 0-2-1-2s-1 4 0 5c2 2 0 8-2 9-3 2-3 2-4-1-1-2-2-3-4-1-1 2-3 1-3-2 0-1 0-2-1-2s-1 1-1 1c0 2-5 4-9 4-2 0-3-1-3-2s0-1-2 1-3 2-8 2c-3 0-6 0-6 1-1 0-3 1-4 1-3 0-11 8-9 9s-1 2-11 3H21h-1c-1 0-1 0-1 1s-1 1-2 1-2 0-2 1 0 1 1 1 1 0 1 1-1 1-2 1c0 0-1 0-1-1 1-1 0-1-1-1s-2 1-2 2 0 3-1 3-1 0-1-2c1-3-1-4-3-1-1 1-3 2-4 2-2 0-2 1-2 20v19h4c3-1 5-1 6-1h2c0 1-1 2-3 2-10 0-9-1-9 18 0 17 0 18 5 14 2-1 3-2 4-2s2-1 3-2c1 0 2-1 3-1 1 1 2 0 3 0 0-1 1-1 2-1 4 0 5 0 5-2s2-3 5-1c1 1 1 2 1 5-1 2-1 4 0 4 2 1 0 9-2 9s-2 4 0 6c3 2 7 0 4-3-2-2-1-3 0-2 2 1 2 1 4 0 3-2 8 0 9 4 2 3-1 11-4 11-1 0-2 1-3 1-1 2 1 4 3 3 3-1 3 0 2 4-1 2-2 2-4 2-9-1-8-1-9 3 0 3 1 4 7 2 4-1 13-2 13-1s-1 1-1 1c-3 0-2 2 1 3 2 0 5 1 6 0 1 0 2 0 2 1s1 1 2 0h8c4 0 5 0 4 1-2 1-2 1 0 2 3 1 3 1 4 0l1-1c1 0 1 0 0 1 0 1 0 1 1 1 0 0 1 0 1-1 1-1 2-1 3-1s2 0 2 1c-3 3 6 5 11 2 4-2 4-2 6-1 0 1 2 2 2 1 1 0 1 0 1 1 1 7 1 7-2 8-4 1-10 0-10-2 0 0 0-1-1-1s-1 1-1 1c0 2-4 3-5 1 0-1-2-1-5 0-5 0-6 0-4-3 1 0-1-1-6-1-4 0-7 1-6 1 0 1-1 1-2 0-4 0-4 1 0 2 2 1 3 2 3 3s1 1 2 1c1-1 2-1 3-2 1 0 1 0 1 1-1 1-1 1 1 1 4 0 4 0 2 2-1 1-3 2-6 2-2 0-5 0-5 1-1 1-1 1-3 0s-3-1-4 0c0 1-1 2-2 2 0 0-1 1-1 2-1 1-1 2-2 2 0-1-1 0-2 1-3 1-2 3 1 2 1 0 3-1 5 0 3 0 4 0 3-1-1 0-2-1-2-2s2-1 6-1c1 0 3 0 3-1 1-1 2-1 4 0 3 2 3 2 1 3s-1 3 3 3c2 0 3-1 0-2-1-1-1-1 1-4 2-1 3-3 3-4s1-2 2-3c1 0 3-1 4-2 2 0 4-1 6 0 3 1 12 1 17 0 1-1 3-1 5-2 3 0 5-3 5-5h2c1 0 2 0 2-1s-1-1-3-1h-3l3-2c2 0 4-1 6-1 1 0 2-1 2-2 0-2 1-3 4 0 2 1 2 1 2 0s1-1 3-1c3 0 4 0 6-3 1-2 3-3 3-3 3 0 5 0 5-2 0-4 2-5 9-3 6 2 7 2 4 2-1 0-1 1-1 1 1 2 15 1 18-2h8c7 0 12-2 10-5-1-1-1-1 0-2 0 0 2-1 3-2s1-1 0-1-3 1-4 2c-2 2-2 2-4 1-1-1-2-2-3-2 0 0-1 0-1-1s-5-3-6-1c-1 0-2 1-4 0-2 0-2 0-2 1 1 1 0 1-1 1s-1 0 0 1c2 1 1 3-2 3-1 0-1 1-1 2 1 1-2 2-4 0-1-1-2-2-2-1-1 0-3-1-5-2-2-2-5-3-5-3-1 0-2-1-2-1 0-1-1-1-3 0-1 1-3 1-4 1-1-1-3 0-5 0-1 1-3 2-4 2s-2 1-3 2c-2 1-2 1-3 0s-3-1-4-1c-2 1-3 1-3 0s-1 0-2 1-3 2-3 1c-1 0-2 0-2 1 0 2 0 3 2 2s7 0 7 0c0 1-2 2-3 2-5 0-8 1-9 2-1 2-4 2-4 1s1-2 3-3c4-1 2-2-3-2-3 0-5 0-4-1 0-1-1-1-4-1-6 0-8-2-6-4 1-2 0-10-1-10s-1-1-1-2c0-3 2-2 3 1 1 4 3 5 5 5 3 0 1-3-3-8-3-3-4-5-4-6 1 0 1-1 0-2 0-1 0-3 2-4 2-3 1-4-3-1-5 3-7 5-7 8-1 3-3 4-3 1 0-2 3-6 7-10s4-4 6-3 2 1 2 0 1-2 4-1c1 0 3 1 3 0 0 0 1 0 1 1 2 1 14 1 14 0s-2-2-3-2c-2 0-3-1-2-1 0 0-2-1-4 0-2 0-3 0-3-1 1-1 11-1 12 1h3c1 0 3 0 3 2 2 1 2 1 3 0s1-1 0-1-2-1-2-2c1-2-1-2-4 0h-2c1-2-1-5-3-5-1 0-2 1-3 2s-1 1-2 0c0-2-5-1-5 1 1 0 0 1-1 1 0 0-1 0-1-1s-1-1-2-1-2 1-2 1c0 1-1 1-2 0-2-2 0-8 2-6 1 0 2 0 3-1 2-3 12-4 12-2 0 3 5 2 7-1 1-2 2-3 5-3 3-1 6-1 8-2 2 0 3 0 4 2 2 3 5 3 5-1 1-3 4-3 4 0 0 1 1 3 2 4 2 2 0 3-7 2-2 0-4 0-5 1-2 2-9 4-8 3 0-1-1-1-2-1-2 0-3 0-3 1-1 1 0 1 2 1s2 0 1 1-1 2 0 2c1 1 3 0 2-1 0-1 0-1 1-1 0 0 2 0 5-1 5-1 7 0 6 2 0 1 0 1 1 1 1-1 2-1 3-1l-1-1c0-1 0-1 2-1 1 1 2 1 2 0-1 0 0-1 2-1 1-1 4-1 7-2 2 0 5-1 7 0 2 0 4 0 6-1 6-2 17-4 18-3s2 1 3 0 3-1 6-1c2 0 4 0 5-1s7-2 7-1c-1 1 0 1 0 1 1 0 2 0 2-1 0 0 1-1 2 0 1 0 3 0 5-1s4-1 4 0 4 1 4 0c1-1 4-1 11-1 9 0 11-1 11-2s1 2 3 5c1 4 3 7 3 7 1 0 1-2 0-4-2-4-7-19-8-24v-5l3 2c2 1 4 3 4 3 0 1 1 1 1 0 1 0 2-1 3 0 1 0 1 0 1-2 0-1 0-2 1-3 1 0 1 0 1 1s0 1 2 0c1-1 1-2 0-2-2-2-3-6-2-7 0-1 1-1 1 0 1 1 1 1 1-1 0-3 1-3 4 0 2 2 2 2 2 1-1-1-1-3 0-4s1-2 0-2c-1-1-1-1 0-1s2-1 2-1c-1-2 3-6 5-5 1 1 1 1 1 0 0 0-1-1-1-2-1-1-2-2-1-2 0-1 1-1 1 0 1 1 1 1 1-1-1-2 0-3 2-1 0 1 1 1 1 1 1 0 1 0 0-1-1-2 0-5 1-5s1 1 0 1c0 2 0 2 3 2v-1c0-1 0-1 1-1s1 0 1 1c1 3 1 6 0 7s-1 1 0 1c0 0 1 0 1-1 0 0 1 0 0 1 0 1 0 1 1 1 1-1 7 0 7 1 0 0 0 3 1 6 1 5 2 6 3 5s1-1 1 1c-1 1-1 3-1 4-1 1-1 2-1 2-1 1 0 16 1 15 1 0 1-1 0-2 0 0 0-1 1-1 0 0 1-2 1-4 1-2 2-5 3-6s2-2 1-2c-1-2-1-5 0-7 2-1 2-1 2 0s0 2-1 2-1 0 0 1c0 1 1 1 1 0 1-1 1-1 1 0s-1 2-1 2c-1 0 0 1 1 1 2 1 2 1 0 2-1 0-2 1-2 2 0 0 1 1 2 0 0 0 1 0 1 1 0 2 0 3 1 3s1-1 0-1c0-1 0-1 1-1 0 1 1 1 1 0s0-1 1 0 1 2 0 3c-1 2-1 3 0 3s1 0 1 1 0 1-1 0c-1 0-1 0-1 1 0 0 1 1 2 1s1 1 0 1c-1 1-2 0-3-1l-2-3-3 3c-1 1-2 2-3 2 0 0-1 2-1 3 0 4 2 6 2 2 0-1 0-1 1 0 0 1 1 1 2 0 0-1 1-1 2-1 1 1 0 3-1 2-1 0-2 1-3 4 0 2-1 4-1 5-1 1-1 2 0 2s1 0 1-1 0-1 1-1 1 1 1 2c-1 1-1 1 0 1 1-1 2-1 2 0s-1 1-1 1c-1 0-1 0 0 2 1 0 2 1 3 0 2 0 2 0 1 2-1 1-1 2 0 3 2 2 2 2 0 4 0 1-1 2 0 2 0 0 1 0 1-1 0 0 1 0 0 1 0 1 4 1 4 0 1 0 2-1 3 0 2 0 2 0 0 2-1 0-2 1-4 1-1 0-2 0-2 1 0 0-1 1-2 0-2 0-2 0-1 2 1 1 2 1 3 0s8-1 7 0c0 1-1 1-2 1s-1 0 0 1 2 1 2 1c0-1 1-1 2-1s1-1 1-1c-1-1 0-2 1-2 0-1 1-2 0-2 0-1 0-2 1-2s1 0 1 1 4 1 6 0c1-1 1-1-1-1l-2-2c0-1-1-1-2-1l-1-1c1-1 2-1 2-1 2 0 2 0 2-1-1-1-1-2 0-2s1-1 0-1c0-1-1-2-2-1-1 0-1 0-1-1 1-1 2-1 3-1 1 1 2-2 1-5-2-3 1-3 4-1 1 2 2 3 2 4 0 2 0 3 2 5 1 1 2 3 2 4-1 1 0 2 2 4 1 1 3 3 3 4 1 2 1 2 2 1 0-1 0-3 1-6 0-3 0-3 1-1l1 2v-2c0-2 0-4 1-4 1-4-2-2-4 2l-2 4c-1 0-3-7-2-8 1 0 1-1 1-2s1-2 1-2c1 0 1-3 2-7v-6-1c0-1 0-2 1-4 1-1 1-3 0-4s-1-1 1-1l2-2c0-1 0-1 1-1s1 1 1 2c-1 2-1 2 0 1 1-2 2-3 2-4s1-2 2-2c0-1 2-2 2-4l1-3 3 4 3 3 1-2c1-2 1-3-1-5-1-1-1-2 0-2s1-1 1-2c-1-1 0-1 5-1 3 1 15 1 26 2s20 2 20 2c1 1 8 2 7 1 0-1 1-1 3-1 1 0 3 1 4 2 1 2 1 2 3 1s3-1 4 0c0 1 0 1-1 1s3 2 5 2c1 0 1-5 1-19 0-20 0-20-2-20-1-1-3 0-4 0-2 2-5-1-3-3s1-4-1-4c-4 0-4-3-1-5 4-3 4-8 1-8-2 0-2 0-2-3 1-3 1-3 0-2-3 2-10 3-11 2-2-1 0-4 2-5 8-2 8-2 5-6-2-2-2-2-3-1s-3 1-3 0c-2 0-3 0-4 2s-1 2-3 1c-1-1-1-2 0-3 1 0 1-1 1-1-1 0-1-1 0-2 2-2 0-3-2-1-2 1-8 0-7-1s1-3 2-6c0-3 1-4 4-4 4 0 8-3 8-6 1-1 2-3 2-3 1-1 1-2 2-3 0-3-3-3-5 0s-7 2-5-1v-3-5c0-3 0-3-2-3-1 1-3 1-4 1-3 1-4 0-2-4 1-1 2-4 2-6l-1-4h-50v3c-1 3-4 3-5-1 0-2-1-2-4-2-4 0-6 1-5 3 0 1 0 2-1 3-2 0-3 7-1 11v5c-1 2-1 2-1-1 0-2 0-4-1-4 0-1 0-3-1-6 0-2 0-6-1-8l-1-3h-23v4c0 13 0 14-2 14 0-1-2 0-2 1-2 2-3 4-1 2 2-1 3-1 2 0 0 1-2 2-3 3-2 0-3 1-2 1s1 0 1 1c-1 1-5 0-5-1 0 0-1-1-2-1-8 0-16-11-16-20V0h-20l-1 5zm78 98c0 1 0 1 1 0 1 0 1 0 1 1-1 1-1 2 0 2 1 1 1 2 0 3 0 0 0 1 1 1s1 0 1 1c-1 1 0 1 2 0 2-2 1 0-1 2-1 2-1 2 0 5 1 1 1 2 0 2-1-1-1 0-1 2s0 2-1 0c-1-1-2-2-1-2 1-2-1-7-2-7s-2 0-3-1-1-1-1 0 0 2 1 2 1 1 0 3-1 2 1 2c2-1 2-1 1 0-1 3-3 2-3-1 0-2-1-3-2-4s-1-1-1 0c0 2-1 0-2-2v-4c-1-2 0-3 2-3 0 1 1 1 1 0l-1-1c-1-1 0-1 2-1l4-2c0-1 0-1 1-1 0 1 1 2 0 3zm-233 3c0 2 0 2-2 2-2-1-3-1-4 0 0 2-4 3-4 1-1-1-1-1-4 0-5 1-11 2-11 1 0-3 5-5 13-6s11-1 12 2zm212 1c-2 1-2 1 0 1 1 0 1 2 1 5 0 1 0 1 1 1 0-1 1 0 1 2 0 1 1 4 2 6 2 5 2 5 1 4-2-1-4-1-4 1-1 1-3 1-6 0-2-1-2-2-1-4 0-2 0-2-1 0s-2 2-3 0c-1-1-1-1 0-2 0 0 1-1 0-1 0-1 1-1 2 0 1 0 1 0 0-1s-1-1 1-1c1 0 2 0 2-1s-3-3-3-2c-1 0-1-1-1-2s0-1-1 0c-1 2-2 1-1-2 0-1 1-2 2-2 0 0 1 0 1-1s2-1 3-1 2-1 3-1c0-1 1-1 1-1 1 0 1 1 0 2zm-128 7c1 2 4 2 6 1 1-1 1-1 2 0 2 1 6 1 6 0 1 0 3-1 6-1h7c2-1 7 0 7 1 0 3-4 5-11 5h-7c-2 1-3 1-5 1s-2 0-2 3c1 4 1 4-8 1-3 0-6-1-7 0-1 0-2-1-2-1-3-4-20-3-18 0 0 2-5 5-7 5s-7 1-9 3c-1 1-4 1-7 1s-5 1-7 2c-1 2-2 2-3 1s-1-1-2 0c-2 2-5 0-5-2 1-1 1-2 0-2-1-1-1-1 1-2 3-1 4-1 2 1-1 2-1 2 1 2 1 0 2-1 3-2 4-5 6-6 8-3 0 1 0 1 2-1 0-1 2-1 5-1s5 0 5-1c1 0 2-1 3 0 2 0 3 0 3-2s-2-2-6-2h-6c-3 0-7 0-9 1-5 1-22 3-34 4-5 0-13 1-19 2s-13 2-16 3c-3 0-12 2-19 2-7 1-17 3-22 4-7 1-10 1-14 0l-4-1 7-1c11-3 18-4 32-6 19-2 21-2 25-4 2-1 6-1 9-1 6 0 6-1 7-3 1-3 5-4 4 0 0 2 0 2 4 1 2 0 5-1 6-1 1-1 4-2 6-1 2 0 5 0 6-1 6-4 27-6 35-3 6 1 30 1 31 0 0-1 1-1 1-1 0 1 1 0 2-1 2-1 5-1 7 0zm140 9c0 5 2 12 2 8 0-1 1-2 2-2s1 0 0 1-1 1 1 0c2 0 2 0 3 3 2 4 2 13 0 16-1 2 0 5 1 6s1 1 0 2c0 0-1 1 0 2 0 1 0 2-1 2 0 0-1 0-1-1 0-7-7-24-9-22-1 1-5-1-5-2s-1-1-2-1-1 0 0-1 6 1 7 2c1 2 1 2 0-6-1-7 0-19 1-15 1 1 1 5 1 8zm-106 2l-2 2c-3 3-2 4 1 3 3 0 4 0 1 5-1 2-1 3-1 4 1 1 14-2 15-3 2-2 4 0 3 3 0 1 0 3-1 3 0 0-8 1-17 1-13 0-16 0-18 1-1 2-4 2-4 1-1-1-2-1-4 0-1 1-6 1-10 1-7 0-8 0-9 2-1 1-1 2-2 2s-4-9-3-10c1 0 1-1 1-2 0-2 0-2 1-1 1 4 2 5 5 4h13c9 0 10-1 10-3s-1-2-3-3c-3-1-4-3-1-3 1 0 2-1 3-2 1-2 1-3 6-3 2 1 5 0 5-1 2-1 11-3 11-1zM91 149c1 0 2 1 1 1l2 2c4 1 0 3-5 4-9 0-9 0-6 2 1 0 2 2 1 2-1 2 2 1 4-1 1-1 3-2 5-2 1 0 3-1 4-1 1-1 1 0 1 2 0 3 0 3-1 2-3-2-6-1-11 4-5 6-7 9-7 15 0 3 0 4-1 3-1-2-1-10 1-13 1-4 1-4 0-4-2 0-4 7-4 12 0 6 0 6-3-2l-1-3-1 3v3l-2-2-2-3 1 3c0 2 0 2-1 1s-2-1-3 1c-1 1-1 1-3-3-1-5-3-6-5-4-1 1-2 2-2 1 0 0 0-2-1-2-1-3 8-5 9-3l2 2c2 0 1-3-1-4s0-1 5 1c2 0 2 0 2-1-1-1-1-1 1 0 1 0 1 0 0-1-1-2-1-2 3-3 2-1 3-2 3-3 0-3 3-9 6-9 1 0 1 0 1-1s4-1 8 1zM199 18c-2 1-3 3-3 4 0 2 0 2 1 1 2-2 2-2 5 0 1 1 3 4 4 5s2 2 3 2c0 0 1 0 1 1-1 2 0 3 1 2s1-1 3 0c1 2 1 2 0 2s-2 0-2 1 2 2 3 1 6 3 6 5-3 3-3 2-1-1-2-1c-2 1-1 8 1 10 1 1 2 2 1 2-1 2 1 6 3 6 1-1 1 0 0 2 0 3 0 3 2 4 1 0 2 1 3 2 0 1 1 2 1 2 1 0 3 3 6 6 4 5 5 6 5 4 1-1 9-10 16-15 3-3 3-6 1-6-1 0-2-1-2-3-1-1-2-3-2-4-1-1-2-4-2-6 0-4-2-10-3-10s-1-1-1-1c0-4-23-16-35-19-9-1-8-1-11 1zm193 2c-10 3-25 10-30 15-3 3-4 5-6 10-1 4-2 7-2 8-2 2 1 6 9 13 11 9 11 9 14 6 1-1 3-2 4-2 1-1 2-2 3-4 0-2 1-5 3-6l3-2-3 1h-3l2-3 3-3c1-1 3-8 2-8 0-1-1-1-2 0s-3-1-2-4c0-2 1-2 3-2 2 1 2 1 2-1 0-3 4-7 6-7 1 0 4-4 3-4-1-1 7-5 9-5 2 1 3 0 0-2-2-3-10-2-18 0zM10 60c-1 3-3 4-3 2 0-1-2 0-3 2-4 4-4 5-4 14 0 8 0 9 1 8s2-2 1-2c0-1 0-1 1-1 1-1 3 3 2 5 0 1 0 1 2 0 1-1 3-1 3 0 3 1 5 1 6-1s1-2 3 0c1 1 1 1 3 0 2-3 0-5-4-5-1 1-2 1-2 0s0-2 1-2l2-2c0-1 1-2 2-2s1 0 0-2c-1-1-2-2-3-2-4 1-8-3-4-4 1-1 1-4-1-4-1-1-1-2-1-4 1-3-1-3-2 0zm431 78c-3 1-8 1-12 0-7 0-7 0-6 2 2 1 2 2 0 2-1 0-2 0-2 1 0 0-1 1-2 1h-5c-1 1-2 0-3-1 0-2 0-2-1 0-1 1-3 1-5 1-3-1-5-1-6 0s-4 0-8-1c-6-1-7-1-9 0-3 1-9 1-9 0-1-1-2-1-3 0-2 0-4 1-6 0-5 0-5 1-1 5 2 1 3 3 2 3-1 2 2 3 4 2 1-1 2-1 3-2h5c2-1 3-1 3 0 1 1 0 1-1 1-2 0-3 0-2 1 0 1 0 1-1 1 0 0-1 1 0 2 0 1 1 1 2 0 3-1 6-1 6 0s-1 1-4 1c0 0-1 1-1 2 0 2 1 2 3 2h16c6-1 9-1 9 0s1 1 2 1c0 0 1-1 1-2s3-2 4 0c0 1 2 1 9-1 5-1 12-1 14 0 0 1 1 1 2 0 1 0 1 1 2 2 0 1 1 2 1 2 1 0 1 0 1 1-1 0-1 1 0 2 2 1-3 2-7 1-2-1-4-1-4 0-1 1-6 0-6-1s-1-1-1-1c-2 0-3 2-1 2 1 0 0 1-2 2-4 2-12 4-11 2 2-2-10-7-13-5-1 1-1 1 0 1s2 0 2 1c-1 1-1 1 0 1 0 0 1 1 1 2s1 2 2 2c1 1 2 2 2 3s1 2 2 2c2 0-1 4-5 5-7 1-4 2 6 2 6-1 10 0 11 0 0 1-4 5-5 4-1 0-9 2-9 3s0 1 6 0 12-6 12-9c0-2 3-3 4-1 1 1 1 1 1 0 0 0 1-1 3-1 4 0 4 1 1 4-2 2-4 3-6 3s-4 1-5 1c0 1 0 1 2 1 1-1 2 0 3 1s1 1 3 0c1-1 2-2 3-1 1 0 2 0 2-1s1-1 1-1c1 0 2 0 2-1 1-2 8-3 9-2s1 1 0 1-2 0-2 1 4 1 5 0 1-6 1-13c0-11 0-12-2-12-1 1-2 0-2 0 0-1-1-2-3-2-4-2-2-3 3-2h4v-9c0-11-1-12-9-11zm-137 10c0 1-1 1-2 1-2-1-5 4-5 8 0 2-1 5-1 6-1 3-1 8 1 8s9-8 8-10c-1-1-1-1 0-1 0 0 1-3 1-7 0-6 0-7-2-5zm-51 9c1 9 1 10-9 9-5-1-6 0-3 2 2 2 1 3-3 3-4-1-6 0-3 1 1 1 1 1 0 1s-2-1-2-2c-1-2-3 0-3 2 0 1-1 2-1 2-1 0-1-1-1-2 0-2-2-2-3 0 0 1-1 2-1 2-1 0-1 1 0 1 1 1 2 1 3 1 1-1 2-1 3 0s4 1 7 0 4-1 4 0c-1 3 0 4 3 3 1 0 2-1 2-2l2-2c1 0 1-1 1-3-1-2 2-3 3-1 2 2 4 0 4-3-1-1-1-2 0-2 0 0 1 1 1 2 1 2 3 4 5 5 3 2 4 3 4 1-1-1-2-3-2-5-2-5-6-9-6-4 0 0 0 1-1 0-1 0-1-2-1-4 0-8 0-10-2-12-1-1-1-1-1 7zm-19-3c-1 1-3 2-5 2-3 0-6 0-7 1s-3 1-5 1c-1 0-3 1-4 1-1 1-1 1-2 0-2-1-6 0-6 2 0 1-1 1-1 1-2 0-5 4-4 5s1 1 3 0c1 0 4-1 6-1 3 0 4-1 5-2 2-2 2-2 5-1 3 0 4 0 5-1 0-1 1-2 1-1 2 1 6 0 10-1 1-1 2-2 1-2s-1 0 0-1c0-1 1-1 2-1s2-1 3-2 1-1-3-1c-2 0-4 1-4 1zm142 8l-4 4c-3 1-5 3-4 4 0 1 3 1 4 0 0-1 1-1 1 0 2 1-2 4-4 4-3-1-4 1-2 4 1 2-2 3-10 3-3 0-3 0-2 3s3 3 9 0c1-1 3-1 4-1s2 0 1-2c0-1 0-1 2-1 3 1 6 0 10-4 2-2 2-2 5-1 2 1 2 1 4-1 0-1 2-2 3-2 6-2 1-6-6-6 0 0-1 0-1-1s-1-1-2 0c-2 0-3 0-4-2-2-2-4-3-4-1zm-197 13c0 1 1 2 2 2l1 1c0 1-2 1-3 1s-2 1-3 2c0 1-1 1-2 1-1-1-8 0-8 1s1 1 3 2c1 1 2 1 2 1 0 1-6 4-8 4 0 0-1 1-1 2-1 4 2 4 3 1 0-2 6-4 9-4 4 0 8-1 11-3 2-3 3-2 2 3 0 3 6 2 12-1 3-2 4-3 5-2 0 0 1 1 2 0 1 0 1-1 0-1-2-1-7-2-8-1s-2 0-3-1c-1 0-2-1-4 0-2 0-3-1-6-3l-3-4 2-1c2-1 2-1-1-1s-4 0-4 1zm84 5c0 1 2 3 3 5 3 4 4 10 2 8-2-1 0 10 2 16 3 5 4 8 5 16 0 5 0 5-1 4s-2-4-3-6c0-2-2-6-3-10-2-3-3-7-3-8 0-2-2-3-2-1-2 6 3 30 6 30 1 0 4 7 4 10 0 4-2 1-4-3 0-3-2-6-3-7-1-2-3-5-4-7l-2-5v6c0 3 1 8 2 10 0 2 1 6 1 9 1 4 1 4-1 2-2-3-5-8-5-9s0-1-1-1c-3 0-2 13 1 21 2 3 2 5 1 7-1 4-1 4-4-5-1-4-2-6-4-7-1 0-2-2-3-3 0-2-1-2-2 3-1 3-2 7-2 9-1 5-2 7-2 3s-5 9-7 19c-3 14-3 14 4 14 5 0 6 0 4-5-1-2 1-3 3-1 1 1 1-1 1-8 0-18 2-28 3-18 1 3 2 5 3 7 4 4 9 16 7 16-1 0-4-4-6-7-1-2-2-3-3-3s0 11 1 15l2 4h50l2-4c2-5 3-5 4 0 0 4 0 4 4 4s4 0 3-3c0-3 0-3 2-2 3 1 23 1 26-1 4-2 9-1 11 1 1 1 3 1 9 1 5-1 12-1 17-1 4-1 9-1 10-2s3-1 4-1 2-1 2-2 0-2-1-2c0 1-1 0-2 0-1-1-1-1 2-1 2 0 3 1 4 1 0 1 1 2 4 2 4 0 7-2 3-2-2 0-2 0 0-1s9 0 10 1c2 1 2 1 5-1 3-3 4-3 4 1l-1 3 2-2c2-2 9-3 10-1 1 1 3 0 5-1 2 0 5-1 6-1s2-1 2-2-1-2-5-2c-5-1-5-1-5-4 1-2 0-2-2-2s-4 2-2 3c0 0 1 1 1 2s0 1-2 0l-2-2c0-1-1-2-2-2-2-1-2-1-1-2 3-1 2-2-2-10-4-10-8-12-18-9-4 0-9 1-10 2-5 1-7 3-8 7 0 3-1 4-2 4-1-1-2-1-3 0s-2 0-3-1-1-1-3 0c-1 2-1 2 1 2 3 0 3 2 0 3s-4 1-4 0c0-2-11-1-12 0s-2 1-3 1-2 1-3 2-3 2-5 3c-3 1-6 3-7 4-2 1-4 2-5 3-1 0-3 1-4 1-1 1-3 1-4 0s-2 0-4 1c-2 2-3 2-3 1s-1-2-2-1c-2 0-2 3 0 2 3 0 2 2 0 3s-9-1-10-3c-1-1-1 0-1 1s-1 0-4-4c-5-7-6-11-2-7 3 4 4 3 2-1-5-10-11-24-10-26 0-1 0-1 1 0 0 0 1 1 1 0 1 0 1 1 2 1 0 1 1 2 1 1 1 0 1 1 0 1 0 2 0 2 1 1 1 0 2 0 3 1 0 1 1 2 1 2 0-1 1 0 2 1 1 2 3 4 5 5s4 3 4 4 0 1 1 0c0 0 1-1 2-1l1-1c1-1 1-1 1 0 0 3 3 2 4 0 0-1 1-2 2-1 2 0 14-2 16-3 0 0 2-1 5-1 4-1 6-3 2-3-1 0-1 0 0-1 0 0 2-3 4-5s4-5 4-5c1 0 1-1 1-1s0-2 1-5c2-6 2-8 1-10-1-1-1-1 0-1s1-1 0-2c-2-1-2-1 0-1s2 0 1-3c-2-3-2-3 0-3 1-1 1-1 0-1-2 0-3-2-1-4h3c1 1 1 1 0 1-2 0-1 2 1 2 2 1 2 0 2-3l1-1c1 0 2 0 2-1s-1-1-1-1c-1 0-2 0-2 1s-1 1-2 0c-1 0-2-1-3-1-2 0-3-1-5-7l-2-6c0 2-2-2-2-5 0-2 0-3-1-3s-1-1-1-1c0-3-4-7-7-8-2 0-4-1-5-1-2-1-2-1-2 2 0 2-3 6-5 6-1 0-2-8-1-10 1-1 1-1 0-1l-1 1c0 1-1 1-1 0-1-1-2-2-3-1s-1 1 1 2 3 3 1 5c-2 1-3 1-3 0s-1-2-2-2-2 1-2 2c2 5 2 10 1 10s-1-2-1-3c0-2 0-3-1-3s-2-1-3-2c0-1-1-2-2-1-1 0-2 0-3-2 0-3-3-5-3-3 0 1-2 1-4 0-4 0-5 0-7 2-3 4-5 10-3 14 1 1 1 3 1 3 0 1 1 1 2 2 2 0 4 3 2 3-4 0-9-7-9-13 0-3 0-4-1-3-1 0-1 1-1 2 1 0 1 1 0 1s-1-4 0-5c1 0 1-1 1-2-1 0 0-1 0-1 1-1 0-1-1-1-2 0-2 1-2 3 0 3-2 7-2 5v-2c-1-1-1-2-1-3 0-2-2 0-2 2 0 1 1 3 1 3 2 2 2 5-1 5-2 1-6-3-6-6 0-2-2-3-4-2-1 1 0 3 2 6 5 6 5 7 1 3l-3-2v3c0 4 0 4-1 3-2-2-4-8-2-9 1-1 0-5-2-5l-2-4c-2-3-4-5-8-7-1 0-1 0 0 1zm29 33c0 1 0 1 2 0 1 0 1 0 0 1-1 2-1 2 1 3h3c0-1 0-1-1-1 0 0-1-1-1-2 0-2 0-2 2-1l2 2c0 2 6 7 7 7 1-1 1-2 1-2-1 0 0-1 0-1 3-1 3 1 0 3-1 1-3 2-4 1-2 0-3 1 0 2 1 2 1 5-2 5h-1c0 1 0 2-1 3 0 1 0 1 1 0s2-2 3-1c1 0 1 1 0 2-2 2-2 4 0 3 1 0 1 0 0 1 0 1-1 2-1 1-1 0-2 0-2 1-1 1 0 1 0 1 1 0 2 1 2 1 0 3-1 2-4 0-4-5-5-8-5-11 1-2 1-2 0-1-3 4-6-4-5-14 0-3 2-5 3-5s1 1 0 2zm8 57c2 8 2 16 1 16-1 1-1 0-1-1s-1-2-4-3h-3v-5c1-4 4-12 5-12s1 2 2 5zM11 182c-1 1-2 2-1 3 0 1 0 1-3 1-5-2-7-1-7 5v5l4-1c2-1 5-1 6-2 2 0 2-1 2-5 0-3 0-4 2-4 0 0 1 0 1 1-1 1 1 1 5 0 3 0 5-2 4-3s-12-1-13 0zm436 18c-1 1-3 1-3 0-1 0-2 0-3 1-1 0-1 1 0 1 0 0 1 1 1 2s-1 1-5 1c-6 0-8 0-7 3 0 1 0 1-3 0-2-1-3-1-4 0s-1 1-2 0c0-1-1 0-4 1s-5 3-6 3c-2 1-3 0-3-3 1-3 0-3-5 0-6 5-6 6-2 6 3-1 3-1 2 0-1 2-10 2-11 0 0 0-2-1-4-1-3 0-4 1 0 1 1 1 2 2 2 4 0 3 0 3-3 3h-2l3 1c1 1 4 1 6 0 1-1 8-1 14-2 11 0 11 0 10 2s-1 2 0 4c2 1 8 2 8 0 0-1 1-1 1 0 1 2 2 2 3 1s4-1 5 0c4 0 4 0 5-2 1-3 4-4 6-2 0 1-1 2-1 3-2 2-2 2 0 2 4 1 1 3-3 2-2 0-3 0-3 1s-1 1-2 0c-2 0-2 0-2 1 1 1 1 2 0 2h-2c-1 1-1 1-2 1s-1 1 0 1c0 1-1 2-2 2-3 1-4 3-1 3 1 1 2 0 3-1 3-3 7-5 8-3 0 0 2 1 3 1 3 0 3 0 2-1s0-1 2-1c3 0 4-1 4-5s0-5-2-5c-1 0-1-1 0-2s2-3 2-4c0-2 0-2-1-1-1 0-2 1-4 0-1 0-3-1-4 0 0 0-1-1-1-2 0-2 1-3 3-3s2 1 2 3c0 1 2 1 3 0 0-1 1-1 1 0 1 0 1-3 1-6 0-5 0-7-1-7s-1 0 0-1 1-1 0-1-1 0 0-1c2-1 1-3-2-2zM19 226c2 8 6 12 10 9 1-1 1-1 1 0-1 1 0 2 1 3s1 1 0 2-1 1 0 1 2 0 3-1c0-1 1-1 2-1 4 0 5 0 5-1 0-2 2-3 3-2 1 0 1 1-1 2-2 3 0 3 5 0 3-3 4-5 2-5-1 0-2 1-2 1-1 1-1 1-3 0-2-2-8-2-8 1 0 0 0 1-1 1s-1-1-1-2c0-3-1-5-5-6-2 0-3-1-3-2s-1-2-5-3c-3 0-3 0-3 3zm-13 5c-1 0 0 1 0 2 1 3 2 3 5 2 4 0 4 0 3 1-2 1-3 2-4 2s-2 1-3 1c-2 1-2 1 0 2 1 1 1 1-1 1-1-1-2 0-1 0l-1 1c-1 1-1 1 0 1 3 0 5-1 5-3 0-3 6-2 7 2 0 3 2 5 2 2 0-1 0-2 1-3s0-6-2-6c-1 0-1-4 0-4 1-1-1-1-3-1-3 0-5 0-6-1-1 0-2 0-2 1zm443 8c0 1-2 1-3 1s-2 1-2 2-1 2-2 2c-3 1-3 2 1 4 2 1 2 1 3 0s1-1 2-1c0 1 0 1-1 2 0 0-1 1 0 1 0 1-1 1-2 1s-1 0 0 1 0 1-2 0c-3 0-4 0-4 1 1 0 2 1 3 1 3 0 5 1 5 2s-1 1-1 1c-1-1-2-1-2 0 0 0-1 1-2 1s0 1 2 2c3 1 4 1 4-1 0 0 0-1 1-1 2 0 1-2-1-4-1-1-1-1 1-1 1 0 1 0 0-1-1 0-1-1 0-1 0-1 1-4 1-7 0-6 0-7-1-5zM93 252c0 1-1 2-1 3 0 3-7 1-9-1s-2-2-4-1c-1 2-1 2-2 1-2-1-2-1-4 0s-3 2-4 1c-1 0-2 0-2 1-1 1 0 1 0 1 3 0 3 2 1 4-3 2-1 3 2 1 1-1 2-1 3 0 1 2 4 2 8 0 3-2 3-2 4 0s12-1 12-3l2-2c1 0 2-1 2-2s-1-1-2-1c-2 1-3 0-3-1s-2-2-3-1zm103 40c-3 2-3 2-4 1-2-3-13 0-18 4-3 3-2 3 7 3h10l4-4c5-5 5-7 1-4z" fill="#ccc"/></svg>