<svg version="1" xmlns="http://www.w3.org/2000/svg" width="600" height="400" viewBox="0 0 450.000000 300.000000"><path d="M67 29c-10 3-26 13-37 23-8 8-10 8-10 4 0-7-9-11-11-6 0 2-3 4-5 5l-4 2v53l4 5c6 5 6 6 1 3l-5-3v185h21l1-4c1-3 2-7 3-10s3-10 5-17c2-6 5-17 7-25 10-30 13-42 15-66v-8l3 5c3 6 8 10 13 10 2 0 3 0 3 2 0 1 0 1 2-1 1-1 5-3 7-4 6-3 17-10 21-14 4-5 19-15 22-15 1 0 2-1 4-4 2-5 4-5 4-1 0 2 0 4-1 4l5 5c8 8 10 15 4 14-1 0-3-1-3-1-1-1-2-1-2-1-1 0-1 1 0 1 0 1 1 2 1 2 0 1-7 1-9 0-1-1-1-1-2 0-1 0-2 1-2 0-1 0-1 1-1 1-1 1-1 2 0 2s1 0 1 1-4 1-6 0c-2-2-1 0 1 2s9 4 13 3h3l-3 2c-3 3-11 2-14-1-1-1-5-4-6-4s-1 1-1 2c1 2 0 3 0 3-1 0-1 1 0 2 0 1 0 2-1 2 0-1-1 0-1 1-1 2-1 2-4 1-1-2-2-2-2-1 1 2 0 2-4 7-1 1-2 3-2 3 0 1 0 1-1 1s-1 0-1 1c1 1 0 1-1 0-1 0-1 1 1 3l3 3c-1 0-1 1 0 1 1 2 1 2 0 2h-5c-2-1-3-1-3 0 1 1-7 1-9 0h-1c-1 0-2-2-3-4-2-4-4-6-5-4-1 1-1 1-2-1s-1 1 0 5c2 5 4 7 9 9 13 6 14 6 19 6 4 0 5 0 7 3 8 13 12 16 20 14 4-1 6-1 11 0 7 2 15 2 17 1 1-1 2-1 7 2 9 4 14 6 21 6 5 0 7 1 9 3 4 3 19 4 25 1 2 0 3-1 3-1l2 4c1 2 2 4 2 5 0 3 4 9 7 11 7 5 14 3 21-4l5-5c1 0 2 2 3 4 10 21 33 14 33-10l1-8h4c5 0 10-4 15-13 4-7 5-8 16-8 10 0 18-4 21-10 1-3 3-19 1-18 0 1-1 0-2-1-1-2-1-2-1 0 0 1-1 2-1 4-1 1-2 2-2 3 0 2-4 7-6 6-1 0-2-1-1-2 0-1 0-1-2 0-1 0-1 0 1-2 1-2 1-2 0-3 0 0-1-1-1-3s0-2-3 0c-2 1-3 2-3 3-1 1-1 0-1-1s-1-3-2-4-1-2 0-2 1-1 1-3c-1-2-1-2 1-1 1 2 2 2 2 1 1-1 1-1 2-1 0 1 0 1-1 2-1 0-1 1-1 3 1 1 1 1 3-1 1-3 1-4 0-4s-1-1 0-2 0-2-2-1c-1 0-1-1-1-2 0 0 0-1-1 0-1 0-1 0-1-1 1-1-1-2-3-2-1 0-1-1-2-1 0-1-1-1-2-1s-2-1-2-2 0-2-1-2-1-1-1-2c0-2-3-1-11 2-9 2-12 3-13 0-1-2-2-1-1 2v3l-2-3c-1-2-2-3-2-4 0 0-1-1-3-2-3-1-4 1-2 5 1 3-1 3-2 0-2-1-2-1-5 0-2 1-2 2-1 2 2 0 3 2 1 2-1 1-3 0-5-2-3-3-3-3-5-1-1 1-1 1-1-2 1-4 2-5 6-7 5-2 9-2 13 0 3 1 3 1 6-2 11-12 21-9 43 11 10 10 15 13 14 9-1-1 0-2 3-4 5-2 9-9 8-15-1-2-2-4-7-7-3-3-4-5-4-5 1-1 1-1-1-1s-4-2-4-5c0-2 0-2 3-1 5 0 8-1 8-3l1-1c1 0 3-1 3-3 2-2 2-2 2 4 1 3 1 7 1 8s0 2 1 3c1 0 4 0 7 1 2 1 6 2 7 2 4 1 5 3 3 14-2 7-2 10-1 15 1 4 1 14 2 24 1 13 2 20 4 28 3 13 5 28 5 35 0 2 1 9 3 14l4 9h58v-90c0-50 0-90-1-89 0 1-1 1-3 0-1-2-2-2-4 1-1 1-2 3-2 4 0 2-4 2-6 0-1-1-2-2-5-2-2 0-3-1-4-2s-1-1-5 0c-6 2-7 1-7-5 1-2 2-5 2-5v-4c-1-3-2-8-2-12-1-9-5-21-8-27s-11-15-13-16-3 0 0 2c1 1 1 4 0 4s-4-1-7-3-5-3-6-3c0 1 3 3 13 10 3 3 4 4 7 11 1 2 3 5 5 7 2 4 3 7 1 9l-2 2c0 3-12 15-16 17-2 1-5 3-6 4-2 2-9 1-11-2-4-6-8-5-6 3 2 7 1 9-3 5-3-2-3-2-4 0-1 1-2 1-2 1 0-1-1 0-2 1-2 3-7 6-9 6-1 0-1-1-1-3v-3l-1 3c-1 5-8 8-9 4-1-2-9-6-18-8-2 0-3-1-3-1 0-1-1-1-1 0-1 0-2-1-3-2-1-2-1-2-1-1 0 4-9 9-10 6-2-2 3-8 7-9s5-2 5-5c0-2 2-5 3-7 2-3 3-5 2-6 0-2-4-3-4-1 0 1 0 1-1 0-1 0-1 0-1 1s0 1-1 1c-1-1-2-1-3 0s-3 1-5-1c-3-1-3-1-4 0s-2 2-3 2c-2 0-2 0 1 2 6 5 5 7-5 7-7 1-10 0-9-1 0-1 0-1-1-1s-1-1-1-2c1-1 0-2 0-3-1-1-2-4-2-7 0-5-4-10-8-10-2 0-3 1-1 3 2 1 0 2-4 2-2 1-3 1-2 2 2 2 1 3 0 2-3-2-4 0-4 4 1 3 1 3-1 2h-3c-8 0-13 1-14 1-2 2-1-3 1-5 2-1 3-4 1-3-2 2-1-1 2-2 1-1 2-2 2-1 0 0 2 1 4 1 4 1 6-1 2-2-2 0-2-1-1-2s1-1-3-1c-1 0-2-2-2-4-2-2-2-3 0-5 1-1 2-2 1-2 0 0-2 1-2 2-2 2-2 2-3 1-1-2-1-2 0-2 2 0 1-4-2-7-3-4-4-4-5 0 0 2 0 3 1 3 0 0 1 1 3 2 1 1 1 1-1 0-2 0-3 1 0 3 1 0 1 1 0 1 0 0-1 1-1 2s-1 1-3 0c-2 0-3 0-3 1 1 2-5 2-5 1-1-1-1-1 0-1s1 0 1-1c-1-1-2-1-2-1-1 0-1 1 0 1 0 1 0 1-1 1-1-1-3 0-5 1s-2 1-2 0c0-2 4-7 7-9l4-2h-3c-6 0-6 0-8-3s-7-6-10-6c-1 0-1 0 1 2 1 2 2 3 1 4-1 4-2 5-3 3 0-2-1-2-2-1-2 1-2 1-3 0 0-2-2-1-3 1-1 4-4 4-9 1l-3-2-2 4c-1 4-1 9 2 12l2 2 1-3c6-11 24-10 22 2 0 2-1 3-2 3s-2 1-2 1c-1 1-1 1-2 0h-5c-2 1-3 0-4-1-1 0-2-1-2 0-1 1-1 1 0 1s0 1-2 2-3 3-3 3c0 1 0 2-1 2-1 1-1 0 0-2 0-3-3-6-5-4l1 1c1 0 0 1-1 4 0 2-1 3-1 4 1 0 0 1-2 1-1-1-3-2-4-3-2-3-3-4-3-2 0 1 0 2-1 2v2c0 1-1 0-1-1-1-2-1-2-2-1 0 2-9 4-11 2h-4c-2 0-3-1-3-1 0-1 0-1-1-1 0 1-1 0-1-2-1-1-1-2-2-2 0 0-1 1 0 2 0 1 0 2-1 2s-2 0-2 1-1 1-2 1c-1-1-3 0-4 1s-3 2-7 1c-1 0-1-1-1-2s0-2-1-2-3 4-3 6c0 0 0 1-1 1-1 1-1 2-1 3 0 2 0 2-1 1-2-1-2-1-5 0-1 2-3 2-5 2-3-1-3-1-4 2 0 1-1 3-2 4-10 8-23 12-30 9-3-2-5-2-5-1s-1 1-2 1c0 0-1 0 0-1 0-1-1-1-2-1s-1-1-1-1c1-1 0-3-1-3 0-1-2-2-3-3s-2-2-2-1c-1 0-2 0-2-1-3-2-3 0-1 4 1 3 2 4 1 5-1 0-4-2-6-7 0-1-2-3-4-4s-2-2-2-8-1-7-4-9c-7-7-12-21-10-32 1-5 10-15 18-21 17-12 35-13 53-3 8 4 11 5 5 0-13-8-28-11-40-9zm149 57c0 1 1 2 3 2 1 0 3 1 5 2 2 3 2 3 0 3l-2 2c0 1-1 1-2 0-1 0-2 0-3 1 0 1-1 2-2 2s-1 0 0 2c1 0 2 1 2 2-1 0-2 0-2-1-1-1-2-1-2 0 0 0 1 2 2 2 2 1 2 2 1 2-1 1-1 1-1 2 1 0 2 0 2-1 1-2 2-1 1 2 0 2-1 2-5 2-2-1-4-1-4 0-1 2-3 1-3-1-1-1-1-1-4 2-1 2-3 4-2 4 0 1-1 1-1 1-3 0-3-2-2-4 1-1 1-2 0-3-2-1 1-5 5-8 2-1 3-2 2-3 0-3 2-6 6-9 2-1 3-2 3-3s2-1 3 0zM21 101c5 5-3 8-12 5-8-3-6-5 3-6 2-1 4-1 5-1l4 2zm150 3c5 3 7 5 5 8-2 1-2 1-3-1 0-2-1-3-2-3 0 0-1 0-1-1 0-2-2-1-4 1-1 1-2 2-2 1 0 0-2-1-4 0-5 0-5 0-3 1 1 1 2 1 2 2 0 2-4 0-6-3l-2-2-1 3c-2 3-2 3-2 1 0-4 3-7 7-9 5-2 9-2 16 2zm97 2s0 1-1 1c-1 1-1 1 0 1s1 1 1 2c-1 1-1 2 0 2l1-1c0-1 3-1 6-1 6 0 6 0 10 4 2 2 4 5 4 6 0 2 0 2-1 1s-4-1-5 0c0 1-2 1-4 0-3-1-6 0-6 1s0 1-1 1-1-1-1-2v-2l-2 2c-2 1-3 2-3 1s-1-1-2-1c-2 1-2 1 0-4 1-3 2-4 1-4-2 0-5 3-5 5s0 2-2 1-10-1-10 0 0 1 1 0c3-1 14 8 14 12 0 1 0 2-1 1 0 0-1-1-2-1-2-1-2-1-1-2 1 0 1-1-1-3-2-3-6 0-4 3 1 2 1 2-1 2-1-1-1-1-1 0 1 1 0 2-1 2 0 0-1-1-1-2 0-2-1-6-2-6s-1 0 0 1c0 1 0 1-1 1s-2 1-3 3l-2 2-2-3c-3-3-4-4-1-4 2-1 1-3-1-3-2 1-4 1-6 0s-2-1-2 0 2 2 3 2c2 0 2 0-1 5-1 2-3 4-3 4-1 0-1 0-1-1 1-1-1-3-3-5-5-5-5-5 0-6 3 0 4-1 5-3 0-3 1-4 5-4 3 0 6 0 7 1s1 1-1 1h-2l2 2c3 2 5 3 5 1 0-1 1-3 2-4 1 0 2-2 2-3 0-2 4-6 8-7 2-1 9 0 10 1zm-139 15c0 1-1 2-1 3s-1 2-2 3l-2 2 2 1 2 1h-5c0-1-1-1-4-1-2 1-4 1-5 1-1 1-3 2-5 3s-3 2-5 1c-1-1-3-1-4-1-2 0-2 0-2-1 1 0 0-1-1-2-1-2-1-2 2-2 2-1 5-1 6-1 1 1 3 1 3 1 1 0 1 1 1 2s1 0 3-3c3-4 9-8 14-8 4 0 4 0 3 1zm28 8c3 1 3 2 1 2s-2 0 0 3c2 4 0 5-3 2-2-1-2-1-2 1-1 2-1 3-3 2-1 0-1 0-1 1 1 1 1 1-1 1-3-1-4-3-2-3 1 0 2-1 2-2 0 0-1-1-2-1s-2 1-2 2 0 2-1 2-1 0 0 1c0 1-1 1-1 1-1 0-3-1-3-2-1-2-2-3-3-2-2 1-2-4 0-6 4-5 13-6 21-2zm151-1c1 1 2 2 5 1 3 0 9 1 14 3 1 1 0 1-2 0-4 0-4 0-3 1 3 2 9 8 9 8 0 1-1 1-2 1s-3 1-4 1c-2 1-2 1-3 0 0-1-1-1-2 1-3 2-9 3-9 2s-1-2-2-2c-2-1-8 0-8 1s-1 2-1 2c-2 0-2-1-1-3 2-1 3-5 2-5-2 0-1-2 3-5l4-3-2-2c-1-1-2-2-1-2s2 1 3 1zm-105 4c0 1 0 1 1 0 2-2 8-1 10 0 0 1 1 2 0 5-1 2 0 3 1 3s1 1 0 3c-1 0-1 1-1 1 1 0 0 1 0 2-1 0-3 1-4 1-1-1-2-1-2 1l-2 2c-1 0-1 1-1 2s0 1-1-1c-2-3-5-5-6-4h-3c-2-1-2-5 0-6 1 0 2-1 1-2 0-2-1-3-2-2-3 1 1-3 5-5s5-2 4 0zm86 5c1 0 1 0 0 1-2 1-2 1 0 3 3 3 3 3-1 3-2 0-5 1-6 2s-2 2-3 2c0-1-1-1-1 0-1 0-2 1-3 0-2 0-3 0-4 2-2 3-1-3 1-7 4-7 10-9 17-6zm-228 5c1 3 3 6 4 8 1 1 2 2 1 2 0 1 0 1 1 1 0 0 2-1 2-2 2-2 2-2 2-1-1 2-1 2 3 1 1-1 3-1 3-1s1 0 1 1c0 3 1 5 3 4 2 0 1 1-1 4l-2 2c0-1-1-1-1 0-1 1-4 1-7 1s-6 1-8 2-2 1-1-3c0-3 0-3-1-2-1 0-1 0 0-1s1-2 0-2c0 0-2 1-3 3-2 2-2 2-1 0 1-4 1-9 0-13-1-3-1-4 0-6 3-4 4-4 5 2zm52-2c2 1 3 2 2 2 0 1 0 2 1 3s1 1 0 1c-1-1-2 0-3 1 0 2-2 3-3 3-2 0-4 0-5 1-2 2-3 2-5 0-2-3-1-4 3-4 3 0 6-3 4-6 0-2 3-3 6-1zm62 5c3 0 4 2 1 2-1 0-1 0 0 2 2 1 3 7 2 7s-1 1-1 2c0 2 0 2-1 1-2-1-3-1-3 0s-1 2-2 2c-4-1-5-2-5-5 0-2 1-3 2-1 1 1 1 1 2 0 1-2 0-3-2-3 0 1-1 0-2-2-1-3 0-6 4-6 1 1 3 1 5 1zm65 7c1 1 5 4 9 6 1 0 1 1 1 3v3c0 1-1 2-1 1-1 0-1 0-1 1 1 1 0 1-1 1-2 0-3-1-3-2 0 0 0-1-1-1-1 1-1 0-1-1 0 0 0-1-1 0-1 0-1 0-1-1 1-2-1-3-3-2-1 0-1 0-1-1s0-1-1-1c0 0-1 2 0 3 0 5-1 5-6 2-4-3-5-9-1-10 1 0 2-1 3-2s8-1 9 1zm-59 25c8 3 14 14 10 16-5 2-17 2-22 1-6-2-7-2-10 0l-3 2v-2c0-2 0-2-1-1 0 2-1 3-1 4-1 0-1 1 0 1 1 1 1 4 0 6-1 1-1 1-2 0-2-2-3 0-1 2 1 1 1 2 0 2s-1 0 0 1c1 2-1 3-4 3h-2c-2 0-2 0-1 1 2 2 2 6-1 6 0 0-1 0-1 1s-1 1-2 0c-1 0-2 0-2 1 0 0 0 1-1 2s-2 2-2 1-1-1-1-1c-2 0-3-2-4-6 0-4 4-12 10-18 18-17 22-21 24-22 3-1 13-1 17 0zm77 5c2 2 5 6 5 7s-5 0-6-1c-2-2-4-1-2 1 1 2 1 2-1 2s-3-1-3-1c0-1-1 0-2 1-2 2-8 2-11 1-1-1-1 0-1 2 0 3-4 4-6 1-3-3 0-7 4-7 5 0 6 0 7-2 1-4 10-6 16-4zm-50 3c5 4 3 9-4 9-5 0-7-1-5-4 0-1 1-2 0-3 0-1 3-4 5-4 1 0 2 1 4 2zm111 2c2 1 4 2 4 3-1 0-2 0-2-1-3-2-3 0-1 2s2 4-1 4c-2 0-1 2 1 3 2 0 3 5 1 5-1 0-1-1-1-2s-1-2-1-2c-3 0-5 1-5 3 0 0-1 1-2 1s-2 0-2 1-2 0-3-1-3-2-4-2c-1 1-1 0-2-2l-2-2c-1 0-1-1-1-4 0-2-1-4-1-3-2 1-1-2 1-3 6-5 15-5 21 0zm-79 16c1 0 1 1 0 2 0 1 0 3-1 6 0 5-4 10-7 8-3-1-6-5-5-6 0-1 0-1-1-1-1 1-1 1-1 0s1-1 2-1 3-4 3-7c1-1 1-1 2-1s3-1 4-2c1-2 2-2 2-1s1 2 2 3zm31 3c0 1 1 1 1 1 2-1 8 3 8 4s0 1-1 1-1 0-1-1 0-1-1 0c-1 0-1 1 0 3 0 2 0 2-1 2s-3 0-5 1c-5 1-5 1-4-1 0 0 0-2-1-3s-1-1 1-3c1-1 2-2 1-3 0-2 1-3 3-1zm0 30c1 0 2 1 2 1 2-1 4 1 4 4 0 1 1 2 2 2 0 1 1 1 1 2s-1 1-1 1c-1 0-2 1-2 1 0 2 0 2-4 1-2-1-3-1-3 0 0 3-3 4-5 2 0-1-2-2-3-2-2 0-2-1-3-3 0-2 1-3 1-2h1c-1-2 1-5 3-5s3-1 4-2c1-2 3-3 3 0zM153 74c0 2 1 3 1 3 1 0 1 0 0 1-1 0-1 2-1 2 1 2 1 2-1 1-1 0-2 0-2 2 0 1 0 1-1 0 0-1-2-1-2-1-1 1-2 0-3 0 0-1-1-1-2-1s-2-1-2-2c-1-1-4-2-4 0 0 1-1 1-1 1-1-1-2 0-3 1 0 1-1 2-1 2-1 0-1 2-1 4 0 3 0 3 2 2 4-1 11-1 16 2 3 1 4 1 7 0 2-1 5-2 6-2 3 0 4-1 3-3-1-3-3-2-3 0-1 2-1 2-1-1 0-2 0-3 1-3 2 0-1-6-4-8-4-3-4-3-4 0z" fill="#ccc"/></svg>