<svg version="1" xmlns="http://www.w3.org/2000/svg" width="600" height="400" viewBox="0 0 450.000000 300.000000"><path d="M16 25c-1 2-1 3 0 4s2 3 2 4 1 3 2 6l2 4-2 3c-2 2-2 3-11 3H0v41c0 39 0 40 2 40 1 0 2 0 2-1s2-13 4-26c0-6 1-15 2-19 0-5 1-7 2-7 2 0 3 7 3 12-1 3-1 6-1 7 0 2-1 5-2 9s-2 7-1 7c1 1 1 1 2 0s1-1 1 1c1 3 1 4-2 10-1 2-2 8-2 15-1 12-2 18-3 15-1-1-2-2-4-2-3 0-3 0-3 3s1 4 5 4c1 0 3 1 5 3 3 3 3 3 8 3 6-1 16-1 17 0 4 3-5 9-10 7-2-1-6-1-9-1-5 0-12-2-12-3 0-2-2-3-4-3v11c0 10 0 10 2 10 4-2 29 9 29 12 0 1-3 3-7 4-3 1-7 3-8 4-4 5-10 8-13 7l-3-1v6c0 6 0 7 5 11l5 5 8 1c4 0 12 1 18 3 5 1 14 3 19 3 16 2 45 9 55 13 6 3 15 10 26 21 2 2 4 3 5 3s3 1 4 2c2 1 2 1 2-2 0-10 13-16 33-16 2 0 4 0 4-1s0-1 1 0 3 2 6 2c12 2 27 9 37 18 4 4 7 5 4 1-1-1-1-1 0-1 1 1 1 0 0-5-1-3-2-5-2-5-1 0-1 0 0 1 0 1-1 7-2 6v-7c-1-5 0-6 1-5s1 1 1-1c-1-3-2-5-4-4-1 1-1 1-2 0s-1-1 0-1c0 0 1-1 1-2 0-2 0-2 1-1s1 1 1 0c0-2 2-1 2 1 1 1 1 0 1-3 0-2-1-4-1-5-1-1-1-1 0-2s1-1 1 0 0 2 1 3c1 0 1-1 1-3s0-3-2-2c-1 0-2 0-2-1 0 0 1-1 3-1l3-1-2-3c-1-2-2-4-3-4s-1-1 0-2c2-2 2-2 0-3-2-2-2-2-1-3l1-1c-1 0-1-1 0-1 1-2 0-3-2-2-1 0-2 0-2-1s0-1-1-1c-3 2-4-9-1-12 1-1 2-2 1-4 0-2 0-2 1-1s1 1 3-2c1-4 1-8-1-6-1 0-1 0-1-2 1-1 0-2 0-2-1 0-1-1-1-11 0-3 0-4-1-4-1 1-1 2-1 3s0 2-1 1c-3 0-3-12 0-13 1-1 1-2 0-3 0-1-1-1-1 1 0 1-1-1-1-4 0-5 2-9 2-4 0 1 0 1 1-1 1-3 1-34 0-36-1 0-1-1 0-2 0-1 0-1 1 0s6-4 6-7c0 0 0-1 1-1 0 1 1 0 2-1s1-1 0-1c-2 1-2 1-2-2 1-2 1-2-1-1-2 2-3 2-2 0 0-1-1-2-2-2-4-1-2-6 7-20 4-7 8-12 8-12h-6c-7 0-8-1-12-8-2-4-5-7-8-10s-6-5-7-6-2-1-7-1-7 0-7-1c0-3-4 0-12 8-10 10-10 10-20 8-8-2-11-5-12-14-1-3-2-5-4-6s-2-2-1-6c1-2-5-4-8-3-1 1-3 1-4 0-3-2-21-2-25 0-3 1-4 1-5 0-3-2-3-1-1 2s2 4-4 9l-3 2-4-2c-2-2-3-3-2-4 2-5-1-11-5-8h-3c-4-2-17 1-17 4 0 0 0 1 1 1s1 1 1 1c0 1-1 2-1 2-1 0-2 0-2-1s-1-1-2-1c-2 0-2 0-2 2 1 1 1 1-1 0-3 0-4 1-4 6 0 3 0 3-1 1-1-1-1-2-2-2s-1-1-1-2-1 0-1 2c-1 1-2 3-3 3-2 2-6-1-8-4-1-3-4-4-4-2-1 2-4 0-4-2 0-6-4-13-9-16-4-2-3-2-5 1zm125 29s-1 1-1 2c-3 2-2 4 0 4 3 0 3 1 0 5-4 5-12 4-12-1 0-2 3-5 5-5 1 0 2-1 2-2s0-2 1-3 5-1 5 0zM98 72c1 6 4 7 8 7 3-1 4 0 1 3-1 1-2 2-4 2s-3 1-5 3c-1 2-2 4-3 5l-2 2-1-3c-1-3-1-5 0-7 1-3 2-5 1-10 0-7 0-7 2-7 2 1 3 2 3 5zm18 86c4 7 4 27 0 31-2 1-8 1-11-1-4-2-6-8-6-15 1-2 1-6 1-7s1-3 3-4c1-1 2-2 2-3-2-3 1-5 5-5s5 1 6 4zm-32 19c5-2 16 4 16 10 0 3-2 3-10 1-13-4-15-4-14-7 0-5 1-5 3-4s3 1 5 0zm38 24c4 2 6 4 4 7-2 2-20 0-23-4s9-6 19-3zM289 29c1 1 4 2 18 2 17 0 20 0 29 2 3 1 4 1 5 0s2-1 3 0 3 2 4 2c2 0 3 0 4 1 0 1 2 1 5 1s5 0 6-1v-1c-1 0-6-1-13-2-15-4-19-4-42-5-16 0-19 0-19 1zm-3 9c-9 0-5 2 7 2 12 1 22 3 17 3-2 0-6 2-6 3s2 1 5 1 4 0 3 1c0 1-1 1-2 1-1-1-2 0-3 1s6 1 14 0h5c0 1-3 2-12 3-7 0-8 0-7 2 3 2 0 5-6 5-2 0-4 0-4 1 0 3 57-2 60-5h-4c-5 1-5 0-1-2 2-1 2-1-4-1s-6 0-7-1c0-2 0-2 1-1 1 0 3 1 5 1 9-1 8-1 8-4v-3l-9 1c-5 0-9 1-9 1h-5c-4-2-5 0-1 3 2 2 2 3 2 3-1 0-3-1-4-3-3-2-4-3-8-3-5 0-12-2-8-2 22-1 53-5 42-5-4 0-21 1-31 3h-5l3-2c2-1 5-2 10-2 6 0 6 0 2-1s-39-1-48 0zm-44 3c0 1 1 4 1 8 0 6 0 6 4 9 3 2 4 3 4 2-1 0-1-1 0-1s1-1 0-3-2-3-2-2c-1 0-1-1-2-2-1-3 2-3 4 0 1 1 2 2 2 1 0-2-2-6-5-8-3-1-3-1-2-2 2-1 2-1-1-2-4-1-5-1-3 0zm137 18c-4 5-16 9-27 8-10 0-10 0-10-3 0-2 0-2-6-2-4 1-8 1-10 1s-3 0-2 1c2 0 5 4 5 5-1 0-6-2-6-3-1-2-7-4-9-2h-10c-9 0-9 0-7 3 1 2 1 2 0 2-4 0-2 2 3 2 7 1 14 1 16-1 3-1 7-1 7 0 1 0-1 1-2 2-2 0-4 1-4 1 0 2 2 4 4 3 0 0 1 1 1 2l-2 2c-3 0-2 5 2 6 1 0 2-1 2-1s3-1 6-1c8 0 8 1 2 3-3 0-5 1-5 1 0 1-3 1-5 2h-4l2 2c3 1 6 1 12-2 5-2 5-2 5 0 0 1 1 2 2 3 2 2 2 2 2-1 0-1 0-3-1-4-1 0-1-1 0-1 2-1 3 0 5 5 4 8 9 16 12 19 3 4 2 9-3 11-1 1-2 1-2 0 1-1 0-1-1-1-2 0-2 0 1 4l4 4c0 1 1 2 2 3 1 2 1 2 0 3-3 2-2 3 0 3 3-1 9 4 9 8 0 2 4 5 9 8 4 1 5 1 3 0s-2-2-1-3c1 0 2 1 3 1 1 2 2 2 2 1 1-1-1-4-3-4-1 0-3-2-6-3-3-4-3-4-1-4 1-1 2-2 2-3-1-1 0-1 1 0 2 0 2 0 2-1-1-1 0-1 1 0 2 0 3 0 3-1 0-2 4-6 7-6 1 0 2-2 2-3 0-2 0-2 1-1 1 2 2 2 3 1s1-1 0-1c0 0-1-1-1-3s0-3-1-2c0 1-2 1-4-1-3-2-3-2 0 3 0 1 0 2-1 2s-3-4-3-7c-1-1-1-1-2-1 0 0-1 0-1-1 0 0-1-1-3-1s-5 0-7-1c-3 0-4 0-4 1s-1 1-2 0-2-2-3-2c0 0-1-1-1-2 0 0 0-1-1-1s0-1 1-3c2-3 2-4 1-10-2-8-5-11-10-9-1 0-2 0-2-1-1-1-1-1 0-1s1 0 0-1c-2-1 0-3 2-3s4 0 6-1h3l-4-3c-4-2-5-2-14-1-22 2-22 2-19-2l1-3v3c0 2 0 2 6 2 19-3 53-14 53-18 0-1-1 0-2 0-3 3-5 2-3 0 1-1 2-2 2-3 0 0-2 0-3 2zm34 1c-2 0-4 1-6 0-3 0-3 0-6 3-2 3-4 4-6 4s-3 1-4 2c-1 2-3 3-5 4-3 0-3-1 6 13 8 12 14 26 12 27-1 0-1 1-1 2 0 0 0 1-1 0-2-1-2 11 0 13 1 2 0 8-1 8 0 0-1 2-1 5s0 6-1 6c0 1 0 1 1 1 0 0 1-1 1-2 1-1 1 0 1 1 0 2 0 3-1 3s-1 3-1 6c0 5 0 6-1 4 0-1-1-2-1-1s-1 2-1 3c-1 1-2 3-2 6 1 4 0 6-1 7-2 2-3 6-1 9 4 11 6 27 3 30-1 1-2 2-1 2 1 2-3 3-9 4h-6l-1-5c0-3 1-5 2-5 2 0 1-2-1-2 0-1-1-1-1-2 1 0 2-1 3 0 1 0 1-2-1-5-1-2-4-14-4-16l1-1c1 0 2-1 1-1 0-1 1-2 3-3s3-1 3-1c0 1 1 1 2 1 3-1 2-4 0-5-2 0-5-3-5-5 0-1-1-2-1-1-1 0-2 0-2-1s-3-1-3 0c-1 1-1 0-1-1 0-2 0-3-1-4-1 0 0 4 1 7s-1 3-2 0c-1-1-1-2 0-2 0 0 0-1-1-1 0-1-1-2 0-2 0-1 0-1-1-1l-1 1c0 1-2 0-4-2-4-4-7-5-4-1 1 1 1 1 0 1-1-1-3 0-4 1l-2 2 2 3c2 2 3 3 3 2 1-1 1 0 1 0-1 1 0 2 1 3 2 2 1 3-1 1-1-1-3-2-4-2l-3-3c0-2-1-3-2-2 0 0-1 0-1-1s-2-3-4-4c-4-2-4-2-2-3l2-2c0-1 1-2 2-3 0-1 1-3 1-5 0-4 1-5 3-7s3-5 1-5c-5 1-7-1-9-9-1-5-4-6-14-1-6 2-12 6-12 7h3c3 0 3 0 2 2v3c-5 2-5 3-4 3s2 0 1 1c0 1-1 1-1 0-1-1-2-1-2 0-1 0-1 0-1-1s0-1-2 0c-3 3-5 3-6 1s-1-2-2-1c-1 0-3 1-5 1h-4c0 1 0 1 1 1 2 0 2 1 0 3-1 1-1 1 2 2s10 2 15 2c3 0 2 2-1 2-2 0-4 1-5 2s-3 1-7 1c-10 0-10 0-8 1 1 1 2 2 2 3-1 0 0 1 3 1 2 1 5 1 7 2 1 1 4 1 5 1 2 0-6 2-10 2s-4 0-4 3c1 2 0 4 0 5-1 0-1 1-1 1 3 1 5 1 7 0 1-1 4-3 5-4 2-2 2-2 3-1 1 2 1 4 0 4-2-2-3 0-2 2 1 1 1 1 0 1-1-1-2-1-2 0s-5 6-5 6c-1 0-2 2-4 4-2 4-3 5-7 5-3 1-5 1-5 2s-1 2-2 2c-1 2-1 2 1 4 1 1 2 2 3 2 0-1 1-1 2 0 0 1-3 4-5 4-1 0-1 0 0-1 2-2 2-2 0-3s-4 0-2 1c0 0 1 2 0 4 0 3 1 4 2 4 0 1 1 1 1 2s0 1-1 0c-1 0-2-1-3-1-4 0-9-3-8-5 0-1 1-1 2 0 0 1 1 1 1 0s-3-3-4-2c-1 0-2-1-2-2-1 0-1-1-2-1-1 1-1 3 0 3 2 0 2 0 0 2s-2 2-1 4c1 1 2 2 2 1 1 0 1 1 1 2-1 1-1 3-1 4s-1 3-2 3-1-1 0-2c0-2 0-3-1-3s-1 1-1 1c0 1-1 1-2 0 0-2-1-2-1-1 0 0-1 0-1-1-1-1-2-1-3 0-1 2-1 3 1 3 2 1 2 1 1 2s0 2 1 3c2 1 2 2 1 4 0 2-1 3 0 3 0 1-1 1-1 2-2 1-2 1-1-2 0-2 0-3-1-3 0 0-1 2-1 3 0 2 0 4-1 4s-1-1 0-2c0-1 0-2-1-2s-1 1-1 3c0 1-1 1-1 2-1 0-2 1-2 2 0 0-1 1-2 1 0 0-1-1-1-2s0-1-1-2c0 0-1 0-1 1s-1 2-2 2c-1 1-1 1 1 2 1 1 1 2 0 2s-2-1-3-2c-2-2-3 0-1 3 1 1 1 2 0 2-3 0 0 1 3 2 2 0 3-1 4-2 0-1 0-1 1 0 1 2 1 2 3 0 2-1 3-2 3-3-1 0 0-1 1-2s2-2 2-1c1 2 2 1 7-5 2-1 4-3 5-3 3-1 3-2 0-3-2 0-5-3-3-3 1 0 2 0 3 1s2 1 3-1l2-2c0 1 1 0 2 0 0-1 1-2 1-3-1 0 0-1 0-2 2-2 2-2 2 0 1 0 1 2 0 2 0 1 0 2 1 2 1 1 1 1 0 2s-1 2-1 3c1 0 1 0 2-1 0-2 4-6 4-5 1 1 2 5 1 5-1-1-1 0-1 1s0 2-1 1c0 0-1-1-2 0-2 0-3 0-2 1s2 2 3 1c2 0 10 4 12 7s1 5-5 7c-5 3-5 4 0 5 3 0 3 0 2 2-1 0-2 1-3 1s-1 0 0 1c0 0 1 1 1 2 0 2 1 1 4-2 1-1 3-2 4-2 3 1 2 0 0-3-4-4-4-5 0-5 1 0 3 1 5 3 1 2 2 3 3 2 4-3 7-2 9 2 2 3 2 6-2 4-1 0-1 0-1 1 1 0 1 3 0 4v5c1 1 1 1 0 1-3 0-8 6-7 7s1 2 0 3c-1 0-1 1 0 1 1 1 2 0 3-1 1 0 2-1 3-1s1-1 0-2c0-2 0-3 2-4 2 0 5 1 3 2-2 2-1 3 1 3 1 0 3 1 4 2 1 2 1 2-1 3-1 1-2 2-3 2 0 0-1 0-1 1s-1 1-1 0c-2 0-3 4-2 6 1 1 1 1 0 2s-1 2 0 2c0 0 1 0 2-1 0-1 1-1 2-1 2 1 2 0 2-1-1-1 0-2 2-2 1-1 2-2 1-3 0-2 3-4 7-4 1 0 0 4-2 5-1 1-1 1 0 2 2 3 0 7-5 7-3-1-3 0-3 2 1 2 1 3-1 3 0 0-1 0-1 1 0 2 24 1 25-1 1-1 1-1 2 0 1 3 11 3 12 0 1 0 1-2 0-2 0-1 1-1 2 0h4c1 0 2 1 2 2 1 2 2 3 4 0 2-1 2-2 1-3s-1-1 0-2c1 0 1-2 1-4 1-2 1-4 1-5 1 0 1-1 0-2-1 0-1-1-1-2 1 0 0-1 0-2-2-1 1-2 4-2 4 0 6-2 4-3v-4c1-3 1-3-1-2-2 2-2 2-3-9-1-3-1-5-2-5-2-1 0-3 3-3 4 1 5 3 4 5-1 1-1 1 1 1 3 0 4-1 2-5-2-3-2-3 0-5 0-1 1-2 1-1s4 3 5 2 2-1 2 0c1 1 1 8 0 9-1 0-1 1 0 1 1 2 0 5-1 5s-1 0 0 1 0 4-4 13l-2 6c0 1-1 3-2 3-1 1-2 2-1 3 0 1-1 2-1 3-2 1-2 1 0 3 1 2 0 4-3 4-1 0-2 0-2 1s3 1 6 1c5 0 5 0 4-2-2-2-2-2 0-2l2 2c0 2 1 2 28 2 16 0 28 0 28-1-1 0 0-1 1-1 2-1 2-2 2-102V95h-13c-10-1-10-1-9-7 1-8 2-10 4-10 3 0 3 1 3 5 1 6 3 8 4 6 2-2 7-3 8-2 0 1 1 1 2 1s1-1 1-7v-7l-9-1c-12 0-18-3-20-8-1-2-3-4-4-5-2-1-2-1-4 0zm30 75c1 2 1 2-1 4s-3 4-1 6c1 0 1 1 1 2-1 1-7-2-7-3v-2s-1-1-3-2-3-4-1-5c1-2 11-1 12 0zm-104 68c-1 0 0 1 1 2 2 1 2 1-1 6-1 2-2 5-1 6 0 1 0 2-1 2s-2 1-4 3c-4 4-10 6-12 3-1 0-2-1-3-1 0 0-1-1-2-1 0-1-1-2-2-2-2-1-2-1 0-1 1 0 2-1 3-2 1-4 10-13 13-14 1 0 4 0 5-1 3-1 4-1 4 0zm31 8c0 2 0 3 1 3v4c0 3-1 4-2 4-2 0-4 0-5 1-1 0-2 0-2-1v-5c-1-5-1-6 1-7 3-3 6-2 7 1zm-20 43c0 2 0 2 2 2 1-1 1 0 2 1 1 3 1 1 1-2 0-2 1-2 3-1 1 2 1 2-1 4-1 1-2 2-1 3 1 0 0 2-3 3l-2 1 2 2c2 2 3 3 2 4 0 2-2 3-2 1 0-1-1-3-2-4-2-2-2-2-1-5 2-3 2-4 1-2-2 1-2 1-2-1 0-1-1-2-4-3-4-2-5-4-1-5 1 0 3-1 3-1 2-1 3 0 3 3zm22 6c1 2 3 4 4 4l2 2c1 3-1 9-4 9 0 0-1 0 0-1 0-1 0-1-1-1s-1-1-1-2c0-2 0-2-3 0-1 0-2 2-2 2 0 3-4 1-4-1 0-3 0-3 2-3 2 1 2 0 2-2 0-4 1-8 1-9 0-2 2-1 4 2zm-45-158c0 1-1 2-2 2-2 0-5 7-4 9 1 1 1 1 2 0 3-2 5 1 5 4 0 2 1 3 3 3 1 0 2 1 3 3s3 2 3-1c0-1 1-2 1-3 2-1 7-12 7-13-1 0 0-1 1-2 1 0 1-1 0-1l-4 2c-4 4-8 4-11-1-2-5-3-5-4-2zM74 250c3 2 3 3 0 3-6 0-18 7-18 11 0 1-1 3-1 4-2 4-4 9-4 11 0 1 0 2-1 1-1 0-1 2-1 7l1 7h-3c-3 1-3 0-4-2-3-18-22-31-39-28-4 1-4 1-4 6v5h4c3 1 6 1 7 1s2 1 3 2c0 1 1 2 1 2 1 0 1 0 1 1-1 0 0 1 0 2 2 3 2 8 1 8s-1 1 0 2 1 2-1 3c0 1-1 2 0 2l-1 1c-1 1 22 1 51 1 40 0 53 0 53-1 1-1 1-1 2 0 0 0 7 1 19 1 18 0 19 0 19-2 0-1 0-1 1 0s2 2 5 2c4 0 3 0-3-5l-4-3v3l-1-2c-6-11-18-17-30-13l-5 2-1-3c-2-4-3-7-4-7s-2-2-3-5c-2-3-4-6-6-7l-3-3-3 4-4 4c-1 0-2 1-3 1-2 3-3 2-1-1 1-2 4-4 6-6l4-2-4-2c-5-3-16-4-13-2 1 1 1 1-1 0-2 0-4 0-6 1s-3 2-4 2c0-1 1-1 2-2 3-2 2-3-1-5-5-1-6-1-3 1zm-9 14c2 0 2 0 1 1-1 2-1 3 0 3 0-1 1 0 2 1 1 0 1 1 0 2-1 0 0 1 2 2s4 2 4 1c2-1 1 3-1 7-2 5-2 5-8 1-6-5-7-6-4-14 1-3 1-3-1-3s-2 0-1-1c1 0 2-1 3 0 1 0 2 1 3 0z" fill="#ccc"/></svg>