<svg version="1" xmlns="http://www.w3.org/2000/svg" width="600" height="400" viewBox="0 0 450.000000 300.000000"><path d="M104 6c0 7-3 12-7 10-1-1-2-1-3-1 0 1 1 2 3 2 4 2 4 2 5 8v7h3c3 0 3 0 3 3 0 1 1 3 1 5 1 1 2 2 1 2 0 1 0 1 1 1l1 1c-1 1 0 1 0 1 0-1 1-1 1 0 1 1 1 1 1 0s-1-2-2-4c-3-4-3-5-2-5 1 1 1 0 0-2-1-1-2-3-3-4-2 0-3-2-3-3 0-2 0-4-1-5s0-1 2 0c1 0 1 1 1 2-1 0-1 1 0 1l2 2c1 2 2 3 3 2 1 0 0-1-1-2s-2-2-2-3c1 0 2 0 2 1 1 1 1 1 1 0l1 1s3 2 6 5c2 2 6 5 8 7 3 3 4 4 6 3 1 0 1 0 1 1-1 2 1 3 5 3s5-2 1-3c-1-1-4-2-6-4-3-1-6-3-7-4-4-1-14-10-13-10 2 0 1-1-1-3l-4-4c1 0 2 1 3 2 5 4 6 5 6 3-1-2 0-3 2-1 0 1 1 1 2 1 0-1 0-2-1-2-1-1-2-2-1-2 0-1 0-1-1-1-1 1-1 1-1 0 1 0 0-2-2-2-2-1-3-2-3-3s5 0 6 1 2 2 3 1v1c-1 1-1 1 0 0 3 0 2-1 0-3-3-1-4-3-1-3 1 0 2 0 2-1 0 0 1-1 2-1 1-1 0-1-2-1h-4c0-1 2-1 5-1 2 0 4 0 4-1s0-1-1-1h-7c-8 0-9-1-2-2 6 0 5-1-5-1h-8v6zm67-1c-1 3-1 8-2 11s-1 6-1 7c-1 4-6 14-7 14s-1 1-1 2c0 2-1 4-2 6-2 2-3 5-4 6-2 5-15 19-18 19l-1 1c-1 1-3 3-5 4-7 3-42 11-45 9 0-1-1-1-2 0 0 1-1 1-2 0-1 0-4 0-8-1-4 0-9-1-11-1-3-1-6-2-6-1-1 0-2 0-2-1s-1-1-1-1c-1 1-2 0-3-1s-8-4-9-3c-1 0-2 0-2-1 0 0-2-2-5-3l-4-4-4-2c-2-1-4-3-4-3 0-1-13-14-14-14s-3-4-5-8l-2-5-1 26c0 27 1 32 3 28 2-2 12-4 21-4 4 0 8-1 9-1 0-1 1-1 1 0 0 0 3 1 6 1s7 1 8 1c2 1 4 2 5 1 0 0 2 0 3 1 1 0 2 0 4 1 1 0 2 1 3 2s2 2 3 1c1 0 2 1 3 2s4 2 6 3c3 0 4 2 2 2-1 0-1 0-1 1 1 0 2 1 3 0 1 0 2 0 2 1s0 1 1 1 2 1 2 2c1 1 1 2 2 2 1-1 1 0 1 1s0 2 1 1c1 0 2 1 3 2s2 3 4 5c1 1 2 2 2 3 0 0 0 1 1 1s1 2 1 4c1 2 1 3 2 3s2 1 3 3c0 2 1 3 1 4 2 1 4 5 4 9 0 1 1 2 1 2l2 4c1 3 1 5 2 6v3c0 1 0 2 1 2 1 1 1 1 0 3s-1 3 0 3c0 0 1 1 0 1 0 1 0 5-1 9 0 12-1 18-2 19s-3 7-3 9c0 1-1 2-2 4-2 1-2 2-1 2s1 0 0 1-3 4-5 8c-1 4-4 8-5 10-2 2-3 4-3 5s-5 6-7 6c0 0-1 0-1 1s-6 8-7 8-3 2-6 3c-2 2-5 4-6 3 0 0-1 0-1 1s-6 4-8 4c0 0-1 0-1 1s-2 1-9 2c-1 1-3 1-3 2-1 0-2 1-2 0h-3c-2 2-9 2-9 1s-1 0-3 0c-1 1-4 1-7 0-2 0-5 0-6-1-3 0-10-2-10-3s-1-1-2-1c-2 0-2 1-2 20v20h15c14 0 14 0 16-2s2-3 2-4c0 0 0-1 1-1 0 0 2-2 2-4 3-5 6-9 9-10l2-2c0-1 2-3 3-4 2-1 4-3 5-4 0-1 1-2 2-2 0 0 1 0 1-1s1-1 2-1c1 1 3 0 7-3l6-4c1 0 3-1 5-2 1-1 3-2 4-2s3-1 4-2c2 0 4-1 5 0 1 0 3-1 5-2 1-1 4-2 6-2 2 1 5 0 6 0 2-1 4 0 6 0 1 1 2 1 2 0 1-1 16-1 16 0 0 0 3 1 7 1 5 0 9 0 11 1s5 2 6 2c1-1 2 0 4 0 1 1 2 2 3 2s2 1 1 1c0 1 1 2 2 2 1 1 2 0 2 0 0-1 4 3 6 6 0 1 1 1 1 0 0 0 0-1 1-1s4 3 4 4c-1 0 0 1 2 2s3 2 3 3c0 2 3 6 5 6 1 0 1 1 1 1 0 1 0 2 2 3 1 1 2 4 3 6 0 2 1 5 2 5 0 1 1 2 1 3 0 0 1 1 2 1 0 1 1 2 1 2 0 2 1 2 6 2h6v-9-15c1-3 1-6 1-8 1-1 1-2 1-3 1-1 1-2 1-3-1-1-1-1 0-1 0 0 1-1 0-2 0-1 0-2 1-3 1 0 2-1 2-3 0-1 0-2 1-3 1 0 1-1 1-1 0-1 0-2 1-3 1-2 3-4 5-7 2-2 3-4 3-4 0 1 1 0 3-1l2-4c0-1 1-2 3-3 1-1 4-3 5-4 2-2 3-3 4-3 0 1 1 0 3-2 1-1 3-2 3-1 1 0 2-1 4-2 1-2 4-4 6-4 4-2 7-4 8-5s13-5 16-5c12 0 21 0 23 1 0 1 1 0 2 0 1-1 3-1 3 0 0 0 2 1 4 1s5 1 7 2 4 2 5 2 3 1 4 2c1 0 2 1 3 1 0-1 1 0 2 2s2 3 4 3c1 0 3 1 4 2s3 2 4 3c1 0 2 1 2 2-1 1 0 1 1 2 2 0 3 2 3 3 1 1 2 2 4 3 1 0 2 1 2 2s1 2 2 3 2 3 2 5c0 3 1 4 3 4 1 1 2 2 2 4 0 1 1 4 2 5 1 3 1 4 1 5-1 2-1 2 0 3s2 2 1 2c-1 1 0 7 1 7s0 25-1 27c-1 1-1 2-1 2 0 1 4 1 10 1h10v-5c1-3 1-8 2-10v-6c0-2 1-3 1-4 1 0 1-2 1-4 1-2 1-5 2-6s2-3 3-4c0-1 1-3 2-4 1 0 2-2 3-4l2-4c2 0 7-5 7-7 0 0 1-1 3-2 1-1 4-4 7-6 2-3 6-6 8-7 10-6 12-8 12-12v-3l-3 3c-4 3-15 9-19 9-2 1-5 1-6 2-2 0-4 1-6 1h-6c-9 2-14 2-14 1s-4-2-5-1c0 1-2 1-5 0s-5-2-6-2-5-2-8-3c-4-2-8-4-8-3l-1-1c-1-1-3-3-6-5-4-1-7-4-9-5-1-2-3-3-4-3 0 0-11-12-17-19-2-2-6-8-9-13l-2-4c-1 0-1-1-1-2 1-1 0-3 0-4-1 0-2-3-2-5-1-2-1-4-2-6v-4c0-2 0-3-1-3s-1-1-1-1c1-1 1-2 0-2-1-1 0-15 0-22 1-2 1-5 1-6 1-1 1-3 1-4 1-1 1-2 1-3-1 0 0-2 1-3s2-2 2-4c-1-1-1-2 0-2s1-1 1-2c0-2 2-6 4-7 0-1 2-4 3-6 4-8 6-11 16-21 8-7 14-12 16-12 1 0 2-1 4-2 4-3 23-7 29-7 3 1 6 0 7 0 0-1 1-1 2 0 1 0 3 1 5 1 1 0 6 1 10 2s7 2 8 2 2 0 2 1 1 1 3 2c3 0 4 1 3 2h-3c-3-1-3-1-4 0 0 1-5-1-5-2s0-1-1 0-1 4-1 7c0 6-1 14-3 18-1 2-1 3 0 3s1 8 0 9c-1 0 0 1 1 2 0 1 1 2 0 2v5c0 4 0 4-1 4-1-1-2-1-2 0 0 0 0 1 1 1 1 1 1 7 0 11-2 4-2 8 0 6 1 0 1 0 1 1-1 0-1 1-1 1 1 0 11-7 14-9 2-3 4-3 2 0-1 1-2 2-1 3 0 2 0 2-2 2-3 0-5 2-3 2 1 1 1 1 1 2-1 0-2 0-2-1-2-1-11 4-14 8-2 3 1 8 7 8 2 0 3 1 3 1s2 1 4 1c2 1 4 1 4 2s-7 0-14-2c-4 0-5 1-2 5 1 1 1 3 1 4 0 0 1 1 2 1 0 0 1 0 1 1-1 0-2 1-3 0-3 0-3 0-3 2s0 2-1 0c0-1-1-2-1-3-2-1 0 5 2 8 2 5 3 7 4 14 1 4 1 8 2 8v3c0 1 0 4 1 6l1 4 3-4c3-5 5-6 3-2v3c-1 3-2 6-3 5-1 0-1 1-2 2s-2 2-2 1c-1 0-1 1-1 3 0 3 0 4 1 3 1 0 1 1 1 2 0 0 0 1-1 0-2 0-3 2-3 5s-2 6-3 5c-1 0-1 0-1 1s1 2 1 3c1 1 1 1 0 1 0 0-1 1-1 3 0 3 0 3 3 3 1 0 2 0 1-1 0 0-1-1-1-2 0-2 0-2 1 0 2 3 3 2 4-2 1-5 3-5 3 0 1 3 3 5 3 2 0-1 1-1 2-1s1-1 1-2c-1-1 0-2 1-2 2-1 2 0 2 2s0 3 1 3 5-3 5-6c1-1 1-1 2 0 2 2 2 2 3 0 2-1 2-3-1-3-1 0-2 0-2-1s0-1 3 0c4 1 4-1 1-4-2-1-4-3-5-3s-4-3-3-4c0 0 1 0 1 1 1 1 2 1 2 0 0 0 0-1-1-1-1-1-1-2-1-2 0-1 1-1 2 1 1 1 2 2 3 1 0 0 1 1 2 3 1 1 2 2 1 2s-1 1 1 2c1 1 2 2 3 1 0 0 1 0 1 1s0 1 1 0c1 0 1-8 0-13-1-6 1-3 4 3l2 6v-8c0-6 0-9-1-11-2-3-2-4-1-2 2 1 2-1 2-22v-24h-3l-2-1h5v-11c-1-13-1-15 0-28V86l-6 6c-5 5-8 8-5 3 1-1 1-2 1-3s0-3 1-3c1-1 1-1 0-2-1-2-1-2 0-2 2 0 2-1 2-2-1-2 2-1 3 1 2 2 2 2 3-1s1-5 0-5c0 0-1-2 0-4 1-9 1-9-4-12-2-1-4-2-3-2 0-1 0-1-1-1s-2 0-2-1-7-4-9-4c0 0-1 0-1-1-1-1 8-2 10-1 2 0 4 2 5 3s2 2 2 1c0 0 1 0 1 1 3 2 3 1 3-10V36h-7c-1 0-4-1-6-2s-6-1-7-2c-2 0-4 0-4-1-1 0-4-1-6-2s-6-2-7-3-3-2-3-1c-1 0-3-1-5-3s-4-3-5-3c0 0-2-1-4-3-1-1-4-3-6-5-1-1-3-2-2-2 0-1-1-1-2-1-2-1-7-6-7-7s-7-1-21-1c-18 0-22 0-22 1s-1 2-2 2l-2 2c0 3-16 16-24 19-2 2-5 3-5 3-1 1-18 5-19 5 0-1-1 0-2 0 0 1-5 1-10 2h-12c-1 1-3 1-3 0-1 0-4-1-6-1-5-1-5-1-11-3-2-1-4-1-5-1s-2-1-3-2c-1 0-2-1-3-1-2 0-3 0-3-1-1-1-7-5-8-5s-1 0-1-1c0 0-2-1-4-1-2-1-3-2-4-3 0-1-1-2-2-1-1 0-2 0-1-1 0-1-2-3-5-5-2-2-6-4-7-6-2-2-3-2-12-2h-11v5zm52 37c4 1 8 2 9 2s3 1 3 1c0 1 2 1 4 1 1 0 3 1 4 2s2 1 3 0c1 0 2 1 3 2 0 1 2 2 2 2 2 0 10 4 10 5 0 0 1 1 2 1 1 1 2 1 2 2s1 2 3 3c3 1 7 4 6 5 0 0 2 1 3 2 2 1 4 3 5 5 0 2 2 5 3 6s2 3 2 3c0 1 1 2 2 3 2 2 7 14 7 17 1 2 1 3 1 4 1 0 1 2 0 2 0 1 0 2 1 3 1 0 2 1 1 3 0 2 0 3 1 3 0 1 1 2 0 2 0 1 0 3 1 4 0 2 1 3 0 3 0 1 0 4-1 7 0 4 0 8-1 10 0 3-1 6-2 8 0 3-1 5-2 5-1 1-1 3-1 5 0 1-1 4-2 5s-2 3-2 4-1 2-2 2c0 0-1 0 0 1 0 1-1 2-2 4l-6 8c-1 1-3 3-4 5s-4 5-6 6c-2 2-4 4-5 6-2 1-3 2-4 1-1 0-3 1-4 2s-2 2-3 2l-1 1c0 1-1 2-2 1-1 0-4 1-7 3s-7 3-9 4c-2 0-5 1-6 2-2 0-3 1-3 0-1 0-3 1-6 1-9 3-17 3-31 1-4-1-21-9-21-10 0 0-2-1-4-3l-4-2s-3-2-5-4c-2-1-5-3-5-3s-2-1-3-2c-2-1-3-2-3-2 0-1-2-2-4-4-1-2-5-6-6-8-2-3-5-6-6-8-1-1-2-2-2-3s0-1-1-1-1-1-1-2 0-3-1-5c-1-3-2-5-2-6 0 0 0-1-1-1 0-1-1-2 0-3 0 0 0-1-1-1s-1-1-1-2c0-2 0-3-1-3-1-1-1-6 1-8 0-1 0-2-1-2s-1-1-1-3c1-2 1-3-1-3-1 0-1 0 0-2 0-1 1-3 1-6-1-2 0-4 0-5 1 0 1-3 1-6 0-2 1-4 1-4 1 0 1-1 1-2-1 0 0-1 1-2 0 0 1-1 1-2s1-5 3-9 4-8 4-9c0 0 1-2 3-3 1-2 3-5 4-7s2-4 2-3c1 1 4-1 4-3 0-1 1-3 2-3 2-1 4-3 5-4 2-2 6-4 10-6s6-4 6-5c1-2 1-2 2-1s7-1 7-3c0-1 1-1 2-1 0 1 1 1 1 0s6-3 8-3c1 0 2 0 2-1s1-1 3-1c1 0 3 0 4-1 3-1 24 0 30 1zm207 78c1-1 1-1 1 4 1 3 0 4-1 2-1-1-1-1-2 0-2 3-3 4-1 3 1 0 1 0 1 1-1 1 4 2 5 1 1 0 8 1 8 2s-2 1-4 1c-2-1-4 0-4 0 0 1-1 1-2 0-1 0-4-1-7-2-3 0-6-1-6-1 0-1 0-1 1-1s1-1 1-2c0-2 3-4 6-4 1 0 2 0 2-1 0-2 0-2-1-2-1 1-1 0-1 0 0-2 1-3 2-2 0 2 0 2 2 1zM138 83c-1 0-1 1 0 2 1 0 0 1-1 2s-1 1 0 1c2-1 3 0 1 2-1 0-1 1 0 1 0 1 0 1-1 1s-1-1-2-2c-1-3-1-2-1 2 0 2-1 3-1 4-2 2-2 2 0 3 3 2 4 2 3 0 0-1 1 0 2 1 3 3 5 4 5 2 0 0 1-1 2-1s1-1-2-2-3-2-2-4c1-7-1-16-3-12zm-6 85s-1 1-1 2c0 2 4 6 5 5 1 0 1 1 1 4 0 2 3 3 4 1 2-1 2-1 2 0v4c0 2 3 1 8-5 6-5 7-8 4-7 0 1-1 1-2 1v1c0 2-7 7-8 7s0-2 2-3c3-2 4-5 2-4-1 0-2 1-2 1v1c-1 0-1-1-1-1 0-1-1-1-2 0-2 0-2 0 0-2 1-3 1-6-2-4 0 1-1 2-1 2 0 2-3 4-3 3-1 0-1-1-1-2 0-2-3-5-5-4zM217 1c0 1-1 2-2 3-2 1-2 1 0 1 2 1 3 3 1 3-1 0-2 1-2 2-1 1-1 2 0 2s1-1 1-2 0-1 2 0c1 1 2 1 2 0 1-1 1-1 1 0 0 2-1 2-2 2h-2c-1 2 5 2 7 1 1-1 1-1 0-2s-1-1 0-1 3-1 4-3c2-4 3-4 0-3-1 0-2 1-1 1 0 1-1 1-2 1s-2 0-3 1c0 1-1 1-1 1-1 0 0-1 1-2s1-2 0-2-1-1 0-2c2-2 2-2-1-2-2 0-3 1-3 1zm18 0c0 1 0 1 1 1s1 1 0 2c0 2 0 2 1 2 1-1 1-2 1-3 0 0 0-1 1-1s1 1 1 1c0 3-1 5-2 5s-3 1-4 2l-2 2h2c3-1 2 1-2 2-4 2-5 4-3 5 0 1 1 2 0 2 0 1 0 1 1 1 1-1 3 0 4 1 3 3 6 2 8-2s2-5 1-5c-2-2-2-9 0-9 1-1 1 0 1 3v5c1 0 1-2 1-4s1-7 2-6c1 0 1-1 1-2 0-3 0-3-3-3-2 0-2 0-2 1 1 2 0 5-1 5s-1-1-1-3c1-3 0-3-3-3-2 0-3 0-3 1zm42 1c1 3 3 5 3 2 0-1 0-1 2 0 1 3 2 8 0 7-1 0-1-1-1-3s0-2-1-1c-1 2-1 4 1 6 1 3 2 4 2 3l1-1c1 0 1 0 0 1 0 1-1 3 0 5 0 5 1 7 1 4 0-2 2-3 2-1 0 1 0 1 1-1v-2c-1-1-1-1-1-2 1 0 2 0 2 1 1 1 1 1 1 0 0 0 1-1 2-1s1 0 0-1c-1-2-1-6 0-6 1 1 1 2 1 3 0 3 2 4 4 4 2-1 2-1 1-3s-1-2-3 0c-1 1-1 1-1-1 0-1 0-2 1-2 2 2 1 0-2-4-1-2-3-4-4-6-1-1-1-1-1 0 0 3-3 3-4 1-1-3-1-4 1-2 1 1 2 1 2 0 1-1 0-2-5-2-4 0-5 0-5 2zm139-1c1 0 0 2-1 4-2 2-3 3-2 3 1 1 1 1-1 3-2 1-2 2-1 3s2 2 2 3 0 1-1 0-2-1-3-1c-2 1 8 7 11 7 3-1 5-6 3-7-1-1-1-1 0-2 3 0 4 1 3 3-1 0-1 2-1 3 1 2 1 2 3-3l4-8c4-7 2-9-8-9-4 0-8 0-8 1zm22 1c0 1-1 3 0 3 0 2 0 2-2 1-1 0-1 0 0 1 1 0 1 1 0 2s-2 2-2 3c1 0 0 1-1 1 0 0-1 0-1 1 1 0 1 1 0 1-1 1-1 2-1 4 0 1 0 2-1 2s-1 1-1 2c0 2-1 3-1 3-2 1 5 4 11 4 3 1 4 1 4 0s0-2 1-2c0 0 1 1 0 2 0 2 0 2 3 2s3 0 3-5c0-4 0-4-1-2s-5 3-7 1c-1-1-1-1-3 0-1 1-2 1-2 0s1-1 1-2c1 0 2-1 1-1 0-1 0-1-1-1 0 1-2-1-3-3-1-3-1-3 0-4 2-2 8-3 8-1 0 0-1 1-2 0-3 0-4 3-2 7l2 2v-3l1-3 4 2c3 1 5 1 4-1-1-1-2-1-2 0-1 0-1-1-1-3 1-3 1-3-2-3s-6-3-5-6c1-1 1-1 1 1s1 2 5 1c1 0 2-1 1-2 0-1 0-2 1-2 2 0 2-1 2-2-1 0-1-1-1-2h-1c-1 0-1 1-1 1 0 1 0 2-1 2s-1-1-1-2c1-2-5-1-7 1zM47 3c0 1-2 1-4 2-2 0-4 0-4 1-1 1-1 1-2-1 0-1-1-1-1 0 0 0-3 3-6 5s-7 6-9 8c-1 3-3 5-3 6-1 1-1 1 1 1 2-1 3 0 0 2-2 3-5 2-5 0 0-1 0-1-2 1-1 1-2 2-2 1 0-2 4-6 6-6 0 0 1-1 2-3 1-3 5-7 9-10 1-1 2-2 1-2-1-1-2-1-3 1-2 2-3 3-7 2-2 0-5 0-7 1-3 2-5 2-7 1-1-1-1-1-1 0s0 2-1 2-1 0-1-1c1 0 0-1 0-3-1-1-1 1-1 5v6l2-3c3-3 4-4 4-2 0 1-1 3-3 4-4 4-4 6 0 6 4-1 6-2 6-6 1-3 1-3 2-2 0 2 1 2 1 1 1 0 1-1 1-2-1 0 0-2 1-3 3-3 5-4 3-2 0 1 0 2 1 2 1 1 1 1-1 2-2 0-3 1-3 1 2 2-8 12-11 11-2-1-1 1 2 4 2 2 3 3 5 2 1 0 1 0 0-1s-1-1-1-2c1 0 2 0 2 1 1 2 1 1 2-3 0-1 1-1 2 0s1 1 0 2c-1 0-1 1-1 1 1 1 12-6 14-8 2-3 2-4 0-3-1 0-1 0 0-1s2-2 4-2 2 0 1 2c-1 1-2 2-1 2s8-5 9-6c0-1 1-1 3-1s3 0 3-2-2-3-5 0c-3 2-4 1-1-1 2-2 11-7 13-7 1 0 1 0 0-1-1 0-2-1-4-1-1 1-2 0-1-1 0-1 0-1-2 0zm45 20c0 2 1 5 2 7 0 3 1 4 1 5-1 0-3-3-5-9-1-4-2-5-2-3 0 4 3 16 3 13 0-4 3-1 4 4l2 4c1 0 1 0 1 1-1 1-1 1 0 1s1-2 1-3c0-3 0-4-1-3-1 0-2 0-2-1s0-1 1-1c2 2 0-9-2-13-1-1-1-3-1-3 0-1 0-2-1-3-1 0-1 1-1 4zm-19 4c-1 2-3 4-4 4s-1 0-1 1c1 0 1 1 0 1-1 1-1 2-1 2 0 1 1 1 2 0 0-2 1-2 1-2 0 1 1 1 2 0s1-1 1 0c-1 2-2 5-2 7-1 3-2 5-2 4-1-1 0 7 2 9 1 3 1 1 1-12v-4l1 4 1 3 1-3c1-3 1-3-1-4l-1-1c0-1 4-2 5-1s1 1 1 0c0-2 2-1 2 1 0 1 0 1 1 0 0-2 0-3-1-3-1-2-2-6-1-6 0 0 0-1-1 0l-1-1c0-1 0-1-1-1 0 1-1 0-1 0 0-1-2 0-3 2zm-14 4c-3 3-4 4-3 4 2 0 2 0 2 2-1 0-1 2-1 4 0 1 0 2-1 1-1 0-1-1-1-2 0-4-3-3-6 3-2 3-4 5-4 5-1-1-8 5-7 6 0 2 1 4 2 4s1-1 1-1c0-2 0-4 1-4 0 1 2-2 5-5 5-4 6-5 6-3 1 1-2 6-3 5 0 0-4 4-4 5-1 5 0 8 2 7 1 0 1 0 1 1-1 1-1 1 0 0 1 0 2-1 2-1 0-1 0-1 1-1 1 1 1 0 1-3 0 0 0-1 1-1s3-8 2-11c0-2 0-2 1-2 2 1 2-1 4-6 3-10 3-12-2-7zm-22 6c-2 1-4 4-5 5-1 2-2 3-3 2-2 0-2 0-2 1 1 1 0 1-1 1-2 0-2 0 0-2 3-3 4-4 1-4-2 0-5 4-4 5 0 1-1 2-1 3-1 1-2 2-2 3l-1 1c-1 1 0 1 2 2s3 2 2 2c0 1 0 1 1 1s1-2 1-5l1-1c1 0 1-1 1-2s1-2 1-3c1 0 1 1 1 2v3c2 0 7-6 7-8 0-1 1-3 2-4 3-4 2-5-1-2zm346 9c-2 0-1 2 2 6 1 2 2 4 2 5-1 0 0 1 0 2 2 1 2 1 2 0 1-2 6 2 6 4 0 1 1 1 2 1 3 0 3 0 3 1v10c-1 9-3 15-3 6v-8c-1-2-1-3 0-2 3 1 0-3-4-6-5-4-6-4-4 0 1 2 1 4 1 5-1 1-3-2-4-5 0-2-2-5-3-6-4-4-5-9-4-10 1 0 1-1 1-2s0-1-1 0c0 0-1 1-1 0-3 0-4 3-3 5 1 1 1 2 0 2 0 0 0 1 1 1 1 2 1 2 0 2s-1 0 0 1c2 1 2 2 2 4-1 4 0 10 3 13l2 2-1-5c0-5 0-5 1-4 2 1 3 6 1 5s0 6 2 8 3 4 1 2c-1-1-2-1-3 0 0 1-1 0-2-3l-2-4 1 6c0 9 2 11 3 8 1-2 2-2 4 0 2 1 2 1 2-1v-3l1 3c1 1 1 2 2 2 2 0 1 2-1 2-1 0-1 0 0 1s2 4 3 6l1 4v-4c0-3 0-5 1-6 2-1 2-1 1 6 0 6 0 8 1 8l1-1c0-1 1-4 2-7s1-6 1-6 0-2 1-5c0-2 1-4 0-4-2 0-1-2 1-5 3-5 4-7 3-8s-1-1 0-1c0 0 1-1 1-2 0-2 0-4 1-6s1-3-1-4c-1-1-3-1-3-1-2 0-4-5-4-7 1-2 1-2-1-2-1 0-2-1-2-2-1-2-2-2-8-2-3 0-7 0-8 1zm-17 4s-1 1-1 2c0 2 0 2 1 1 0-2 2-3 2-1 0 1-1 2-2 3-2 1-2 1-1 3 1 1 1 1 0 1l-1-1c0-1-1-1-1 0-1 2-2 2-2 1-1-1 0-3 1-4 2-1 2-4 0-4-4 0-19 10-17 11l1 1c0 1-1 1-1 0-3-2-4 2-2 4 1 1 1 3-1 4-1 0-1-1-1-3s0-2-2-1c-2 2-3 5-2 7 1 1 3 2 3 0-1-2 2-2 4-1 0 1 2 2 3 2s2 0 2 1c1 0 2 1 4 1 1 1 4 2 6 4 2 3 5 4 3 1-1-1-1-1 0-1 2 0 4 4 3 5 0 1 0 1 1 1 2 0 2-2-1-7-4-5-3-7 1-1 3 4 3 4 3 2 1-2 1-1 1 1 0 3 1 6 1 7l2 2 1-3c1-2 1-3-1-4 0-1-1-2-1-3 0-2 0-2 1 0s1 2 2 1 2 1 2 4c0 1 0 2 1 2 1 1 0-4-1-8l-1-3-1 2c-1 2-1 2-1 0s-2-4-2-2c0 1 0 1-1 1 0-1-1-2 0-4v-9-8c2-5-1-9-5-7zM66 52c0 1 0 2-1 2s-1 0-1 1v5c-1 5-1 6 0 5 1 0 1 0 1 1s-1 1-1 1c-1 0-2 1-2 1 0 1 0 2-1 2s-1-2-1-5c1-3 1-4 0-3-1 0-3 1-4 1-2 1-2 1 0 1 1 1 2 2 1 2 0 1 0 1 1 1 2 0 0 2-3 3l-2 1 2 3c3 2 3 2 5 1 1-1 2 0 4 1 4 3 7 2 6-2-1-2-1-3 0-3 1-1 1-10 0-10s-3 5-2 6 1 2 0 2-1-1-2-7c-1-1 0-2 0-3 1 0 1 0 1 1s0 1 1 0c2-1 1-2-1-2s-2 0-1-1c2-1 2-4 1-6-1-1-1-1-1 1zm266 23l-2 4c-1 4 0 5 4 5 1 0 1 0 0 1s-3 1-3 0c-1 0-1 0-1 1 1 2-2 5-4 4 0 0-2 1-3 2-3 3-4 5-2 5 1 0 1 1 1 1 0 3 3 5 7 5 2 0 5 0 5 1 1 1 1 1 0 1h-3c-3 0 2 2 6 3 5 0 6 1 6 2s-1 1-3 1l-2-1 2 2 2 2c-1 0 0 1 2 2 1 1 3 2 4 2s0-1-1-2c-4-2-3-2 1-1 5 2 13 2 14-1l2-2c2 0-2-3-5-4-4-1-5-1-3 2 1 1 1 2 0 2s-1 0-1 1c1 1 0 1-2 0-2 0-3 0-3 1s0 1-1 0c0-1-1-2 0-2 0-1 0-1-1-1s-1-1-1-2 2-1 3 0c0 1 1 0 1-1 2-2 1-3-1-6-3-3-6-3-5 0 1 0 1 1 0 1 0 0-1-1-1-2l-2-2c-1 0-2-1-2-2-1-1-2-3-4-4-4-2-6-5-4-6 1 0 1 0 1 1s1 1 2 1c0 0 1 0 1-1s1-1 2 0c0 0 1 0 1-1s1-1 2 0c1 0 4 1 6 2 2 0 2 0 1 1-2 1-2 1 0 2s3 2 3 2c0 1-1 1-4-1s-10-4-10-3 11 7 15 8c2 0 4 1 4 1 1 2 7 2 7 1s-1-1-1-1c-1 0-5-3-8-7l-8-6c-2 0-8-6-10-10-1-2-2-2-4-1zm75 17c-1 2-2 5-3 7-2 5-2 7-1 7 0 0 1 1 0 2 0 1-1 2-1 2s-1 2-2 5c0 5 0 5-2 4-1-2-1-2 0-5 2-3 1-6 0-4-1 1-2 3-2 4 0 3 0 3-1 2-2-2-4 1-3 4 1 4 4 4 7 2l2-2v2c0 2 0 2 2-2 1-2 2-4 3-5 2-1 3-6 2-9-1-2-1-9 1-15 0-1 0-2-1-2 0 0-1 1-1 3zm-28 2c0 3 0 3-1 2s-1 0-1 3c1 5 0 6-3 2-1-1-2-2-2-1s-1 1-2-1c-2-2-3-2-3-1s2 3 4 4l3 3c0 1-2 1-3-1-2-1-3 0-2 3 0 3 16 15 17 14 0-1-3-6-5-7s-4-8-3-9l1 1c1 1 1 1 2 0s1-1 1 0c1 1 1 1 1-1 0-1 0-1 1 0s1 1 1 0-1-2-2-4c-1-1-1-1 0 1 0 2 0 2-1 1-1 0-1-3-1-4 0-2 0-5-1-6-1-2-1-2-1 1zm-59 22c-1 1-2 1-3 1 0 0-1 1-1 2s1 1 2 1c1-1 3-1 3 0 1 0 2 1 4 1 1 1 1 1-1 1-7 0-9 0-9 1s1 2 2 3l3 1h-3c-2-1-3 1 0 4 0 1 2 2 3 1 1 0 1 0 0-1s-1-1 0-2 1-1 0-1-1 0 0-1c3-1 4-1 2 1-1 2-1 2 1 3 4 0 12-1 12-2 0 0 1-1 3-2 2 0 3-1 2-1v-1c1 1 6-4 6-5h-5c-4 0-7-1-11-2-7-3-8-4-10-2zm52 0c0 1-1 3-2 4-3 1-10 2-10 1 0 0-1-1-2 0-2 0-2 0-1-1s1-1-1-1c-1 1-2 1-2 0-1-1-2-1-3-1-2 0-2 0-1 1s1 1 0 1-2 0-2 1 0 1 1 1 1 0 1 1c-1 1-2 1-3 1s-2 1-2 2c0 2 8 1 13-2 5-1 7-1 5 0-1 1-2 2-1 2 0 1-2 1-4 2-8 1-9 3-2 3 4 0 6 0 6 1s0 1 1 1c0-1 3-1 6-2 2 0 6 0 8-1l4-1h-5c-3 0-4 0-2-1 2 0 3-1 3-1s-1-2-3-3l-2-2h4c7 2 9 3 6 4-1 1 1 4 3 3 3-1-1-7-9-12-3-2-4-2-4-1zm-47 17c-2 0-4 1-4 1 0 1-1 2-2 2-4 0-5 1-3 3 1 2 1 2 0 3-3 2 0 2 5 1s7-3 5-4c-1-1-1-1 1-1 3-1 7 1 4 2 0 0 0 1 1 0 1 0 1 1 0 3-1 1-1 1-2 0s-1-1-2 0c0 0-1 1-3 1-8 0-10 1-10 4 0 4 3 8 4 6l1-1c3 0 5-2 3-3-1-1-1-1 1-2 2 0 3-1 3-1s1-1 2-1 4 0 6-1c2 0 3 0 3 1s-1 1-1 1c-1-1-2 0-2 0 0 1-1 1-1 1-5-1-8 1-8 3-1 3-5 7-6 6-1 0-1 0-1 1 0 2 3 1 7-3 3-3 6-4 12-6 10-3 11-3 9-2s1 2 6 1c4 0 4 0 2-2-1-1-1-1 4-1 7 0 7 0 3 3-3 1-4 2-3 4 0 1 0 1 1 0 0-1 1-2 2-2 0 1 1 1 2 1 0 0 0 1-1 1-1 3 4 1 8-3 5-4 2-5-2-1-1 1-2 1-2 0 0-2 9-8 14-10 6-2 5-4 0-2s-7 1-2-1 5-2-3-2c-6 0-7 0-8 2s-2 4-4 4c-1 1-2 2-1 2 0 1 0 1-1 1-1 1-1 0-1-1s0-1-1 1c-1 3-3 2-3-1 0-2 1-4 3-5 1 0 2-1 2-1h-8c-4-1-10-1-13-2-6-1-10-1-16 0zm60 8c-3 2-12 10-12 11 0 2 4 1 5-1 1 0 2-1 2-1 1 0 0 1-1 3-2 2-3 3-3 4 1 0 2-1 3-2 4-5 3-2-1 3-2 4-4 6-5 5s-2 0-3 4c0 2 0 4-1 4-2 1-5 6-5 8 0 0 1 0 2-1 2-2 1 0-1 3-1 1-2 3-2 4 0 0-1 2-3 4-2 1-3 3-2 3 1 1 1 1 0 2s-2 2-2 1c-1 0-2 0-2 1l-2 2c-1 0-2 1-2 3-1 5 0 5 1 1 1-1 2-3 4-4 3-1 3 0 0 2-3 3-3 6 0 9 5 3 10 3 11-1 1-3 0-4-2-3-3 1-2-1 1-4 2-1 3-2 5-2 2 1 4-1 2-2 0-1-1 0-1 1-1 1-1 1-1-1 0-1 1-3 2-4l2-3-1 3c0 3 1 2 3-1l1-4v5c-1 3-1 5-1 6-1 1 0 1 1 1s1 0 0 1-2 0-3 0c-1-1-1-1-3 1-3 4-3 5-2 6s1 1 0 2c-1 0-2 1-2 2 0 2 2 4 2 2 0 0 1 0 0 1 0 1 7 5 15 7 5 2 5 2 6 1l2-2c1 0 1 0 1 1-1 1-1 1 0 1 2 0 2-3 1-4v-3c0-2 0-4-2-7-1-3-2-6-2-8 0-1 0-2-1-2-1-1-1-2-1-4s0-2-1-1c0 1 0 3 1 6v6c-1 3-3 2-3 0s0-2-1-1c0 2 0 2-1 1 0-1 0-2 1-4 1-1 1-3 1-4-1-2-1-3 0-3 1-1 1-2 1-3s0-2 1-2c0 1 1 0 2 0 1-1 1-1 1 1 1 6 1 7 1 9 1 2 2 3 3 3 1-1 2 0 2 1 0 0 0 1 1 1 0 1 1-2 0-6 0-4 1-7 1-6 1 0 1 1 1 2 0 0 1 1 2 1 2-1 3 1 3 6 0 3 1 4 2 3 0-1 1-1 1-2-1 0 0-2 1-5 0-2 1-5 0-6 0 0 0-1 1-1 2 0 1-2-1-8-2-2-3-5-3-6l-1-1c-3 0-3-3-3-17 0-12-1-16-4-16-1 0-1 1 0 2 0 1 0 1-1 0-2-1-2-1-2 0s0 3-1 5-2 4-2 6c1 1 0 2-1 3-3 2-5 9-4 10h3c1-1 1-1 1 0s-1 1-1 1c-1 0-2 0-2 1s1 1 2 1c0-1 1-1 0 0 0 1 0 1 1 1s1-1 1-2c-1 0-1-1 0-1s1 4 0 4c-1 1-2 1-3 2-3 0-8 5-9 9 0 3-2 5-2 3 0-1 1-4 2-7 1-5 1-7 0-8s-1-2-1-3c1 0 1-2 0-4v-3c0-1 1 0 1 2 1 3 3 3 3 0 0 0 1-1 2 0h1c-1-1 0-3 0-4 1-2 2-5 1-7 0-4 2-6 4-4 1 1 1 1 1-1 0-1 0-3 1-4 2-4-2-6-7-4zm-29 13c-4 2-8 6-7 8h-1c-2-1-2-1-1 0v1c-1-1-3 0-4 1-2 0-5 1-6 0-1 0-2 0-2 1-1 1-2 1-2 1-1 0-1-1 0-1 0-1 0-1-1-1-1 1-3 1-3 1-1 0-1 1 1 1 1 1 1 1-2 1-2 0-3-1-2-2 1 0 2-1 3-1 2 0 1-1-2-1-3-1-5 1-3 3 1 2 1 2 0 4s1 5 3 3v1c-1 1 0 1 1 1 3 0 9-2 9-3s1-1 1-1c1 0 3-2 5-4 2-1 5-3 5-3 1 0 3-2 6-5 2-3 3-4 4-3s1 1 1-1v-2s-2 1-3 1zm11 2c-1 1-3 2-5 3s-5 4-7 5-5 4-7 5c-3 1-5 3-6 5-1 1-3 2-3 2-2-1-8 6-8 7s1 2 1 4c2 1 2 1 4 0 1-2 2-3 2-4-1 0 0-1 0-2 1 0 1 0 1 1s0 1 1-1v-2c-1-1-1-1 0-1 1-1 1-1 1 0 0 2 2 1 5-2l3-3-1 3c0 3 0 3 2 4 1 0 2 1 2 2s0 1 2 0c1-1 2-2 2-3s0-1-1 0-1 1-1 0c0 0-1-1-2 0-3 0-2 0 2-5 3-3 10-8 11-8 0 1-1 1-1 2-3 2-2 3 1 1s6-8 5-9c0-1 0-1 1-1 1 1 1 1 1 0-1-1 0-2 1-3 1-2 1-2-1-2s-4 1-5 2zm-87 52c-2 0-7 1-10 2-6 2-12 6-17 11-4 6-4 7 2 11 4 4 5 4 4 6-1 1-1 3-1 4 0 2 0 3-1 3s-2-3-1-6c1-2 1-3-3-6-2-2-5-4-6-4-3 0-9 6-9 9 0 1-1 2-2 2s-1 0-1 5c0 7-1 7-2 1l-1-5-1 4c-1 3-3 5-4 6s-1 2 0 2 0 1-1 3c-3 3-3 7 0 6 1 0 1 0 0 1-1 2-1 2 1 2s2 0 0 1-4 2-5 2c-1 1-1 3 0 2 1 0 1 0 1 1s-1 1-2 1-1 1-1 3v4c-1 0-1 1-1 2 0 2 0 2 2 2 2-1 3-1 4 0s1 1-1 2c-2 0-3 0-4-1-1 0-1 1-1 6 1 6 2 9 3 9s3 0 4 1c1 0 3-1 5-2 3-4 5-4 2 0l-1 2h3c1-1 4-1 6-2 2 0 3-1 2-1-2 0-2-2 1-2 0 0 1 0 1 1-1 1 0 1 2 1h3l-3 2c-3 1-1 1 21 1 13 0 24 0 24-1 1-1-1-4-2-3-1 0-1-1-1-2s-1-1-2-1c-1 1-2 0-2-2-1-1-2-2-4-2h-2l2-1c2-1 2-1 0-3-1-1-2-2-1-3 0-1-4-4-8-4-2-1-3-1-3 1 0 1 0 1-1 0 0-1-1-2-1-2-1-1-1-1 0-2s1-1 1 0 1 1 4 1c1-1 3-1 3 0s1 1 6 3c3 1 4 0 2-2-1-1-1-1 0-1 0 0 2 1 2 2 1 0 2 1 2 1 1 0-1-8-3-10-1-3-2-7 0-5 3 3 6 9 6 11s2 4 3 2c0 0 1-1 2-1s2-1 3-2c0-1 1-1 2-1 2 1 2 0 3-4 1-7 1-7 1 0 0 8 0 9 3 7 2-3 3-1 0 1-3 4 1 6 9 5 1 0 2 0 2 1-1 1-3 1-6 1h-5l3 2c2 1 5 1 7 2 1 0 4 1 7 2 4 2 4 2 3 4-1 1-1 2 3 3 0 1 0 1-1 2s3 1 15 1c15 0 17 0 16-2-1 0-2-1-3-1l-2-2c-2-1-2-1 2-1 2 1 5 1 6 1 2 0 3 3 2 4 0 1 1 1 3 1 3 0 3 0 1-1s-3-3-1-3c1-1 1-1 1 0 0 3 2 1 4-4 2-6 2-20 0-19-1 0-1-1-1-2 1-1 1-2 0-2-2 0-3-3-2-6 1-4 1-12 0-13s-2-2-4-2c-2-1-2-1-1-2 1-2 1-2 0-4-2-3-5-3-9 1-2 2-4 3-4 3 0-1-14 6-15 8-1 1-6 4-7 4 0 0 0-1 1-2 2-1 2-1 0-1-3 0-5 1-4 3 0 1 0 1-2 1-1-1-3 0-5 2s-3 3-4 3h-1c-1 0-1 0-1 1 1 0 0 2-1 3-2 2-3 4-3 4l-1 1c-2-2 4-10 9-13 3-2 5-4 5-4 0-1 1-1 2-1s2 0 2-1c1 0 2-1 4-1 1 0 1-1 1-1-1-2 0-3 2-2 3 1 17-5 17-7 0-1-4-1-4 0-1 1-6 2-6 1l4-2c2-1 3-2 4-3 0-1 3-1 3 1 1 1 1 1 2 0h2c2-1 2-2 0-3-1 0-2-1-1-1 1-1 1-2 0-3s-1-1-1 0 0 1-1 0c-1 0-1-1 0-1 1-1 1-2 0-2 0-1 0-1 2 0 1 0 1 0 0-1-1-2-1-2-2-1l-1 1c0-1-1 0-2 1-2 2-2 2-1 0 1-3 1-7-1-6-1 0-1 0-1-1 2-2 0-1-5 3-2 3-4 5-5 5-2 0-1-3 3-6l4-4-5-4c-5-5-8-6-10-6 0 1-1 1-1 0s-3-1-11-2c-3-1-4-1-3 0s0 5-1 5-1-1-1-2c0-2-2-3-2-1s-1 4-1 4v5c-1 2-1 7-2 10-1 7 0 9 2 10 0 1 1 2 1 2 0 1 0 1-1 0s-2 0-2 2c-1 2-2 3-3 3-3 0-4 1-3 4 1 2 1 3 0 6-2 2-2 5-2 7s-1 4-1 4c-1-1-1-2-1-5 0-9 1-12 1-12 2 0 1-5-1-7-1-1-2-2-2-1-1 0-1-1-1-2 1-3 0-4-1-2-1 1-1 0-1-1 1-3 0-5-1-5s-2 1-1 4v5c-1 0-1 1-2-5v-5h3c2 0 3 0 3 1-1 1 0 1 0 1 2 0 3-2 1-4-1 0 0-1 1-1 3 0 3 0 1 3-1 2-1 3 0 2h1c-1 1-1 2 0 3 2 2 6-1 6-4s0-3-1-2c-2 1-2 1-2 0s0-2 1-2c1 1 3-1 4-4 0-1 1-7 1-14 0-1 0-2-1-3 0 0-1 1-1 2s-1 2-1 3c-1 0-1 0-1-2 1-2 1-3-1-4-3-1-7-1-7 0s0 1-1 0-8-1-14 1zm-14 33c2 1 5 3 5 5 1 1 2 2 2 1l1-1c1 0 2 1 1 2 0 1 0 1 2-1 1-2 2-2 4-2 3 1 3 2-1 5l-4 2 3 4c1 2 2 3 2 4-1 0-9-9-9-10l-2-2c-1-1-1-1-1 1 1 4-1 4-1 0-1-3-1-3-2-2 0 2-1 2-1 1-1-1-1-2 0-2 1-1 1-1 0-3-4-4-4-5 1-2zm-14 18c0 1 0 2 1 2s1 1 1 2c-1 0 0 1 0 1h4c1 0 1 0 0 1s-2 2-1 2c0 1-1 1-2 1s-2 0-2 1 2 1 4 0c1-1 1-1 1 0 0 0 1 1 3 0 2 0 2 0 1 1 0 2 0 2 2 2 1 0 2 0 3 1 1 2-10 2-15 0-3-2-9-4-17-5-4-1-6-2-5-2 0-1 1-1 2-1 0 1 3 1 5 1 3 0 5 1 7 2 1 1 4 1 7 1 1 0 1-4-1-5-5 0-8-3-5-5 0-1 1-1 1 0 0 0 1 1 2 1 1 1 1 1 1 0-1-2 1-4 2-3 1 0 1 1 1 2zm196-35l-2 2c-2 0-9 8-8 9 1 0 1 1 1 1 0 1 0 1-1 0-1 0-1 0-1 1 0 0-1 1-1 0-1 0-2 0-2 2s12 13 13 13c1-1 1 0 1 0-1 0-1 1 0 2s1 1-1 1c-1-1-3-2-5-4-1-1-2-2-3-2-1 1-2 1-2 0-1-1-1-1-2 0s-1 1-1 0 0-2-1-2l-2-4v-3l-4 3-4 4 3 1c3 1 3 1 1 4-1 3-1 3-2 1 0-4-2-6-4-5 0 1-1 2-1 2 0 1-1 2-2 3-3 2-2 3 1 1 1-1 2 0 4 1 1 0 2 1 3 0 1 0 1 1 1 1 0 3-2 3-4 1-1-1-2-2-3-2s-5 4-5 5 0 1-1 0-1-1-2 0c-2 2-2 2 0 2 0 1 1 1 1 2s-1 1-2 0c-2-2-2-2-4 3-3 5-4 11-2 11 1 0 5-3 5-5 0 0 1-1 2-1 0-1 1-1 1-2-1 0-1-1 0-1 1-1 1-1 1 0s1 1 2 1c0-1 1 0 1 0 0 2-4 5-6 6-1 1-2 1-1 2 1 2 0 5-2 7s-4 1-1-1c1-1 2-3 1-4 0-2 0-2-1 0-1 1-2 1-3 1-1-1-1-1-1 7 0 6 0 6 5 6 3 0 5 1 6 1 1 2 6 1 8-1 2-3 3-5 1-3-2 1-2 1-2-1s3-3 3-1c1 1 1 0 2-1 1-4 2-4 1-1v4c0 1-1 2-1 2-1 0-3 1-4 2-1 3-7 5-7 3 0-1-8-2-9-1-1 0 0 1 2 2 3 1 14 2 14 0-2-2 8-2 11 0 0 0 4 1 9 1h8v-29l-3-1c-3 0-4-1-4-4-1-3-2-4-3-3 0 0-1 0-1-1 0-2 5-2 7 0 4 4 4 1 4-19 0-17-1-20-2-19zm-344 30c-2 0-3 1-4 4-1 2-2 3-3 3 0-1-1 0-1 0 0 1 0 1-1 0-1 0 0-1 1-3 3-2 4-4 2-4s-8 4-8 5c0 0-1 1-1 2-1 0-1 0-1-1 1-2 1-2 0-2-2 1-2 4-1 6 2 1 2 1 1 3l-2 2-1-3c-1-1-1-3-1-4 1 0 1-1 0-1s-1 0-1 1c0 0-1 1-2 0-1 0-2 0-2 2 0 1 0 1-1 0-1-2-10 2-12 7-2 3-2 3-3 1v-2l-3 2c-3 3-2 5 1 4 2 0 3 0 3 2-1 1 1 2 3 0s10 4 10 8c0 2 0 2 1 1s1-1 1 0c-1 1 0 2 0 2 1 0 1-1 1-3-1-1-1-2 0-1 0 1 1 1 2-1 1-1 2-1 3 0 0 1 0 2-1 2-1 1-1 1 0 1 1 1 2 0 3-1 2-2 4-2 4 1 0 2 0 2 1 1 1-2 0-5-2-7l-2-3v3c1 1 1 2 0 2l-2-2c0-1-1-2-1-1 0 2-2 0-2-2 0-1 0-2-1-2s-1 1 0 2c0 2 0 2-1 1-2-1-2-1-2 0 0 2-3-2-3-4s0-2 2-1c0 1 1 1 1 0l1 1c1 1 1 1 1-1 0-3 2-3 2 0 1 2 1 3 2 3s1-1 0-2c-1-2-1-2 1-1 1 0 1 0 0-1s-1-1 0-1c1 1 2 0 2 0 0-1 1 0 1 1 1 1 1 3 1 3 0 1 0 1 1 1s1 1 1 1c0 1 0 2 2 2 1 0 2 0 3 1h3c1 0 1 0 0 1 0 1-1 3 0 4 0 1 0 1-1 1-1-1-2 0-2 2 0 1 1 2 1 1 1 0 1 2 2 4 0 2 1 4 1 3 1 0 1 0 1 1-1 0-1 1 0 1 2 0 3-4 2-5s0-2 1-3c2-1 2-1 1-1-2 0-3-3-2-4s2-4 2-7c0-2 1-5 1-6 1-1 1-3 1-4 0-2 0-2-1-1-1 2-1 2-1 0 0-1 0-2 1-2 0 0 1-1 0-2 0-2 0-2 1-2 1 1 1 0 1-1s0-3 1-4c0-1 0-1-1 0-2 2-4 1-2-1 1 0 2-1 3-1s1 0 1-1c-1 0-4-1-7 0zm23 3c-1 1 0 2 1 2 0 1 1 2 1 3 0 2 0 2-1 1-2-1-2-1-1 2 6 12 9 19 6 17-1 0-2 0-2-1 0 0 0-2-1-4-2-3-2-3-3-2 0 1 1 3 1 5 2 2 2 2 0 3-1 0-2 1-2 2 1 1 0 2 0 2s0 1 1 0c0 0 1 1 1 2 0 0 0 1 1 1s1-1 1-2 1-1 2-1c0 1 2 1 2 1 1 0 1 1 1 2 0 2 2-2 2-5s-2-2-3 0c0 1-1 2-1 1-1 0 2-5 7-10 1-1 2-3 1-3 0-1 0-1 1-1 0 1 1 0 1-1 1-2 3-3 3-1 0 1-1 2-1 3-1 1-1 1 0 1s7-8 7-9c-1 0-1-1 0-1 2-2 1-6-2-6-2 0-3 2 0 4 1 1 1 1 0 1-2 0-2 0-1 1 1 2-1 4-4 4-1-1-2 0-2 0l-1 1c-1-1-1-2 0-3 2-3 2-3 1-3-2 0-3 2-4 7 0 2 0 4-1 4 0 0-1 1 0 2 0 1 0 1-1 1-1-1-1-8 0-8 0-1 1-2 0-2 0-1 1-3 2-4s2-2 2-4c0-1 0-2 1-2s1 0 1 1c-1 1 0 1 1 0 1 0 1 0 0 1-1 0-1 1-1 3 1 1 1 1 2-1 1-1 2-3 2-3 2-1-4-4-6-2h-3c-2-2-4 0-4 3s0 4-1 3c-1 0-1 0-1 1s1 1 1 2c1 0 2 1 1 1 0 1 0 1 1 1 1-1 1-1 0 1 0 1-1 3 0 4 0 4-1 4-3 0-1-2-1-3 0-3 1-1 1-1 0-1-3 0-3-10 0-11 3-2 2-3-1-3s-4 1-4 3zm27 16c-1 1-1 4 0 5 0 2 0 4-1 4-1 1-1 0-1-1v-2c-1 0-2 2-2 4s0 4 1 3 7-3 7-2l4-4c1-2 4-5 6-6 1-2 2-3 2-3-1 0-8 4-6 4l-1 1c-2 1-5 0-5-1s-1-1-1 0c-1 0-2 0-1-2 0-3-1-3-2 0zm-100 5s-1 1 0 1c0 1 0 1-1 1-1-1-1-1-1 0 0 0-1 2-3 4-4 4-5 7-3 6 1 0 3 1 5 3 3 3 6 4 5 2-1-1 0-1 2-1s2 0 1 2c0 2 0 2 1 1 1 0 1 0 1 1-1 0 0 1 1 1h8c4 1 6 1 5 0 0-1 0-1 1-1s1 0 1-1c-1-1 0-1 1 0 2 1 0-3-4-5-2-2-4-4-5-6-2-4-4-6-5-4 0 2 2 4 6 9 2 2 2 3 1 3s-3-2-4-3c-1-2-3-3-3-3-1 1-1 2 0 2 2 3 1 3-1 1-3-3-7-11-6-12 1 0 1 0 1 1s0 1 1 1 1-1 0-2c-1-2-2-2-5-1zm249 9c-1 1 0 3 0 5 3 8 3 8 2 6-3-4-6-7-7-6 0 0-3 6-3 8 0 1 2 0 2-2 1-2 5-2 6 0 0 1 0 1-2 1-1-1-2-1-2 0s2 1 6 1h6l-1-3c-1-8-6-14-7-10z" fill="#ccc"/></svg>