<svg version="1" xmlns="http://www.w3.org/2000/svg" width="600" height="400" viewBox="0 0 450.000000 300.000000"><path d="M266 100c-3 3-10 20-12 29-2 10-2 10-1 10 0-1 2 0 2 0 2 1 1 2-4 2h-7c0 1 0 1-1 0 0 0-1-1-1 0-1 0-1 0-1-1 0-2-2-4-5-5-2-1-3-2-3-2 0-2-2-3-9-3-5-1-8 0-7 1 0 1 0 1-1 1-3-1-11 4-15 8-4 5-9 15-9 18 0 1 0 2-1 2s-1 5-2 12c0 14 1 18 9 36 8 15 12 21 19 25l5 3-3 1c-2 0-4 1-4 1 0 2 23 3 48 1 15-1 20-2 15-3l-3-1 3-2c8-5 13-14 21-39 2-9 3-23 0-32 0-2 1-1 2 2l3 4-1-4c-1-9-5-19-10-25-4-3-4-2-1 1 3 5 2 5-3 2-2-2-4-3-4-2-1 0-1 0-1-1-1-1-2-1-2-1-1 0 0 2 2 4l4 4c0 1 1 2 2 3s2 2 1 2c0 0-2-1-4-3s-4-3-4-2c-1 0-3-1-5-1-2-1-4-2-6-2-1 1-2 1-2 0s-7-3-8-2c0 0 1 0 2 1 2 0 3 3 2 4-2 1 0 2 2 1 1 0 2 0 2 1s1 2 2 2 3 1 4 1c2 2 2 2 0 4-1 2-2 2-6 1-2-1-5-1-7-2h-5c0-1-2 0-4 1-3 1-5 1-5 0-2-1-6-1-10 0-4 2-5 2-6 0-2-2-3-2-6-2-2 1-3 0-3 0 0-1-1-2-1-2-1-1-1-2 0-4s2-4 1-4c0-1 1-1 1-1 1 0 2 1 2 1 0 2 1 2 3 1 2-2 6-3 6-2s1 1 2 1l4 2c3 2 3 2 8 1 3-1 7-2 7-1 1 0 3-1 4-1 1-2 1-2-1-4-1 0-2-1-3-1-2 0 0-10 3-18 1-4 3-8 4-11 0-2 2-5 4-7 3-5 2-8-2-3z" fill="#ccc"/></svg>