<svg version="1" xmlns="http://www.w3.org/2000/svg" width="600" height="400" viewBox="0 0 450.000000 300.000000"><path d="M145 2c1 1 2 5 2 9s1 9 2 10c0 1 1 3 1 4s1 6 3 11c2 6 3 12 3 19 1 6 2 11 4 19 3 7 4 12 4 14-1 1 0 8 1 16 1 9 2 16 2 17-1 1-1 2 0 2 1 1-1 23-3 29s-2 9 0 5c1-1 3-4 4-5 3-3 3-3 2-9 0-3 0-6-1-7 0 0 0-1 1-1 0 0 1-2 1-5v-7c1-1 7-3 18-5 20-3 27 1 29 14 1 6 1 6 1-3v-10l8-1c4 0 8-1 9-1 0 0 0-5-1-9-1-5-1-19-2-31-1-19-5-64-8-74V0h-40c-38 0-40 0-40 2zm108 15c18 26 28 40 31 44 2 4 3 4 13-3l4-2-6-11-9-18c-5-8-5-10 0-4 1 3 3 5 3 5 1 0 1 1 1 2 0 2 1 2 3 2 1 0 1 0 0 1 0 1 0 1 1 1 1-1 1-1 1 1-1 1-1 2 0 2 1-1 5 1 7 3 1 1 1 1 1 0s0-2-1-2c0 0-1-1 0-2 0-1 0-2 1-2 0 0 8 5 9 6 0 1 4 0 4-1s2-1 4-2 3-2 2-3c0-1 1-2 1-3l2-2c0-1 1-2 2-3 2-2 2-4-1-3-1 0-1-1-1-3 0-5-1-7-3-9-1-1-1-1 0-3 2-2 2-3 1-3s-2-1-2-1c0-1 0-1-1 0s-2 1-2 1V3c-1-3-2-3-39-3h-38l12 17zm86 16c-27 16-32 19-33 19 0-1-1 0-2 1s-1 1 1 1c4-2 12 18 14 36 2 16 1 24-4 36-5 14-7 19-7 20 1 1-4 9-10 16-2 4-13 26-13 28h2c2 0 3 0 3 1 0 2-1 2-3 2s-3 1-4 2h4c3 0 4-1 6-4s3-4 5-4 2 1 2 5c0 5 0 5 2 4 0-2 1-3 1-5 0-3 2-4 6-2 2 0 3 1 3 6 1 6 0 7-5 8-3 1-4 0-6-3-1-2-1 0 0 3 1 2 1 3-1 4-2 2-9 1-10-1s-1-6 1-6c0 0 1-1 0-2-1-3-2-1-3 4s-3 8-6 8c-2 0-6 8-6 11s4 9 6 10c0 1 1 2 0 2-1 2 16 4 23 2 3-1 2-2-2-3h-4l6-3c27-10 54-30 71-55 12-14 18-23 30-35 12-14 14-16 12-21-1-3-2-5-4-6-5-3-7-3-9 2-1 3-11 17-16 23-1 1-1-1 1-5 1-2 3-8 5-13 2-6 4-10 5-10s2-1 2-10V89l-9-8c-4-4-9-9-11-10s-5-1-3 2c1 0 1 1 0 2 0 1 0 2 1 4 2 5-5 29-10 37l-2 4-6-3c-3-1-6-2-8-2-1 1-5 0-7 0-3-1-8-2-11-3-6-1-7-3-4-5 1-1 1-2 0-6 0-6-1-6-3-5-1 1-2 1-2 0s-1-1-1 0c-1 0-2 0-2-1-1-2 0-6 1-6s1-1 0-1c-2-1-2-2-1-2 1-1 4 1 4 3 0 1 4 4 5 4 2-1 4 1 3 2 0 1 0 1 1 1s2 1 3 2c0 1 1 1 2 1 1-2-9-22-12-22-2 0-5-4-4-5s1-1 0-2-2-3-2-4c0 0-1-3-2-5s-2-5-2-6-1-2-1-2c-1 0-1 0-1-1s1-1 1-1c1 0 2-1 3-3s3-4 5-5 4-2 5-3 3-2 5-3c2-2 4-3 5-4 1 0 3-2 6-4 2-1 4-2 4-3s-3 1-13 7zm-19 113c4 2 6 3 9 3 3 1 3 1 2 8 0 2-7 2-13 0h-6c-4 0-4 0-4-2 0-1 1-3 2-3s1 0 0 2c0 1 0 1 2 0 1-1 2-3 2-4s0-1-1 1c-1 1-2 1-2 0 0 0 1-2 2-2 0-1 1-2 1-3s2-1 6 0zm28 6c2 0 7 1 10 2 3 0 6 1 8 1s5 3 6 6c1 1-1 4-4 8l-5 7-5-4c-3-2-4-4-3-5 2-2 0-4-10-5-5-1-10-2-11-2-2-1-2-4 0-9 1-2 1-2 5 0 2 0 6 1 9 1zm-201 18c-20 11-20 11-15 18 3 6 8 17 9 22 1 1 0 2-2 3-5 2-15 3-17 2-2-2-8-17-9-22 0-2 0-4-1-4 0 0-3 2-8 4-4 2-10 3-12 4-4 0-14 6-11 6 0 0 1 1 1 2 0 2 1 5 1 7 3 7 2 7-8 7-6 0-11-1-13-2-5-3-10 0-11 7-1 6 0 7 11 8 11 0 46-1 62-4 26-3 37-4 68-5 37-1 40-2 40-6 0-3-2-8-4-8 0-1-4 0-9 1-11 1-42 1-42-1l6-2c7-1 33-10 41-13 5-2 5-2 5-7 0-7-3-19-5-20s-3 0-3 1c-1 1-6 3-18 7-9 3-19 6-22 7s-7 2-10 3l-4 1-5-10c-3-6-6-10-6-10-1 0-5 2-9 4z" fill="#ccc"/></svg>