<svg version="1" xmlns="http://www.w3.org/2000/svg" width="600" height="400" viewBox="0 0 450.000000 300.000000"><path d="M0 71l1 70 2 2c3 1 3 1 2 4s0 5 4 5c2 0 5 1 6 2 2 1 6 4 8 5 6 3 7 5 5 5-1 0-2 0-2 1s1 1 2 1c0 0 2 1 3 3s2 3 4 3l5 5c5 3 12 7 13 7 0-1 1-1 1 0 1 0 2 1 2 0 2 0 3 1 5 4 0 2 3 4 4 5 5 3 5 6 1 3-3-2-5-1-3 2l2 2c0 2 3 4 4 4s1 1 1 1c0 2 4 6 5 6 1-1 4 0 4 2 1 2 0 2-2 2-1-1-2 0-2 0 0 1 2 1 3 1 2 0 39-1 45-1 8 0 15 0 16 1s5 1 9 1c2-1 3 0 4 0 0 1 2 1 4 1 2-1 4 0 4 0 1 2 9 1 9 0s2 0 3 0c3 1 4 1 5 1 0-2 2-1 1 0 0 1 0 2 1 2s1-1 1-1c0-2 10-2 12 0 1 0 4 1 6 1 7 0 8 0 8 1-1 0 1 1 4 0 3 0 5 1 5 1 1 0 2 1 4 0 1 0 3 1 4 2 2 1 2 1 2 0s0-1 1 0c1 0 3 1 5 1 1 1 4 1 5 2 1 0 5 1 9 1 3 1 7 2 8 2 2 1 3 1 4 2 7 0 16 2 17 3 2 1 12 3 28 5 7 1 16 3 19 4 3 0 14 2 25 4 27 3 50 7 63 10 6 1 13 2 15 3 3 0 7 1 9 2 2 0 7 1 11 1h6v-13c0-9 0-12-1-12-3 0-4 0-4-2 0-1 1-1 3-1l2 1v-13c0-12 0-12-2-11-4 2-6 5-6 8 0 1-1 2-2 3-8 2-9 4-5 5 2 1 3 2 2 2 0 2-1 1-4 0-4-2-5-3-3-4 1-2 1-2-2-5l-3-3 3-2 2-2 1 2c0 1 1 2 2 2s5-5 5-7 1-4 2-6c3-4 3-6-1-8-3 0-3-1-3-6s-1-6-4-8c-2-2-4-4-4-5v-2c-2 0-2 7-1 7 1 1 1 2 1 3 0 2 0 2-1 1s-2-2-2-3-1-3-2-5c-2-4-3-7-1-9 1-1 1-1 0-3-3-2-5-1-4 1 2 5 1 6-1 6-4-1-4 1 0 3 2 1 3 3 3 4 0 3-2 3-5 0-1-1-3-2-3-2-1 1-3 0-4-1-2-2-4-3-6 0-2 1-2 1-4-1-1-2-3-3-4-3 0 0-1-1-2-3-1-3-6-3-5 0 0 4-2 5-7 2-5-2-6-2-6-1 0 2 5 5 11 8 5 3 6 5 2 7-3 1-3 1-6-1-2-1-3-3-3-3 0-1-1-2-3-2-3-2-5 0-2 3 2 3 3 4 7 6s4 3 4 9c0 5 2 6 5 4 2-1 2-1 4 1 0 1 2 1 2 2 3 0 2 9 0 11-4 2-3 6 1 5 3 0 5 1 5 3 0 1-7 4-11 3-5 0-5 0-5-2 1-1 1-3 1-5 0-1 1-2 2-2 3-1 3-4-1-3-2 0-3 1-4 5 0 4-3 8-7 10-7 3-9 2-5-4 0-2 1-4 1-6 1-1 2-3 3-4 2-3 2-5-1-5-1 0-2-1-2-3-1-6-8-7-9-2-1 4-1 5-2 5s-1-1-2-3c0-3 0-3-4-2-1 0-3 0-3-1s5-3 6-3c1 1 2 1 3 0 0-1 1-1 2-1 1 1 3-1 3-3 0-3-4-3-6 0-2 2-3 3-6 2-6 0-10-5-5-5 2 0 3-1 3-1 0-1 1-2 3-2 1 0 3-1 4-1 0-1 4-1 8-1 4 1 7 1 7 0 1-1-3-2-4-2-1 1-1 0-2-2s-1-2-4-1c-3 2-7 2-7 0 0-1 1-2 4-2s4-1 4-4 0-3 3-5c2-1 3-1 3-4-1-4 0-5 4-4 4 2 4 1 3-2-1-4-4-5-5-2 0 2-2 3-6 0-4-2-3-3 4-3 4 0 5-1 5-2 0-3 3-3 6 0 2 1 4 2 6 2 1 0 4 0 5 1s4 2 5 2c2 0 2 0 2 2-1 3 2 7 4 7 1-1 2-1 2-2 0-2 3-1 6 1s2 0-2-4c-4-5-4-6 0-6 1 0 3-2 4-3 1-2 1-2-2-2-2 1-3 1-3-1 0-1-1-1-2-1-3 0-7-1-10-5-4-4-2-4 3-1 2 2 4 3 6 3 3 0 3 0 2-3 0-2-1-4-1-5-1-1-5-1-5 0s0 1-1 1-1-1-1-1c0-1 0-2-2-3-2-2-3-4 0-4 0 0 1-1 1-2 0-2-2-5-3-4-2 0-4-2-2-3 1-1 0-2-1-4-2-3-1-4 2-1s7 1 4-3c0 0-1-1-2 0-1 0-2 0-2-1s1-2 1-2c1 0 0-1-2-3-3-3-3-3-1-3 2 1 2 0 1-2 0-1-1-2-1-1-1 0-2 0-2-1-1-1-1-1-1 0-1 1-1 2 0 2 2 0 1 2-1 2h-5c-5 1-5-3 0-8l4-4 3 3c2 3 3 4 5 4s5 0 7 2l3 2v-2c0-4-1-5-3-4-1 1-2 1-3 0 0-1-1-1-2-1-1 1-4-2-4-3 1-1 2-1 4 0h3l-3-2c-1-1-3-2-5-2s-3-1-4-2c-2-2-6-4-10-5-3-1-5-2-5-3 0-2-2-5-3-5s0 1 0 2c2 3 0 4-2 2-1-1-3-2-6-3-4 0-4-1-3-5l1-3 1 3c1 2 1 2 1 1s0-2 1-2 2 1 3 2 3 2 6 2c2 0 6 1 9 3 2 1 5 2 7 1 1 0 2 0 3 2 1 3 7 2 11-1 3-2 6-3 6-1-1 2 4 6 5 4s13 0 13 3c0 1 5 2 6 1 0-1 1-1 2-1 2 0 3-1 3-1 1-1 1-1 1 0 0 0 1 1 2 1s2 1 3 1c0 1 1 2 3 2h3V0H189l3 9c6 15 6 16 8 20l2 3h17c17 1 34 4 43 6 18 6 23 8 31 13 7 5 21 16 21 18 0 0-1 1-2 1-1 1-2 0-2 0 0-1-1-1-3-2-1 0-4-1-5-2-4-1-5-1-2 1 2 2 1 3-2 2-2-1-4-5-6-9-4-7-5-8-3-3 0 3-2 4-3 2-1-1-2-1-2-1-1 0 0 2 2 4 3 4 3 4 2 5-1 2-2 2-3 0-4-2-6-1-3 2 2 2 2 4-1 3-2 0-3 1-2 3 2 1 5 1 5 0s1-1 1 0c1 1 2 3 1 3 0 1-6 1-6 0-1-1-1-1-2 0s-5 3-7 3-2 0-1-1c1 0 2-1 1-3 0-2-2-3-2-1 0 1 0 1-1 1s-1-4 0-5c1 0 1-1 1-1 0-1 0-1-1-1 0 1-1 1-1 0-1-1-2 0-4 0-1 2-1 2 1 2 1 0 1 0 0 1-1 0-1 2-1 3 1 2-5 8-6 6 0-1 1-2 2-3 3-3 3-7 0-6-1 0-2 0-2-1 0-2-1-2-3-1-3 1-5 0-4-1 4-4 13-6 12-4s1 2 5 1c2-1 2-1-1-2-3 0-5-1-7-1-1 0-2 0-2-1-1 0-2-1-3 0-1 0-3-1-4-2l-2-2v2c1 2 0 3-2 0-1-1-1-1-2 0 0 1-1 1-3 0-2 0-2 0 0 1 1 1 2 2 2 3 0 0 0 1 1 1s1 0 1 1c0 2-6 2-8 0-1-1-2-1-2 0 0 4-9 8-12 5-1-1-12-4-13-3 0 1 1 2 6 3 6 0 8 2 3 2-1 0-3 1-5 2-1 2-3 3-5 4-2 0-3 1-3 1 0 1-1 2-1 2-1 1-1 1 0 2s1 1 0 4l-2 3-2-2c-3-3-5-3-3 1l2 2c0 1-2 2-3 3-5 3-6 3-14-5-3-3-7-6-8-6 0 0-1-1-2-1-1-2-7-5-10-5-4 0-7 0-5-1 1 0 1-2 0-2-3 0-7-3-7-4 0-2-6-4-10-2-2 1-3 0-3-1-1 0-2-1-3-1s-3-1-4-1c-2-1-6-2-10-2-6 1-8 0-9-1s-4-1-7-2c-3 0-6-1-7-2s-3-1-7-2c-5 0-10-2-10-3s10-6 17-8c14-3 13-1 13-21 1-19 1-22 0-24s-3-2-56-2H0v71zm270 24c1 3 4 5 11 7 3 1 5 4 4 7-1 2-1 2-4 0-2-2-4-3-4-4s0-1-1 0c0 1 0 1-2 0-3-3-4-4-5-4-2 0-3-3-1-4 1 0 1-1 0-2 0-1 0-2 1-2 0 0 1 1 1 2zm-63 12c5 0 1 1-4 2-5 0-9 1-9 3 0 1 4 1 6 0 3-2 7-2 10 0 2 2 3 5 1 3-1 0-1 0-1 1s0 1-1 0-2-1-2 0c0 0-1 1-2 0-1 0-1 0 1 2 2 3 2 3 1 3-1-1-3 0-5 2-3 3-3 3-5 2s-2-1-1-2c3-2 2-3 0-2-4 2-6 1-3-1 1-2 1-2-1-2-2 1-2 1-2 0 1-1 0-2 0-2-2-1 2-7 5-8 2-1 5-2 6-2 2 1 4 1 6 1zm20 15v10c1 3 3-1 5-8l2-6c2 0 2 3 1 4l-1 1c1 0 0 3-1 5-1 3-1 4 0 5 1 0 1 1 1 2-1 0 0 1 0 2 1 2 3 0 4-6s4-11 6-11 1 2-1 5c-2 2-5 11-4 12l1-1 1-1c1 0 3-2 3-3 2-5 4-6 5-3 1 1 1 1 1-1-1-1 0-2 0-2 1 0 2 6 0 11-2 6 0 8 4 4 3-2 6-3 5-1-1 0 0 1 0 1 2 1-1 5-3 5-3 0-7 4-11 10-3 6-6 7-8 5 0-1-1-1-2-1 0 1-1 1-1 0 0 0-1-1-2-1-1-1-2 0-2 0 0 1 0 1-1 1s-1-1 0-1c1-2 1-5 0-5 0 0-1 0-1 1-1 1-2 1-2 1-1 0-1-1 0-1 1-2 2-9 1-9s-3 2-2 4c0 1-2 7-4 8-1 0-1-1-1-5 1-8-5-15-14-15-4 0-4-2-1-2 2 0 2 0 1-1-2-1-2-1 0-1 1 1 2 0 2 0 0-1 1-1 1-1 1 0 1 0 1-1 0 0 0-1 1-1 0 0 1-2 0-4 0-3 1-4 3-1 1 1 1 1 1 0 0-2 3-4 3-2 0 0 0 1-1 1-1 1-2 12-1 13 3 2 5 1 5-4 0-6 1-11 2-11s1-1 1-3c0-3 2-2 3 2zm-27 29c1 5 5 8 10 8h4l-1 3c-2 4-4 4-6 1-3-2-5-3-5-1-1 1-1 1-2 1 0-1 0-1 1-2s1-1 0-2-2-1-3 0c-1 0-1 0-1-1s0-3-2-4c-3-4-3-6 1-6 3 0 4 0 4 3zm17 22c7 7 7 17-1 20-3 1-3 1-6-2-2-2-3-3-1-4 1-2 0-3-2-2-2 0 1-2 5-5 1-1 1-1 0-1-1 1-2 0-3 0-2-1-2-1 0-1 3-1 4-2 2-4-1 0 0-1 1-2 2-1 2-1 5 1zm23 6c0 2-1 3-2 3s-1 1 0 3c4 4 4 4 2 4s-3 2 0 3c1 1 1 1 0 1-1 1-2 0-3 0 0-1-1-1-1 0-1 0 0 1 1 1 1 2 1 2-1 2s-4-2-7-3c-8-8-5-16 8-17 2 0 3 0 3 3zm166 11c4 4 2 3 10 4 8 0 8 0 6 4s-2 4-8 0c-6-3-14-3-15 0 0 1 0 2 1 2 1 1 4 2 6 3 5 1 5 1 3 3-2 1-3 4-1 4 1 0 2-1 3-1 1-2 7-3 10-3 1 1 1 1-1 3-1 2-2 3-1 3 0 1 0 2-1 2-1 1-1 1 1 3 3 3 2 4-7 4-7 1-8 1-9 0-1-3 1-7 3-7 1 0 1 0-1-1s-2-2-2-4c0-3 0-3-2-3-1 0-2 0-2-1s-5-6-7-6c-3-1-4-3-2-6 1-1 2-3 1-3 0-1 5-3 9-3 1 0 3 1 6 3zm-182 3c2 1 5 2 5 3s1 1 1 1c1-1 10 6 10 7 0 3-12 6-13 4-1-1-2-1-3-1-3 0-5-3-5-6 0-2 0-2-1-1 0 1-1 1-1 0-1-1-1-1 0-2 0-1 0-1-1-1s0-1 2-3c1-1 3-2 3-2s1 1 3 1zm210-23c-1 5 0 11 3 13 1 1 2 1 2 0 0 0 0-1-1-2-1 0-1-3 0-3 2 0 6-7 5-8 0-1-1-1-1-1-1 0-2 0-2-1 0 0-1-1-3-1-1-1-2 0-3 3z" fill="#ccc"/></svg>