<svg version="1" xmlns="http://www.w3.org/2000/svg" width="600" height="400" viewBox="0 0 450.000000 300.000000"><path d="M220 3c1 1 1 36 2 77 1 63 1 81 2 95 0 1 0 1 1 0 3-2 6 1 4 4-1 0-1 1-1 2 2 1 3-2 3-5 0-2 1-3 1-3 1 0 1 1 1 3-1 2-1 4 0 5s1 1 1-2c0-2 0-4 1-5s1 0 1 4c-1 3-1 6-1 6l-11-1c0-1 0-1-1-1-1 1-1 8 0 12 1 2 1 2 0 3-2 1-1 2 3 2h5v6c0 8-1 10-3 9-4-1-5-3-5-8 1-3 0-5-1-6-2-2-2 11 1 14 2 4 17 4 18-1 2-3 1-13 0-13s-1 0 0-1 1-1-1-2c-1-1-1-1 0-3 2-4 2-9 1-12-1-1-2-1-2 0l-1 1c-1 0-1 0 0-1 0-1 1-4 1-6 0-5 0-5-3-4-2 0-2 0-1-1s3-2 3-1c1 0 2-4 1-13-1-4-1-25-1-46-2-86-2-108-3-110 0-1-2-1-8-1h-7v3zm18 197c3 1 3 11 0 13-4 4-5 2-6-6 0-9 1-10 6-7zm32-186h-14l-1 3c-1 1-2 3-2 3-1 0-1 4-2 7 0 7-1 7-4 8l-3 1v8c1 5 1 16 2 25 0 10 0 19 1 21l1 4h28c2 1 14 1 26 0 21 0 23-1 25-2 1-2 1-2-1-2-2 1-3 0-1-1 4-2-3-1-9 1-5 2-7 2-9 1-3-1-10-1-12 0-1 1-2 1-4 0-1-1-2-1-2 0s0 1-1 1c0-1-2-1-5-1-2 0-4-1-5-1 0-1-2-1-3 0-3 1-7 1-8 0 0-1 0-1 1-1s1 0 0-1c0-1-1 0-2 1-2 2-2 2-4 0 0-1-1-1-1 0h-4c-4-1-5-1-6 1l-2 2v-2-4c-1-2-1-3 0-3 1-1 1-1 0-1 0 0 0-2 1-6 3-13 6-23 6-29 0-1 0-2 1-1 1 0 1-1 0-2 0-2 0-3 1-3 0 0 1-1 1-3 1-3 6-3 6 0 0 1 0 2 1 2 0-1 1-2 1-2 0-2 23-2 23-1s1 3 1 4c0 0 1-1 1-3l1-3v4c0 3 2 5 5 4 2 0 2-1 2-4v-3c1 0 4 6 4 7s1 2 2 4c2 1 3 3 2 4 0 0 0 1 1 1s1 1 1 2c0 3 0 4 1 3 1 0 1 0 1-1-1 0 0-1 0-2 1 0 1-1 0-1 0 0-1-2-1-4-1-2-2-4-3-5l-2-2c0-1-1-3-2-4l-3-3 5-1c5-1 5-1 8 2 2 2 4 5 4 6 1 1 1 2 2 1l-2-6-3-4 3-2c1-1 3-1 3-1 1-1 5 12 8 22 0 4 2 10 3 14s2 9 2 11c0 9 0 14-1 13 0-1-3-1-3 0s-1 2-1 2c-1 1-1 1 1 2s11-1 9-3c0 0-1-1-1 0-1 0-1 0-2-1-1 0-1-1 1-2l3-1h-3c-2 0-2 0-2-2 1-1 2-8 4-17s4-18 4-21c2-9 2-13 1-13s-1 1-1 3v4c-1 0-2 6-3 12-1 13-2 15-3 15s-1-1 0-2l-2-4c-3-4-5-14-3-15 1 0 1-1-1-2 0-1-1-4-1-5 0-2 0-3-1-3s-1-1-1-2c0-2-1-4-1-4-2-2-2-2 2-3 2-1 4-1 4-2 2 0 5-1 5-2 0 0-3 0-6 1-8 2-8 2-8 0-1-1 0-2 0-2 3-1 2-5 0-7s-27-4-27-1c0 0-1 1-1 2-1 0-1 0-1-1 1-2-4-3-25-2zm-4 3c0 1 0 2 1 2s1 0 1-1c0-2 0-3 1-3s1 1 1 3c-1 2-1 3 0 3s2-1 2-3v-3c1 0 6 4 5 5 0 1 0 1 1 1s1-2 0-4c-1 0-1-1-1-2 1 0 2 0 2 1 1 1 2 2 2 1 1 0 1-1 0-1 0-1 2-1 4-1s4 0 4 1c-1 1-1 1 0 1 0 0 1 0 2-1 0-1 2-1 2 0s-1 2-1 2c-2 0-2 4 0 9 2 9 3 8-17 8-10-1-19-1-21-1-1 0-2-1-1-2v-4c0-2 0-2 2-1 1 1 2 0 0-1 0-1 0-2-1-3 0-3 0-3 4-2 5 0 8-2 4-3-3-1-3-2 1-3 2 0 3 1 3 2zm54-1c0 1-1 2-1 3-1 2-1 2 1 4 3 3 3 5-2 6l-4 2-3-6c-2-3-3-6-3-6 0-1 3-2 7-3 1 0 3 0 3-1 1 0 2 0 2 1zm-12 8c5 7 4 9-4 8-2 0-3 1-3 1 0 2-2 1-2-1-1-1-1 1-1 3 0 4 0 5-1 6-2 0-2 0-2-7-1-3-1-7-2-8 0-1 0-1 1-1 0 1 1 1 1 0s-1-1-2-1c0 0-1 0 0-1 1-2 3-1 3 2 0 1 1 3 1 4 1 2 1 2 1-1v-4c1-1 1-1 0-2-2-2-1-3 3-3 3 0 4 0 7 5zm-130 1c-6 0-6 0-6 3v4l-10-2c-5-1-14-3-19-4-11-1-19-1-31 3-10 3-23 10-23 12-1 3 0 6 1 6s2 1 3 2c1 3 1 3 7 3 11-2 23-2 21-1-3 2 0 5 9 8 5 1 9 3 10 3 0 1 2 2 3 3 2 1 3 3 3 4 0 0 1 1 2 1s3 1 3 2c1 2 3 3 3 3 1 0 2 1 3 2 1 3 4 6 6 5 0 0 1 0 1 1l4 6c2 2 4 6 5 9 3 5 4 5 12 2l12-4c3-1 7-2 8-2 2-1 3-1 3-1 1 0 1 2 2 3 1 4 4 4 5 0 0-1-1-5-3-9-4-8-4-12-4-31 0-11 0-15-1-17-1 0-1-1 0-1s-1-11-2-13c-1-1-17-1-27 0zm-33 9c1 1 2 2 2 3s0 1 1 0c1 0 1 1 2 2 1 2 2 3 6 3s4 0 4-2c-1-2 2-3 5-2 2 1 3 1 3 1 1 0 1 0 1 1-1 1-1 1 0 1s1-1 1-2c-1-1 0-1 2 1 1 1 2 1 3 0 2 0 2 0 1 1s-1 2-1 2c2 2 15 9 16 9s-1-2-4-3c-3-2-7-4-8-5l-2-2h2c5-2 13-2 14 0 1 0 2 1 3 1 2 0 2 2 0 4l-2 1 3 3c4 4 3 5-1 3-2-1-4-2-4-1l1 1c3 1-2 1-5 0-4-2-11 0-9 2 1 1 1 1 2 0s1-1 2-1c0 1 0 1-1 2s-1 1 1 2c2 2 3 2 3 0l1-3 4 2c2 1 5 2 6 2 0 0 1 0 1 1 0 0 1 1 3 2l2 2c0 1 0 1-1 0-1 0-1 1 0 3 2 2 1 3-2 1-3-1-3-1-3 1 1 0 1 1 0 1s-1-1-1-2l-1-1c-1 0-2 0-2-1 0 0-1-1-3-1-4 0-4 2 0 3 1 1 4 2 5 3 3 1 3 1 4 0 0-1 1 0 3 1 1 1 2 3 1 3 0 1 1 3 2 4 3 2 4 5 2 3h-1c0 1 0 2-1 3 0 1 0 1 2 1 2-1 3 0 3 1 1 0-2 1-10 3-6 1-12 3-14 4-1 0-4 1-6 1-3 0-3 0-3-2v-2c-1 0-1 0-1-1 0-2 3-1 3 0 1 2 4 2 5 0 0-1-1-2-2-3-1 0-2-2-2-3s-1-3-2-3c-1-1-2-2-2-3s-1-2-2-3c-3-4-3-5 1-2 1 1 3 2 3 1 1-1-21-19-30-24-2-1-4-3-4-4 0 0 0-1-1-1-1-1-1-1-1 0h-3c-1-1-6-3-9-5-7-3-9-6-5-8 2-2 18-1 20 1zM88 74c-1 4 3 30 6 34 0 1 0 2 1 2 0 2 2 7 4 9 1 1 1 2 1 2-1 0 8 11 17 22 6 8 7 9 2 10-2 1 16 32 18 32l6-4c3-1 6-3 6-3 1 0 3-1 15-10 7-6 24-14 27-14s12-3 10-3-2 0-1-1 1-1 2 0c0 1 1 1 2 1 2-3-4-4-8-2-1 1-2-1-4-6-3-6-3-10-6-24 0-4-1-4-9-3-5 1-7 1-7-1-1 0-3-1-4-1-3 0-4-1-5-3s-2-3-3-3c-2 1-3 1-3 1-1 0-2 1-3 3s-1 3-2 2c-1 0-3-1-4-1-2 0-3 0-3-1-1-1-2-1-3-1s-3-1-4-2-3-2-5-1c-3 0-5-1-10-3-7-4-10-8-16-21-4-9-5-10-8-10-2 0-5 0-6-1-1 0-2 0-3 1zm12 10c4 5 5 10 3 9-2 0-2 0-1 1 0 2 1 2 1 1 1-1 2 0 3 2s1 2-2 4c-4 3-4 3-7-8-3-13-2-17 3-9zm11 20c1 1 3 4 6 5 2 2 4 3 3 4 0 1 1 1 2 2 1 0 2 1 2 1 1 1 1 1 1 0-1-1-1-2 0-2s1 0 1 1 1 1 2 1 6 2 12 5c16 8 20 9 35 9 6 0 12 1 12 1 0 1-5 3-8 3s-3 0-3 2c1 1 1 2 0 2s-1-1-1-1c0-1-1-2-3-3-2 0-2 0-1-1s0-1-2-1-3 0-2 1c2 0 3 2 1 2-1 1-2 2-1 2 0 3-1 2-3 0s-5-3-5-1c0 0 1 1 3 2 2 2 2 4-1 3-3 0-5 2-4 4 2 6 3 10 3 11-1 0-9-4-12-6-2-2-5-3-7-4s-3-3-4-6c0-2-1-3-1-1s-3 2-3-1-13-17-17-18c-3-1-5-2-5-2-1-1-1-1-1 0 0 0 0 1-1 1s-1-1-1-1c0-1 0-2-1-3-3-3-6-8-6-9s6-4 8-4c0 0 2 1 2 2zm74 19c1 6 1 5-8 6-9 0-16-1-17-3 0-3 1-3 3-1s6 2 5 0c-2-2 3-6 8-6 2 0 5-1 7-1 1 0 2 1 2 5zm126-16c-4 2-6 2-25 2h-15v3c0 3 0 3 2 1 3-1 30-4 31-3 0 1-12 5-13 5-2-1-11 2-14 4-2 1-3 2-3 1s0-1-1-1c0 1-1 0-1 0 0-1-1 1-1 3-1 3-1 7-2 8 0 2 0 2 6 2h8c1 1 3 1 6 0 6-1 8-5 8-11 1-5 1-5 6-1 7 6 12 6 18 0 2-2 4-4 4-5 0-4 5-6 8-4 1 1 1 1 1 0 0-3-2-4-5-3-2 0-2 0-2-1 1-2-11-2-16 0zm23 14c-1 3-1 4-3 4s-6 1-9 2c-5 2-8 2-10 1-5-1-9 0-13 1l-4 2 2 1c2 0 8 0 14-1 6 0 14-1 17-1h7v-7c0-7 0-8-1-2zm-212 76c0 7-1 6 12 7h14c2 1 3 1 2-1 0-2 0-4 1-5 1-2 1-2-7-2-5 0-12 0-15-1-7 0-7 0-7 2zm46 3c0 1 0 4-1 4 0 2 2 2 22 2h22v-2c2-6 1-6-19-6-11 0-20 0-22-1-2 0-2 0-2 3z" fill="#ccc"/></svg>