<svg version="1" xmlns="http://www.w3.org/2000/svg" width="600" height="400" viewBox="0 0 450.000000 300.000000"><path d="M47 2c0 1 1 3 3 5 1 1 2 3 2 4s0 1 1 0 1-2 0-4c-2-4-1-5 2-2 2 1 2 3 2 5 0 4 3 5 4 2 3-3 3 8 1 13 0 1-2 3-2 4-2 4-7 8-8 6-1-1-2-2-3-2 0 0-1 0-1-1 0 0-1-1-2 0-2 0-2 2 1 2 1 0 2 1 2 2 1 2 0 3-1 1-1 0-4-1-8-1-3 0-7 0-7-1s-2-1-3-1H20l5-1c2-1 5-2 5-2 2 0 2 0 1-1-1-2-6-1-7 0 0 1-1 1-2 0 0 0-1 0-1 1s-6 1-6 0c-1 0 1-2 4-3 5-2 5-2 3-3-2 0-2-1-2-4 0-2-2-1-3 1s-1 2-2 1c0 0-1-1-1 0-1 0-1-1-2-3s-1-2-2-1c-2 2-5-1-5-4 0-2-3-5-4-4-1 0 0 1 1 2s2 2 1 3c-1 0-2 0-2-1-1-1-1 9-1 23 0 18 0 24 1 24s1 0 0 1c0 0-1 4-1 8 0 8 0 8 4 8 2 0 2 2 1 4-1 1-2 1-3 0s-1-1-1 0c1 1 1 2 0 2s-1 5 0 7c1 1 1 1 1-1 1-1 1-2 0-2-2-1 2-5 5-5s2 0 0 3c-2 2-2 2-1 3 1 2-3 6-5 5-1-1-1 0-1 0 0 1 1 2 1 1 1 0 2 0 2 1s-1 1-2 1-1 0 0 1c2 1 3 1 3 0s1-2 2-2c2-1 2-1 2-2-1-3 1-2 2 0 1 1 2 2 3 1 1 0 1 0 1 2 0 3-4 11-6 11-1 1-1 1 1 3s1 4-2 4c-2 0-2 3-1 5 1 1 1 2 0 2-1 1-1 1-1 0s-1-1-2-1c0 1-1 1 0 0 0-1 0-1-1-1 0 0-1 0-2 1 0 1 0 1 1 1s1 0 0 1c-2 2-1 3 0 2s2-1 2 0l-2 2c-1 1-1 1 0 2s1 1 0 1-1 11-1 45c0 25 0 45 1 45s3 9 2 13c0 5 0 5-1 3-1-1-1-1-1 0 1 1 1 2 0 1-3-1 0 7 3 10 2 2 3 4 2 5 0 1 0 3 1 3 1 1 1 1 0 2 0 0-1 1-1 2 0 2-2 1-3-2 0-1-1-2-2-1-1 0-1 7 0 8 2 1 4 5 4 6-1 0-2-1-3-3l-2-4v36h7c5 0 8 0 9-1 0-1 1-1 1-1 1 0 1 0 1 1-1 1 15 1 45 1 43 0 46 0 48-2 1-1 1-1 1 0 0 2 1 2 15 2 9 0 14 0 14-1-1-1-1-1 0-1 0 0 1 0 2 1 1 2 9 1 9-1s0-2 2-1c1 0 2 1 2 2 0 2 1 1 3-1s5-2 3 1c-1 1-1 1 1 1 2-1 8-2 8-1 0 0 3 1 7 1s6 0 6-1 0-1 1 0c2 1 95 2 95 0 0-1 1-1 2 0 2 1 2 1 2 0-1-1 0-2 0-2 1 0 1 1 2 1 0 2 8 2 12 1 2-1 3-1 3 0s3 1 5 0c1-1 1-1 1 0s1 1 3 1 3-1 3-2 2-1 2 0c1 2 4 2 4 1s1-2 3-3c1 0 2 0 2-1s-3-3-4-3-1 0-1-1 1-1 1-1c1 0 1 0 0-1s-1-1 0-2 1-1 2 0 2 1 2 0c1 0 0-1 0-1-1-1-1-1 0-2 2-1 3-1 2 0-1 2-1 2 0 2s1 1 1 2c-1 2 1 3 3 2s2-1 1 1-1 2 2 4c1 1 2 2 1 2 0 1-1 0-2-1-2-1-3-1-2 0 0 1 1 2 1 1 0 0 1 1 1 2 1 0 2 1 3 1 2 0 2 0 1-1s-1-1 1-3 2-2 2 0c1 2 1 2-1 2-1 0-1 0 0 1 1 0 25 1 57 1h55v-8c0-5-1-9-1-9-1-1-1-1 0-2 2-1 1-3-1-2-2 0-2 0-1-1s1-2 0-2l-1-1c0-1 0-1 1 0 2 2 3 1 2-1 0-1-1-2-2-2 0 0-1 0-1-1 0-2-2-3-3-2-1 0-2 1-1 2 0 1 0 1-1 0-1 0-2-1-2-1-2 0-2-1-1-1s2 0 2-1 2-1 4-1c3 0 4 0 3-1 0 0-1-1-1-2s0-1 1 0l2 2c1 0 1-32 1-72 0-47 0-71-1-71s-1 0-1-1 0-1 1 0c1 0 1-17 1-50 0-36 0-51-1-52-2-1-4-7-3-8 0-1 1-2 2-2 2 0 2-1 2-5V0h-29l-1 4c-1 3-2 4-3 3-1 0-3 1-5 1-5 3-7 2-10-1-1-1-3-2-4-2 0 1-1 0-2-1-1 0-3-1-5-2-2 0-4-1-5-1-1-1-26-1-64-1-34 0-60 1-59 1s2 1 2 1c0 2-2 1-5-1-2-1-2-1-3 0s-1 1-3 0c-3-2-8-1-10 1-2 1-2 1-2 0 0-2-4-2-51-2-45 0-51 0-51 1s-1 2-2 2c-2 0-3-2-1-2 1-1-1-1-4-1s-6 1-7 1c-1 1-1 1-2 0 0-1-8-1-37-1S50 0 50 1c-1 1-1 1-1 0 0-2-2-1-2 1zm390 11c4 3 5 7 2 9-1 2-2 2-7 0-8-3-9-6-3-9 3-2 4-2 8 0zM126 25c-2 1 1 4 3 4 1 0 2 0 2 1s0 3 1 3c2 0 1 2-1 2-3 0-2 2 1 2 2 1 2 0 2-1-1 0-1-1-1-1 1 0 2 0 3-1 1 0 1 0 1 2-1 3-1 3 1 3s2 0 2 3c-1 2-1 2 1 2 1-1 4-1 6 0 2 0 3 1 2 1-2 0-3 2-3 4 0 1 1 1 3 0 1 0 2 0 2 1s0 1-1 1c0 0 0 2 1 3 1 2 2 4 2 3 1 0 1 1 1 1 0 1 0 2-1 3-1 0-1 1-1 2 1 5 0 8-1 8s-2 1-2 2c-1 0-2 1-3 2-1 0-2 1-1 1 2 0 1 2-1 2-1 0-1 0-1 1 1 1-1 3-4 3-1 0-3 0-4 1s-2 1-2-1c-1-1-1-1-3 0-1 1-1 1-2 0-1-2-1-3 1-3 3 0 6 0 6-1s-1-1-2-1-2 0-2-1c0 0-1-1-2 0-1 0-3 0-3-1-1-1-2-1-3-1-1 1-1 1-1 0s0-1-1 0c-1 0-2 0-4-1-3-1-2-3 2-2 1 0 2-1 3-1 1-2 1-2-1-2s-2 0-2-1c-1-2-6-3-8-1 0 1-3 1-5 1-4 0-4 1-4 3 1 2 0 3-2 1v-5c-1-3-1-5-3-6l-2-2v2c-1 1-1 3 0 5 4 4 2 6-2 3-2-2-2-2-1-3 1-2 1-2-2-2-3 1-4 1-4-1 0-1 1-2 2-1h3l-3-2c-1-1-2-3-2-4s-1-2-1-3c-2-1-2-2 0-4 4-3 5-4 6-8 3-5 5-5 4-1 0 2 0 2 1 1 2-3 2-4 1-4-3 0 1-4 5-5 3 0 5-1 6-3 1-3 3-4 5-3 2 0 3 1 3 2-2 3 2 3 5 0 5-5 5-5 6-4 0 1 0 2-1 2zm167 5c0 2 0 4 1 4 1 1 2 1 5-3 2-1 5-1 4 1 0 1 0 2 1 2 0 0 1 1 1 2s1 3 2 3c4 0 4 0 4 2 0 1 3 5 4 5s-3-8-5-10c-1 0-1-1 0-1 1-1 5 3 4 4 0 1 1 1 2 2 2 1 3 2 3 5 0 1 0 2 1 1 1 0 1 0 1 1s2 3 4 4c2 2 4 4 4 5 0 0 1 3 3 4 2 2 3 4 3 6s-1 3-2 0c-2-3-2-1-2 6 0 5 0 7-1 7s-1 0 0 1 1 1 0 1c-1-1-2-1-2 0s1 1 2 1 1 0 0 1-2 2-1 3c1 2 1 2 0 2-2-1-2-1-2 1 1 1 0 2 0 2-1 1-1 1 0 2s1 1 0 2c0 0-1 1-1 2s-1 2-1 2c-1 0-2 0-2 1s-1 1-2 1c0 0-1 0 0 1 1 2-2 3-5 2-1 0-2 0-2 1s3 4 5 3c0 0 1 0 1 1s-2 2-5 2c-1-1-3-1-4-1 0 0-1 0-1-1s-1-2-2-3c-2-2-2-2-2 0-1 1-1 1-2 0-1-2-4-3-4 0 0 1 0 1-2 0l-2-1 2-1c2-1 3-2 0-4-1-2-1-2 0-2s2 0 2-1c-1 0-2-1-3 0-2 0-4 3-1 3 2 0 1 2-3 4-5 3-6 2-9-3-1-4-1-5 1-2 2 2 5 2 5-1 0-2-3-8-5-8 0 0-1 0-1-1s0-1 1-1c1 1 1 0-1-3-1-1-2-2-4-1-3 0-3 0-4-3-1-1-2-3-3-4s-2-2-2-3c0-2-2-4-3-3 0 1 1 2 1 4 3 5-1 7-4 3-2-3-4-7-4-8s2 0 3 2c0 4 4 7 4 5 0-1 0-2-1-2 0-1-1-2-1-4-1-2-1-3-4-2-2 0-4-1-4-1 0-1 0-1 1-1 0 0 1-1 0-2 0-1-1-2-2-2s-1-1-1-2c1-1 0-2-1-2-1-1-1-2-1-4 1-2 0-3-1-3-2-1-1-4 1-4 1 0 1-1 1-2-1-1 0-2 0-2 1 0 1 0 1-1s0-1-1-1c-1 1-1 0-1-1 0 0 0-1 1-1 1 1 1 1 1 0 0 0-1-1-2-1 0-1-1-1-1-2 1-1 4 0 4 2 1 2 1 2 2 1 4-6 5-7 6-5 1 1 3 2 3 1 1 0 1 0 0-1 0 0-1-1-1-2 0 0 0-1-1 0-1 0-1 0-1-1 1-3 3-2 4 1 1 2 2 3 3 3 1-1 2 0 3 1 1 0 2 1 3 0h3c2 0 2 0 1-2 0-1-1-2-2-1-1 0-2 0-2-1-1-1 0-1 0-1 1 0 2-1 2-2 0-4 9 1 9 4 0 1 1 2 2 2 0 0 1 0 1-1-2-4-2-10 0-10s2 1 1 4zm-68-2c2 0 2 1 2 7-1 13-3 17-9 15-2-1-2-1-1 1 0 2 0 2-2 1-1-1-2-2-3-1-2 0-7-2-6-3 0-1 0-2-1-2-2-4-2-7 1-10 7-8 13-10 19-8zm129 7c1 1 3 2 4 1 2 0 3 0 4 2 3 3 10 5 10 2 0-1 0-1 1 0 0 1 1 1 2 1 1-1 1 0 1 0 0 1 1 3 3 5s2 2 0 3c-1 0-1 1 0 1 0 1 1 3 1 5s0 3 1 3 2 1 2 2c0 2-1 2-2 2-2 0-2 1-1 3 0 3 0 4-1 4l-2 2c0 1-1 2-1 2-1 0-1 2-1 3s-1 1-2 1c-2 0-7 2-8 4-1 1-1 1-1-1 0-1 0-2 1-2s1-1 1-1c0-1 1-2 4-2l4-1-3-2c-3-2-4-3-6-2-4 1-6 1-5-1 0-1 0-2-2-1-2 0-3 2-1 3s4 5 4 6c-1 0-2 0-3-1-1-2-2-2-2-1l-1 1c-1 0-2 0-2 1-1 2-6-1-6-2 0-2-3-4-5-4-2-1-3-3-1-3 1 0 0-1-1-1-1-1-3-2-3-3s-2-4-3-6c-1-3-3-5-4-5 0 0-1 0-1-1s1-1 2-1 1 0 0-2c-2-2 0-6 3-6 1 0 2-1 3-2l2-2c1 0 1 0 1-2s1-3 2-1c1 3 3 2 6-1 3-2 4-3 6 0zM233 86c1 1 2 2 2 1 1 0 2 0 3 1s2 1 3 0c2-2 2-2 2 0 1 0 1 2 0 2 0 1 0 1 1 1s1-1 1-1c0-2 6 5 6 7 0 1 1 2 2 3s2 3 1 3c0 1 1 1 2 2s3 3 5 6c3 5 3 6 12 18 6 9 7 12 4 8l-2-3v3c1 3 1 3-2 2-2 0-2 0-1 1s2 1 4 1c1 0 2 0 2 1s0 1-1 1c0-1-1 0 0 2 0 2 0 2-1 1 0-1-1-2 0-2 0-1-1-1-2-1-1 1-2 1-2 0s-1-2-2-2-2 0-2-1c0-4 0-4-1-4-1 1-1 0-1-1s0-2-1-2c-1 1-1 0-1 0 0-1-1-3-2-4s-2-3-1-3c0-1 0-2-1-3s-2-1-2 0c-1 1-5-2-5-4 0 0-1-2-1-4-1-1-2-3-2-4l-2-2c-2-1-3-3 0-2 1 0 1 0 0-3-1-2-3-3-3-3-1 0-1 0 0 1 1 2 1 3 0 3s-1-1-1-2c0 0 0-1-1-1s-1-1-1-3c0-3-5-7-8-7-1 0-1 0 0 1s2 2 2 3c0 0 1 1 2 0 1 0 1 0 1 2s1 4 2 5c4 4 2 6-2 2-1-1-2-2-2-3s-1-1-2-1c-1 1 0 4 2 4 1 0 1 0 0 1-1 2-1 2 0 2s2 0 1 1c0 1-1 1-1 0-1 0-1 0-1 1l2 2c1 1 2 1 2 0s0-1 1-1 1 1 0 1c0 1 0 2 1 3 1 0 1 0 0 1s-1 1 0 1 2 0 2 1 0 1-1 1c-1-1-5 1-5 2s1 1 2 1c2-1 1 1-1 2-2 2-4 2-4 0 0-1 0-1 1 0 1 0 1 0 0-2 0-3-2-5-2-3 0 1-1 2-1 2-1 0-1 1-1 3 1 1 2 2 2 1 1 0 1 0 0 2 0 1-1 2-1 1-1 0-1 0-1 1 1 0 0 1-2 1-1 0-2 0-1-1 0-1 0-1-1-1-1 1-2 1-3 1v1c0 1 1 1 1 1 1-1 3 0 4 2l2 2h-8c0-1-1-2-2-3-2-1-3-3-2-3 0-1 1 0 2 1s1 1 1 0c-1-1 0-2 1-3 1 0 1-1 1-3 0-1-1-2-1-1 0 0 0 1-1 1 0 0-1-1 0-2 0-2 1-3 2-2 0 0 1 0 1-1s1-1 2-1c1 1 8-3 8-4s-1-2-1-4c-1-2-2-2-4 0l-2 1h2c2 0 3 0 3 1s-1 1-1 1c-2-1-2 0-2 3 0 1-4 1-6 0h-1c-1 0-1-1-1-2s-1-2-2-2-1 0 0 1c2 0 1 2-2 3-2 1-2 1-2-1 1-2 0-3-1-1-1 1-3 2-4 0v-2s-1 1-3 2c-2 3-2 3-1 1 0-2 0-2-1-1s-2 1-2 0l1-1c1 0 1 0 0-1-1 0-1-2 0-3 0-2 0-3-1-3-2 1-2 0 2-4 3-2 6-4 7-5 1 0 2-1 1-1 0-1-1-2-1-3 0 0 0-1-1-2 0-2 0-2 2-2s2 1 3 4c0 4 1 6 1 2 0-2 0-2 2-2 0 1 2 1 4 2 1 0 2 1 2 2s4 3 5 2c0-1 1-1 2 0 2 0 2 0 1-1 0-2-1-2-3-2s-4 0-4-1 0-1 2-1c3 0 3 0 2-2-1-1-1-1 0-1 0 0 1 0 1-1s-1-1-1-1c-1 0-2 1-2 1 0 3-2 2-2-1 0-2-1-3-4-3-5 0-4-1 2-2 5 0 6 0 7 2zm20 59v4c0 2 1 3 1 3 1 0 1-1 1-3s0-2 1 0c0 2 2 3 2 0 0-1 0-1 1 0s1 1 0 2c-1 0-1 0 0 1 1 0 1 1 0 2 0 2-2 3-2 1 0-1 0-1-2-1-3 0-3 0-1 3 1 2 2 2 4 0 1 0 3-1 3 0 0 0 1 1 2 0 1 0 1 0 1 1s-2 1-3 1c-2 0-3 1-3 2 0 2 2 3 2 1 0-1 1-1 2-1 1 1 0 4-2 4-2-1-1 1 2 2 2 1 3 1 3 0s3-1 3 0 1 1 2 0c1 0 2 0 2 1 0 2 1 3 1 3 1 1 2 1 3 0 2-1 2-1 2 0-1 1 0 2 0 3s1 0 1-1c1-3 1-3 4-1 2 1 4 2 5 3 0 0 2 1 3 0 0 0 1 0 1 1 0 3 1 7 2 11v9c0 3-4 3-5 1 0-2-2-2-2 1 0 1 0 2 2 1 0 0 1 0 1 1s0 1-1 1-2 1-3 1c-1 2 0 3 4 2 1 0 1 4 0 6-1 1-1 1-1 2 1 0 1 0 2-1 0-3 2-2 1 0 0 1-1 2-2 2l-2 2c0 1-1 1-1 0-1 0-2-1-2-1-1 0-1 0 0 1 1 2-1 1-3-1 0-1-1-2 0-3 1 0 1-1 1-2-1 0-2 2-4 4-3 4-6 6-4 2 1-1 1-3 1-4-1 0 0-1 0-1 2-1 0-3-1-3s-1 0 0 1c0 1-1 1-2 1s-1 0 0 2c2 2 2 2 0 2-1 0-2 0-2 1-1 2-2 3-3 3s-1 0-1-1c1-1 0-1 0 0-2 0-8-2-7-3 1 0 0-1-1-2s-1-1 1-1h2l-2-2c-2-2-3-2-3-2-1 0-1 1 0 1 1 2 1 3 0 3s-2-1-2-3c0-1 0-2-1-1 0 1-1 1-3 0-3 0-5-3-4-5 0-1-6-6-8-6-1 1-2 2-1 3 0 1 0 1-1 0-2-1-9-1-9 0s0 1-1 1-1-1-1-1c1-1 0-2-3-3-1-1-3-2-3-2 0-1-1-1-2 0-1 0-1 0 0-1 0-1 0-2-2-1-3 0-4 2-1 2 1 0 2 0 1 1 0 1-1 1-2 1 0-1-1 0-1 1s-1 2-2 2-1-1 0-2c0-2 0-2-2-2-1 1-2 1-2 0-1 0 1-1 3-1 3-1 4-2 2-4-1 0-2 1-3 1 0 1-2 2-3 2s-1 1-1 2c1 1 0 2 0 3-1 0-1-1-1-1 0-4-1-4-2-5s-1-1-1 0c1 1 1 2 0 2s-1 2 0 4c0 3 0 3-1 2s-2-2-3-1c-3 0-5-2-4-4 1-1 1-1 1 0 0 0 1 1 2 1 1 1 1 1 1 0-1-1 0-2 1-2 0 0 1 0 1-1s0-1-1-1c0 1-1 0-1 0-1-1-1-1-1 0s0 2-1 2-1 0-1-1c1 0 1-1 0-1-1-1-1-1-1 0s0 1-1 1-1-1-1-2 0-1-2 0-2 2 0 4c1 2 1 2-1 2 0 0-1 0 0 1 0 1-1 1-1 1-1 0-2-1-2-3 1-2 0-3-3-5-2-2-4-2-4-2 0 1-1 1-2 1s-1 0 0 1 2 2 2 3 0 1-1 0l-1-1c-2 0-2-9-1-10 1 0 1 1 1 3v3c1 0 1-1 1-2s1-2 2-2l1-1c0-1 0-1 1 0s1 1 1 0c0-2 3-2 4-1s1 1 1 0 1-2 2-2 3 0 3-1 0-1-1-1c-1 1-1 0 0-2 1-1 1-1 1 0s3 1 5-1c1-2 2-3 1-4-1 0-1-1 0-2 0-1 0-2-1-2s-1 0-1-1 1-1 2 0c1 0 1 0 0-1 0-1-1-2 0-3 0-2 2-3 2-1 1 0 2 1 3 0 0 0 2 0 3-1 4 0 5 0 3-1s0-3 3-3c1 0 2 0 2-1l2-2c1 0 2-1 1-1l-1-1c0-2 1-2 3-1s3 1 4 0c0 0 1 0 3 1 1 0 2 1 2 1-1 0 2 3 3 3s1-1 0-1c0-2 6 0 9 2 0 1 1 0 2-1 1-2 1-2 0-3-1 0-1-1 0-2 0-1 1 0 3 4 1 2 2 4 2 3 0 0 1-1 2-1 0 0 1 0 1-1s-1-1-2-1c-2 0-2 0 0-2 1-1 1-1-1-1-2 1-3 0-3 0 0-1 1-1 3-1s2-1 2-3c0-1 0-1 1-1s1-1 1-2c0-3 2-2 2 1zm-190 3c0 1 1 1 2 0s1-1 1 0c-1 1 0 2 0 3 1 0 1-1 1-2s0-1 1 0 2 2 3 2c0 0 1 0 1 1 0 2 2 1 2-1 1-2 1-2 2-1 2 1 2 1 2 0s0-2 1-2c0 1 1 2 0 3 0 1 1 1 3 1 1 0 1 1 1 1 0 2 2 3 2 1 1-1 1-1 2 0 3 2 4 2 4 0 0-1 0-1 2-1s3-1 3-1c0-1 0-1 1-1s1 1 1 2c0 0 0 1-1 0-1 0-1 0-1 1 1 1 1 1 2 1s1 1 0 3c-2 1 0 1 2 0 1-1 1-1 0-2s-1-2 0-2c0 0 1 0 2 1 0 1 1 1 1 1 1 0 1-1 0-2-1 0-1-1-1-2 1 0 1 0 2 1 0 1 1 2 2 2 2 0 2 0 1-1-1 0-1-1-1-2 1 0 4 2 4 3s-1 1-1 1c-2 0-4 2-3 3 1 0 2 0 2-1 2-1 2-1 2 0s1 1 2 0c2-2 2-2 2-1-1 1 0 2 1 2 2 0 1 2-2 3l-2 2c0 1-1 1-1 0-1-1-2-1-2 0-1 1 0 2 1 3 2 1 2 1 2 0s0-2 1-2 1 0 1 1 0 1 1 1c0-1 1 0 2 0 1 1 2 2 2 1 2-1 4 2 3 5-1 1-1 2 0 3 0 1 1 1 1-1l2-2s1-1 2-3c0-4 2-6 3-5s1 2 0 2c-1-1-3 6-2 9 0 1 1 2 2 3s2 2 2 3-1 0-2-1-3-2-4-2c0 1-1 0-1 0-1-1-1-1-1 0s0 2 1 2 1 1 0 1c0 1 1 2 2 2s2-1 1-2c0-1 0-1 1 0s1 1 0 3c-1 1-1 2 0 2s1 1 1 2 0 2-1 1c-1 0-2-1-1-2 0-1 0-1-1 0s-2 2-2 3c1 2-2 8-4 8s-4 4-3 5c0 1 0 1-1 1-1-1-1-1-1 0 1 1-3 4-5 4-1 0-4 0-5 1-4 2-3 2 2 1 2-1 3-1 4 0s1 1 0 1c-1-1-2 0-3 0 0 1 0 1 1 1l2 2c1 2 1 2-3 4-3 1-5 2-6 2s2-3 5-4c1-1 2-1 1-2 0-2-1-2-3 0-1 0-3 1-3 0s-1-1-3-1-2 0 0 1c3 1 3 3 0 4-2 1-3 1-3 0 1-1-3-2-5 0-1 1-6 0-6-2 0 0-1-1-2 0-2 0-2 0-1-1 1 0 1-1 0-2-2-2-2-3 1-2 2 0 3-1 4-1 0-1 0-1-1-1s-2-1-3-2c0 0-1-1 0-1v-1c-1 0-2 1-4 3-2 1-4 2-4 1s-1 0-2 1c-4 2-4 0 0-4 1-1 3-3 3-4v-2l1 1c1 1 1 1 1 0 1-3-1-3-5 1-2 2-4 3-4 2l-1 1c-1 1-1 1-2 0s-1-1 0-1 1 0 0-1c0-1 1-1 1-2 1 0 2-1 1-1 0-1 1-1 3-1 3 0 3 0 2-2-1-1-1-1 0-2s1-1 0-1-2 1-3 2c0 1-1 1-1 0h-3c-2 1-2 1-1 1 3 0 2 1 0 4-2 1-3 2-4 1s0-4 2-4c1-1 1-1-1-2-4-1-4-2 1-1 4 0 4 0-2-2-3-1-6-3-6-3 1-1-1-6-3-6-1-1-1 1 1 3l1 2c0 1-1 1-1 0-1 0-2-1-2-1 0-1 0-1-1 0s-1 1-1-1c1-2 1-3 0-3s-1-1-1-2c0-2-1-3-1-4-2-1-2-1-2 0s0 2-1 2c0-1-1 0-1 0 0 1-2 0-5-2-2-3-3-4-2-4 1 1 2 0 2-1 1-2 0-3-2 0-1 0-2 1-2 0 0 0 0-1 1-1 1-1 2-2 1-3 0-1 0-1 1 0 1 0 2 1 2 1 0 1 1 1 2 0 1 0 1 0 1 1-1 1 0 1 1 2 0 0 2 0 2-1 1-2 0-3-2-3-2 1-1 0 2-4 5-6 9-9 8-6-1 1-1 2 0 2s1-1 1-2c0-2 1-3 1-3 1-1 1-1 1-2-1 0-2 0-3 1-2 3-5 2-4-1 0-1 1-3 2-3 1-1 1-1 1 1-1 2-1 2 2 1 1-1 3-2 4-3 1-2 1-2 0-2-1 1-2 1-2 0-1-1 1-1 6-2l1 1zm328 2c0 2 3 1 4-1 2-1 5 0 8 3 1 2 3 0 4-3 0-1 2 0 4 2 1 1 3 3 3 2l2 2c1 2 1 3 3 2 0-1 1-3 0-3 0-1 0-2 1-2 0-1 1 0 1 1l2 2c1 0 1 1 1 3s0 3-2 2c-1 0-1-1 0-2 0-2 0-2-2-1l-2 2 3 3c2 2 4 3 4 3 1 0 1 4 0 4 0 0 0 1 1 3s1 5 2 7v4c1 0 0 1 0 3-1 2-1 4 0 5s1 2 0 2-1 1-1 9c0 4 0 5-1 2 0-2 0-2-1 0 0 1-1 2-2 2 0 0-1 1-1 2l1 1v2c-2 3-4 4-3 1 1-1 0-1-2 0 0 1-1 1-2 1 0-1 0-2 1-2l2-2c0-1 0-1-1 0s-2 0-4-1c-3-3-3-3-3 1 1 2 1 2-2 1-1 0-2 0-4 2 0 1-1 1-1 1s0-1-1-2c0-3-4-6-6-5-1 2 1 4 3 3 2 0 2 2-1 7 0 3-2 2-2 0 1-1 0-2 0-1-1 0-1-1 0-2 1-4-2-4-4-1l-1 2v-2c0-2 0-2-1-1-2 1-4 1-4-1 1-4 0-4-3-3-3 2-5 0-2-2 1 0 2-2 2-3s0-1 1 0 2 2 3 2h3l-3-1c-1-1-4-3-6-6s-4-5-4-4 0 2 1 2c2 0 1 3-1 3-1-1-2 0-2 0s1 1 3 1c2 1 2 2 1 4-1 1-1 1-2 0-1 0-1-1-1-1 1 0 0-1-2-3-1-1-3-2-3-1-1 0-1-1-1-1 0-2 2-3 3-1 0 1 1 1 1 1 2 0-1-3-4-4-2-1-4-2-5-3 0-2-3-2-3 0 0 1 0 1 1 1 1-1 3 2 2 3-1 0-2 1-2 0-1 0-1 0-1 1s0 1-1 1c-1-1-1-2-1-3 0-2 0-4-1-5 0-2-1-3 0-3 0-1 0-1-1-1 0 0-1 2-1 4 0 3 1 5 1 5 1 0 1 0 0 1-1 2-3 0-2-2 0-2-1-2-4-2-1 0-2-2-2-5 0-2 0-2 2-1 1 1 2 3 1 3 0 1 0 1 1 1 0 0 1-1 1-3v-3c-1 0-1-1-1-2s0-1-1 0c0 3-2 2-2 0-1-2 0-2 1-2 0 1 1 0 1-1 0 0 1-2 2-3s2-3 3-5v-4l-2 5c-2 5-4 5-4 1 0-2 1-3 2-3l-1-1c-1-1-1-1 0-3 0-1 1-2 1-1 0 0 1 1 2 0 0 0 1 0 1 1s0 1 1 1 1 0 1-1 1-2 3-4c2-1 3-3 3-4s0-2 1-2 1 1 0 1c0 1 0 1 1 1 4-2 1 5-3 7-2 1-3 3-3 4s0 1 2 0c2-3 3-2 3 0-1 4 1 4 2 0 1-2 3-4 3-5 1-1 2-2 2-3-1 0 0-1 0-1 1 0 1-1 1-2-1-2 0-4 2-3 1 0 2 1 2 1 0 1 1 1 2 1s1 0 0-2c-2-2 0-3 2-1 1 2 1 2 4 0s3-2-1-1c-2 0-3 0-4-1s0-2 4-2 5 1 5 2zm-109 69c1 1 1 3 1 4 0 2 2 1 2-1 1-1 1-2 2-2 1 1 1 2 0 3s-1 1 1 2h2l-2 4c-2 4-5 5-5 2 0-1 0-1 1-1 1 1 1 0 0-2 0-1-1-2-1-1-1 0-1 1 0 2 0 0 0 1-1 1s-1-1 0-1c0-1 0-1-1 0-2 1-2 1-2 0s-1 0-2 1c-1 2-5 3-4 1 0-1 1-2 2-1 0 0 1 0 1-1s0-1-1-1c0 1-1 0-1-2 1-1 1-2 2-2s1 0 1-1c-1-1-1-1 0-1s1 0 2-1c0-1 0-1-1-1-1 1-1 0 0-2 0-3 2-2 4 1zm44 36c6 5 8 8 6 10 0 1 0 1 1 1s9 13 9 15-5-4-5-5-1-2-3-4l-3-3c1 0-1-2-3-4-3-2-5-4-5-3 0 0-1 1-2 1s-1-1 2-3l3-2-6-5c-3-2-6-4-6-5s6 2 12 7zm-183-2c0 1-1 2-3 3s-3 2-3 2c0 2 5 1 7-1 1-1 3-2 4-2s2-1 2-2c1 0 1 0 1 2s3 2 5-1c1-1 1-1 1 1 0 1-1 2-1 2-1 0-1 1 0 2 2 2 2 2 4 0 1-1 2-2 3-1h3c1 0 3 1 3 3 1 3 0 3-2 0 0-2-1-2-1-1-1 1 1 4 4 5 1 1 2 3 2 4 1 1 1 2 2 3 0 1-2 8-3 10-1 1 2 3 5 3 1-1 2 0 2 0 1 1 1 2 0 2s-2 5-1 7c1 0 1 1 1 1-5 3-5 3-7 2-1-1-1-2 0-3 0-2 0-2-1-1s-2 2-1 3c0 0-1 0-4-1-3-2-5-3-5-4s-1-1-1-1c-1 1-2 0-3-1s-1-1-1 0c0 2 0 2-2 1-2-2-6-3-4-1 1 2 1 5 0 5s-1-1-1-2 0-2-1-2-1-1-1-2c0 0 0-1 1 0 1 0 1 0 1-1s-1-1-2-1-1-1 0-3c0-2-1-5-4-4l-2-2c-1-2-1-2-1 0 0 1 0 2-1 1-1 0-3 0-5 1-3 2-3 2-3 0 0-1 0-1-1 0-1 2-6 1-7-2 0-3 4-11 6-11 0 0 1-1 1-3 0-3 3-5 6-5 1 0 2-1 2-2s1-2 2-3c3-1 4-1 4 0z" fill="#ccc"/></svg>