<svg version="1" xmlns="http://www.w3.org/2000/svg" width="600" height="400" viewBox="0 0 450.000000 300.000000"><path d="M0 150v150h450V0H0v150zm352-44c1 7 1 8 8 14l7 7 1 22v27c1 9 0 11-19 30-10 10-18 18-19 18s-1 0-1 1c1 1 0 3-1 4s-3 3-4 6c0 2-2 5-3 7s-1 4-1 5c1 1 0 2 0 2-1 0-1 1 0 1 1 1 1 2 0 4v4c1 3 0 6-1 7s-1 1 0 2 2 0 2 0c1-1 1-1 1 0 0 2-1 2-3 2s-3 3-1 6c1 0 1 1 1 2-1 0-2 0-2-1-1-1-1-1-2 1 0 3-2 4-2 1 0-1 0-1-1 0 0 0-1 1-2 0-1 0-1 0-1 1 1 1 0 2-2 2-3-1-3-1 2-5 3-3 3-4 2-5 0 0-1-1-1 0-1 0-1 0-1-1 0 0 1-1 2-1 1-1 1-1 1-2-1 0-2 0-2 1-1 1-2 1-2 0l-1 1c0 1-1 1-2 1 0-1 0-2 1-2 1-1 1-1 0-1 0 0-1-1-3-2-1-1-2-1-4 0s-2 1 0 1c1 1 1 1 0 2s-1 2 1 3c0 1 1 2 1 3-1 0 0 1 1 2s1 1 0 1-3 1-4 2c-1 2-1 2 0 2 1-1 2 0 3 0 0 1 0 1-1 1s-1 1-1 2c1 2 0 4-2 4-1 0-1 0 0 1 1 2 1 4 0 4h-3c-1 0-1 0-1-3 0-1-1-4-1-6-1-1-2-5-2-7-1-2-2-5-2-5-1-1-1-3-1-4 0-2-1-4-1-4-3-3-2-6 1-9 4-4 6-7 3-7-1 0-1 0 0-1 1 0 2-2 1-6 0-8 3-9 13-6 1 0 2-1 2-2s-1-2-2-1c-1 0-1 0 0-1s1-1-1-3c-3-1-3-3 0-1 2 1 5-1 3-3-1-1-1-1 0-1 1 1 2 1 2 0l-2-2c-1 0-2-1-2-2s1-1 3 0c3 1 3 1 3-2-1-2-1-2 0-1 2 2 3 1 2-1 0-2 0-2 1-2 1 1 1 0 0-2-1-1-1-1 0-1s3 0 4-1c2 0 2 0 0-2-1-1-1-1 1-1 3 0 3 0 3-2-1-1-1-2 0-2s2-1 2-2c1 0 2-1 3-1s1-1 1-1c-1-1 0-2 1-3s2-3 2-6c-1-4 0-5 2-2 1 1 1 1 4-2 2-2 3-3 2-3-2-1 1-3 4-4h3c4-2 6-3 7-5 0-1 1-2 2-1 1 0 1 0 1-1-1-1-1-2 0-2s0-8-1-9c-1 0-1-1 0-1 0-1-1-2-2-3-3-3-2-5 0-4 0 1 1 0 2 0 2-1 0-3-2-3 0 0-1 0-1-1s-1-1-2-1-1 0 0-1 2-2 2-3l4-4 4-3h-3c-4-1-8-3-5-3 1 0 1-5 0-8-2-2-3-8-2-9 1 0 0-2 0-3-1-2-2-6-2-9s-1-6-1-6c-1-1-1-1 0-2 2-1 4 1 6 10zm-60 114c1 2 1 2 0 2-1-1-2 0-2 1l1 1c1 0 1 1 0 1-2 2-2 2 1 3 2 1 4 1 4 1 1 0 1 1 1 2 1 1-6 1-9-1 0-1-1-1-1 0-1 0 0 1 1 2 3 2 3 3 0 3-1 0-2 0-2 1-2 2-4 1-4-2-1-1-1-2-2-2s-4-5-4-8c0 0 0-1 1-1 1 1 1 0 0-1 0-2 6 2 9 5 1 1 1 1 1-3-1-4-1-4 1-4 1 1 1 0 2-1 0-2 0-2 2 1zm-130 18c2 1 2 2 2 3-1 1-1 2 0 2s1 1 1 2c0 0 0 1 1 0 1 0 1 1 1 2s0 1-2 0c-4-1-9-1-11 0-1 2 0 3 1 2 1 0 1 0 2 1 1 0 2 1 3 1 2-1 6 3 6 5 0 1-2 2-3 1l-1-1c-1 0-1 1 0 2s1 1-1 0c-3 0-3 0-1 4 0 1-1 2-3 1-4 0-4 0-3-2 1-1 1-2-1-2-1-1-2-2-2-3-1-1-1-1 1 0 3 0 2-1-1-3-5-2-7-6-3-5 3 1 5 0 4-2 0-2 1-3 3-2 1 0 1-1 1-2 0-2 3-6 4-5 0 0 1 1 2 1z" fill="#ccc"/></svg>