<svg version="1" xmlns="http://www.w3.org/2000/svg" width="600" height="400" viewBox="0 0 450.000000 300.000000"><path d="M0 53v53l2 1c4 2 4 4 1 7-6 5-3 8 3 3 8-6 9 0 2 6l-5 5 1 4c2 3 2 5 0 3-4-3-4-1-4 14v16l6 1c3 0 11 0 19-1 26-1 37-1 37 1 0 4-3 4-29 4-32 0-33 0-33 5 0 1 1 3 1 3 2 1 10 0 11-1 0 0 2 1 3 1 3 1 8 0 15-3 1 0 11 10 11 13 0 2 3 4 4 2 0-1 1-1 4 0 1 1 3 2 3 1s1-1 2-1c0 0 1 0 1 1-1 0 1 1 3 1 1 0 3-1 2-1 0-1 1-1 1-1 1 0 2 1 2 2 0 0 0 1 1 0 1 0 1 0 1 1-2 2 1 1 3-1s2-2 3 0c2 1 2 1 3-2l1-4v4c-1 3 0 4 1 4s8 16 8 18c0 1-2 1-4 0h-3l2 2c2 2 2 2 0 2-3 0-6 3-8 8-1 4-2 5-2 3s0-2-1-1-2 1-4 1c-4 0-4 4-1 7 6 4 13 4 18 0 1-1 3-2 4-2 2 1 2 4 4 48v20h77v-10l3 1c2 0 6 2 10 3 3 2 6 3 7 3s3 1 4 2c4 1 82 1 89 0 2-1 3-1 3 0 1 1 10 1 10 0 1-1 1-1 1 0 0 2 134 2 134 0 1-1 1-1 1 0s3 1 11 1h11v-86l-2 1c-2 0-3 0-4-2s-2-3-2-3c-4 1-9-1-12-5-3-2-5-3-7-3-1 0-2 0-2-1s-1-1-1-1c-1 0-4-1-8-3-3-2-7-3-9-3-1 0-3-1-4-1 0-1-2-1-4-2-1 0-4 0-6-1-2 0-5-1-7-1-1 1-2 0-2 0 0-1-1-1-3-2-1 0-4-1-5-2-2-1-3-1-4 0 0 1-1 0-2 0 0-1-1-2-1-3 1-1 0-1-3 0-1 2-1 2 1 2s2 0 1 1-1 1-2 0-2-1-2-1c0 1-1 0-3 0-2-1-3-2-3-3s4-2 6-2l5-5c5-4 6-8 4-8-1 0-2-1-3-2-1-2-3-3-3-1 0 1 0 2 1 2s1 0 1 1-1 1-1 1c-1 0-3 0-5 1s-5 1-7 2c-2 0-4 1-4 1-1 1-2 1-3 1s-2 1-3 2-1 1-1 0c-1-1-2-2-3-1-1 0-2 1-2 2 1 0 0 1 0 1-1 0-1 1 0 2 1 2 1 3 0 3 0-1-1-1-1 0-1 2-18-3-18-5 0 0-3-1-6-1s-8-1-10-1c-3-1-8-3-13-4s-9-3-10-3c-1-1-3-1-5-1h-2l3-2c2-1 3-1 8 1 13 4 22 5 38 5 17 0 17 0 21-4 2-2 4-3 5-3s1 0 1-1c-1 0 0-1 1-2s1-1 1 1 0 3 3 3c2 0 3-1 3-2s1-1 2-1c2 1 2 0 3-3 0-4 0-5-3-7-1-1-4-3-5-5-3-2-3-2-2-1 0 3 1 12 0 10 0-1-2-1-4 1-1 1-3 1-5 0-3 0-4-1-2-2s1-7 0-8-2-2-2-3 0-1-1 0-1 0 0-3c0-4 0-4 7-5s10-3 19-12l6-5 1 3c1 3-1 7-5 9-1 1-3 2-4 4s-2 3-6 4l-5 2 6 6c3 3 6 5 7 5s3 1 4 3c1 3 2 3 5 2 3 0 9 3 9 5 0 1 4 4 12 8 3 1 8 5 12 8 4 2 8 5 9 6 1 0 3 1 4 2 2 0 4 1 5 1 2 0 5 1 7 1 4 2 7 2 16 2h5V0H166l2 2c1 2 3 2 6 2 5 0 9 2 18 9 9 6 9 7 17 8 4 0 9 1 12 2 4 0 10 3 16 6 5 3 13 6 18 8 4 2 9 5 11 6 6 3 6 2 2-4-4-4-4-5-1-8 2 0 3-2 2-2-1-2 2-1 4 2 2 2 2 3 1 7-1 6-1 6 7 15l3 3 4-4c4-4 21-13 30-15 2-1 8-3 12-5 11-5 20-5 28-1 5 2 7 4 7 5 0 2 0 2 6-1 7-4 9-4 10 0 2 6 8 5 12-1 2-3 9-2 16 1 5 2 9 9 8 12 0 0 0 2 1 3 7 8 8 21 1 17-3-1-12 0-12 2-1 1-6-3-8-7-1-1-2-2-4-2s-5-1-6-2c-2-1-3-2-4-2-2 0-3-3-1-3 2-1 3-2 1-3 0-1-2 1-5 3l-4 3-2-3-2-4 1 4c1 5-1 7-4 5-4-2-5-1-1 2l3 2h-3c-3-1-3-1-2 1 2 1 2 1 1 2-3 2-5 1-4-1 1-3 1-4-1-2 0 2-1 2-2 1h-2c-2 0-4-1-5-2-8-4-33-2-46 3-16 6-25 18-26 33 0 4 0 7-1 7 0 0 0-4-1-9-1-10-2-12-3-10-1 1-1 0-1-2 0-3 0-4 1-4 2 1 6-7 7-15v-7h-3c-4 1-4 1-5-2-1-1-2-2-3-2 0 1-1 0-1 0 0-1 0-1-1-1 0 1-1 1-1 0-2-1-6 0-6 1-1 3-1 5-1 6-1 2-1 2 1 1 4-1 7 3 6 10 0 7 6 25 12 37 4 9 4 9-1 12-3 2-6 4-6 5-4 4-2-5 2-9 2-3 2-3 1-4-3-1-11 1-15 3s-4 2-3 0c3-7 1-30-3-29-1 0-1 0 0-1 0-1 0-1-1-1 0 1-2 0-2-2-3-4-11-8-20-8h-4l1-5c0-3 1-8 3-11 4-9 2-10-3-4-2 4-4 6-4 7 0 0-1 2-2 2-2 2-2 2-1 2 2 0 2 0 1 1 0 1-1 3 0 5 0 3-1 4-3 3-7-2-17 1-14 3 1 1 1 1 0 1-2-1-4 1-13 8-2 2-2 2-4-1-3-3-4-3-8 0-4 4-3 6 4 6 3-1 4-1 3 0 0 3 1 2 4 0 1-2 5-3 5-1 0 1-7 6-9 6 0-1-2 0-3 1l-2 2c-1 0 0-1 1-2 2-3 3-6 1-4h-7c-6 0-14 4-21 9-5 5-16 12-17 12l1-1c0-1 0-1-1-1 0 0-1 0-1 1-1 1-1 1 0 1s1 0 0 1c-1 2-3 3-2 1 0-1 0-1-1-1s0-1 1-3c3-2 6-3 4-1 0 1 3-1 8-5 12-10 25-19 30-23 3-1 5-3 5-4-1 0-1-1 0-1s1-1 1-3 0-2-1-1-1 0-1-3c0-2 0-4 1-4v-6c-1-5-4-9-6-9s-2 6-1 7c1 2-1 6-2 6-3-1-3 0 0 3l2 2c0 1-4-2-9-6-4-4-9-9-12-11-2-2-3-3-2-3 2 1 3-2 3-8 0-4 0-4-3-4-4-1-6-4-4-7 1-2 0-3-2-1-2 1-2 1-2 0 1-2 4-4 5-2 1 1 1 1 1 0s0-2-1-2c0-1-1-2-1-4-1-4-5-9-7-8-1 0-2 0-2-1-1-1-1-1-1 1 0 4-1 4-4 3-1-1-3-2-4-1-1 0-4 1-7 1-6 0-6 0-6 2v2l-2-2c-1-1-1-3-1-5 1-2 1-5 0-8V0H0v53zm42-22c3 2 3 7 0 9s-8 2-10 0c-5-4 4-12 10-9zm345 35c2 4 3 4 5 3 2 0 4 1 6 3s6 4 7 5c2 1 4 3 5 4 1 3 1 19-1 20-3 2-11 3-23 4h-11l1-4V91c2-20 2-27 3-28 0-3 5-1 8 3zm-249 8c0 9-4 25-7 26-4 1-4-4-1-10 2-2 2-4 2-7-1-5 0-11 3-16s4-3 3 7zm195-1c1 0 2 1 3 1 0 1 2 1 3 1 2 0 4 0 5 1 2 2 3 5 1 4-1-1-2 0-3 0-1 1-3 2-4 1 0 0-1 0-1 1-1 1-1 1-2 1 0-1-1 1-1 3s0 4-1 4c0 1-2 1-2 0l-2-4c-2-4-2-4-4-2-1 1-2 3-1 4 0 1 0 1-2-1-2-1-2-2-1-2 2 0 2 0 1-2-2-2-6 0-6 5 0 1-1 3-1 4-1 2-1 2 0 3 2 0-7 5-11 6-5 1-6-1-3-4s3-4 3-8 7-11 11-12c1 0 4-1 5-3 2-2 3-2 7-2 2 1 4 1 6 1zm-1 26c0 2-13 13-15 13-1 0-2 0-2-1 0 0-2-2-4-3-6-4-7-6-3-5 1 0 3 1 3 1 1 2 8-4 8-6 0-1 2-1 7-1 2 0 3 0 3-1s3 2 3 3zm-139-1c-1 1-1 1 2 1 2-1 4-1 4-2h4c2 0 2 0 2 2 0 3 0 3 2 3s3 0 3 1-1 1-2 1c0-1-1 0-2 1 0 2-4 1-4-1v-3c0-2-9 0-9 2 0 1 0 1 1 0 1 0 1 0 1 1-1 3 0 4 2 3 2 0 2 0 1 1-2 2-8 1-8 0 1-2 0-3-1-2-2 2-10 3-10 2-1-1-1-1-2 0s-1 1-1 0 0-2 1-3l3-2-3 1c-1 0-2 0-2-1 1-1 0-1-4 1s-5 2-5 1 10-6 12-6c0 0 0 1-1 1-1 2-1 2 2 1 2-1 2-1 2 1 0 3 2 3 3 0 0-1 1-2 1-1 1 0 2-1 3-2 2-1 2-1 2 1-1 2-1 2 0 2 1-1 1-2 1-3 0-2 1-3 2-3s1 1 0 2zm-137 9c0 1-1 9-3 12 0 2-2 5-3 6-3 2 0 3 4 2 7 0 11 1 11 3s0 2-3 2c-3-1-5-1-7 0-1 1-5 2-7 2l-5 1 1-4v-11c0-7 1-9 3-11 3-3 7-4 9-2zm-23 4c6 2 6 4 2 9-3 3-9 6-11 4-2 0-3-8-3-10 1-2 2-3 4-3 1-1 3-1 3-1s2 1 5 1zm177 2c1-1 1-1 1 0s-1 1-1 1c-1 0-2 1-2 1 0 2-7 6-11 6-1 0-2 0-2 2 0 1 0 2-3 2-2 0-4 0-4 1-1 0-3 1-6 2s-4 2-3 3c0 1 0 2-2 1-3-1-3-2-1-3s2-1-1-1c-3 1-6-1-4-3 2-1 5-2 5-1h3c1 0 2-1 2-2s2-1 3 0c0 1 1 1 1 0 1 0 2 0 3 1s1 1 1-1c0-1 0-1 1 0 2 1 5 0 3-2-1-1 0-2 4-2s9-2 7-3c-1-1-1-1 0-2 2-2 3-2 4-1 0 1 1 1 2 1zm-77 6c-4 5-5 6-4 3 0-1 0-1-1-1 0 1-1 2-1 3 0 2-1 3-2 3 0 1-2 3-2 4-3 4 0 4 4 0 3-3 8-6 9-6 0 1-2 2-4 3-5 4-6 5-1 5 2 0 5 1 8 2 5 2 6 1 8-2s2-3 2-1c0 1 1 2 2 2s2 0 2 1c0 0 1 0 3-1 3-1 6-1 8 0 1 1 1 1-1 1-1 0-2 1-2 2-1 1-1 1-3 0-1-1-2 0-4 1-1 1-2 1-2 0s-1-1-2-1c-2 1-2 1 1 4 1 2 3 3 4 3 2 0 4 2 3 5 0 1 1 3 2 4s2 3 1 3c0 1 0 2 1 4 1 6 2 12 1 12s-1-1-1-2c0 0-1-2-1-3-1-2-2-4-2-6s-1-4-1-4c-1 0-1-1-2-3 0-2-1-3-2-3s-1-1-1-2c0 0 0-1-1-1 0 0-2-1-3-3-6-6-22-10-31-7-10 3-18 11-23 21-6 13-6 14-6 11 0-2 0-3-2-2-1 0-1 0 0-1 1-2 3-9 3-14 1-1 3-4 5-6 4-4 4-5 2-5-1-1-1-1 2-2 2-1 4-1 4-1 1 0 3-2 5-4s4-3 5-3c0 0-2 3-5 5-3 3-5 4-5 4 0-1-1-1-2-1-1 1-1 2 0 2 1 1 0 3-2 5s-3 3-2 4c0 1 2-1 4-3 1-3 5-6 8-8s6-6 8-8c2-4 4-5 3-3-1 1-1 2 0 2s3-4 3-6c0-1 11-11 12-11s0 2-2 5zm135-1c-2 3-1 9 2 12l2 2 1-2c1-1 3-3 6-5 2-1 5-3 6-4 5-4 5 14 1 19-1 1-1 0-1-1s1-3 1-3c1-1 1-1 1-2-1 0-2 0-2 1l-2 2c-1 0-1 0 0-1 1-2 1-3 0-3-1 1-2 0-2 0 0-1 0-1-1 0 0 0-1 1-2 0-3 0-7 4-7 7 0 2 0 3-1 4-1 0-1 1 0 2v4c0 3-1 4-4 4-4 1-5 1-5-4-1-4-3-9-5-9 0 0-1 1 0 2 0 1 0 3-1 5l-1 2-2-3c-1-1-3-2-4-2s-1-1-1-3c1-4 0-4-3-1-1 3-6 5-6 3 0 0 3-3 7-6 3-3 8-7 9-10 4-6 7-9 11-11s5-1 3 1zm31 8c2 3 6 7 9 9l4 5-2 2-2 2-3-4-2-4c0-1-10-12-13-13-1-1-1-1 2-1s4 1 7 4zm143 11c3 2 6 5 6 6s-13-1-16-3c-3-1-3-1-1-3 2-3 8-2 11 0zm-134 21l-1 3 4-1c3 0 7-1 9-1 4-1 5-1 6 1s0 3-6 4c-3 0-8 1-12 2-7 2-9 1-9-1s10-10 11-9l-2 2zm-131 27c4 1 6 2 9 5 2 2 4 6 3 6 0 0-5-1-10-3-9-2-11-3-11-5 0-1-1-2-2-2 0 0-1-1-1-2s4-1 12 1zm155 10c0 1 0 1 1 1 0-1 1-1 1 0 1 0 3 1 6 1l6 2c2 1 14 5 21 6 4 1 7 2 7 2s1 1 2 1c2 0 17 3 25 4 1 1-2 1-6 1-9 0-16-2-35-8l-15-4h-31l2-2c1-1 3-2 3-2 2 0 1-2-1-2-1-1 2-1 7-1 6 0 8 0 7 1zm-27 10c0 1-17 11-29 18-5 2-9 5-8 5 0 0 1 1 0 1 0 1 0 1 1 1s1 1 1 1c0 1 0 2 1 2s1 1 1 2 0 1-3-1c-5-2-5-3-3-5s-1-1-5 1c-5 2-6 5-6 10 0 3-1 3-9 0l-4-2 5-3c3-2 7-3 8-4 2-1 3-3 0-3-1 1-3 1-4 2-3 0-3 0-1-1 2-2 9-4 12-3 2 0 5-1 12-5 5-3 10-6 11-6s2 0 2-1c0 0 3-2 6-3 3-2 7-4 8-5 2-1 4-1 4-1zm-184 8c6 1 8 2 8 3-1 1-1 2-1 2 0 2-4 3-5 2 0 0 1-1 2-1 1-1 1-2 1-3-1 0-2 1-2 2-1 1-2 1-2 0 0 0 1-1 1-2 1-1 1-1 0-1 0 0-2 1-3 3-2 2-3 3-4 2-1 0-3-1-4-2-2-1-3-2-2-4 0-4 1-4 11-1zm-9 8s1 1 2 0c2 0 2 0 1 3 0 4 2 7 9 9l5 1 3-3c1-2 4-3 5-3 5 0 10 2 12 4s1 3-1 2c-3-2-7 2-8 8-2 5-4 6-8 3-2-2-3-2-3-1 0 4-2 2-2-2s1-4-16-8c-4 0-10-2-14-4-5-1-10-2-13-3-4 0-8-2-8-3 0-2 4-2 9-1 10 3 27 2 26-2-1 0-1-1 0-1s1 0 1 1zM0 215c0 1 1 2 2 2 3 0 6 2 6 3 0 2 5 7 6 7 0 0 2-1 4-1 1-1 4-1 6-1s5-1 6-2c2-2 23-2 27 0 2 1 2 1 3-1 0-1 1-4 3-6l2-3-29 1c-19 0-30 0-32-1-4-1-4-1-4 2z" fill="#ccc"/></svg>