<svg version="1" xmlns="http://www.w3.org/2000/svg" width="600" height="400" viewBox="0 0 450.000000 300.000000"><path d="M283 15c-1 0-3 1-6 1-10 0-21 2-25 5-2 1-3 2-4 2l-2 2c-1 1-1 2-2 2-2 0-3 0-4 2s-2 3-3 3l-3 3c-1 2-2 3-2 2-1 0-7 8-10 13 0 1-1 3-2 3-1 1-3 5-6 11-5 12-6 14-5 14 0 0 1 1 1 2 0 2-1 3-1 3-1 0-1-1-1-2 0-4-2-1-3 3s0 11 2 8c1-1 1-1 1 1s1 4 3 7c2 2 3 4 3 4-1 0-2-1-2-2-1-1-2-1-3-1 0 1 1 2 2 2 1 2 1 2 0 2-2 0-4-4-3-6 0-1 0-1-1-1 0 0-1-1-2-3-1-3-4-3-4 0 0 1-1 2-1 2-2 0-2 3 0 3 1 0 1 1-1 3-1 1-1 2-2 1 0-1-1 0-3 2-1 2-2 4-1 4s1 1 0 2c0 1 0 1 1 1 1-1 1-1 0 1-2 3 0 2 6-3s6-5 6-3-1 4-1 6c-2 5-2 5-1 4 1 0 1 2 0 3-2 2-2 4-1 6 1 0 1-1 2-2 0-2 0-2 1 0 1 4 3 4 2 0 0-1 0-2 1-2s1 1 1 2 0 2 1 2 1 1 1 1c0 1 0 2-1 2-5 0 1 11 7 13 3 1 3 1 1 3-1 1-1 1 1 2 2 0 4 4 1 6-2 1-1 5 1 7s2 2 4 1c1-1 1-1 2 2 0 4 3 9 5 12s2 4 0 29v6l1-6c1-4 2-9 2-11 1-3 2-5 2-5 1 0 1 18-1 21 0 2 0 2 2 2 1-1 2 0 2 0 1 1 11-6 14-10 2-2 3-3 3-2s0 1 1 1c1-1 1-2 1-2 0-1 0-1-1 0-1 0-1 0-1-1 0 0 0-1 1-1 1-1 1-1 1 0s1 1 2 0c3-3 3-2 1 2-3 9-6 47-3 47 1 0 1-3 1-10 0-11 1-17 4-24 2-4 3-5 3-3 0 5 0 6 1 6s3-4 4-11c3-10 3-10 2-12-3-2-2-6 3-22l4-12 5-4c6-4 8-7 10-14 1-3 10-2 14 0 1 2 4 2 10 2 8 0 9 0 9 5 0 1 1 3 2 3 1 1 1 2 0 2-2 0 0 11 2 15 3 5 4 6 18 2 2-1 2-1 1 0s-1 1 1 1c4 0 6 0 8-3 1-1 3-2 3-1 1 0 1-1 1-2s1-2 1-2c1 0 2-1 2-3v-6c1-1 1-3 1-4l1 1c1 1 1 2 0 3 0 1 0 2 1 3 1 0 1-2 0-7 0-7 0-7 1-6 3 2 3-2 0-5-2-3-3-5-1-5 1 0 1-7 0-8-1 0-1 1-1 2 0 2-1 1-2-2-2-4-2-4-3-2-2 5-2 3-6-30-1-10-2-19-3-21s-2-6-3-8c-1-9-7-18-18-29s-17-15-26-16c-5 0-12-2-13-3-2-1-4-1-3 0 0 1 0 1-1 1s-1 0-1-1-1-1-3 0c-2 0-4 0-4-1-1-1-2-1-2 0zm-64 95c2 1 3 1 3 0-1-1 0-1 2 0 1 1 13 5 14 5 1-1 1-1 1 0s1 1 2 0 3-1 4 0 4 2 6 3c5 1 15 4 17 6 3 1 1 1-2 0-5-1-10-2-10-1 1 2 0 1-3-1-2-1-4-2-5-3-8-1-24-5-27-6-2-1-4-2-5-2s-4-4-4-6l2 2c1 1 3 2 5 3zm224 59c-3 2-8 3-9 3-4 1-9 6-10 9-1 2-4 3-9 2-3 0-2 1 1 3 3 1 0 1-5 0-4-1-6 0-4 1s0 1-4 0l-2-1 2 1c1 2 3 2 5 2 2-1 3 0 3 1 1 1 1 2 2 2 3 0 4 0 5 2 0 1 0 3-1 3-2 3 2 4 17 5h16v-3c0-3-1-4-7-3s-7 1-7-1 3-3 5-3c0 1 3 1 5 0h4v-13c0-6 0-12-1-12l-6 2zM0 180c0 6 0 6 3 7 4 2 39 0 39-2s-5-3-9-3c-5 1-11 0-12-3-1-1-3-2-7-2-4-1-8-1-10-2H0v5zm366 0c0 1 2 2 4 2 1 1 3 2 3 3 0 2 6 5 8 4s2-1 4 0h4c1-1 2-1 3-2h4c3 0 1-2-5-3l-4-2c0-1-1-1-3-1-8 0-11 0-12-1-2-1-7-1-6 0zm-136 34c-2 1 1 2 4 1 1 0 1 0 0 3-1 2-1 3-2 3 0-1-1 2-2 5l-1 6h-8c-5-1-12-2-16-2-7-1-7-1-11 1-2 2-6 3-11 3-8 1-20 6-25 10-2 1-4 2-5 2 0 0-2 1-4 3-3 2-5 3-6 3-4 0-14 19-18 33-1 6-2 12-3 13 0 2 4 2 72 2h73l-1-4v-29c0-13-1-24-1-24-1 1-1 1-1 0-1-1-1-1 0 0 0 1 0 2-1 2-1-2-3 6-2 9 1 6 1 15 0 12-1-1-1-4-2-7 0-5 0-5-2-2l-1 2 1-3c0-3 1-7 0-13-1-2-1-9-2-13 0-6-1-9-1-7v6c0 3 0 4-1 4s-2-2-2-4c0-4-1-5-1-2 0 5-2 6-9 6h-8c0 1-1 1-1 0s0-1-1-1c-3 2 2-10 7-15l3-4h-5c-2 0-5 0-6 1zm95 16c1 1 1 1 2 1s3 3 3 7c1 2 1 5 2 5 0 1 1 4 1 8 1 3 2 8 3 9 0 2 0 2-1 0-1-1-2-4-3-7s-2-7-3-9c-1-1-2-3-2-5s-2-6-3-6c0 1 0 2 1 4 2 5 1 7 0 5-1-1-2-1-2 0 0 0 0 1 1 1 1 1 1 4 3 14 0 2 0 5 1 6 0 1 0 2-1 3s-1 1-1 0-1-3-2-4-1-2 0-2 1-1 0-3c-1-1-1-3-1-4 1-1-1-2-1-1-1 0-1 2-1 4-1 3-1 6-2 8 0 2 0 6 1 9 1 6 2 18 1 18s-2-8-2-10v-4c0-3 0-3-1-2-1 2-1 5 0 11v14h62l-1-5c-2-24-4-38-8-41-1-1-1-3-1-3h-2c-3 0-9-3-13-7-5-4-15-11-16-10-1 0 0 2 0 5 2 8 0 26-3 32-1 1-1 3-1 3 0 1-1 2-1 3-1 1-2 1-2 1 0-1 1-2 2-4 0-2 1-6 1-8s0-3 1-3c0 1 1-1 2-3 0-2 0-5 1-6 1-8-5-25-9-24 0 1-1 1-1 0-2-1-4-1-4 0zm57 18c-2 1-3 1-3 2 0 0 1 1 2 3 4 5 7 17 8 31 1 8 1 14 2 15 0 1 5 1 23 1h22v-3c-1-1-2-6-3-10-1-7-2-9-6-15-3-4-6-7-6-7s-4-2-7-6c-4-3-8-5-10-6-1 0-6-2-9-3-7-3-10-4-13-2zm-94 20c0 5-3 11-9 24-3 8-3 8 2 8 2 0 4 0 4-1-1 0 0-6 1-13 3-13 4-22 4-22-1 0-1 2-2 4z" fill="#ccc"/></svg>