<svg version="1" xmlns="http://www.w3.org/2000/svg" width="600" height="400" viewBox="0 0 450.000000 300.000000"><path d="M24 2c1 2 1 4 0 11-1 5-1 13-1 17 1 9 0 11-6 13-9 2-16-2-15-9C4 24 4 11 2 7L0 3v51l3 1c5 2 5 4 5 20 0 6 2 12 4 13 0 1 3-2 5-5 4-5 5-5 9-5 2 0 4 1 6 3 4 3 4 3 12-5 8-7 8-9 4-10-8-4-11-12-8-21 1-1 1-2 0-2-4 0-9-8-8-13s1-5 5-3c2 1 4 2 5 2 3-1 0-6-3-7-4-1-3-3 3-5 4-1 8-5 8-8 0-2 3-6 5-6 3-1 15 1 16 2 2 2 15 2 20 0 6-3 27-5 31-3 2 1 3 2 4 2s3 1 5 3c3 3 4 3 6 2 1-1 2-1 5 0 3 2 3 2 6 2 2 0 2 1 2 4 0 2 0 4 1 4s1 1 1 2 1 3 1 4c1 1 2 3 1 5 0 1 0 2 1 2l1 1c0 1 1 2 2 3 0 1 1 3 1 6 0 4 0 4 4 5 16 4 17 4 23-2 13-13 25-12 29 1 1 2 1 4 2 4 0 0 6 0 12 1 7 0 12 0 12 1 0 0 2 1 6 0 4 0 6 0 5 1 0 1 0 1 1 1 1-1 3-1 5 0 1 1 2 1 2-1 0-1 5-6 10-10 5-2 19-2 35 1 10 2 28 4 44 4 5 0 9 1 12 2 2 1 4 2 5 2 2 0 7 3 11 7 2 2 6 5 8 6s5 2 6 4l4 2c2 0 14 11 19 19 8 10 15 15 28 20 4 1 7 2 7 2 1 0 1-22 1-48V15h-16c-2 0-12-3-14-4-1-1-3-3-4-6l-1-5H293l-4 4c-6 6-13 8-22 6-7-2-10-4-10-8l-1-2H23l1 2zm215 74c-1 1-1 2 0 2 0 1 1 2 0 2 0 1 2 9 3 8 1 0 1 1 1 2 0 4 3 6 4 3 2-1 3-8 3-12 0-1-3-1-3 0-1 1-1 1-2 0s-1-1-1 1c-1 1-2 1-3-3-1-3-2-4-2-3zm9 21c-2 1-2 2-2 6 1 6 0 9-3 8s-6 11-3 15 8 0 8-6c0-3 0-4 2-3 3 0 4 2 3 4-1 1-1 1 1 1 1 0 2 0 1 2 0 1 0 1 1 1 0-1 2 0 3 1s2 2 3 2c0 0 1 0 1 1s-1 1-2 1c-2 0-2 0-1 1 1 2 4 2 9 0 5-3 5-4 1-3-2 0-2 0-1-1 2-1 3-2 3-2 1 0 1 0 1-1s-1-1-2-1c-2 0-4-2-2-3 1-2 1-3 0-3-2 0-3-4-2-5s1-1 0-1c0 0-1-1-1-2l-1-1c-1 0-2-1-2-2-1-1-1-2-3-1-2 0-2 0-2-2 0-1 0-2-1-2s-1 1-1 1c0 2-2 4-3 3-1 0 0-1 0-2 1-1 1-1 0-2s-2-2-2-3c0-3-2-3-3-1zm-48 20c-1 1-2 2-2 3s0 2-1 3c-3 2 4 8 8 7 3 0 3 0 3-6-1-8-5-11-8-7zm73 14c-1 0-2 1-2 2-1 0-2 1-2 0-1 0-3 0-4 1s-1 1 1 2 2 1 4 0c2-2 3 0 1 2-1 1-2 2-2 3 1 1 0 1 0 1-1 0-2 1-1 1 0 1 0 2-1 2-1 1-1 2 0 2 0 1-1 1-2 1s-2 0-1-1c0-1 0-1-1-1s-1-3 0-4c2-1-3-5-5-5s-2 0-1-1 1-1 0-1c-2 1-3-1-1-1 1-1 0-1-3-1s-4 1-6 3c-1 1-2 3-2 3s-1 2-1 4 0 3 2 3c1 0 2 1 3 2 1 2 2 3 4 3s2 0 0 1c-3 0-5 2-3 3 1 1 1 1 0 2-1 0-1 2-1 4 0 3-1 3-3 3 0 0-1 1-1 2-1 1-1 2-2 1 0 0-1-1-1 0-1 0-1 1 0 2s1 1 0 1c-1-1-3-1-3-1-1 0 0-1 1-2s2-3 2-4c0-2 0-3 1-3 1-1-1-7-2-7s-1-1-1-2-2-4-3-4-1 1-1 1c0 1-1 2-1 2-1 0-1 1-1 4 1 2 1 3 0 2-2-1-3 0-3 2 0 1-1 2-2 2s-1 0 0 1c0 1 1 2 0 3 0 1 0 1 2 1 2-1 3-1 3 0 0 0 0 2 1 3 0 1 0 1-1 0 0-1-1-1-1-1-1 0 0 2 1 3s1 1-1 1c-1-1-4-1-6-1-3 0-4 0-4-1s-1-2-2-2c0-1-1-1-1-2 1-1 0-1 0-1-2 0-3 4-2 5 2 2 3 5 1 6-1 1-3 2-3 2-1 0-1 0 0 1s1 2 0 3c0 1 1 2 3 4l3 2h-3c-2 0-3 0-3 1s1 1 2 1 2 1 3 1c2 2 2 2 0 3-3 1-3 3 0 3s3 2 1 3-1 3 2 4c2 0 3-1 4-2 0-2-1-4-3-4-1 0-1-1 1-2 3-2 3-3 1-5 0-1-1-2 0-3 0-1-1-2-2-3-2-2 0-3 7-3 2 0 5-1 6-1 1-1 1 0 3 3 2 5 6 7 8 4 0-1 1-1 3 0 4 1 9 1 9-1l1-1c1 0 2-1 2-2s1-2 2-2c0 0 1 0 1-1s1-1 2-1c1 1 1 0 0-2-1-1-1-1 0-1 2 0 2-1 1-2 0-2 0-2 2-1 3 1 3 0 3-3 0 0 0-1 1-1 2 0 2-3-1-5l-3-2 2-2c1-1 3-2 4-2 2 0 1-1-1-3-3-1-3-3 0-4 2-1 2-1-1-2-5-2-5-4-1-3 4 2 6 0 5-4-1-2-1-4-1-5 1 0 0-1 0-1-1 0-1-1 0-2 2-3-1-5-6-3zm5 82c-1 1-2 2-3 1-1 0-1 1-2 3s-2 3-3 3c-3 0-5 2-7 5-1 2-2 2-4-1-1-2-1-2-1 1 0 6-1 7-4 7-2-1-7 3-5 4 3 2-1 4-5 4-3-1-4-2-6-7-3-7-8-13-10-13s-4-2-4-4c0-1-1-2-2-3-1 0-5 8-5 12 0 2 0 2-3 2-2 0-5 1-6 2s-3 2-5 2-4 0-5 1c0 1-1 1-2 1-2-1-4 0-5 0-1 2-3 2-6 1-4 0-5 0-5 2l-2 2c-2 1-5 7-4 8 0 1 2 1 4 0 1 0 6-1 9-1 4 1 7 0 8 0 1-2 15 0 18 2 3 1 3 2 2 2-2 0-4 2-2 3 2 2 4 1 4-1 0-1 1-2 4-2 4-1 5-1 5 2s2 3 5 1c2-4 8-3 10 0 1 3 8 3 9 0 1-2 1-3-1-3-3 1-2-1 1-3s3-2 6-1c1 1 2 3 1 3 0 1 1 1 1 1 1 0 2-1 3-1 0-1 2-3 3-3 3-2 3-2 5 0 1 1 3 2 3 2 1 0 2 1 3 1 3 4 4 2 5-5 1-5-2-7-5-4-3 2-8 3-8 1 0 0-1-1-2-1-5-2 2-10 7-8 4 0 7-6 3-7-2-1 1-5 4-5 2 0 3-3 2-5-2-2-2-2-3-1z" fill="#ccc"/></svg>