<svg version="1" xmlns="http://www.w3.org/2000/svg" width="600" height="400" viewBox="0 0 450.000000 300.000000"><path d="M193 1c0 1-3 1-6 1-5 0-6 1-6 2s-1 2-2 2c-2 0-3 0-3 1s-7 3-9 3c-1 0-2 1-2 1-1 1-1 1-2 0-2-2-4 0-3 2s1 2-1 2c-2-1-2-1-1 0 0 1 0 2-1 2s-1 0-1-1-1 0-2 1-3 2-4 2c-2 0-3 1-2 2 0 1-2 2-4 1-2 0-1 4 0 4 1 1 1 1 0 1s-2 0-2-1c-1-1-2-1-2-1-1 0 0 1 1 2 1 2 1 2 0 2-1-1-2 0-2 1-1 2-5 3-5 1 0-1-1 0-3 1-2 2-5 2-11 3-8 1-15 2-17 4-1 0-5 0-9 1H84c-1 0-4 1-5 1-3 0-3 0-2 1s1 2 2 2c0 0 2 1 3 2s3 2 3 1c0 0 1-1 2-1 2 0 2 0 2 2-1 2 1 1 3-2 1-2 1-2 1 0 1 1 1 2 3 1 3-1 6-2 7-3s1-1 1 0 0 2 1 2 1 0 1-1h3c2 1 3 2 3 3-1 0 0 1 0 1 1 1 1 1 0 2s-1 1 2 1c6-1 5 4-2 8-3 1-3 1-2 1 2 0 2 0 1 1 0 1-3 1-5 1s-5 1-8 2c-2 1-5 2-5 2-3 1-5 2-5 3s0 1 1 0c1 0 1 0 1 1 0 0 0 1-1 1-1 1-1 1-1 0s-1-1-3-1h-3l3 1c2 1 3 2 3 2 0 1-9 5-12 5s-6 4-6 7c1 3-1 3-2-1 0-3-1-3-3 0-1 1-3 2-3 2-1 0-2 0-2 1s-1 1-3 2c-1 1-2 2-3 2 0 1-1 2-2 1-2 0-3 1-1 3v2c-1 2-1 2-1 0-1-2-3-3-3-1s-1 2-3 0c-1-1-1-1-1 0s-1 2-2 3-2 3-1 3c0 0-1 1-2 1-1 1-1 1 1 2 1 1 1 2 0 3-2 2-5 0-14-8-2-2-2-2-3 0-1 3-1 3 0 2s2-1 2 1c1 2-1 4-3 4 0-1-1 0-2 0 0 1-1 1-2 1 0 0-1 0 0-1 0-1 0-1-1-1l-1 1c-1 1-2 2-4 2-4 1-6 3-4 4s-1 2-4 1H0v20c0 20 0 20 2 19 3-1 14 6 20 13 11 12 12 13 11 14s0 1 2 1c1 0 1 0 1 1-1 1 7 4 8 4 0-1 0-12 1-25 0-25 0-29 4-27 1 2 1 3 1 16 0 8 0 15 1 15 0 0 1-1 3-2 4-2 7-2 7 2 0 1 1 2 4 3 5 0 5 1 4 3 0 0-2 1-4 1-4 0-5 1-10 6l-5 5v6c1 7 3 13 5 12 1 0 2 1 2 4s0 5 2 6c1 1 1 1 1 0-1-1 0-2 1-3s6 3 6 6 1 2 3 0c2-1 2-3 2-6-1-3-1-7-2-11 0-3-1-7-2-8-3-4-3-6-1-6 2-1 6 2 7 5 2 4 2 14 1 17-2 4 0 4 3 0 2-2 4-4 4-3s3-1 6-4 6-5 7-5 3 0 3-1c3-1 2 2-1 7l-4 4c0 1 12-2 16-4s21 0 22 2c1 3-13 14-26 20-11 5-12 5-21 5-6 0-10 0-12-1-3-2-3-2-7 4-5 11-6 12-5 24 0 12 0 14 4 11 2-2 2-3 1-11 0-6 0-9 1-12 0-1 1-2 1-1 0 0 1 1 2 1s1 1 1 5c-1 5-1 10 0 11 0 0 2-1 4-3 3-3 4-3 8-3 3 0 7-1 9-2 3-1 6-1 6 1 0 1 0 2-1 2h-2c-3 0-2 2 0 2 3 0 4 3 3 7-1 2-1 5 0 6 0 4 0 4-4 1-3-2-6-2-6 0 0 0 1 1 3 2 16 8 24 11 29 11 2 0 4 1 6 2 1 1 2 2 3 2 2-2 5-9 4-11 0-1 0-3 1-4s1-2 0-5c-1-4-1-4 1-4s5 6 5 9c0 1 0 1 2 1 5 0 5 6-1 13-4 5-4 6 1 3 1-1 3-2 5-2 1 0 7-2 13-4 12-4 15-4 17-1 1 2 1 2 0 3s-3 2-4 3-2 1-5 1c-2-1-4 0-8 2-5 2-24 5-24 3s-4 0-7 4l-4 3h3c2 0 3 0 4-1 1-2 8-5 10-5s2 1-2 3l-3 3h129l-1-2c-1-4-1-4 5 0 2 1 5 2 7 2 3 0 3 0 4-5 0-2 1-4 1-4 1 0 6 6 6 8s87 2 87 0c1-1 1-1 1 0 0 2 24 1 29-1 2-1 5-2 5-2 1 0 2 0 2-1 0 0 2-3 5-6 4-6 5-9 1-10-1 0-2-1-2-1 1-1 1-1 2-1s2-1 3-1c1-2 1-2 3 0 0 1 1 2 0 3s-1 1 0 2 1 2-2 5c-1 2-4 5-5 6l-2 3 4 1c2 0 4 0 4-1 1-1 1-1 1 0s24 1 25-1c0 0-1-1-2-1-2-1-3-1-3-2 0-3-14-13-16-11 0 0-1-1-1-3 0-3-1-4-2-4-2 0-3 0-4-1-5-2-10-3-11-3-3-1-12-5-12-7s-4-2-9 0c-2 1-4 2-5 1-1 0 3-3 5-3 0 0 1-1 0-2 0-1 0-1 2-1 1 1 3 0 4-1 3-3-1-4-5-2-2 1-3 2-3 2s-2-2-3-4l-2-3 2-2c1-2 3-4 3-5 0-3-1-3-3-3-3 1-4-1-2-4 1-1-1-4-4-3 0 0-1 0-1-1s1-1 1 0c1 0 1 0 1-1-1-1 0-2 3-3h3c2 0 1-3-1-5-1-1-1-1 2 0 3 0 4 0 3-2 0-2-1-2-4-2-1 1-3 1-3 0 0-2 0-3-2-4-2 0-2 0-1-1s0-2-2-3l-2-2c1-1 0-2-1-3-1-2-1-2 0-2s1-1-1-2c-1-2-1-2 0-2s1-1 0-2c-2-1-2-1 0-1 1 0 1 0 1-1s-1-1-1-1c-3 0-2-2 1-3 2-1 3-2 2-2-3 0-8-3-5-3 1 0 1 0-1-2-1-1-2-2-1-4s1-3 0-3-1-1 0-2c1-2 1-2 0-2s-2-5-1-7c0-1 1-3 1-10 1-3 1-5 1-6 1 0 1-2 2-4 1-6 2-11 3-10 1 0 1-5-1-7-1-2-1-9 0-9s1 0 0-1c0 0-1-4-1-7-1-4-1-8-2-8-1-1-1-2-1-3s0-2-1-2c0 0-1-1-1-2-1-1-2-2-3-2s-1-1-1-2c1-1 0-2-2-2-1-1-2-1-1-2 0-1 0-1-1-1s-4-2-7-5c-1-1-3-1-4-1-2 0-2 0-2-2 1-1 1-2-1-1-1 0-2 0-2-1 0 0-1-1-2-1s-2 0-2 1-1 1-2 1-1-1 0-2c0-2 0-2-2-2-3 0-4 0-4-2-1-3-8-8-8-6-1 1-1 1 0 0 0-1-1-2-2-2-3 0-4 0-4-2 0-1 0-1-1 0-1 3-2 3-6 1-2 0-5-1-5-1-1 0-2-2-4-6-1-4-2-7-3-7-2 0-2 0-1-1 2-1-2-8-13-19-8-8-9-8-10-8-1 1-2 1-2 0s1-1 1-1c1 0 0-1-1-2-2-2-3-2-4-1 0 1-1 0-2-2-1-3-4-5-11-9-1-1-4-3-6-4-4-2-5-3-30-3-16 0-25 1-26 1zm138 109c-1 1 0 1 1 1 2-1 5 4 5 6s0 3 2 2c1 0 1 0 0 1-1 0-1 1-1 1 0 2 0 3-3 5l-3 2h3c4 0 4 0 3 1s-1 3 0 4c0 1 0 1-1 0s-2-2-3-1c-2 0-2 0-1-1 0-2 0-2-3-2-2 1-3 1-3 4-1 2-2 3-4 3h-2l2-2c3-3 5-7 5-15 0-3 0-7 1-7 0 0 1-1 0-2 0 0 0-1 1-1s1 0 1 1zm-134 5c0 1 0 3 1 4 1 4 1 4-1 4-1 0-1 0 0 1s1 1 2 0 1-1 1 0c1 3 1 3 0 2-1 0-1 0-1 1 1 2 1 2 0 2-1-1-2-1-3 0-1 2 6 4 11 4 3 0 5 0 5 1 1 0 2 1 4 0h3l-3 1c-1 1-4 1-6 1-3-1-4-1-4 0 0 3-15-3-18-7-1-2-2-2-3-2s-1-1 1-2l2-2 3 3c2 2 3 3 4 3s1-1-1-2l-2-2c0-1-1-2-2-3s-1-1 1-2c1 0 1-1 0-1-2-2-1-3 1-3 1 1 2 1 2 0s1-2 2-2l1 1zm33 18c0 1-1 2 0 3 0 1 3 1 3 0s1-2 2-3 1-1 1 4c-1 3-1 6-2 6 0 0-1 1 0 3 0 3 0 3-2 3s-2 0-1 1 1 2 1 3v2c0 1 0 1-1 1-2 0-2 0-1 1 1 2 1 2 0 2s-2 0-2-1c0 0-3-2-5-3-3-2-4-3-2-3 1 0 2 0 3 1 1 2 2 1 1-1 0-1 0-1 2 1 3 3 4 2 2-1-1-2-1-4-1-5s-1-3-2-3-1 0 0 1c1 2 1 2-1 2-1 0-2-1-3-1 0-1-1-1-2-1-2 0-2 0 0-2 1-1 2-2 3-2s1 0 0-1-1-1 0-2 2-2 1-2c0-1 1-1 2-2 3-1 2-2-2-1-3 0-3 0-2-1 1 0 2-1 3-1s2-1 4-2l2-3v3c0 1 0 3-1 4zm-2 27c0 1 0 1-1 1s-1 1 0 2c1 2 1 10 0 12-1 1 0 2 1 4 2 2 2 2 2 1-1-1 0-2 1-3s2-3 2-6c1-3 1-4 4-4 2-1 3 0 4 1 1 2 1 2 0 2-2-1-3 3-1 5 1 0 1 0 1-1-1-1 0-2 2-2 3 0 4 2 2 2-1 0-2 1-3 2-10 11-16 10-21-2-2-5-2-5-3-3 0 3 0 3-3 2-2-1-4 0-6 1l-4 2 2 4c1 3 2 5 2 6 0 2 13 11 15 12 5 0 8 2 7 4 0 1-3 2-3 0 0-1-2-1-3-1-2 1-4 0-5 0 0-1-1-1-1-1-1 0-1 1 0 1 1 2 0 3-1 1-1 0-2-1-2-1-1 0-1 0-1-1s0-1-1-1c-2 1-2 0-2-2 0-1 0-2-1-2s-1-1-1-2-1-2-2-3c-3-4-5-15-3-18 0-1 2-2 4-3 4-1 5-3 2-2-2 0-3 0-3-1s12-4 15-3h3l-3-1c-2-2-2-2 0-2 3-1 4-1 5 0zM0 198v41h11c11 0 28 3 31 6 2 3 1 3-4 2-4-1-35-2-35-1 0 0 2 4 5 8 4 6 5 7 7 6 1-1 1-1 0 1 0 2 0 3 2 5s3 3 3 4c0 0 1 2 3 4s3 4 3 5c-1 0-3-2-5-5-3-3-5-6-5-6l-4-6c-3-4-5-7-6-7 0-1-1-3-3-5-1-2-2-3-2-3-1 0-1 12-1 26v27h7c7 0 7 0 6-2-3-3-3-6-1-8 1-2 1-3 0-3-3-2-9-16-6-16 2 0 13 7 18 11 6 5 7 5 4 1s-2-5 1-1c2 3 3 4 2 4-2 0 0 2 2 3 6 1 8 3 6 6-2 2 0 4 2 2 3-2 10-3 14-3h4v-6c-2-12-2-14-3-14s-1 0 0-1c2-2-2-16-5-19l-4-4s-1-3-4-6c-5-7-6-10-4-17 1-5 5-13 6-14 2-1 1-4-1-4-4 0-18-11-18-15 0 0-1-2-2-3s-2-4-3-6c0-3-1-5-3-5s-8-7-11-12c-1-2-3-6-5-8l-2-3v41zm444 0c-2 0-5 1-7 1-1 0-3 1-4 4l-2 3 4 5c5 4 8 8 8 9 0 2-3 1-5-2-2-2-3-3-4-3 0 0-1-1-3-2l-2-2-1 2c-1 1-1 2 0 2h2c2 1 6 5 6 6 0 3-2 2-4 0-3-3-6-3-8-1-3 1-5 0-2-3 4-4 5-7 3-11 0-2-2-3-3-3s-1 1 0 3c1 1 1 1 0 1-2 0-4-2-5-3 0-1-1-1-2-1-4 0-9 5-10 11-2 5-3 5-3-1 0-3-1-5-3-6s-2-1-2 1c2 5 2 7-1 8-4 1-3 1 1 1 1 0 3 1 4 3 2 2 5 2 9 0 2 0 2 0 2 2-1 2-1 3 0 3s2-1 2-2c0-3 1-5 2-5s1 1 1 2c0 2 0 2 2 1 2 0 3 2 1 3-5 1 1 6 6 5 2 0 3-1 2-2 0-1 1-2 3-3s2-1 2 1c-1 0 0 1 1 2 1 0 2 1 3 1s4 1 6 2c6 0 7-1 7-15 0-10 0-11-3-8-2 1-7 2-7 0 0-1 4-3 7-3s3 0 3-4 0-4-6-2zM50 215c0 1-2 3-4 6-3 5-5 11-3 11l4-2c2-2 4-3 7-3 4 1 5-1 3-6-3-5-7-9-7-6zm364 18c0 2-3 3-6 3 0 0-1 0-1 1s1 1 2 1 1 1 1 3c0 1 2 1 5 1s8 0 10 1c8 1 10 0 6-6l-2 2c-1 1-3 2-4 2s-1 0 0-1c1 0 1-2-1-4-1-1-1-1-2 0-1 2-2 2-5 1h-3l2-2c3-2 3-4 0-4-1 0-2 1-2 2zm19 16c0 1-2 1-4 1-5 0-8 4-7 9 1 3 2 4 3 4s2 0 3 1c0 1 1 1 2 0 2-2 2-2 0-4s-3-5 0-5c0 0 2 1 2 3 1 4 2 4 6 1 5-4 5-8 0-10-4-1-5-1-5 0zm-18 3c-1 0-3 1-5 3-1 1-2 2-2 1 0 0 1-1 1-2 2-1 1-2-2-1-2 0-2 1-1 2 1 2 0 3-2 0-1-1-1-1-3 1-3 1-4 3-2 3 0 0 1 1 3 2 1 1 3 2 4 2s3 1 5 2c4 3 6 2 2-1-2-2-4-3-4-4 1-1 6 1 6 3 0 0 1 1 2 1 2 1 3 1 2-1-1-1-1-2 0-3 1-2 0-3-2-1s-2 0 0-3c2-4 2-5 1-5 0 0-2 0-3 1zm23 20c2 0 2 0 1 2-1 1-2 1-2 0-1-2-4 0-3 2 0 3 6 7 6 5 0 0 1 1 3 1 5 3 7 3 7-2 0-6-3-9-9-9-3 0-4 0-3 1zm-364 6c-1 1-2 6-3 12-1 2-1 3-3 2-2 0-4 3-3 6 0 2 1 2 8 2h9l2-4 3-3c2 1 6-2 6-3s-1-1-1-1c-1 1-2-1-4-4-2-5-3-6-5-7-4-1-8-1-9 0z" fill="#ccc"/></svg>