<svg version="1" xmlns="http://www.w3.org/2000/svg" width="600" height="400" viewBox="0 0 450.000000 300.000000"><path d="M0 150v150h197v-10c0-11 1-15 7-28 2-5 4-7 4-5 1 1 1 0 0-1 0-2 0-2 1-1 0 1 1 1 2 1 1-1 1-4 0-4s-1 0-1-1c1-1-2-10-5-19 0-1 0-1 1-1 3 3 8 24 8 32 0 3 1 6 1 7 1 2 1 3 0 5-2 4-2 7 0 7 4-1 7-32 4-35-1-2-1-5 0-4 1 0 1-5 1-14v-14l1 9c2 26 1 48-3 58-1 2 0 2 9 2 12 0 14 1 16 5 0 1 2 3 4 4 3 1 4 3 3 3l-1 1c0 3 7 3 103 3h98V0H0v150zM256 27c1 0 1 0 1 1h-6c-7 0-8 1-3 3 6 3 21 15 18 15-1 0-2-1-4-3-3-3-12-8-13-7 0 0-1 0-2-1 0-1-1-1-2-1 0 1-1 1-1 0s-2-1-4-1c-3 0-4 0-2 1 6 1 21 12 36 27 2 2 6 5 8 6 4 2 10 7 9 7s-9-5-8-5-4-2-7-3c-3 0-17-10-18-12-1-1-1-1-1 0 0 2 11 11 16 14 2 1 3 1 2 2s0 1 2 2c3 2 10 7 9 7s-4-2-8-3c-5-2-8-4-9-4h-1c-1 0-1-1 0-1 0-1 0-1-1 0-1 0-1 0-1-1 1-1 0-1-1 0-1 0-1 0 0-1s1-1 0-1c-1 1-2 1-2 0 1-1-3-4-4-3-1 0-1 0-2-1-1 0-1 0 0-1 1 0-2-3-6-8-4-4-7-7-8-7-1 1-2 0-4-1s-6-2-8-2c-3-1-5-2-6-2 0-1-2-2-4-3-5 0-5-1 1-2l-1-1c-3-2 1-4 6-4 2 0 4 0 4-1 0-3 13-7 21-6 2 1 4 1 4 1zm-40 25c1 0 1-1 0-1-1-2 5 0 8 3 5 3 6 2 2-1-2-2-4-4-4-5s1 0 2 1l9 6c2 1 7 6 9 9 2 5 18 17 22 16 0-1 1-1 0 0 0 1 1 1 3 1 4 0 8 2 5 2-1 0 4 3 10 5 4 2 1 2-5 1-12-3-11-3-10-2s2 2 3 2 1 0 0 1c-1 0 0 1 2 3 4 2 3 3-3 0-2-1-4-1-5-1-1 1 6 5 13 7 6 2 7 2 6 3-2 1-2 1-1 2s1 1-1 1c-4 0-3 2 2 3 4 1 5 2 4 2l-1 1c0 1 3-1 6-3s8-6 11-8 6-4 7-4c2 0 5 5 4 6-2 1 2 3 4 2 3 0 3 0 3 3s-2 7-3 7-1-1-1-2 0-1-10 4c-13 8-14 5-2-3 4-3 7-7 6-9-1 0-2 1-4 2-1 2-3 3-3 3s-2 1-4 3c-1 1-4 3-5 4s-2 2-2 4c0 3-1 3-4 0s-6-3-14 1c-7 3-21 7-29 8-12 2-41 8-47 10-7 2-11 4-22 9-3 1-5 1-6 2-2 0-3 1-1 1s0 3-2 3c-1 1-2 2-2 3s-1 1-1 1c-1-1-3 0-4 1s-2 2-2 1l-2 2c-2 4-2 21 0 22 0 0 1 1 1 2 0 2 5 7 7 7 1 0 3 1 4 3 4 4 7 2 3-3-3-5-2-13 3-13 2 0 4 3 4 6-1 1-1 2 0 2s1 1 1 2c0 2 0 3 1 4 1 0 1 1 1 2-1 1 0 2 0 2 1 0 1 1 0 2-2 1-2 1-1 2l2 2c0 1 1 2 1 3 1 0 2 2 1 3 0 0 0 1 1 1s2 0 2 1 1 1 1 1c1 0 2 1 2 2l2 2c1 0 2 0 2 1s1 1 3 2c1 1 2 1 2 2-1 1 1 4 3 4 1 0 1 0 0 1 0 0-1 1 0 2 1 2-1 1-24-12s-36-21-38-24c-2-2-6-15-6-19 0-7 9-14 27-22 3-1 6-2 6-3 0 0-3-4-8-9-15-15-16-17-17-26-1-13 0-16 12-19 10-3 29-5 31-4s2 0 3-3 1-6 2-7c0-1 1-5 1-8s1-6 1-7c1 0 1-2 1-4-1-3 0-4 2-1 1 1 2 0 3-3l2-5 1 4c1 7 3 11 4 9 0-1 0-3-1-5-2-3-1-5 2-2 1 1 1 1 0-1 0-1 0-3-1-4 0 0 0-1 1-1l1 1c1 2 3 0 2-3s1-4 3-2c1 2 3 3 3 3zm117 95c1 0 1 2 0 2 0 1 2 5 3 10 4 11 5 11 3 10-1 0-1 2 1 5 2 5 1 5-2 1-3-2-3-2-3 1v3c1 3 1 3-1 2-1-2-2-2-2-1s-1 1-1-1c-4-4-5 2-1 10 0 2 0 2-1 2 0-1-1-1-1 0s-4 1-5-1c0-1 0-1 1-1 1 1 1 1 0-2 0-1-1-3-2-5 0-1 0-1-1 1s-1 1 0-4c0-5 0-6-1-5-1 2-2 10-1 13 1 1 1 2 0 2-2 0-3-3-3-6s0-3-2-3c-3 2-11 3-12 3 0-1 2-2 5-4 3-1 5-3 4-3-1-1 0-2 3-3 5-3 5-3 6-11 0-6 2-13 3-9 0 1 0 4-1 6-2 8 2 4 5-5s5-11 6-7zm-82 18c-1 2-2 3-2 3s-1 1-1 3-1 4-4 6l-3 4h3c2 0 4 0 5-1 3-1 3-1 2 1-1 3-19 2-22-2-1 0-2-1-3-1-4 0 10-10 20-13 6-2 6-2 5 0zm26 13c1 0 1 1 1 2 0 0 0 2 1 3l1 3 2-2c3-2 5-3 3-1v1c1-1 2 0 3 1 1 2 2 2 6 1 5-2 14-1 14 1 0 0 0 1-1 1s-1 0 0-1c0-1 0-1-1-1s-1 0-1 1c0 0-2 1-4 0-3 0-6 0-8 1h-7c-4-1-6 0-5 1 0 1-2 1-7 1-3-1-8-1-9-1-2-1-4-1-6-1-4 0-7-4-6-7s2-3 4-3c2 1 3 0 4-1 1 0 2-1 3-1 0 1 1 0 1 0 0-2 3-4 7-4 1 0 2 0 3 2l2 4zm-46-67c1 1 1 2 0 2-1 1-1 1 0 1s1 0 1 1c-1 0-1 1 0 1 1 1 1 1 1 0s0-1 1-1c1 1 1 11 0 13-2 2-1 2 9 0 13-2 14-3 13-4 0-1 1-1 2 0s2 1 2 0c1-1 0-1 0-1-1 0-2 0-2-1s-2-1-4-2c-2 0-4-1-3-1 0-1-6-4-10-4-2 0-5-2-7-3-3-2-5-3-3-1zm-64 14c0 1 2 2 5 3 2 1 4 3 4 3 0 1 0 1 1 1 0-1 2 1 4 3 6 6 14 7 16 1 2-5 2-6-7-6-4-1-11-2-14-3-8-2-9-2-9-2z" fill="#ccc"/></svg>