<svg version="1" xmlns="http://www.w3.org/2000/svg" width="600" height="400" viewBox="0 0 450.000000 300.000000"><path d="M250 104c0 1-1 1-1 1-3 0-4 0-4 1 1 0 1 1 0 1-1 1-1 1-1 0s-1-1-3-1c-1 1-4 1-6 2-2 0-4 1-3 1 0 1 1 1 3 1 2-1 3-1 3 3 0 3 0 4-1 3-1 0-1-1-1-1 1-1 0-2-2-3s-3 0-6 2c-3 3-4 3-5 1-2-2-2-2 0-2 0 0 1 0 1-1s0-1 1-1 1 0 1 1c-1 1-1 1 0 1 0 0 1-1 2-1 0-1 1-2 2-2 1-1 0-1-3-1s-4 0-5 1c0 1-1 2-2 1-1 0-1 0-1 1 1 1 0 1-1 1s-2 1-3 2c-1 2-1 2-3 0-1-1-1-1-2 0s-2 3-3 4-2 2-1 2h2s1 1 2 1c1 2 4 1 5-1 0-4 3-4 4-2 1 1 1 1 2 0s1-1 3 0c3 2 7 1 7-2 0-1 0-1 2 0 1 2 1 2 0 3 0 0-1 1-1 2s-1 1-1 1c-1-1-2 0-2 1s0 1-1 0-1-1-1 0c-1 1-2 1-3 1 0-1-1-1-1 0-1 0-7 1-14 1-12 0-17 1-14 3 1 0 0 1-2 2-1 2-2 2-3 1 0-1-1-1-4 0-5 0-6-2-3-5 2-1 3-3 0-3-1 0-5 0-8-1-7 0-7 0-7 2 1 2-4 5-5 3-1-1-3 0-2 2 1 3 3 3 5 1 1-1 2-2 4-2 1 0 2 0 1 1-3 1-1 2 4 2 4-1 4-1 2 1s-2 3 1 3c1 0 1-1 1-2-1-1 0-2 3-1h2c1 1 2 1 3 1 0 1 1 1 1 0s1-1 3 0c7 2 10 2 11 0s1-2 2 0c1 1 1 2-1 2 0 1-1 1-1 2s1 1 2 0 2-1 3 0c0 1 1 1 2 0s3-1 4-1c5 0 12 0 13-1 0 0 1-1 2 0 4 0 4 6 0 6-1 0-2-1-2-2s-1-1-3 1-2 2-1 3c2 1 3 1 3 0 0 0 1-1 3-1 3 0 3 1-2 3l-3 2 6-1c4 0 6 0 7 1 0 1 0 1-1 1-1-1-2-1-2 0s1 1 1 1c1 0 0 1-1 2-2 0-3 1-3 2 0 2-16 5-29 5s-34-3-51-8c-8-2-9-2-10-1-1 2-1 3 0 4s1 2 1 3c0 0 0 1 1 1s1 1 1 1c-1 1 0 2 1 2 0 1 1 2 1 2 0 1 0 2 1 2s1 1 1 2l2 2 1 1c0 2 3 4 4 3 0-3 4-1 3 1 0 2 0 2 1 2 1-1 1-1 1 0-1 0-1 1 0 1 0 0 1 1 1 2 1 2 2 3 3 3s1 0 0-1-1-1 2-1c1 0 3 1 2 1 0 1 0 1 1 1 0-1 1-1 1 0s1 1 2 1c3 0 5 2 4 6v3l2-2c2-2 4-1 2 2-2 1-2 2 0 4 1 1 1 2 0 2 0 0-1 0-1 1 0 3-3 4-5 2-4-1-6-1-3 0 1 2 1 2 0 3s-1 1 0 1c1 1 1 1 0 2-1 0-1 1 0 1 0 1 1 1 1 0 1-1 7 0 9 1 0 1 2 1 3 0 1 0 2 0 1 1 0 0-1 1 0 1 2 4-27-4-39-10-10-5-11-5-8-2 1 1 2 3 1 3 0 2-2 1-2 0s-1-2-1-1c-1 0-2-1-2-2-1 0-1-1-2 0h-4c-5 0-3 2 1 2 3 1 4 1 3 3 0 0 0 1 1 1s1 1 0 2c-1 4 3 8 7 5 1-1 1-1 1 0s3 1 3 0c1-1 1-1 2 0 1 0 2 1 4 1 1 1 0 1-2 1-5 0-5 1 0 4l5 2-4-1c-3 0-5-1-6-2 0 0-1-1-1 0l-4-2c-4-1-4-1-7 2-1 1-2 3-1 3 0 0 1 1 0 1 0 1 0 2 1 2 1 1 1 1 1 0s1-1 2-1 2 1 2 1c0 1 0 2 1 3s2 3 2 5c1 3 1 3-1 2-1 0-2 0-2 1 1 1 24 11 32 13 3 1 4 2 4 3 0 2-7 1-19-2-8-3-9-2-2 2 16 12 35 17 66 17h8c0-1 1-1 2-1s2 0 2-1c1-1 4-2 6-1s2 1 1 0c0-2 1-2 4-2 2 0 4-1 5-1 1-1 1-1 2 0 0 1 1 0 6-9 4-10 2-24-4-24-2 0-3-2-1-3 1-1 2-4 3-7 0-3 2-6 3-8 3-3 4-8 4-21 1-10 1-11-2-16-2-5-9-11-17-17l-2-2 5-4c2-3 5-7 6-9 1-3 3-6 4-7 0-2 1-4 1-6 0-5 2-1 2 5 1 4 1 9 2 10 2 3 2 8 1 10-3 3 6 40 12 53 1 2 3 6 4 9 1 5 6 13 10 17 1 1 2 4 3 6 1 5 4 10 7 13 4 3 14 4 15 2 0-1 1 0 2 1s2 1 2 0 0-1 1-1c1 1 2 0 3-1s2-2 3-1 1 1 3-1c1-2 1-2 3 0 1 1 1 1 2 0s1-1 1 0 1 1 1 1c1-1 2 0 3 0 1 2 3-2 4-8 0-4-2-13-5-15-1-1-1-3 3-4 2-1 3-3 1-3-1 0-2-1-2-2s-2-4-4-4c-1 0-1-1 0-3 2-1 2-1 2 1 1 1 1 1 1-1 0-1-1-2-1-2-1 0-2-1-2-2-1-4-3 0-3 7-1 3-1 6-2 6-2 0-1 2 1 2 1 0 1 4 0 6-2 1-3 1-2 0 0-1 0-2-1-3 0-1-1-2-1-2v-2s-1 0-1 1c-2 2-3 1-3-2 1-1 0-2-1-2s-2-1-2-2c-1-1-1-3-2-4 0-2 0-2 1-2 0 1 1 1 1 0l-1-1c-1-1-3-6-5-15-1-8-2-10-5-11-2-1-3-2-3-3 0-2 0-2-1 0s-1 3 0 5c0 2 1 4 1 4 0 1 0 3 1 5 1 3 2 5 2 5 0 1 1 3 2 4 1 2 2 5 2 8 1 3 1 7 2 8 0 2 1 3 0 3l1 1c1 1 1 1 0 1s-1 1-1 3c1 3-2 4-2 1-1-2-2-3-3-3 0 0-1 0-1-1s0-1 1-1 1-1 1-2c0 0 0-1-1-1s-2-5-2-7c0 0-1-1-2-1-2-1-3-3-1-3 1 0 1 0 0-1 0-1-1-1-1-1-2 2-2-1 0-3 1-3 1-3-1-4-1-1-2-1-2-1-1 0 0 11 1 12 1 0 1 1 0 3 0 1 0 2 1 2 2 0 2 1 2 3 0 3 0 4 1 4s0 1-1 2c-1 2-4 2-2 0 0-1 0-1-1-1s-1 1-1 4 0 4-1 4c-3 0-7-2-8-4 0-1-1-2-1-2-2 0-3-4-2-5s1-1 1-2c-1 0-1 0-2 1 0 1-1 0-2-3l-2-4c-1 0-1-1-1-2 0-2-3-9-6-15-1-2-2-6-2-8s-1-7-2-12-2-10-2-12-1-4-1-5c0 0-1-2-1-4 0-1 0-4-1-6-1-1-1-4-1-6-1-2-1-8-2-14-1-5-2-11-2-13 0-5-2-4-3 1 0 5-2 5-4 1-1-2 0-6 1-8 1-1 1-8 0-8s-1 0-1 1zm-23 103c0-1 2 0 3 1 1 2 1 2-1 2-1-1-2-1-2 0s-6 3-14 3c-5 1-7 1-5 0 1 0 3-2 3-4 1-1 2-2 2-1 0 2 2 1 4-1 2-1 2-1 3 0s1 1 1 0c1-1 2-1 2 0 1 0 1 0 1-1s0-1 1 0c0 1 1 1 2 1zm-73-100c2 1 2 1 0 2-4 3-3 3 4 2 1 0 1-1 0-1-1-1-1-2 1-2 4-1 7-1 7 0s1 1 2 1c0 0 1 0 1 1s-1 1-2 1c-2-1-3-1-2 1 0 1 1 2 3 2s4 1 4 2 0 1-1 0c-4-1-3 2 1 3 3 2 3 2 4 1 1-2 5-3 5-1s4 2 5 0c1-1 3-2 4-2 1 1 2 0 2-1 0 0-1-1-2-1-1-1 0-1 3-1 2 0 4 1 6 1 1 1 2 1 3 0 0-1 1-1 2 0 0 2 1 2 2 1 0-1 0-2-1-2-1-1-1-1 0-1 1-1 1-1 2-1 1 1 1 1 1 0s2-1 4-1c8 0 4-1-6-1-17-1-28-2-33-3-6-1-21-1-19 0zm152 29c1 1 1 3 0 4-1 2-1 2 1 2s3 0 2 1c-1 5-1 5-2 4 0-1-1-1-2 0-1 0-1 1 0 2 1 0 2 1 2 2s1 5 4 9c0 2 1 4 0 4-1 1 0 7 2 7 1-1 3 3 2 4-1 3-1 10 1 10 1 1 1 1 0 3-2 2 0 6 2 4s3-1 3 4c0 4-1 6-1 6-1 0-1 0 0 1 1 0 1 1 0 1-1 1 1 6 3 6 1 0 1-1 1-2-1 0 0-1 1-1s2-2 0-2c-1-1 0-2 1-3 1-3 0-6-2-6 0 1-1 1-1 0s1-1 2-1 1 0 0-3c-1-2-2-3-2-3-1 0-2-1-2-1 0-1 0-3-1-3 0-2 0-2 1-1 1 0 2 0 2-1s-1-1-2-2c-1 0-1-1 0-2s1-1 0-1c-1 1-2 0-2 0 0-1 1-2 1-2 2-1 1-6-2-6 0 0-1-1 0-2 0-1 0-3-1-4s-1-1 0-2c1 0 1-2 1-2-1-1-1-2 0-2s1-1 1-2-2-1-2 0c-1 1-1 1-1-1 0-1 0-3-1-4 0-1 0-1 1-1 1 1 1 0 0-4 0-1-1-2-1-1 0 0 0 1-1 1s-1-1-1-3c1-4 0-7-2-7-1 0-2 0-2-1-2-2-4-1-3 1zm-14 14c0 5 0 5-3 2-1-2-2-2-3-1s-2 1-3 1c0-1-1 0-1 1-1 1 0 1 2 1 3 0 4 1 1 3-2 2-3 3 0 5 1 1 2 3 0 3 0-1-1 0-1 2 0 1 1 2 1 2 1 0 1 1 0 1 0 1 0 1 1 1 1-1 2 1 1 3 0 1 1 1 2 1 0 0 1-1 1-2 0 0 1-1 1-2 1 0 1-1 0-2-2-2-5-10-4-10s1-1 1-2c0 0 1-1 3-1s3 1 2 4c0 1 0 1 1 0 1 0 1 1 0 2 0 2 0 4 1 4 1 1 1 3 1 5s1 3 2 4c0 0 1 1 0 2 0 2 0 2 1 0 2-2 2-7 0-8-1 0-1-3-2-5 0-3-1-5-1-6 0 0-1-3-1-6-1-7-3-8-3-2z" fill="#ccc"/></svg>