<svg version="1" xmlns="http://www.w3.org/2000/svg" width="600" height="400" viewBox="0 0 450.000000 300.000000"><path d="M53 1c0 1 9 11 19 22 11 12 19 21 19 22-2 1-25 5-25 4-1-1-2-1-3-2-1 0-2 1-2 1 1 0 0 1-1 2s-2 2-1 2 0 2-2 3c-3 1-5 2-7 1-3-1-3-1-3 0 1 0 0 1-1 2s-1 1 0 1 2 0 3-1c0-1 1-1 1 0 1 1 1 1 0 1l-2 4c-1 1-2 3-2 2-1 0-1 1 0 2 0 2-4-3-29-30C8 27 0 20 0 20c0 1 2 3 5 6 2 3 12 14 22 24 11 13 17 20 16 21 0 1-1 1-2 0s-1 0 1 5c0 0 0 1-1 1s-1 0-1-1-1-1-1 0c-1 0-2 1-1 1 0 1-1 1-3 0-1-1-3-2-3-1 0 0-1-1-1-2-1 0-2-1-2-1-1 1-2 0-2 0-1-1-1 0-1 1 1 3-1 3-2 0-1-1-1-2 1-2 1-1 1-1-1-1-1 0-2 0-2 1 0 0 0 2-1 3 0 1 0 1 1 1 0-1 2 0 3 1 2 2 3 4 1 2-1 0-1 0-1 2 1 1 1 3 0 4s-1 1-2-1c0-2-1-2-2-1-2 1-2 1-3 0 0-1-1-2-2-1h-3c-1 0-1 0-1 1s0 1 1 0c1 0 1 1 1 1 0 1 0 2-1 2 0 0-3-3-3-4l-2-2c-2-2-3 0-1 2 2 1 2 2 1 4-1 1-1 1-1-2 0-1-1-2-2-2s-2 0-3-1c-2-1-2-1-2 0s1 2 1 3c2 1 3 3 1 2-1 0-1 1-1 1 0 1 0 2 1 2 1 1 1 0 1 0 0-1 0-2 1-2s5 4 4 5v1c1 0 1-1 2-1 1-2 1-2 0-2-2 0-2-1-1-3 2-1 2-1 2 1 0 1 0 2 1 3 1 0 1-1 1-2s0-1 1-2c0 0 1 2 0 6 0 1-1 1-1 1-3 0-4 0-3 1 0 1 1 1 1 0 2-1 2 2 0 3l-2 2c0 1 1 1 1 0 2-1 3-1 2 0 0 1 0 1 2 1 2-1 6 2 6 4 0 1-4 1-4 0 0 0-1 0-2 1-2 1-2 1-1 2l1 1c0 1 1 3 3 4 1 2 2 3 2 3 0 1-5-3-10-8-5-6-9-9-9-9 0 1 1 2 1 3 1 1 1 1 0 1-1-1-1 7-1 38v39l12 12c6 7 11 13 10 13 0 1 0 1 1 0 1 0 1 0 0 1 0 1 0 1 1 1 1-1 1-1 0 0 0 1 0 1 1 1 1-1 1-1 1 0-1 1 0 1 0 1 0-1 2 1 5 4s5 5 4 5c-1 1-1 1 0 1 1 1 1 1 1 0s5 3 10 9c6 6 11 11 10 11 0 1 0 1 1 1s14 14 31 30l29 30h35l11-11c6-6 10-11 9-11s-4-2-7-5c-2-3-11-12-18-20-8-8-14-15-13-15s2 0 2-1c1-1 0-1-2 0-2 0-3 0-5-2-3-3-4-4-3-1 0 1 0 1-1 0-1 0-2-1-2-2 0-2 0-2-1-1-2 1-2 1-2-1v-5c-1-1-1-2 0-1 0 0 1 1 2 1s1 0 0-2c-1 0-3-1-3-1-3 1-4 0-3-3 1-1 2-2 3-2 2 0 2 0 1-1-2 0-2-1-2-2 1-1 1-2-1-1-1 0-2 0-2-1s2-2 2-1c1 1 1 1 1 0 0 0 0-1 1-1s1 0 1 1c-2 2 2 1 4-1l2-3v3c0 1 0 2 1 2 1-1 0-4-1-5-2-1 0-2 3-3 3 0 3 0 2 2 0 1 0 2 1 2 0 0 1-1 2-3 0-2 0-3 2-2 1 1 2 0 3-1s3-1 5 0h6c8-3 3 3-5 6l-4 2 4-1c6-1 11-1 12 1 4 4 8 3 15-5 8-8 12-10 17-9 4 0 8 2 5 2-2 0-2 0-1 1 3 2 5 11 5 17 0 3 0 5 1 5 2 1-3 6-8 8-4 2-5 3-3 3 2 1 2 1-1 2-2 0-3 1-2 2 0 1 2 0 5-1 4-1 6-1 7 0 2 1 2 1 2 0-1-2 0-2 2-3 1-1 3-2 3-2 0-1 1-1 1 0 1 1 2 1 2 0 1 0 1-1 0-1 0-1-1-1-1 0-1 0-1 0-1-1 0 0 1-1 2-1 2-1 3-4 1-4-1 0-1 0-1 1 1 0 1 1 0 1 0 1-1 0-2-1 0-2 0-2-2-1-1 2-3 1-1-1 1-1 2-5 3-12 1-2 1-3 0-2-1 0-1 0-1-1 1-1 0-2 0-2-1-1-1-1 0-2 1-2 1-3 0-3-2 1-1-1 1-2 1-1 1-1 1 0s1 1 2 0c3-2 2-2-2-4-2-1-3-2-3-3 1-1 1-2 1-2 0-1 0-1 1 0s1 1 1 0-1-2-1-2c-1-1 0-1 1-1 1 1 2 1 1 0-1 0-1-1 0-2s1-1 0-1c0 0-1-1-1-2l-1-1c-1 0-2 1-1 3 0 3 0 3-2 3-1 0-1 0-1 1 0 0-1 1-2 1s-1-1 1-4c4-8 2-17-5-24-2-2-4-4-3-4 0 0 1-1 1-2s0-2 1-2 1 0 1 1c0 2 0 3 2 3 1 0 1 0 0-1 0 0-1-1 0-2 0-1-1-2-2-3s-1-1-2 0c0 1-1 1-2-1-2-2-3-4 0-2 1 1 1 1 1-1 0-1 1-1 1-2 1 0 3 0 4-1h2c1 0 1 0 1-1s1-1 2-1c0 1 1 1 1 0 0 0 3-3 7-5 7-4 11-8 13-12 1-3 1-3 3-1 1 1 11 12 22 24s21 24 23 26c2 3 4 4 5 4 0-1-4-5-9-11-9-10-35-40-40-46-2-2-3-4-3-6 0-5-4-10-11-14-8-4-21-18-15-15 0 0 1 0 1-1 0 0 1-1 2 0 1 0 1 0 1-1-1 0-1-1 0-1 1-1 1-1 1 0s0 1 1 1 1-1 0-1c0-1 2-3 4-4l5-5c1-1 1-1 4 1 4 4 4 3 1-1-3-2-3-3-2-6s1-5 1-7c-1-1-1-2-1-2 1 0 13 14 27 30l27 31 3-3c1-1 3-3 2-3 0-1 2-3 4-5 3-2 4-4 4-5-1-1-2-1-2 0-1 0-1-1 0-2 0-2 0-3-2-3-2-1-2-1 0-1s3 0 3-1c1-1-4-2-5-1s-2 0-3-3c-2-4-2-4 0-4 1 0 2 0 3-1 0-1 1-1 3 0s6 0 6-3c0-2 1-2 2-1 2 2 2 2 1 3-1 2-1 2 0 3s2 1 5-2c4-4 5-7 2-6s-2 0 1-2c2-1 3-1 6 1s3 2 1 3-2 10 0 13c2 2 5 1 5-1-1-1 0-2 6-1 7 0 9 2 10 8 0 2 1 4 3 4 2 2 3 4 1 4-1 0-2-1-3-2s-5-2-5 0c0 1-1 2-2 2 0 1-1 4-2 6 0 6 0 6-3 3-3-1-7-1-15 4-4 2-4 2-4 6 0 5-1 6-4 5s-3-1-2-4v-4c0-1-1-2-2-2s-2-1-2-1c0-1-2-3-3-3s-1 1-1 1c0 1-1 3-2 4-2 1-2 2 2 6 10 12 10 12 11 10 1-1 2-2 3-1 1 0 1 3 0 5-1 1 0 2 4 6 3 4 6 6 6 5 1-1 1-1 3 0s4-1 7-6c1-1 2-2 5-3 2 0 3-1 4-2 1-2-1-2-3 0-2 1-2 1-3 0-2-2-5-1-7 2s-3 4-6 4c-4 1-5 0-5-5 0-3 1-3 4-5 2 0 4-1 4-2 0-2 3-3 3-1 0 1 1 1 2 0 3-2 5-7 4-10 0-3 0-3 2-3 1 0 2 0 1-1 0-1 1-2 4-2s5 1 5 1c0 1-3 3-5 2-2 0-3 1-1 2 0 1 1 3 0 5 0 4 0 4 4 8 4 3 5 6 3 6-3 0-3 2-1 4 3 3 5 8 4 8 0 1-1 0-2-1s-2-1-3 1c-2 1-2 1-2 0 1-1 0-3 0-4-2-2-9 1-9 5 0 1-1 2-1 2-1 0-1 1-1 3 1 3 1 3-1 2-1 0-3-1-3-1 0-2-3-1-3 0s-1 2-2 2c-2 0-3 0-2 3 0 1 0 3-1 3-1 1-1 0-1-1s0-2-1-3c-1 0-1-1 0-1 2-3-3 0-12 9-6 6-10 11-9 11 0 0 1 1 1 2s1 2 2 3c2 3 1 5-2 6-2 0-3 1-3 2 0 2-3 4-6 4-2 0-2-1-2-4 0-4 0-4-2-3-1 0-24 24-52 51l-50 51h284v-4c-1-2-2-5-4-7-2-3-3-5-1-5 1 0 2-1 3-2 0-1 1-2 1-1 2 0 1-28 0-30-1-1-1-1 0-2 1 0 1-6 1-20 0-18-1-19-3-22-4-5-12-3-12 4 0 2 1 3 5 5 5 3 5 5 0 4-2 0-3 0-3 1 0 3-10 7-13 5-1-1-4-1-6-1-3 2-2 3 0 3 4 1 4 4-1 7-4 2-4 2-4-1-1-1-1-1-2-1s-1-1-1-2c2-4 2-6 1-5-1 0-2 1-2 2-1 2-4 0-3-2 0-1 0-2-1-2 0-1-1 0-1 2-1 1-2 2-3 2-2 0-3-1-1-3 2-1-1-2-3-1-1 1-1 1-1 0s1-2 1-2c1 0 2-1 2-1 1-1 1-1 2 0 3 2 3 1 2-2v-3c0-1 0-2-1-2-1-1 0-2 1-3 2-3 1-5-1-7l-2-2v2c0 1 0 2-1 2-1-1-1-5 1-6 1-1 1-4 1-4-2 0-6 3-7 4 0 1-1 2-2 2s-2-4 0-5c1 0 1-1 0-2 0-1 0-2 2-3 1 0 1-1 1-2-1-1 0-3 1-5s1-2-2-2c-5 0-8 3-5 4 2 1 3 3 1 3 0 0-1 1-3 1-1 2-1 2 0 4 2 3 2 3 0 5l-2 2v-2c0-2-1-3-2-4 0 0-1-1-1-2 1-3-5-4-6-2-1 1-3 2-5 3-3 0-4 1-2 2 3 2 3 12 1 13s-3 7-1 9c1 0 1 1 1 2-1 1-1 2 0 3 1 0 1 2 1 2-1 1 0 2 0 2 2 0 3-4 2-5-1 0-1-2 0-2s4 6 3 7c0 1-1 1-2 1 0 0-1 0-1 1 0 2-3 1-5-1-2-1-2-1-3 0-2 1-2 1-3-1-1-1-2-2-3-2-2 0-4-1-4-2s1-1 2-1c2 0 3-1 3-1 1-1 2-2 3-2l3-1-3-3c-2-2-4-4-4-5 0-2-3-1-5 1-1 2-2 3-2 4 1 1 0 1-2 1s-2 0-2 1-2 2-6 2-6 0-6-1 1-1 4-1c5 1 7-2 5-6-1-2-1-3 0-4 2-1 3-3 1-3 0 0-1-1-1-2-1-2-3-3-7-2-3 0-4-3-1-5 1-2 1-2-1-3-4-4-10 1-6 5 2 1 2 2 1 3s-1 2-1 3c2 3-3 11-9 16-5 5-9 12-7 13 1 2 1 4 0 4-4 0-7-5-8-10 0-6 0-6-3-5-2 2-2 7 1 8 2 1 1 3-1 6-4 3-6 3-6-1v-4l-1 3c-1 3-1 4-1 6 1 1 1 3 0 6s-1 5 1 5c1-1 3 0 4 0 2 1 5 1 7 0 5-2 7 0 4 2-1 1-2 2-1 3s1 1 4-1c2-2 4-2 5-2 2 1 3 1 3-1s2 0 4 4l2 3-3-1c-3 0-3 0-3 2 0 1 0 2-1 1-1 0-2-1-2-2v-2c-1 0-1 1-1 2 0 2 0 2-1 1s-2 0-4 2c-1 1-3 2-5 2-1 0-3 1-4 2-1 2-4 2-3 1l-2-4c-1-1-3-4-4-5 0-1-2-1-8-2-4 0-7 0-8-1-1 0-1 0-1 2 1 3 0 3-2 3-3 1-4 7 0 8l2 2c0 1-2 1-4 0-3-2-8 1-10 5-1 2-3 3-5 4-2 0-4 2-5 2-2 3-18 3-18 2 0-2 3-3 7-3s5-4 2-8c-2-3-2-3-1-4 2-2 2-3-2-3-1 0-2 0-2-1-1-2-6-1-6 0s-1 2-1 2c-1 0-2 1-2 3-1 2-2 3-3 3-3 1-3 0-2-2 1-1 1-2 0-3-1-2 1-4 5-4 1 0 2 0 2-1s-2-2-4-2-2-1-2-2c0-2-1-3-2-4s-1-2 1-3c1-1 1-1-1-2-3-1-2-2 3-5 4-2 5-2 6-1 0 1 2 1 4-1 2-1 2-1 3 0 2 1 3 1 3-1 0 0 0-1-1-1s-1-1-1-1c1-1 2-2 5-2 4 0 4 0 4-2 0-1 1-2 1-2 1 1 3 1 4 1 3 1 3 1 2 4 0 2 0 2 3 1 1 0 3-1 3-1 0-1 1-2 2-3 2-2 2-2 0-4-2-1-3-4-1-5 0-1 1 0 1 1 2 3 4-4 4-9-1-4-1-4-4-4h-4c-1 0-2-2-2-4 0-3 0-3 4-2 2 0 4 1 5 2s1 1 2 0c0-1 2-1 2-1 2 1 2 3 1 4-1 0-1 1-1 1 0 1 1 1 2 0 0-1 1-2 1-3s1-1 2-1c2 1 3 1 4-1 0-1 1-1 1 0 1 1 1 2 0 3s-1 1 1 1 3 0 3 1-1 1-3 1c-4 0-4 4 0 7l2 4c0 2 4 3 6 1 0 0 1-1 2-1 0 0 2-2 3-4 3-3 3-4 2-5 0-2-1-4-2-7 0-2-1-4-2-5-2-2-1-4 1-2s3 1 3-2c-1-3-1-4 2-4 1-1 3-1 3 0 1 1 2 0 4-2s3-4 3-4c-2-1-1-4 1-4 1 0 1 1 1 2 0 2 3 11 5 12 1 1 1 1 1 0 0 0 1-1 2-1s1 0 0-1c-1 0-1-2 1-4 0-1 2-5 2-8 1-8 1-7 4-6 2 1 3 2 3 3 0 2 0 3 7 3 8 0 8 0 11-4 1-1 3-3 3-2 2 0 1-2 0-3l-2-2c0-1-1-3-3-4-2-3-2-7 0-6 1 1 3 0 4-2 3-4 4-6 2-6-1-1-2-2-2-4s0-2 1 0c1 1 1 2 2 2s1-2 0-3c-3-2-2-3 1-1 2 0 3 1 4 1 2-2 2 3 0 5-2 1-3 2-3 2 0 1 6 3 7 2 2-1 7 1 8 4 0 1 1 2 2 2 0-1 1 0 2 1 2 1 2 2 0 4-2 5-1 7 3 11s5 4 5 0c0-2 0-2 2-2 1 0 1-1 1-2-1-4 10-7 13-4 2 2 1-2-1-5-2-2-2-2-1-3 1 0 2-1 2-1 0-2 6-4 10-4 3 0 4-1 2-3-2 0-1-3 1-3 0 0 1 0 1-1 0 0 2-3 4-5l4-4 2 3c2 3 4 3 4 0 0-2 1-2 2-2 2 0 2 1 2 4 0 2 1 3 2 3 4 1 4 1 4-1 0-1 1-1 5 1 3 1 4 2 4 4 0 1 0 2 1 2s1-1 0-1c0-1 1-2 1-3 3-2 3-22 0-22-1 0-2-1-3-7-2-3 1-3 3 1l1 3 1-2c0-3 0-4-2-5-1-1-2-2-1-5 1-2 0-4-1-6-2-4-1-5 1-4l3 2V64l-2-1c-2 0-4-1-5-2-1-2-1-2 0-4 3-1 5-1 6 1 1 1 1-8 1-28V0h-32c-27 0-31 0-30 2 1 0 1 1 1 2-1 0-1-1-2-2-1-2-2-2-14-2s-13 0-11 3c3 2 0 9-3 9-1 0-2 0-1-1 0-1-1-2-1-4-2-2-2-4-1-4 2-3 0-3-17-3h-17l-2 3c-2 3-2 3-3 2s-1-1 0-2c2-2 1-3-1-3-1 0-2 1-2 2 0 2-1 3-1 3-3 1-12 0-15-2-2-1-2-1-5 0-2 2-3 2-4 0-1-1-1-1 1-1s3 0 4-1c0-1-9-1-26-1-20 0-26 0-26 1s0 4-1 6c0 4 0 5 3 7 1 1 3 2 4 1 3-1 4 0 5 1 0 2 0 2-4 2l-4-1v5c1 4-1 8-4 8l-1 1c0 1 1 2 1 2 2 0 3 5 1 6 0 1-1 2-1 3s-1 2-2 2-1 0 0-1c2-2 1-10-1-10-1 0-2 2-2 4 0 3-4 7-7 5-1-1-2-1-4-1-1 0-3-1-4-2l-2-3 3-2c2-2 3-3 2-5 0-1 0-2 2-3 2 0 3-1 3-2 1-1-1-7-3-8-2-2-1-5 3-10l3-6h-65c0 1 4 6 9 12 16 17 27 30 27 31-1 0-3-1-6-2-2-1-6-2-8-3s-7-6-14-14C156 3 153-1 153 0c-1 1 27 33 29 35 1 0 1 1 1 1 0 1 0 1-1 1-2-2-16-4-25-4h-8l-15-17C122 2 118-1 118 0s6 8 14 17l14 15-7 2c-3 0-8 1-11 2s-8 2-16 2c-1 0-2 1-2 1 0 1-1 1-2 1-2 0-2 0-1-1 1 0 1-1 1-2-1-1-3 1-3 3s-5 1-5-1c-1-2-1-3 0-3 1 1 1 0 1-1s0-1-1-1c0 1-1 0-2-1-2-1-2-1-1 2 0 2 1 4 2 5 1 2 1 2-1 2-1 0-2-1-2-2-1 0-2-1-2-1-1 0-2 0-2-1 0-2 0-3-2-3-1 0-1 0 0 2 3 5 1 3-4-2-2-2-7-8-11-12S64 12 61 8c-6-7-11-11-8-7zm255 11c1 0 2 1 2 1 1 0 2 1 2 2s-1 2-2 2c-3 0-2 3 1 4 1 1 3 2 4 2 2 3 7 3 8 2s2-2 3-1c3 0 4-4 1-6s-2-4 2-2c3 2 4 1 2-2-2-4 4-7 6-3 2 2 2 3 0 3-1 0-1 1 0 3v6c0 4 2 7 8 8 3 0 5 1 6 1 0 1 1 1 1 0 1-1 1-1 2 0s0 7-1 7c-2 0-4 6-3 9 0 2-1 3-2 3l-1-1c0-4-4-6-9-5-7 1-9 0-8-3 0-2 1-3 2-3 1-1 1-2 0-4-2-2-2-2 1-5 1-1 2-2 1-2s-2 0-3 1c0 1-1 1-3 0-3-1-3-1-5 0-2 3-4 2-5 0s-2-2-4-2c-3 1-4 0-7-3-4-3-4-4-4-8 1-3 1-5 1-6 1-1 4 0 4 2zM188 41c8 3 19 8 18 9 0 0-5-1-10-3-7-3-9-3-13-3-10 2-23 2-23 1s1-1 2 0c2 0 2 0 1-2-1-4-1-4 1-4 4-1 17 0 24 2zm76 1c0 2 2 4 4 4 1 0 1 0 2 1 0 1-3 2-8 2-4 0-4 0-3 1l2 2c2 0 5 3 5 5 0 1-1 1-3 1-2-1-4-1-6 2-2 1-5 2-5 2-2-1-3-3-1-3 1 0 1-1 1-3 0-3 0-3-5-3-4 0-9-2-8-4 1 0 3 0 5 1 3 1 4 1 5 0 1 0 3-1 4-1 2 0 2-1 2-3s1-3 2-3c3 0 4 0 4-2 0 0 1-1 2-1 0 0 1 1 1 2zm-31 8c0 3 0 3 2 3 2-1 3-1 3 1 1 2 1 3 0 3-3-1-3 1-1 2 1 1 1 6 0 7-1 0-1 1-1 1 1 1 0 3-2 4-2 2-2 2-2-6 0-3 0-6 1-6 1-1 1-1 0-3-2-2-4-8-3-9 1-2 3 0 3 3zm59 5c2 2 3 7 1 12 0 1 0 2 1 2 0 0 1-1 1-2s0-1 1 0c0 0 1 1 2 0 0 0 1 0 1 1s1 2 2 2 2 0 2 3 0 3-3 3c-2-1-4 0-4 0 0 1 0 1-1 1s-1-1-1-1c0-3 0-4-2-4-1-1-2-1-2-2 1-1 0-2 0-4-2-3-2-4-1-5s1-2 0-3c-1-4 0-5 3-3zm50 41c2 1 3 3 3 3 0 1-5 1-5 0-2-2-3-1-3 4s0 6-2 4c-1-1-3-1-3-1-1 1-2 0-2-1 0 0 0-1-1-1s-1-1 0-2c0-2 0-3-1-3-1-1-1-5 0-5h3c0-1 1-1 2-1s1-1 0-2v-2l3 1 6 6zm88-3c1-1 2-1 4 0h5c4-2 7-1 5 2-1 1-2 2-2 3 0 3-2 3-4 2-2-3-4-2-4 0s0 3-1 3-1-1-1-2-1-3-3-4-3-3-3-4 0-1 1 0 2 1 3 0zm-58 12c2 2 2 9 0 12-1 1-1 2 0 3 2 4 0 4-4 1l-3-3 1-4c1-4 2-5 3-5 1 1 1 0 0-2 0-3 1-4 3-2zm-22 12c1 1 1 2 0 3s-1 1 1 2c3 2 5 1 3 0-1-1-2-2-1-2 0-1 1 0 2 1 1 0 2 1 4 1 4 0 2 2-4 5s-7 3-7 0c0-2 0-2-3-2-4 1-6-1-3-3 2-2 3-3 3-4 0-3 4-4 5-1zm35-1s2 1 3 1c5 1 5 4 1 5-5 1-5 9 0 9s9 6 5 7c-3 2-6 1-6-1 0-3-1-2-4 0-3 3-5 7-3 7 1 0 1 0 1 1s-1 1-1 0c-1 0-2 0-2 1s-1 1-3 0c-2-2-2-5 1-5 0 0 1-1 1-3s1-3 3-5c2-1 2-2 1-4 0-1-1-1-1 0s-6 1-7 0v-3c1-1 1-1 3 0 4 3 4 2 3 0-3-4-3-7-1-9s4-3 6-1zm-31 18c2 3 1 6-2 7-5 2-6 3-5 4 0 1-1 2-2 3-1 0-2 1-2 2 0 2 0 3-3 3-2 1-3 2-3 3s0 1-1 0c-1-2 0-5 3-6 1-1 2-2 2-5v-6c0-2 1-2 3-2s3-1 3-3c0-3 4-4 7 0zm60-1c2 1 2 3 0 7 0 2-1 4 0 4 0 1-2 3-4 3s-2-1-2-4-1-5-1-6c-3-2-2-4 0-4 3-1 5-1 7 0zm-252 26c-3 1-5 2-5 3 1 0 3-1 5-2 5-3 20-4 26-2 3 1 7 11 9 21 0 2 1 4 1 4 1 0 0 1-1 3-4 5-14 7-23 2-3-1-5-2-5-3 1 0 2 0 3 1 4 2 3 0-2-3-5-4-9-4-12-1 0 2-2 3-4 4s-3 2-3 2c2 6 2 6-2 7-3 0-5 1-5 1l-1 1c-1 0-2-1-2-1 0-1-1 0-3 0-2 1-4 1-4 1s0-1 1-2c0-1 0-1-2 0-1 1-3 1-4 1-1-1-3-1-3-1-1 0-1-1 0-2 0-1 0-2-1-2-2 0-1-2 1-2 2-1 1-1-1-1-8 0-9 0-7-1 1-1 1-1-1-1s-2 0-1-1c2 0 2-2 0-5-1-1-1-1 0-2s1-1 1-2c-1 0 0-1 1-2s1-1 0-2c-3-1 0-3 3-2 2 0 2 0 1-1 0-2 6-6 8-5 1 0 2 0 3-1 0-1 3-1 5-2 2 0 5 0 7-1s6-2 9-2c4 0 7 0 8-1s2-1 4-1c1 0-1 1-4 3zm-88 5s0 1 1 1c2 0 2 0 1 1s-2 1-2 1c-1-1-1-1-2 0 0 0-1 1-1 0-2-1 0 3 2 5 3 3 5 3 4 0 0-2 0-2 2-2s2 0 1 1-1 1 0 1c1 1 1 2 0 2-2 2 2 9 4 9 1 0 0-1 0-2-1-1-2-2-1-2l2-2c0-2 2-3 2-1s0 3 1 3c2-1 3 2 2 3 0 0 0 1 1 1 1 1 1 1 1 0 0 0 1-1 2 0 0 0 1 1 0 2 0 2 0 2 1 1 2 0 2 0 1 1 0 1 1 3 2 4 2 2 3 6 1 6-1 0-1 1-1 2s0 1-2-1c-2-1-2-2-1-2 1-1 1-1 0-1-1 1-6-3-15-13-13-14-14-15-12-15s5-3 4-4c0-1 0-1 1-1s2 1 1 2zm240 109c2 3 3 4 0 6 0 1-2 2-2 4-2 4-9 2-9-3 0-1 6-9 7-9s2 1 4 2zm-152 14c-4 4-8 8-8 7 0 0 0-1 1-1 1-2 1-2-1-2-1-1-2-1-2-2 0 0-1-2-2-3-2-2-3-3-3-4 1 0 1 0 2 1s5 2 5 1-2-2-3-2c-2-1-2-3 0-4 1-1 2-1 1 0 0 1 1 2 2 3 2 2 3 1 1-1-2-1 2-1 5 1 4 2 5 2 4 0 0-2 0-2 1-2 2 2 1-1-1-3s-3-3-2-3c0-1 2 1 4 3l4 3-8 8zm61-10c3 6 2 9-2 9-1 0-2 1-3 1-1 1-3 2-4 2-5 0-8-6-3-7 2 0 3-2 1-2 0 0-1-2-1-3 0-4 0-4 7-5 2 0 3 1 5 5zm148 4c1 3 1 4-1 6s-1 4 1 2c1-1 2-1 3 0 1 2 1 5-1 5-1 0-3 1-4 2-3 2-6 3-6 0 0-1 0-1-1 1s-1 2-3 0c-3-2-4-4-4-5 1 0 2 0 3 1 2 3 3 2 2 0s-1-3 1-4c2-2 3-3 3-1 0 1 0 2 1 2s1-3 1-6 0-6 1-6c1-2 3-1 4 3zm78-118c-1 3-1 3-6 3-2 0-5 0-6-1s-2-1-2 1l-1 2-2-2c-1-1-2-3-3-4 0-1-1-1-2-1 0 1 0 2 1 3 1 2 1 2 0 3-2 1-2 1 0 3 1 2 1 2 3 0 1-2 2-2 2-1s1 1 2 1c2-1 3 1 3 4 0 1-1 2-1 2-3 0-2 3 0 6 3 4 3 4-3 7-2 1-4 2-4 3 2 1 8 1 10 0 0-1 1-1 2 0 2 3 8 3 8 0l-1-1c-1 0-2-1-2-2-1 0-2-1-3-1s-2-1-2-2 1-2 2-2 1-5-1-6-1-4 2-5c3-2 4-1 4 7v7c1 0 1-6 1-13 0-14 0-16-1-11zM0 279v21h43l-13-13c-8-7-13-13-13-13h-1c-1 0-1 0 0-1 0-1 0-1-1-1s-1 0-1-2c0-1 0-1-1 0 0 1-2 0-6-4-3-3-5-6-6-7-1 0-1 7-1 20z" fill="#ccc"/></svg>