<svg version="1" xmlns="http://www.w3.org/2000/svg" width="600" height="400" viewBox="0 0 450.000000 300.000000"><path d="M0 150v150h450V0H0v150zm356-88c0 1 1 2 2 3 2 0 3 1 2 1l1 1c1 1 1 1 1 2-1 0-2 0-2-1-1-1-1-1-2 0s0 3 1 3c1-1 2 0 3 0 1 1 1 1 0 1s-1 0 0 1c2 1 4 1 3-1 0 0 0-1 1-1s2 0 2 1 1 1 2 1l1 1c0 1 1 2 2 2 2 0 2 0 0-3-1-1-1-1 1-1 2 1 3 1 3 0 1-1 3-1 3 0 0 0-1 1-2 1l-2 2c0 1 1 1 2 0 1 0 2 0 2 1 0 0 1 2 2 3s2 2 2 3c-1 0-2-1-4-2-2-3-2-3-2-1 0 1 1 2 1 2 1 0 1 1 0 2s-1 1 1 1c2-1 3 0 1 2-1 1-1 1 2 0 1 0 3 0 3-1 1 0 1-5 0-5-1-1 0-1 1-1 2 0 3 1 4 2 2 3 2 3 1 3s-2 1-3 1c0 1 0 1 1 1 1-1 2 0 2 1s-1 2-1 1c-1 0-1 0-1 1s1 1 2 1c0 0 1 0 1 1s0 1 1 0c1 0 1 1 1 2 0 2 0 2 1 1 1 0 2-1 2 0 1 0 0 1-1 2-2 1-2 1 4 1 3 0 7-1 8-1 0-1 1-1 1 0 1 1 0 2-11 3-10 1-75 1-91 0-17 0-15 1-15-14V72l2 12c0 6 1 12 1 12 0 1 6 1 7 0 0-1 0-2-1-3-1 0-1-1 0-1 0 0 0-1-1-2s-1-1 1-1c1 0 2 0 1 2 0 1 0 1 1 0s3-2 4-2 1 0-1-2c-3-2-3-3 0-2 1 0 2 1 2 2 0 0 1 1 2 1s1-1 1-2c-1-1-1-1 0-1 3 1 6-1 7-3 0-5 0-6 1-5 1 0 1 0 1-2-1-1 0-2 0-3 1 0 1 1 1 4 0 7 0 8 2 5 1-1 2-3 1-5 0-2 0-3 1-2 1 0 1 2 1 4 0 3 1 3 3 2h4c1 0 2 0 1-1 0-1 1-1 2 0h3l-3-2c-2-2-2-3-2-5 1-1 1-1 2 0 1 2 2 1 3-2v-3l2 3c1 2 3 3 3 3 1 0 1 1 1 2 0 3 1 3 4-1l2-2-3-4c-2-1-3-4-3-5s0-1 1 0 1 1 2 0l1-1c0 1 1 1 2 0 3-1 4-1 4 0zm-216 3c1 0 4 2 6 3l4 1-6 3c-4 2-7 3-10 3-4 0-5 0-5 14s-1 8-1-9V63h4c3 1 6 1 8 2zm16 12c1 3-14 9-19 8-2 0-3 0-4 2-2 4 1 7 6 7 1 0 4 0 5 1 3 2 4 4 2 4-1 0-2 1-3 2-2 1-4 1-9 1-7 0-8-1-3-5 1-2 2-4 1-4-1-2-1-7 0-8 1 0 1-1 1-2-1-1 1-2 2 0 0 1 6 1 10 0l3-1-3-1c-4-1-3-3 1-4 9-2 10-2 10 0zm3 33c0 1 0 1-1 1s-1 1-1 1c0 1 0 1 1 0 2-1 2-1 3 2 0 2 0 4-1 4s-1 1-1 2h-2c-1 0-1 0 0 1 3 3 1 11-2 11-1 0-1 0-1-1 1 0-1-3-3-6l-2-6s1 0 1 1c1 1 5 0 5-2 0-1 0-1-2 0-1 1-1 1-1 0 1-2 0-3-2-1 0 1-1 1-1 0-1-2 4-3 9-1 2 1 2 1 2 0s-1-2-3-2-5-3-3-3c3 0 0-2-3-2-4 0-8-2-8-3l4-2 4-2c0-2 8 7 8 8zm117 0c1 0 2 0 2 1 0 0-22 1-50 1s-50-1-50-1c0-1 3-1 6-1h92zm-67 98c2 1 4 3 4 5 1 2 2 4 3 3 0 0 1 0 1 1s0 1-1 1c0 0-1 1-2 3-3 9-15 11-19 3-3-6-2-12 3-15 2 0 3-1 2-1s-1 0 0-1c0-2 6-1 9 1zm178 4c2 1 3 2 3 2s2 2 5 3 5 2 5 2c-1 1-20-4-23-6-3-1-3-2-5-2-1 0-1-3 0-4 0-1 3 0 6 2 4 1 8 3 9 3zm-158 19c0 2 0 2 1 1s7 0 7 2c0 1 0 1 1 2v2c0 2 2 1 2 0s1-2 1-3c1 0 1 0 1 1s0 2 1 3 1 2 0 2l-1 1c0 1 1 1 2 0 0-1 1-1 1 0 0 0 1 1 2 1 2 1 3 5 1 5-1 1-1 1 0 2 1 0 1 1 1 2-1 0-2 0-2-1-1-1-2-1-3 0-1 0-2 0-2-1s0-1-1 0-1 1-2 0c0-1-1-1-2-1 0 1-1 0-2 0-1-2 0-4 2-3 1 1 1 1 1 0s0-1-1-1-1-1 0-2c0-1 0-1-1-1-1 1-2 0-2-1-1 0-1-1-2 0-1 0-1 1 0 2s1 3-1 3c-1 0-1-1 0-2 0-1 0-1-1 0-2 2-3 0 0-2 1-2 1-2-2-2-4 0-1-2 3-2 1 0 0-1-1-2-1 0-2-2-2-3s0-1-1 0c-2 1-3 0-2-3 0-2 4-1 4 1z" fill="#ccc"/></svg>