<svg version="1" xmlns="http://www.w3.org/2000/svg" width="600" height="400" viewBox="0 0 450.000000 300.000000"><path d="M443 18l2 2c1 1 1 1-1 1-2-1-2-1-2 1 1 2 0 3 0 3-1 0-1-1-1-2s-1-1-2-1c0 1-1 1-2 1v1c0 1 1 1 2 1 3 0 2 1-3 4-3 1-5 2-5 4 0 1 0 1 1-1 1-1 2-1 3-1 1 1-2 4-4 4-1-1-1-1-1 1 1 2 0 8-2 8 0 0-1 1 0 2 0 1 0 1-2 1-1-1-3 0-4 1s-3 2-3 1c0 0-4-1-9 0-1 0-2 1-2 2 0 2-1 2-5 2 0 0-1 0-1 1-1 1-1 1 0 1s1 0 1 1c-1 1-2 1-2 1-1 0-1 0-1-1 1-1 0-1 0 0-1 0-2 1-2 1 0 1 0 1-1 0s-16 8-16 10c0 1 0 1 2 0 0-1 1-1 2-1 0 1 0 2-1 3-2 1-3 1-3 0s-1-1-2-1-2 4-1 5 1 1 0 1c-2-1-6 7-5 8l1 1c-1 0-3 2-5 4-4 3-4 3-3 6 1 2 1 2-1 2-1 0-1 0 0 1 3 1 1 4-1 3-2 0-2 0 1 3 3 2 3 3 1 5 0 2-1 2-1 1s0-1-2 0c-1 2-1 2-2 1-2-2-3 0-1 2 1 2 1 2-2 1-4 0-5 0-2 3 2 3 1 4-1 4-2 1-3 0-3 0 0-1-1-1-2-1s-1 0 0 1l1 1c0 1-1 1-2 1-1-1-1-1 0 1 0 1 0 2-1 2s-1-1-1-1c0-1-1-1-2 0s-3 2-5 2h-2l3 1c2 1 3 1 4 0s6 0 5 2c0 1-1 1-2 0s-1-1-1 0c0 0-2 1-5 2-3 0-5 1-4 1 0 1 1 1 2 1 0-1 1 0 2 0 0 1-1 1-3 2-2 0-3 1-2 1 1 1 0 1-1 2l-2 2h3c2 0 5-1 6-2 4-1 5-1 3 0-1 1-1 2 0 2 1 1 1 1 0 2l-2 2c0 1-1 2-2 3s-1 1 0 2c2 2 1 4-1 2s-1-4 1-6c1-1 1-2 1-3-1 0-5 2-5 3 1 0 0 2-1 3s-1 1-1-1c0-1 0-1-1 0 0 1-1 1-3 0-2-2-3-2-3 0-1 1 0 1 1 1s3 1 5 1c1 1 3 2 3 1 1 0 1 0 1 1s1 2 1 2c1 1 0 1-1 0-2 0-3 0-3 1 1 0 0 1-1 1-1 1-1 1 2 2s4 3 1 4c-1 0-1 0 1 2 1 2 1 2 0 2-1-1-2 0-2 0 0 1-1 1-1 0-1-1-2-1-2 0l1 1c1 1 0 1-1 1-3 0-2 2 2 2 2 0 2 0 0 2-1 2-2 2-3-1-1-1-3-2-3-2-1 0 0 1 1 2 1 2 1 2 0 2h-3c-2 1-2 1 0 1s3 1 4 2 1 1-1 1c-4 0-5 0-5 1 1 0 0 1 0 1-1 1-1 1 0 1s3 1 4 2c1 2 1 2 0 2-1-1-2-1-2 0 1 1 0 1-1 0-1 0-1 0 1 2 1 1 3 2 4 1 0 0 1 1 2 1 1 2 0 3-2 1 0-1-1-1-1-1 0 1 2 3 4 5 4 4 5 5 0 3-2-2-2-2-2 0 1 2 1 2-3 0-1-1-4-2-6-2h-3l2 2c2 2 2 2 1 3s-1 1-1 0 0-2-1-2-1 1 0 1c0 1 0 1-1 1-1-1-2-1-3-1l1-1c0-1-1-1-2 0-4 0-4-2-1-4 2-1 2-1 1-1s-2-1-2-3c0-4-3 0-3 5 0 1 0 1-1 0-2-2-4-1-3 1 0 1 0 1-2 0-3-2-4-1-2 1 1 1 3 2 4 1 1 0 1 0 1 1-1 0-1 1 0 1 2 0 1 3-1 4s-3 0-7-2c-4-3-4-3-4-1 1 1 0 2-2 3-4 1-5 3-2 3 1 0 1 0 0 1s-8 0-12-2c-2 0-2 0 0 2 1 2 1 2-1 2-1 0-1 0 1 2 2 3 3 5 0 4-1 0-1 0 0 1s1 1 0 1-2-1-2-1c0-1 0-1-1 0s-1 1-1 0c1-2-1-3-2 0 0 1-1 1-3-1-1-2-3-3-4-2-1 0-1 0 1-2s2-4 0-2c-2 1-2 1-2 0s-1-1-5-1l-4 1 1-3c0-3 0-3-1-2-1 2-2 2-2 1 0 0-1-1-1 0-2 0-2 0-2-2 0-1-1-2-1-3-1 0-1 1-1 2 1 3 0 4-8 4-2 0-5 1-5 1-1 1-1 1-1 0-1-1-2-1-2-1-1 0-1 1 0 1 1 1 2 2 1 2-1 1-6 1-6 0-1-1-1-1-2 0 0 0-1 1-3 1-1 0-4 1-5 2-2 1-2 1-2-1s0-3 3-2c1 0 2 0 2-1l-1-1c-1 0-2 0-2-1s-1-2-1-2c-1-1-1-5-1-12v-10h-3c-2 1-3 0-3 0 1-1 2-1 3-1s2 0 3-1c0-1 0-1-2-1-1 1-2 0-2-1s-1-1-6-1c-4 0-5 0-5-1s0-1-1 0c-2 3-1 4 2 4 1 0 2 0 2 1 0 0 1 1 3 0 2 0 2 0 1 1s-1 1 0 1 1 1 1 4c0 4 0 4-2 3-1-1-2-3-2-4s0-2-1-2c0 1-1 2 0 3 0 1-3 3-4 1-1-1-1 0-1 3 0 5 0 5-3 5-2 1-3 2-3 2 0 1 0 1 3 0 5-2 4 5-1 8-2 1-12-1-11-3 1-1 8 0 10 1 2 2 1-1-1-4-1-1-2-2-3-1-4 1-3-2 2-4 2-1 4-2 3-2 0 0-4 1-7 2-4 2-8 3-8 2-1 0-2 0-2 1 0 0-2 1-4 1s-4-1-4-1c0-1 0-1-1 0-1 0-3 1-5 1-5 0-5-1 0-1 1-1 2-1 2-2 0 0 2-1 3-2 3-1 3-1 1-2-2 0-2 0 0-2 1-1 1-1-1 0-2 0-3 0-3-1 1 0 1-1 0-1s-1 1-1 1c1 2 0 2-1 2s-2 0-2-1c1-2-1-1-5 1-3 2-5 2-3 0 1-2 1-2-2-3-3 0-3 0-2-2 1 0 2-1 2-2 0-2-3-2-4-1s-2 1-3 0c-1 0-3-1-3-1-1 0-3-1-4-2-2-1-3-2-4-1-2 0-6-2-6-4 0-1-1-1-1-1-1 1-2 0-3-1-2-3-3-4-6-3-2 0-2 0-1-2 0-2 0-2-1-1s-1 1-1 0c0-2-1-2-2-2-2 1-4-1-2-2 1 0 1-1-1-1-2-1-3 0-3 2s0 2-2 1c-1-2-1-2 1-4 2-1 2-1 1-3-3-4-4-5-5-4 0 1-1 2-1 2-1 0-1-1-1-2 1 0 1-1 0 0-1 0-1 0-1-1s0-1-1 0c-1 0-1-1-1-2s0-1-1 0-5 2-5 1c0 0-1-1-3-1s-3 1-3 1-2 1-4 1c-3 0-4 0-4-1s-1-1-2 0-1 1-2 0c0 0-1-1-2 0-2 0-2 0-1-3 0-3 0-4-4-5-2-1-3-2-3 0 0 1-1 1-3 1h-3l3-1c1 0 2-1 1-1s-2-1-4-2c-1-1-1-1 0-1 1 1 2 1 2 0s-4-1-4 0c0 0-1 0-2-1-2-2-2-2 1-2h2l-2-2c-1-1-2-2-3-2 0 0-2-1-3-3-1-1-3-2-3-2-2 1-7-3-7-5 0-1-5-5-6-5s-1-1-1-2l-1-1c-1 0-2-1-3-1-1-1-3-2-5-2s-4-1-5-2c-5-5-13-8-14-6-1 1-2 1-3 1-2 0-2 2-2 98v99h450V163c0-77 0-138-1-139 0-1-1-1-2-1 0 1-1 1-1 0s0-1 1-1c2 0 1-2-1-4-2-1-3-1-3 0z" fill="#ccc"/></svg>